<?xml version="1.0" encoding="UTF-8" standalone="no"?>
<!-- Created with Inkscape (http://www.inkscape.org/) -->

<svg
   xmlns:dc="http://purl.org/dc/elements/1.1/"
   xmlns:cc="http://creativecommons.org/ns#"
   xmlns:rdf="http://www.w3.org/1999/02/22-rdf-syntax-ns#"
   xmlns:svg="http://www.w3.org/2000/svg"
   xmlns="http://www.w3.org/2000/svg"
   xmlns:sodipodi="http://sodipodi.sourceforge.net/DTD/sodipodi-0.dtd"
   xmlns:inkscape="http://www.inkscape.org/namespaces/inkscape"
   width="335.12448mm"
   height="67.544579mm"
   viewBox="0 0 335.12448 67.544579"
   version="1.1"
   id="svg873"
   inkscape:version="0.92.4 (5da689c313, 2019-01-14)"
   sodipodi:docname="aganbeyword.svg">
  <defs
     id="defs867" />
  <sodipodi:namedview
     id="base"
     pagecolor="#ffffff"
     bordercolor="#666666"
     borderopacity="1.0"
     inkscape:pageopacity="0.0"
     inkscape:pageshadow="2"
     inkscape:zoom="0.35"
     inkscape:cx="513.30605"
     inkscape:cy="90.50046"
     inkscape:document-units="mm"
     inkscape:current-layer="layer1"
     showgrid="false"
     fit-margin-top="0"
     fit-margin-left="0"
     fit-margin-right="0"
     fit-margin-bottom="0"
     inkscape:window-width="1366"
     inkscape:window-height="705"
     inkscape:window-x="-8"
     inkscape:window-y="-8"
     inkscape:window-maximized="1" />
  <metadata
     id="metadata870">
    <rdf:RDF>
      <cc:Work
         rdf:about="">
        <dc:format>image/svg+xml</dc:format>
        <dc:type
           rdf:resource="http://purl.org/dc/dcmitype/StillImage" />
        <dc:title></dc:title>
      </cc:Work>
    </rdf:RDF>
  </metadata>
  <g
     inkscape:label="Layer 1"
     inkscape:groupmode="layer"
     id="layer1"
     transform="translate(43.208058,-105.23367)">
    <path
       style="stroke-width:0.03527778"
       inkscape:connector-curvature="0"
       d="m 25.603239,105.4372 c -1.07524,0.39156 -1.62739,1.00066 -1.91799,2.11733 -0.71199,2.68293 2.48467,4.29268 9.1686,4.56823 3.99582,0.17403 7.87541,-0.34805 9.77888,-1.30521 1.61285,-0.82663 2.45561,-2.03032 2.31032,-3.32103 -0.2325,-2.05932 -1.35133,-2.46538 -4.85312,-1.75477 -1.85988,0.39156 -2.26673,0.42057 -5.07107,0.42057 -2.92058,-0.0145 -3.13854,-0.029 -5.05654,-0.47858 -2.16501,-0.50758 -3.4582,-0.5801 -4.35908,-0.24654 z"
       id="path10" />
    <path
       style="stroke-width:0.03527778"
       inkscape:connector-curvature="0"
       d="m -20.065421,115.5743 c -0.49403,0.21754 -1.38037,1.1892 -1.70004,1.88531 -0.13077,0.24653 -4.21378,10.03559 -9.08142,21.76796 -4.88217,11.71786 -9.27031,22.23203 -9.76434,23.34871 -2.0633,4.61173 -2.6881,6.52603 -2.58639,7.99077 0.0726,1.07317 0.42138,1.55175 1.29319,1.81278 0.78464,0.24655 1.49662,-0.0435 2.42656,-0.98615 0.98806,-1.01516 1.56927,-2.23336 4.91123,-10.29664 l 2.60092,-6.27949 h 11.47892 11.47891 l 1.94706,4.75675 c 2.78981,6.78708 3.80693,8.71589 5.50698,10.51417 1.35131005,1.40673 2.62998,2.00133 4.33002,2.01582 1.20601,0 1.83082,-0.26104 2.23767,-0.94265 0.55214,-0.88464 0.20342,-2.52339 -0.6684,-3.08898 -0.87182,-0.5801 -1.918,-1.78379 -2.70263,-3.1035 -1.99063995,-3.36453 -2.76076,-5.20633 -10.9413,-26.46671 -4.44626,-11.57284 -8.26773,-21.36189 -8.48568,-21.75346 -0.40685,-0.72511 -1.16242,-1.37771 -1.59834,-1.37771 -0.13076,0.0145 -0.4359,0.10152 -0.68292,0.20302 z m 4.72234,21.84048 4.19925,11.23929 -4.47532,0.0435 c -2.47015,0.0146 -6.53862,0.0146 -9.06689,0 l -4.57704,-0.0435 4.7514,-11.50033 c 3.45821,-8.39683 4.78046,-11.44232 4.85311,-11.23928 0.0726,0.14501 2.00518,5.32234 4.31549,11.50032 z"
       id="path12" />
    <path
       style="stroke-width:0.03527778"
       inkscape:connector-curvature="0"
       d="m 31.676899,115.5453 c -5.94289,0.66711 -11.5661,3.33554 -15.6927,7.45419 -3.51633,3.50956 -5.92835,7.84574 -7.25061,12.99407 -2.38296,9.28147 -1.2496,18.3309 3.12401,24.91495 1.32226,1.98682 4.37361,4.98879 6.45144,6.38102 4.02489,2.68292 9.19767,4.51022 14.74823,5.22082 2.12142,0.27555 5.76852,0.34806 7.32326,0.15953 6.65486,-0.84113 10.62163,-4.84376 11.94388,-12.08042 0.17437,-0.98615 0.21796,-2.66842 0.20344,-9.20896 0,-5.49637 -0.0582,-8.1503 -0.17437,-8.48385 -0.24702,-0.73962 -0.66839,-1.2617 -1.27867,-1.56625 -0.55215,-0.27554 -0.88634,-0.29004 -8.6891,-0.29004 -7.00359,0 -8.22414,0.029 -8.90706,0.23203 -1.49662,0.43507 -2.17954,1.2617 -2.15048,2.62492 0.0145,1.21819 0.4795,2.05932 1.38038,2.5089 0.52309,0.27554 0.90087,0.29005 7.4395,0.29005 h 6.88734 l -0.0726,6.62755 c -0.0582,5.40936 -0.11624,6.83058 -0.30514,7.62821 -0.77009,3.27752 -2.92058,4.87278 -7.35231,5.48187 -1.90347,0.24654 -6.07366,0.21754 -7.70105,-0.0725 -6.94547,-1.2182 -12.71399,-5.5689 -15.77988,-11.9209 -2.6881,-5.58339 -3.09495,-12.84905 -1.0607,-19.05603 2.17953,-6.64206 7.45402,-12.15293 13.61486,-14.19775 1.74363,-0.5946 2.8334,-0.75413 5.47791,-0.84114 5.37621,-0.17403 8.5874,0.85563 11.60969,3.72709 1.68551,1.59526 2.2086,1.95781 3.19666,2.17534 1.4385,0.31906 3.34197,-0.72511 3.74881,-2.05932 0.37779,-1.2472 -0.69745,-3.01648 -2.74622,-4.56822 -4.11206,-3.089 -11.65328,-4.80027 -17.98848,-4.07515 z"
       id="path14" />
    <path
       style="stroke-width:0.03527778"
       inkscape:connector-curvature="0"
       d="m 80.193479,115.51629 c -0.46497,0.18853 -1.32225,1.08769 -1.64192,1.71128 -0.15982,0.30455 -4.2719,10.13711 -9.13954,21.85497 -4.88217,11.73236 -9.03783,21.70995 -9.25578,22.18853 -2.04877,4.52472 -3.00777,7.14964 -3.19666,8.64337 -0.23248,1.8708 1.11882,3.07449 2.62998,2.36389 0.69744,-0.33357 1.80175,-1.59526 2.41202,-2.75545 0.29061,-0.55109 1.68551,-3.7706 3.09495,-7.16413 1.40944,-3.39355 2.70264,-6.46803 2.86245,-6.8596 l 0.30515,-0.6816 11.46438,0.0289 11.47893,0.0435 2.06329,5.0033 c 2.26672,5.49637 2.78982,6.58404 3.95224,8.38232 1.71457,2.62492 3.472731,3.79961 5.724921,3.82861 1.70005,0.0146 2.52827,-0.6236 2.52827,-1.98681 0.0145,-1.04417 -0.37779,-1.72577 -1.35131,-2.36388 -1.06071,-0.7106 -2.07784,-2.20435 -3.836,-5.6849 -1.191471,-2.33487 -2.412021,-5.40936 -9.560911,-23.98681 -7.57028,-19.67963 -8.23867,-21.3619 -8.7763,-21.94199 -0.61027,-0.65261 -1.19148,-0.87014 -1.75816,-0.6236 z m 4.56251,21.65195 c 2.33938,6.23599 4.24284,11.39882 4.24284,11.45682 0,0.0581 -4.05394,0.10151 -9.02331,0.10151 -8.52927,0 -9.02329,-0.0146 -8.93611,-0.26103 0.43591,-1.17469 9.32844,-22.6526 9.38656,-22.6526 0.0436,0 1.99064,5.1048 4.33002,11.3553 z"
       id="path16" />
    <path
       style="stroke-width:0.03527778"
       inkscape:connector-curvature="0"
       d="m 145.07117,115.80634 c -0.68293,0.20304 -1.13336,0.5946 -1.45304,1.26171 l -0.31966,0.6671 0.0291,21.11536 c 0.0145,12.5735 -0.0145,21.05734 -0.10172,20.97033 -0.0726,-0.087 -6.16083,-9.4845 -13.54222,-20.88332 -7.38137,-11.41331 -13.62939,-21.04285 -13.89092,-21.4054 -0.58122,-0.79763 -1.39492,-1.36322 -2.28127,-1.59525 -0.56668,-0.13053 -0.74104,-0.11602 -1.30772,0.13052 -0.42138,0.18853 -0.79916,0.49307 -1.03164,0.85563 -0.84277,1.27621 -0.8137,0.33356 -0.78464,28.06196 l 0.0435,25.42254 0.31966,0.58009 c 0.43591,0.82663 1.04617,1.14568 2.17953,1.11668 1.06071,-0.0145 1.83082,-0.33355 2.28126,-0.94265 0.30514,-0.40606 0.30514,-0.47857 0.37779,-21.23137 l 0.0726,-20.81082 14.07984,21.47792 c 7.7301,11.81938 14.21061,21.56493 14.38498,21.65195 0.15983,0.10151 0.7701,0.17402 1.33678,0.17402 0.90087,0.0146 1.11883,-0.0435 1.74364,-0.42057 0.81368,-0.50757 1.42395,-1.52274 1.65644,-2.81345 0.20342,-1.07317 0.20342,-50.65654 0,-51.36715 -0.46496,-1.65327 -2.12142,-2.52341 -3.7924,-2.01583 z"
       id="path18" />
    <path
       style="stroke-width:0.03527778"
       inkscape:connector-curvature="0"
       d="m 157.29112,115.96587 c -0.97352,0.18853 -2.12142,0.81213 -2.61544,1.40672 -0.92994,1.11668 -0.87182,-0.49307 -0.87182,27.0758 0,28.11997 -0.0726,26.17666 1.03165,27.22083 0.39232,0.37706 0.7701,0.5801 1.32226,0.69612 0.56668,0.11601 4.08301,0.15952 12.90287,0.11601 11.94389,-0.0435 12.16184,-0.058 13.70206,-0.37706 6.66939,-1.40672 10.94129,-4.87277 12.64133,-10.26763 0.71199,-2.23335 0.88635,-3.52406 0.88635,-6.58404 0,-3.01649 -0.13077,-3.91562 -0.88635,-6.3085 -1.27865,-4.03165 -4.15565,-7.32367 -7.93353,-9.04944 -0.65386,-0.30456 -1.30773,-0.5946 -1.45303,-0.63811 -0.21795,-0.087 -0.1017,-0.24654 0.69747,-0.98616 1.7291,-1.62426 3.13853,-4.11865 3.7924,-6.68556 0.13076,-0.52208 0.26154,-1.8853 0.30513,-3.1615 0.0726,-1.98682 0.0436,-2.40738 -0.23248,-3.48055 -0.49404,-1.97232 -1.04618,-2.94397 -2.47015,-4.3507 -0.97353,-0.97165 -1.54021,-1.39221 -2.55733,-1.9143 -3.15307,-1.60975 -7.23608,-2.43639 -13.51315,-2.72644 -3.71976,-0.17402 -13.84736,-0.15952 -14.74824,0.0146 z m 18.45346,5.07581 c 5.5215,0.56558 8.70363,2.81344 9.50279,6.68556 0.61027,2.92946 0.0436,5.53988 -1.5402,7.12064 -0.8573,0.85563 -2.44109,1.62425 -3.74882,1.84178 -0.5812,0.087 -4.72234,0.14502 -10.70881,0.14502 h -9.77887 v -8.06328 -8.07778 l 7.38138,0.10152 c 4.05394,0.0581 8.04977,0.17402 8.89253,0.24654 z m 2.68809,21.94198 c 6.91642,1.14569 10.9849,4.17667 12.51057,9.32499 0.52309,1.74027 0.65386,4.82927 0.29062,6.48253 -0.78464,3.50955 -3.29838,5.87343 -7.43952,7.00461 l -1.43849,0.40606 -11.36268,0.0435 -11.37721,0.0435 v -11.83388 -11.84839 l 8.68911,0.0725 c 7.19249,0.0435 8.92159,0.10152 10.1276,0.30454 z"
       id="path20" />
    <path
       style="stroke-width:0.03527778"
       inkscape:connector-curvature="0"
       d="m 289.5457,116.02388 c -0.27608,0.11601 -0.75558,0.42057 -1.07525,0.66711 -0.34872,0.27554 -3.41461,4.36519 -7.84635,10.45616 -3.99583,5.49637 -7.32326,9.97758 -7.3959,9.94858 -0.0582,-0.029 -3.90866,-4.61173 -8.55833,-10.19512 -4.63517,-5.5834 -8.63099,-10.26763 -8.86349,-10.42716 -0.88634,-0.53658 -2.13594,-0.18853 -2.96417,0.84113 -0.39232,0.47858 -0.45043,0.65261 -0.45043,1.46474 0,0.73962 0.0726,1.01516 0.34872,1.40672 0.20342,0.26104 4.14113,5.22083 8.74723,11.00725 l 8.39849,10.54318 0.0582,13.74818 c 0.0726,14.41529 0.0872,14.87937 0.7265,16.14106 0.45045,0.89915 1.06072,1.2037 2.26673,1.14569 0.85729,-0.0581 0.95899,-0.10152 1.46756,-0.6526 1.13336,-1.2037 1.07524,-0.39157 1.16243,-16.50363 l 0.0726,-14.35728 7.75918,-10.80422 c 4.25736,-5.94594 7.91899,-11.16677 8.13695,-11.60184 0.52309,-1.13118 0.50856,-1.8998 -0.0582,-2.46539 -0.53761,-0.53658 -1.26413,-0.6671 -1.93252,-0.36256 z"
       id="path22" />
    <path
       style="stroke-width:0.03527778"
       inkscape:connector-curvature="0"
       d="m 221.95086,116.22692 c -16.57906,0.087 -17.68335,0.1015 -18.23551,0.34805 -0.8137,0.36255 -1.59834,1.17468 -1.99065,2.04482 l -0.33419,0.73962 -0.0436,24.5669 c -0.0291,21.84047 -0.0145,24.66842 0.18889,25.45154 0.42138,1.63877 1.33679,2.55242 2.93511,2.92947 1.10431,0.26104 38.35993,0.30455 39.59501,0.0435 1.64192,-0.33356 2.57185,-1.29071 2.58638,-2.61042 0,-1.16018 -1.27865,-2.14635 -3.19665,-2.45089 -0.61028,-0.087 -7.29419,-0.14502 -18.70047,-0.14502 h -17.77052 v -11.09427 -11.09426 h 11.20284 11.20284 l 1.49662,-1.39222 c 0.87182,-0.81213 1.54021,-1.53725 1.59832,-1.75478 0.13078,-0.52208 -0.31966,-1.08767 -1.03164,-1.30521 -0.40685,-0.11602 -3.82146,-0.17403 -12.58322,-0.17403 l -12.03106,-0.0146 v -9.86155 -9.86157 l 18.78764,-0.029 18.77312,-0.0435 0.69745,-0.34806 c 0.87182,-0.42056 1.26414,-1.01515 1.26414,-1.9288 0,-0.88464 -0.50856,-1.42123 -1.70005,-1.76928 -1.11883,-0.33356 -1.58381,-0.34806 -22.71082,-0.24655 z"
       id="path24" />
  </g>
</svg>
