<?xml version="1.0" encoding="UTF-8" standalone="no"?>
<!-- Created with Inkscape (http://www.inkscape.org/) -->

<svg
   xmlns:dc="http://purl.org/dc/elements/1.1/"
   xmlns:cc="http://creativecommons.org/ns#"
   xmlns:rdf="http://www.w3.org/1999/02/22-rdf-syntax-ns#"
   xmlns:svg="http://www.w3.org/2000/svg"
   xmlns="http://www.w3.org/2000/svg"
   xmlns:sodipodi="http://sodipodi.sourceforge.net/DTD/sodipodi-0.dtd"
   xmlns:inkscape="http://www.inkscape.org/namespaces/inkscape"
   width="51.933933mm"
   height="48.947956mm"
   viewBox="0 0 51.933933 48.947957"
   version="1.1"
   id="svg4635"
   inkscape:version="0.92.4 (5da689c313, 2019-01-14)"
   sodipodi:docname="youtube.svg">
  <defs
     id="defs4629" />
  <sodipodi:namedview
     id="base"
     pagecolor="#ffffff"
     bordercolor="#666666"
     borderopacity="1.0"
     inkscape:pageopacity="0.0"
     inkscape:pageshadow="2"
     inkscape:zoom="0.35"
     inkscape:cx="-383.28571"
     inkscape:cy="-376.07123"
     inkscape:document-units="mm"
     inkscape:current-layer="layer1"
     showgrid="false"
     fit-margin-top="0"
     fit-margin-left="0"
     fit-margin-right="0"
     fit-margin-bottom="0"
     inkscape:window-width="1366"
     inkscape:window-height="705"
     inkscape:window-x="-8"
     inkscape:window-y="-8"
     inkscape:window-maximized="1" />
  <metadata
     id="metadata4632">
    <rdf:RDF>
      <cc:Work
         rdf:about="">
        <dc:format>image/svg+xml</dc:format>
        <dc:type
           rdf:resource="http://purl.org/dc/dcmitype/StillImage" />
        <dc:title></dc:title>
      </cc:Work>
    </rdf:RDF>
  </metadata>
  <g
     inkscape:label="Layer 1"
     inkscape:groupmode="layer"
     id="layer1"
     transform="translate(-0.86934497,-0.38319816)">
    <path
       inkscape:connector-curvature="0"
       style="fill:#ffffff;stroke-width:0.26458329"
       d="m 12.496659,35.659106 0.03917,-7.931935 1.78735,-0.01554 1.785481,-0.01851 -0.02052,-1.221734 -0.02239,-1.223286 -5.158473,-0.01702 -5.1547332,-0.01702 v 1.240381 1.238835 l 1.744391,0.01851 1.7443908,0.01554 0.02052,7.866653 c 0.00946,4.3258 0.035509,7.903955 0.056031,7.949036 0.028016,0.06365 0.3903406,0.07925 1.5875074,0.06513 l 1.552023,-0.01702 z m 29.753654,-0.558031 c -0.07281,-0.15858 0.02801,-1.991144 0.125147,-2.256943 0.225987,-0.624851 0.705977,-0.929509 1.462376,-0.929509 0.629399,0 1.02908,0.202094 1.298022,0.655934 0.169965,0.287561 0.186774,0.410327 0.212907,1.473538 L 45.3749,35.2021 h -1.540814 c -1.32417,0 -1.544554,-0.01405 -1.583774,-0.10101 z m 2.876192,8.545909 c 1.509069,-0.352829 2.553088,-1.210846 2.947163,-2.421703 0.06541,-0.206753 0.141946,-0.795835 0.168102,-1.307225 l 0.04479,-0.929508 h -1.452997 -1.454909 l -0.03551,0.83314 c -0.04113,0.94661 -0.15875,1.271474 -0.573369,1.574578 -0.440768,0.321749 -1.25133,0.345059 -1.778008,0.04959 -0.627533,-0.352831 -0.782546,-0.948165 -0.750801,-2.881798 l 0.02239,-1.370953 3.008798,-0.01554 3.008795,-0.0185 -0.03916,-2.039333 c -0.04853,-2.27562 -0.104577,-2.620688 -0.564019,-3.428956 -0.875932,-1.531051 -3.302019,-2.303569 -5.31722,-1.692702 -1.520276,0.461608 -2.41862,1.29323 -2.779076,2.580246 -0.126999,0.45384 -0.141945,0.861118 -0.141945,4.190576 0,4.083318 0.01677,4.249641 0.517337,5.085888 0.894607,1.487532 3.133931,2.264713 5.169675,1.792187 z M 33.212717,41.321652 c 0.184884,-0.104113 0.306295,-0.248714 0.401547,-0.474043 0.121409,-0.296885 0.132605,-0.674579 0.115785,-4.17658 -0.01677,-3.649661 -0.02615,-3.864163 -0.168101,-4.103536 -0.36419,-0.610867 -1.281211,-0.669919 -2.121657,-0.135276 l -0.276415,0.174122 v 4.162594 4.162604 l 0.274549,0.17412 c 0.621931,0.394787 1.303623,0.477149 1.774274,0.21608 z m 1.820967,2.350205 c 0.457577,-0.110394 1.010401,-0.562693 1.258802,-1.024332 0.478114,-0.88443 0.479989,-0.906192 0.479989,-5.878609 0,-4.081774 -0.0149,-4.585386 -0.136341,-5.02683 -0.394079,-1.412919 -1.253199,-2.030001 -2.698766,-1.939848 -0.808696,0.05254 -1.445566,0.320198 -2.209438,0.934172 -0.332447,0.265806 -0.6294,0.484993 -0.663018,0.484993 -0.02989,0 -0.0579,-1.352299 -0.0579,-3.003036 v -3.003038 h -1.411939 -1.411947 v 9.203411 9.204958 h 1.411947 1.411953 v -0.620191 c 0,-0.411882 0.02989,-0.620191 0.08779,-0.620191 0.04666,0 0.364191,0.217633 0.705977,0.484993 1.098183,0.859572 2.048823,1.095831 3.232916,0.803614 z m -15.029043,-0.06068 c 0.564035,-0.174122 1.227052,-0.556477 1.78548,-1.028987 0.255867,-0.217634 0.511742,-0.394789 0.567773,-0.394789 0.07467,0 0.100845,0.177155 0.100845,0.718092 v 0.718092 h 1.411947 1.411951 V 36.80157 29.981007 h -1.411951 -1.411947 v 5.261533 5.263089 l -0.608861,0.502087 c -0.481854,0.399449 -0.683564,0.520735 -0.982388,0.589109 -0.504267,0.11655 -0.825507,0.03552 -1.032816,-0.261144 -0.156884,-0.220741 -0.160615,-0.323303 -0.183045,-5.790018 l -0.02052,-5.564634 H 18.21915 16.810934 v 5.90815 c 0,6.43664 0.0075,6.576527 0.440769,7.196718 0.474388,0.677688 1.583773,0.890652 2.752927,0.525397 z m 1.199037,5.692085 c -1.834039,-0.02664 -4.004258,-0.06808 -4.82416,-0.09324 C 10.87553,49.0453 7.0972586,48.869624 6.3427253,48.742124 5.2669553,48.561861 4.0641823,47.95562 3.3656785,47.24216 2.2488188,46.099701 1.6511684,44.713208 1.3616819,42.57906 0.69119722,37.617521 0.70613277,31.830612 1.4028123,27.043157 1.7091069,24.944764 2.4692434,23.429253 3.7448535,22.372287 4.4732427,21.767636 5.173612,21.431893 6.1055724,21.23293 8.1263799,20.802401 23.93797,20.460412 33.556408,20.637604 c 5.55628,0.102562 11.558933,0.317089 13.153913,0.467899 2.063763,0.195877 3.513066,1.084946 4.515996,2.771432 0.75827,1.273031 0.999196,2.264713 1.307361,5.320601 0.240931,2.418596 0.300691,3.926337 0.255867,6.719533 -0.05042,3.341888 -0.306295,6.285858 -0.689169,7.938151 -0.403408,1.747115 -1.355913,3.236194 -2.590437,4.042915 -0.950637,0.623299 -1.964774,0.90153 -3.561621,0.976145 -0.474387,0.02294 -1.073904,0.05401 -1.333509,0.07178 -0.918889,0.05919 -5.845769,0.223849 -8.54827,0.287563 -4.015464,0.09324 -11.041591,0.125954 -14.862819,0.07031 z m -4.955106,-30.31847 c -0.06727,-0.09169 -0.05604,-5.462043 0.01103,-6.22213 0.08779,-0.974588 -0.110199,-1.742446 -0.950639,-3.7040559 -0.272668,-0.6357273 -0.765728,-1.8698993 -1.09444,-2.7403425 -2.377527,-6.29363497 -2.252395,-5.92525123 -2.02454,-5.92680523 1.566965,-0.0110857 3.499988,-0.003191 3.522401,0.01554 0.0149,0.0126034 0.522948,1.54814613 1.129934,3.41494803 0.608852,1.8652411 1.11499,3.4180494 1.128064,3.4522512 0.01103,0.03108 0.367929,-1.055419 0.791888,-2.4154939 0.88714,-2.8538173 1.385801,-4.42838708 1.404479,-4.44238134 0.03917,-0.03108 0.479989,-0.0369945 1.923684,-0.03108 l 1.596849,0.00817 -0.03551,0.21296988 C 23.623752,0.7789483 22.533038,3.825474 21.391901,6.9202194 21.268624,7.2621712 20.949268,8.1435063 20.685924,8.8802751 20.42258,9.6154623 20.105079,10.48905 19.978083,10.821685 l -0.229718,0.606205 v 3.780216 c 0,3.545514 -0.0095,3.783334 -0.136341,3.811313 -0.28762,0.06513 -3.313226,0.03405 -3.363652,-0.03404 z M 36.886188,19.21175 C 36.098039,19.124729 35.636726,18.871352 35.321092,18.35064 34.92515,17.697815 34.92515,17.700923 34.92515,11.195885 V 5.1260828 h 1.591245 1.589375 l 0.03365,5.5957152 c 0.03551,6.07758 0.02613,5.936131 0.463181,6.027837 0.401546,0.08237 0.846043,-0.09634 1.398875,-0.5658 l 0.530416,-0.449177 0.02052,-5.305054 0.01866,-5.303499 1.589377,-0.018504 1.589377,-0.01554 v 6.946476 6.94802 l -0.216663,0.037 c -0.259606,0.04514 -2.668883,0.04218 -2.863119,-0.0048 -0.117662,-0.02664 -0.136341,-0.11655 -0.136341,-0.660595 v -0.631068 l -0.451973,0.366817 c -1.038421,0.840915 -2.159013,1.232617 -3.195566,1.117592 z m -8.008515,-2.6533 c 0.545352,-0.345064 0.549091,-0.37459 0.577106,-4.280731 C 29.479048,9.2420402 29.465805,8.7259892 29.3558,8.3125311 29.206394,7.7529497 28.944914,7.48872 28.433181,7.3721408 27.772028,7.2259916 27.166909,7.5399714 26.953994,8.1415519 26.793379,8.6047892 26.795245,15.4906 26.957872,15.9538 c 0.123277,0.348168 0.517346,0.72897 0.808697,0.781849 0.379134,0.0666 0.844179,-0.0081 1.113123,-0.177227 z m -1.245727,2.650198 c -1.423156,-0.14304 -2.730517,-0.839361 -3.359918,-1.790635 -0.640604,-0.968366 -0.700373,-1.475092 -0.663017,-5.740273 0.02989,-3.3030307 0.04114,-3.5097638 0.197964,-3.9838417 0.375396,-1.1269182 1.101919,-1.8947823 2.228114,-2.359536 1.546422,-0.6357312 3.214241,-0.5533693 4.672881,0.2331719 0.930093,0.4989792 1.494126,1.2232869 1.796689,2.3004619 0.132604,0.4756693 0.145668,0.8409172 0.145668,4.1765889 0,4.056895 -0.02239,4.291607 -0.52295,5.169827 -0.47999,0.847124 -1.566965,1.593226 -2.700631,1.85591 -0.500537,0.113435 -1.368993,0.18189 -1.794821,0.138378 z"
       id="path409" />
  </g>
</svg>
