<?xml version="1.0" encoding="UTF-8" standalone="no"?>
<svg
   xmlns:dc="http://purl.org/dc/elements/1.1/"
   xmlns:cc="http://creativecommons.org/ns#"
   xmlns:rdf="http://www.w3.org/1999/02/22-rdf-syntax-ns#"
   xmlns:svg="http://www.w3.org/2000/svg"
   xmlns="http://www.w3.org/2000/svg"
   xmlns:sodipodi="http://sodipodi.sourceforge.net/DTD/sodipodi-0.dtd"
   xmlns:inkscape="http://www.inkscape.org/namespaces/inkscape"
   id="svg"
   version="1.1"
   width="340.81738"
   height="150.63795"
   viewBox="0 0 340.81738 150.63795"
   sodipodi:docname="hikayemis.svg"
   inkscape:version="0.92.4 (5da689c313, 2019-01-14)">
  <metadata
     id="metadata13">
    <rdf:RDF>
      <cc:Work
         rdf:about="">
        <dc:format>image/svg+xml</dc:format>
        <dc:type
           rdf:resource="http://purl.org/dc/dcmitype/StillImage" />
        <dc:title></dc:title>
      </cc:Work>
    </rdf:RDF>
  </metadata>
  <defs
     id="defs11" />
  <sodipodi:namedview
     pagecolor="#ffffff"
     bordercolor="#666666"
     borderopacity="1"
     objecttolerance="10"
     gridtolerance="10"
     guidetolerance="10"
     inkscape:pageopacity="0"
     inkscape:pageshadow="2"
     inkscape:window-width="1366"
     inkscape:window-height="705"
     id="namedview9"
     showgrid="false"
     fit-margin-top="0"
     fit-margin-left="0"
     fit-margin-right="0"
     fit-margin-bottom="0"
     inkscape:zoom="2.0081833"
     inkscape:cx="152.93969"
     inkscape:cy="22.479733"
     inkscape:window-x="-8"
     inkscape:window-y="-8"
     inkscape:window-maximized="1"
     inkscape:current-layer="g871" />
  <g
     id="g845"
     transform="translate(-29.881865,35.629395)">
    <g
       id="g858">
      <g
         id="g871">
        <g
           id="svgg">
          <path
             d="M 0,63.5 V 127 H 200 400 V 63.5 0 H 200 0 V 63.5 M 102.523,18.99 c 1.209,0.735 1.132,-0.745 1.138,21.88 0.006,21.414 -0.013,20.887 0.715,19.653 0.152,-0.256 0.561,-0.774 0.908,-1.149 0.348,-0.376 0.981,-1.12 1.407,-1.654 0.426,-0.533 1.044,-1.257 1.375,-1.607 0.33,-0.35 0.601,-0.688 0.602,-0.75 10e-4,-0.062 0.246,-0.376 0.545,-0.696 0.299,-0.321 0.803,-0.921 1.121,-1.334 0.318,-0.412 0.654,-0.833 0.747,-0.935 0.513,-0.561 1.241,-1.408 1.775,-2.067 0.334,-0.411 0.746,-0.91 0.917,-1.108 0.171,-0.198 0.573,-0.682 0.894,-1.076 0.32,-0.394 0.864,-1.043 1.208,-1.442 0.344,-0.399 0.625,-0.79 0.625,-0.869 0,-0.078 0.303,-0.449 0.673,-0.823 1.913,-1.932 5.629,0.543 4.534,3.019 -0.376,0.85 -0.478,0.981 -2.624,3.389 -2.976,3.341 -4.08,4.568 -4.474,4.978 l -0.475,0.492 0.361,0.596 c 0.198,0.328 0.401,0.728 0.452,0.888 0.05,0.16 0.158,0.292 0.239,0.292 0.081,0 0.147,0.14 0.147,0.313 0,0.172 0.113,0.406 0.25,0.52 0.138,0.114 0.25,0.311 0.25,0.437 0,0.126 0.057,0.23 0.125,0.231 0.069,10e-4 0.205,0.169 0.302,0.375 0.305,0.646 1.274,2.355 1.597,2.816 0.17,0.243 0.31,0.515 0.31,0.605 0,0.089 0.112,0.255 0.25,0.369 0.137,0.114 0.25,0.349 0.25,0.521 0,0.172 0.066,0.313 0.147,0.313 0.081,0 0.193,0.131 0.249,0.291 0.057,0.161 0.404,0.817 0.772,1.459 0.368,0.641 0.717,1.279 0.776,1.416 0.058,0.138 0.199,0.363 0.312,0.5 0.114,0.138 0.407,0.625 0.653,1.084 0.246,0.458 0.579,1.058 0.741,1.333 0.162,0.275 0.543,0.95 0.846,1.5 0.303,0.55 0.69,1.199 0.861,1.442 0.17,0.244 0.309,0.556 0.309,0.695 0,0.138 0.064,0.277 0.142,0.307 0.078,0.031 0.39,0.506 0.694,1.056 1.068,1.933 1.201,2.168 1.327,2.333 0.069,0.092 0.374,0.617 0.676,1.167 0.302,0.55 0.7,1.262 0.884,1.583 0.183,0.321 0.506,0.884 0.717,1.25 0.797,1.389 0.925,1.804 0.837,2.708 -0.154,1.575 -0.975,2.319 -2.726,2.469 -1.789,0.153 -2.539,-0.456 -3.961,-3.218 -0.272,-0.527 -0.534,-0.996 -0.583,-1.042 -0.05,-0.046 -0.284,-0.458 -0.521,-0.917 -0.855,-1.651 -1.404,-2.668 -1.486,-2.75 -0.046,-0.046 -0.253,-0.421 -0.46,-0.833 -0.207,-0.413 -0.676,-1.275 -1.043,-1.917 -0.366,-0.641 -0.819,-1.466 -1.007,-1.833 -0.187,-0.367 -0.548,-1.042 -0.801,-1.5 -0.582,-1.051 -1.477,-2.657 -1.904,-3.417 -0.18,-0.321 -0.608,-1.108 -0.951,-1.75 -0.343,-0.641 -0.771,-1.429 -0.952,-1.75 -0.464,-0.826 -1.228,-2.224 -1.959,-3.583 -0.345,-0.642 -0.694,-1.238 -0.775,-1.325 -0.081,-0.087 -0.148,-0.293 -0.148,-0.458 0,-0.165 -0.071,-0.3 -0.158,-0.3 -0.146,0 -2.927,3.249 -3.533,4.128 -0.144,0.208 -0.535,0.674 -0.869,1.035 -0.333,0.36 -0.606,0.727 -0.606,0.816 0,0.088 -0.057,0.185 -0.127,0.215 -0.069,0.031 -0.388,0.39 -0.708,0.799 l -0.582,0.743 -0.083,8.66 c -0.065,6.719 -0.13,8.675 -0.292,8.729 -0.115,0.038 -0.208,0.174 -0.208,0.303 0,0.922 -2.975,1.443 -4.272,0.748 -1.353,-0.725 -1.228,2.744 -1.228,-34.25 0,-36.225 -0.07,-33.767 0.958,-34.032 C 98.831,19.007 99,18.897 99,18.815 c 0,-0.315 2.959,-0.169 3.523,0.175 m -68.326,3.552 c 2.077,0.625 2.008,0.101 2.081,15.583 l 0.061,13.042 H 52.17 68 V 37.843 c 0,-8.702 0.058,-13.359 0.167,-13.426 0.091,-0.057 0.166,-0.244 0.166,-0.416 0,-1.096 2.354,-1.987 3.834,-1.452 0.98,0.354 1.24,0.56 1.627,1.285 l 0.373,0.698 -0.004,30.525 c -0.004,34.266 0.101,31.443 -1.205,32.251 -1.202,0.743 -3.546,0.441 -4.291,-0.552 -0.556,-0.741 -0.579,-1.292 -0.664,-15.423 l -0.086,-14.25 h -15.75 -15.75 l -0.093,14 c -0.091,13.899 -0.116,14.538 -0.605,15.5 -0.912,1.798 -4.812,1.411 -5.57,-0.552 -0.086,-0.222 -0.148,-13.394 -0.146,-31 l 0.002,-30.614 0.373,-0.641 c 0.681,-1.172 2.294,-1.693 3.819,-1.234 m 53.958,2.952 c 0.756,0.386 1.819,1.569 1.947,2.168 0.05,0.232 0.168,0.583 0.263,0.78 0.54,1.118 -1.241,4.225 -2.423,4.225 -0.14,0 -0.302,0.075 -0.359,0.166 -0.621,1.006 -3.92,-0.486 -4.697,-2.124 -0.335,-0.706 -0.388,-3.07 -0.07,-3.175 C 82.917,27.5 83,27.344 83,27.187 c 0,-1.405 3.48,-2.547 5.155,-1.693 m 245.477,-0.009 c 2.605,1.343 3.062,4.623 0.907,6.519 -0.414,0.365 -0.888,0.663 -1.053,0.663 -0.165,0 -0.346,0.075 -0.403,0.166 -0.419,0.679 -3.009,-0.091 -4.002,-1.191 -2.802,-3.101 0.862,-8.057 4.551,-6.157 M 155.583,44.248 c 3.737,0.473 6.806,1.542 8.417,2.931 1.473,1.269 2.451,2.352 2.684,2.97 0.056,0.147 0.136,-0.707 0.18,-1.899 0.115,-3.158 0.698,-3.917 3.01,-3.917 1.446,0 2.297,0.34 2.693,1.076 0.404,0.75 0.419,40.313 0.015,41.093 -0.833,1.612 -4.192,1.619 -5.248,0.011 -0.324,-0.494 -0.387,-0.86 -0.462,-2.707 l -0.086,-2.135 -0.996,1.086 c -1.719,1.876 -4.38,3.619 -6.457,4.228 -0.412,0.121 -0.975,0.294 -1.25,0.384 -1.564,0.513 -6.451,0.704 -8.666,0.34 -1.703,-0.28 -2.917,-0.589 -2.917,-0.742 0,-0.073 -0.189,-0.134 -0.419,-0.134 -0.23,0 -0.549,-0.071 -0.708,-0.158 -0.159,-0.087 -0.59,-0.281 -0.956,-0.431 -0.786,-0.321 -0.918,-0.385 -1.964,-0.967 -1.126,-0.626 -1.627,-0.95 -2.22,-1.436 -0.284,-0.234 -0.809,-0.662 -1.166,-0.953 -1.033,-0.841 -2.116,-1.916 -2.654,-2.636 -0.273,-0.365 -0.675,-0.869 -0.894,-1.119 -0.538,-0.616 -2.019,-3.097 -2.019,-3.383 0,-0.127 -0.064,-0.27 -0.142,-0.318 -0.078,-0.048 -0.271,-0.446 -0.43,-0.885 -0.158,-0.438 -0.346,-0.947 -0.418,-1.13 -1.403,-3.58 -1.397,-11.337 0.01,-14.123 0.081,-0.159 0.147,-0.413 0.147,-0.563 0,-0.377 1.517,-3.36 2.395,-4.709 0.993,-1.528 3.358,-4.13 5.038,-5.544 1.18,-0.994 4.649,-2.978 5.208,-2.978 0.161,0 0.363,-0.066 0.45,-0.146 0.999,-0.922 6.44,-1.534 9.825,-1.106 m 86.167,-0.067 c 0.917,0.102 1.797,0.252 1.956,0.335 0.159,0.083 0.474,0.151 0.698,0.151 0.654,0 3.208,0.938 4.846,1.78 2.158,1.108 7.083,5.363 7.083,6.118 0,0.132 0.063,0.266 0.139,0.296 0.393,0.157 2.695,4.301 2.695,4.85 0,0.122 0.064,0.294 0.142,0.381 0.688,0.764 0.987,3.939 0.455,4.84 -0.659,1.115 0.157,1.068 -18.62,1.068 -14.766,0 -16.963,0.032 -17.142,0.247 -0.222,0.269 -0.145,3.195 0.131,4.92 0.491,3.076 2.332,6.344 4.976,8.833 1.091,1.028 3.077,2.5 3.371,2.5 0.076,0 0.467,0.175 0.87,0.39 0.403,0.214 0.921,0.431 1.15,0.482 0.229,0.052 0.979,0.25 1.667,0.44 2.726,0.756 6.856,0.352 9.541,-0.933 0.434,-0.209 0.859,-0.379 0.944,-0.379 0.084,0 0.179,-0.056 0.209,-0.125 0.031,-0.069 0.473,-0.406 0.983,-0.749 1.398,-0.941 3.122,-2.723 4.054,-4.189 1.422,-2.24 3.904,-2.635 5.472,-0.872 0.752,0.845 0.706,3.268 -0.062,3.268 -0.078,0 -0.141,0.068 -0.141,0.15 0,0.083 -0.268,0.551 -0.596,1.042 -1.405,2.105 -1.81,2.568 -4.138,4.728 -0.438,0.408 -1.91,1.414 -2.066,1.414 -0.095,0 -0.198,0.057 -0.228,0.127 -0.102,0.233 -2.946,1.539 -3.351,1.539 -0.22,0 -0.453,0.054 -0.518,0.12 -1.197,1.197 -10.802,1.217 -13.143,0.027 -0.159,-0.08 -0.404,-0.147 -0.544,-0.147 -0.14,0 -0.384,-0.069 -0.544,-0.153 -0.159,-0.084 -0.964,-0.471 -1.789,-0.86 -1.302,-0.614 -2.649,-1.377 -2.917,-1.653 -0.046,-0.047 -0.495,-0.396 -1,-0.776 -1.123,-0.847 -3.019,-2.691 -3.916,-3.81 -0.367,-0.457 -0.711,-0.869 -0.765,-0.914 -0.164,-0.141 -1.221,-1.877 -1.571,-2.584 -0.182,-0.366 -0.387,-0.691 -0.456,-0.722 -0.069,-0.03 -0.125,-0.195 -0.125,-0.365 0,-0.17 -0.068,-0.352 -0.151,-0.403 -0.083,-0.052 -0.278,-0.525 -0.434,-1.052 -0.155,-0.527 -0.345,-1.108 -0.422,-1.291 -0.861,-2.046 -1.029,-8.638 -0.291,-11.417 0.183,-0.687 0.37,-1.494 0.417,-1.793 0.046,-0.299 0.151,-0.584 0.233,-0.635 0.081,-0.05 0.148,-0.213 0.148,-0.361 0,-0.323 1.337,-3.104 1.531,-3.183 0.075,-0.03 0.136,-0.134 0.136,-0.23 0,-0.146 0.914,-1.574 1.564,-2.441 0.249,-0.333 3.647,-3.728 3.948,-3.945 1.547,-1.114 1.565,-1.125 3.404,-2.056 3.46,-1.752 7.882,-2.482 12.167,-2.008 m 41.14,-0.007 c 1.115,0.096 2.289,0.24 2.61,0.32 2.068,0.518 2.312,0.602 3.833,1.316 1.5,0.703 2.923,1.91 3.779,3.204 l 0.46,0.695 0.422,-0.556 c 1.565,-2.059 5.487,-4.472 7.288,-4.484 0.201,-10e-4 0.406,-0.068 0.456,-0.149 0.049,-0.08 0.935,-0.239 1.968,-0.352 3.487,-0.382 8.696,0.476 10.832,1.785 0.342,0.209 0.666,0.38 0.72,0.38 0.106,0 1.189,0.788 1.542,1.122 0.119,0.112 0.347,0.3 0.507,0.416 0.16,0.117 0.55,0.55 0.867,0.962 0.317,0.413 0.623,0.788 0.68,0.834 0.099,0.08 0.732,1.295 1.128,2.166 0.376,0.827 0.668,1.954 1.013,3.917 0.081,0.458 0.153,7.418 0.159,15.467 l 0.013,14.634 -0.356,0.616 c -0.987,1.714 -4.481,1.633 -5.39,-0.124 -0.222,-0.431 -0.254,-2.285 -0.254,-14.749 0,-10.031 -0.056,-14.491 -0.189,-15.05 -0.306,-1.286 -0.7,-2.621 -0.801,-2.711 -0.052,-0.045 -0.191,-0.27 -0.309,-0.5 C 313.404,52.431 311.718,51 311.12,51 c -0.121,0 -0.291,-0.065 -0.378,-0.145 -0.725,-0.665 -5.111,-1.139 -7.325,-0.791 -2.725,0.428 -6.417,3.731 -6.417,5.741 0,0.162 -0.094,0.389 -0.208,0.503 -0.163,0.162 -0.228,3.464 -0.294,14.909 -0.081,13.765 -0.132,15.283 -0.516,15.283 -0.082,0 -0.149,0.105 -0.149,0.234 0,1.139 -3.67,1.282 -4.75,0.184 -0.693,-0.704 -0.662,-0.076 -0.764,-15.485 -0.094,-14.115 -0.162,-15.996 -0.616,-16.865 -0.091,-0.175 -0.306,-0.604 -0.476,-0.955 -0.627,-1.286 -3.034,-3.113 -4.102,-3.113 -0.15,0 -0.318,-0.075 -0.375,-0.167 -0.057,-0.091 -0.524,-0.166 -1.038,-0.166 -0.514,0 -1.423,-0.085 -2.02,-0.189 -2.144,-0.374 -5.093,0.403 -6.779,1.784 -1.205,0.987 -2.746,3.347 -2.746,4.204 0,0.165 -0.094,0.394 -0.209,0.509 -0.162,0.162 -0.226,3.444 -0.291,14.825 -0.081,14.223 -0.093,14.631 -0.416,15.166 -1.008,1.667 -4.142,1.701 -5.269,0.057 l -0.399,-0.582 -0.043,-19.764 -0.044,-19.765 0.377,-0.74 c 1.197,-2.349 5.032,-1.729 5.631,0.911 0.104,0.459 0.219,0.93 0.256,1.048 0.042,0.134 0.336,-0.057 0.779,-0.506 1.153,-1.169 3.206,-2.458 3.914,-2.458 0.179,0 0.38,-0.057 0.448,-0.125 0.427,-0.433 3.231,-0.605 5.989,-0.368 m 74.443,0.007 c 0.78,0.1 1.567,0.24 1.75,0.311 0.184,0.071 0.746,0.264 1.25,0.43 0.504,0.165 0.954,0.344 1,0.398 0.046,0.053 0.448,0.284 0.894,0.513 0.959,0.493 3.755,3.173 4.158,3.984 1.583,3.191 -2.743,5.367 -5.385,2.71 -1.54,-1.55 -2.496,-2.067 -4.689,-2.537 -1.852,-0.396 -4.21,0.48 -4.866,1.809 -0.409,0.828 -0.69,2.356 -0.473,2.573 0.107,0.107 0.195,0.317 0.195,0.466 0,0.569 2.69,2.704 4.333,3.44 1.957,0.876 2.524,1.135 3.253,1.486 0.459,0.221 0.904,0.403 0.986,0.403 0.211,0 4.028,1.829 5.329,2.554 0.826,0.46 3.862,3.459 4.022,3.974 0.067,0.214 0.173,0.426 0.236,0.472 1.475,1.078 2.094,9.635 0.79,10.939 -0.064,0.064 -0.116,0.239 -0.116,0.388 0,1.026 -3.571,6.006 -4.307,6.006 -0.071,0 -0.295,0.153 -0.496,0.341 -0.637,0.593 -3.07,1.992 -3.465,1.992 -0.208,0 -0.42,0.066 -0.469,0.147 -0.105,0.168 -1.273,0.499 -2.596,0.734 -1.11,0.197 -4.494,0.236 -5.417,0.062 -1.059,-0.199 -2.652,-0.653 -2.825,-0.804 -0.087,-0.076 -0.29,-0.139 -0.45,-0.139 -0.412,0 -3.381,-1.587 -4.461,-2.385 -1.826,-1.348 -3.388,-3.198 -4.249,-5.031 -0.258,-0.55 -0.536,-1.131 -0.617,-1.29 -0.791,-1.548 0.974,-3.627 3.079,-3.627 0.971,0 2.94,1.37 2.94,2.045 0,1.153 3.833,4.405 5.916,5.02 0.55,0.163 1.218,0.364 1.484,0.449 1.027,0.325 3.966,0.015 4.972,-0.525 0.16,-0.086 0.435,-0.156 0.612,-0.156 0.176,0 0.346,-0.056 0.377,-0.125 0.03,-0.068 0.352,-0.275 0.714,-0.458 0.722,-0.366 2.925,-2.494 2.925,-2.826 0,-0.114 0.176,-0.54 0.392,-0.946 2.022,-3.802 0.209,-8.426 -4.142,-10.569 -0.55,-0.271 -1.025,-0.549 -1.056,-0.617 -0.03,-0.069 -0.129,-0.125 -0.22,-0.125 -0.143,0 -1.554,-0.649 -4.56,-2.098 -0.46,-0.221 -0.951,-0.402 -1.092,-0.402 -0.14,0 -0.327,-0.06 -0.414,-0.133 -0.087,-0.074 -0.571,-0.275 -1.075,-0.448 -2.944,-1.011 -5.495,-3.543 -6.349,-6.304 -0.39,-1.259 -0.385,-4.448 0.008,-4.841 0.096,-0.096 0.174,-0.34 0.174,-0.542 0,-1.697 4.877,-6.232 6.701,-6.232 0.226,0 0.466,-0.057 0.534,-0.125 0.133,-0.136 2.037,-0.483 2.849,-0.52 0.275,-0.012 1.137,0.059 1.916,0.159 M 88,44.5 c 0,0.092 0.113,0.167 0.251,0.167 0.372,0 0.977,0.77 1.154,1.469 0.245,0.965 0.323,38.453 0.082,39.281 -0.526,1.809 -1.113,2.25 -2.999,2.25 -1.483,0 -2.345,-0.402 -2.771,-1.291 C 83.228,85.357 83.254,46.157 83.743,45.435 84.379,44.496 88,43.7 88,44.5 m 97.081,0.093 c 0.342,0.143 0.66,0.406 0.707,0.583 0.046,0.178 0.142,0.324 0.214,0.324 0.355,0 0.409,1.622 0.495,14.833 l 0.092,14.25 0.483,1.375 c 0.266,0.757 0.546,1.375 0.622,1.375 0.077,0 0.139,0.107 0.139,0.237 0,0.352 1.549,1.981 2.236,2.351 0.329,0.177 0.598,0.379 0.598,0.45 0,0.071 0.103,0.129 0.228,0.129 0.126,0 0.595,0.164 1.042,0.364 1.432,0.642 6.338,0.991 7.98,0.567 1.725,-0.445 4.05,-2.175 4.753,-3.537 0.135,-0.262 0.284,-0.515 0.33,-0.561 0.187,-0.187 0.667,-1.365 0.667,-1.639 0,-0.162 0.078,-0.372 0.173,-0.467 0.116,-0.117 0.171,-4.604 0.167,-13.815 -0.007,-17.544 -0.094,-17.079 3.194,-17.079 1.797,0 2.426,0.425 2.877,1.943 0.668,2.245 0.292,46.623 -0.41,48.471 -0.092,0.243 -0.168,0.657 -0.168,0.921 0,0.263 -0.066,0.52 -0.148,0.57 -0.081,0.051 -0.199,0.364 -0.261,0.697 -0.063,0.333 -0.175,0.728 -0.25,0.877 -0.074,0.149 -0.23,0.496 -0.345,0.771 -0.352,0.841 -0.741,1.662 -0.829,1.75 -0.046,0.046 -0.227,0.346 -0.403,0.667 -1.476,2.697 -5.422,5.745 -8.847,6.834 -0.367,0.117 -0.817,0.267 -1,0.334 -2.945,1.072 -10.49,1.668 -11.947,0.944 -1.463,-0.728 -1.729,-3.207 -0.478,-4.461 0.66,-0.663 1.507,-0.854 4.417,-1 3.288,-0.165 6.103,-0.607 6.522,-1.026 0.068,-0.069 0.254,-0.125 0.413,-0.125 0.28,0 2.526,-1.077 2.95,-1.415 1.303,-1.038 1.851,-1.529 1.861,-1.67 0.006,-0.093 0.184,-0.355 0.395,-0.583 0.412,-0.447 1.436,-2.494 1.791,-3.582 0.469,-1.435 0.548,-2.328 0.608,-6.815 l 0.061,-4.648 -0.713,0.745 c -1.065,1.11 -2.952,2.301 -3.646,2.301 -0.164,0 -0.338,0.065 -0.387,0.145 -0.049,0.079 -0.448,0.194 -0.885,0.254 -2.587,0.356 -3.236,0.393 -4.462,0.257 -0.734,-0.082 -1.784,-0.194 -2.334,-0.248 -0.55,-0.055 -1.15,-0.164 -1.333,-0.243 -0.183,-0.078 -0.558,-0.175 -0.833,-0.214 -2.447,-0.355 -7.459,-3.672 -8.429,-5.579 -0.127,-0.25 -0.391,-0.68 -0.586,-0.955 -0.498,-0.7 -1.235,-2.33 -1.235,-2.73 0,-0.183 -0.067,-0.375 -0.149,-0.426 -0.082,-0.05 -0.187,-0.374 -0.233,-0.718 -0.046,-0.344 -0.165,-0.926 -0.264,-1.293 -0.33,-1.224 -0.251,-28.773 0.085,-29.477 0.551,-1.155 2.876,-1.681 4.475,-1.013 m 148.739,0.009 c 0.296,0.147 0.584,0.391 0.641,0.541 0.057,0.151 0.202,0.373 0.321,0.494 0.351,0.355 0.319,40.405 -0.032,40.696 -0.138,0.114 -0.25,0.304 -0.25,0.421 0,0.806 -3.069,1.234 -4.264,0.593 C 328.903,86.633 329,88.302 329,66 c 0,-22.123 -0.081,-20.577 1.116,-21.343 0.633,-0.405 2.933,-0.44 3.704,-0.055 M 151.25,50 c -0.183,0.079 -0.685,0.149 -1.115,0.155 -0.43,0.006 -0.824,0.08 -0.876,0.164 -0.052,0.084 -0.393,0.203 -0.759,0.264 -0.366,0.062 -0.707,0.181 -0.759,0.265 -0.052,0.084 -0.236,0.152 -0.41,0.152 -0.174,0 -0.967,0.375 -1.764,0.833 -0.796,0.459 -1.483,0.834 -1.525,0.834 -0.043,0 -0.313,0.188 -0.601,0.419 -0.289,0.23 -0.599,0.475 -0.691,0.544 -1.071,0.804 -1.971,1.706 -2.262,2.266 -0.197,0.378 -0.408,0.725 -0.469,0.771 -0.211,0.159 -1.019,1.866 -1.019,2.154 0,0.16 -0.053,0.344 -0.119,0.409 -0.245,0.246 -0.714,1.707 -0.714,2.228 0,0.298 -0.075,0.542 -0.167,0.542 -0.092,0 -0.167,0.394 -0.167,0.875 0,0.481 -0.079,1.512 -0.174,2.292 -0.137,1.117 -0.12,1.786 0.08,3.166 0.429,2.964 0.431,2.973 1.119,4.373 0.078,0.159 0.142,0.366 0.142,0.46 0,0.871 3.461,5.103 4.875,5.961 0.252,0.153 0.458,0.337 0.458,0.409 0,0.072 0.08,0.131 0.178,0.131 0.098,0 0.424,0.187 0.724,0.416 0.301,0.23 0.613,0.417 0.695,0.417 0.082,0 0.525,0.179 0.984,0.398 2.706,1.289 8.392,1.616 10.292,0.591 0.159,-0.085 0.434,-0.156 0.612,-0.156 0.177,0 0.534,-0.109 0.793,-0.242 0.26,-0.134 0.716,-0.34 1.014,-0.458 0.298,-0.118 0.542,-0.271 0.542,-0.34 0,-0.07 0.1,-0.126 0.224,-0.126 1.091,0 4.721,-3.556 6.003,-5.881 l 0.439,-0.798 v -7.567 c 0,-4.866 -0.059,-7.605 -0.166,-7.671 -0.092,-0.057 -0.167,-0.249 -0.167,-0.427 0,-0.177 -0.075,-0.323 -0.167,-0.323 -0.091,0 -0.166,-0.083 -0.166,-0.185 0,-0.826 -3.134,-3.918 -5.341,-5.268 -2.524,-1.545 -8.014,-2.718 -9.576,-2.047 m 85.917,-0.004 c -0.229,0.075 -0.694,0.145 -1.032,0.154 -0.339,0.009 -0.662,0.092 -0.718,0.183 -0.057,0.092 -0.246,0.167 -0.421,0.167 -0.175,0 -0.602,0.123 -0.949,0.273 -1.106,0.479 -2.461,1.14 -2.547,1.244 -0.046,0.055 -0.421,0.31 -0.833,0.566 -0.872,0.541 -2.499,1.91 -3.269,2.75 -1.32,1.44 -2.117,2.559 -1.945,2.731 0.132,0.132 27.547,0.135 27.547,0.003 0,-1.377 -3.707,-5.325 -6.164,-6.565 -2.573,-1.3 -7.823,-2.117 -9.669,-1.506"
             id="path1"
             inkscape:connector-curvature="0"
             style="fill:none;fill-rule:evenodd;stroke:none" />
        </g>
        <g
           id="g903">
          <path
             style="fill:#070707;fill-rule:evenodd;stroke:none"
             inkscape:connector-curvature="0"
             id="path0"
             d="m 98.92,24.761 c -1.327,0.888 -1.204,-2.569 -1.204,33.766 0,34.394 -0.029,33.024 0.721,33.756 0.692,0.674 2.658,0.839 3.623,0.303 1.156,-0.641 1.139,-0.499 1.148,-9.821 l 0.008,-8.361 0.921,-1.139 c 1.123,-1.388 1.94,-2.379 2.163,-2.623 0.091,-0.1 0.389,-0.482 0.661,-0.849 0.273,-0.367 0.637,-0.817 0.81,-1 0.174,-0.183 0.619,-0.731 0.99,-1.216 0.585,-0.766 1.071,-1.201 1.344,-1.201 0.043,0 0.225,0.282 0.405,0.625 0.181,0.344 0.486,0.904 0.678,1.245 0.193,0.341 0.627,1.129 0.964,1.75 0.893,1.642 1.573,2.882 1.946,3.547 0.181,0.321 0.61,1.108 0.955,1.75 0.344,0.642 0.881,1.617 1.192,2.167 0.312,0.55 0.698,1.262 0.859,1.583 0.161,0.321 0.427,0.808 0.592,1.083 0.419,0.703 1.123,1.967 1.854,3.334 0.343,0.641 0.836,1.541 1.095,2 0.259,0.458 0.65,1.17 0.87,1.583 0.219,0.412 0.486,0.9 0.592,1.083 0.106,0.184 0.559,1.009 1.007,1.834 1.437,2.647 1.921,3.083 3.422,3.083 1.652,0 2.539,-0.825 2.574,-2.394 0.022,-1.016 -0.473,-2.076 -2.578,-5.523 -0.224,-0.367 -0.516,-0.891 -0.649,-1.166 -0.133,-0.275 -0.417,-0.786 -0.63,-1.136 -0.401,-0.658 -0.599,-1.006 -1.536,-2.698 -0.304,-0.55 -0.714,-1.262 -0.912,-1.583 -0.197,-0.321 -0.487,-0.846 -0.645,-1.167 -0.305,-0.621 -0.64,-1.196 -0.777,-1.333 -0.046,-0.046 -0.165,-0.233 -0.265,-0.417 -0.179,-0.328 -0.98,-1.775 -1.613,-2.916 -0.178,-0.321 -0.381,-0.659 -0.451,-0.75 -0.07,-0.092 -0.374,-0.617 -0.676,-1.167 -0.302,-0.55 -0.675,-1.225 -0.828,-1.5 -0.154,-0.275 -0.527,-0.95 -0.83,-1.5 -0.303,-0.55 -0.675,-1.187 -0.826,-1.417 -0.151,-0.229 -0.422,-0.716 -0.601,-1.083 -0.18,-0.367 -0.369,-0.704 -0.42,-0.75 -0.249,-0.223 -0.99,-1.748 -0.99,-2.039 0,-0.361 0.348,-0.815 1.894,-2.475 0.563,-0.603 1.466,-1.602 2.008,-2.219 0.542,-0.617 1.179,-1.331 1.416,-1.586 2.33,-2.5 2.681,-3.541 1.673,-4.963 -0.274,-0.387 -1.782,-1.218 -2.21,-1.218 -0.44,0 -1.179,0.522 -1.698,1.199 -0.771,1.009 -2.446,3.032 -2.663,3.218 -0.107,0.091 -0.264,0.291 -0.349,0.444 -0.085,0.152 -0.456,0.602 -0.824,1 -0.369,0.397 -0.907,1.048 -1.195,1.445 -0.289,0.398 -0.813,1.036 -1.164,1.417 -0.351,0.382 -0.911,1.032 -1.244,1.444 -0.334,0.412 -0.758,0.922 -0.944,1.133 -0.185,0.21 -0.575,0.676 -0.867,1.033 -0.291,0.358 -0.681,0.823 -0.867,1.034 -0.185,0.211 -0.609,0.719 -0.943,1.13 -0.333,0.411 -0.807,0.974 -1.052,1.25 -0.246,0.277 -0.631,0.719 -0.857,0.982 -0.801,0.935 -0.781,1.462 -0.781,-20.229 0,-13.474 -0.057,-20.516 -0.166,-20.583 -0.092,-0.057 -0.167,-0.237 -0.167,-0.4 0,-0.953 -2.868,-1.531 -3.963,-0.799 M 31.38,28.685 C 30.212,29.306 30.3,26.701 30.3,60.626 v 30.667 l 0.376,0.605 c 0.915,1.472 3.927,1.354 4.735,-0.186 0.289,-0.549 0.305,-1.347 0.305,-14.863 0,-12.762 0.028,-14.31 0.262,-14.544 0.353,-0.353 31.792,-0.406 32.02,-0.054 0.074,0.115 0.172,6.734 0.218,14.709 l 0.084,14.5 0.398,0.531 c 0.961,1.281 3.575,1.281 4.536,0 L 73.633,91.46 V 60.693 c 0,-33.781 0.078,-31.317 -1.009,-31.989 -0.743,-0.459 -2.574,-0.458 -3.318,0.002 -1.048,0.647 -0.998,-0.02 -1.09,14.67 L 68.133,56.793 H 51.966 35.8 l -0.084,-13.5 C 35.63,29.228 35.611,28.882 34.945,28.878 34.842,28.877 34.664,28.764 34.55,28.626 c -0.315,-0.379 -2.419,-0.34 -3.17,0.059 m 54.336,2.358 c -0.137,0.089 -0.392,0.163 -0.566,0.164 -1.323,0.011 -3.267,3.801 -2.267,4.419 0.092,0.057 0.167,0.236 0.167,0.399 0,0.27 0.851,1.26 1.578,1.835 0.591,0.467 2.903,0.311 3.699,-0.25 2.392,-1.686 1.869,-5.813 -0.804,-6.347 -0.264,-0.053 -0.521,-0.162 -0.57,-0.242 -0.12,-0.194 -0.924,-0.18 -1.237,0.022 m 245.09,0.11 c -2.467,0.889 -3.329,3.766 -1.717,5.73 2.102,2.562 6.315,1.056 6.315,-2.258 0,-2.513 -2.345,-4.284 -4.598,-3.472 M 85.133,50.291 c -1.662,0.735 -1.583,-0.318 -1.582,21.271 0.001,20.055 -0.011,19.758 0.82,20.689 0.98,1.096 3.84,0.769 4.41,-0.505 0.396,-0.884 0.34,-40.054 -0.058,-40.654 -0.551,-0.83 -2.526,-1.271 -3.59,-0.801 m 63.833,-0.053 c -1.189,0.284 -2.493,0.668 -2.789,0.822 -0.159,0.082 -0.404,0.15 -0.544,0.15 -0.14,0 -0.385,0.071 -0.544,0.158 -0.159,0.087 -0.589,0.289 -0.956,0.449 -1.188,0.516 -3.489,2.034 -4.514,2.976 -0.1,0.092 -0.48,0.435 -0.845,0.764 -2.281,2.052 -5.891,7.455 -5.891,8.816 0,0.112 -0.101,0.439 -0.225,0.728 -0.655,1.526 -1.004,3.878 -1.007,6.775 -0.002,2.735 0.366,5.257 0.985,6.75 0.114,0.275 0.298,0.783 0.408,1.128 0.854,2.677 4.271,7.164 6.922,9.09 0.459,0.332 0.871,0.645 0.917,0.694 0.116,0.123 0.7,0.485 1,0.619 0.137,0.061 0.287,0.159 0.333,0.216 0.08,0.101 1.194,0.635 2.25,1.079 0.275,0.116 0.725,0.306 1,0.422 0.275,0.117 0.725,0.271 1,0.343 0.275,0.072 0.95,0.265 1.5,0.429 1.96,0.586 9.342,0.388 10.623,-0.284 0.159,-0.084 0.397,-0.152 0.528,-0.152 0.132,0 0.451,-0.105 0.711,-0.233 1.642,-0.812 2.09,-1.062 3.138,-1.748 1.212,-0.794 2.016,-1.545 3.095,-2.896 0.811,-1.014 0.883,-0.895 0.989,1.627 0.15,3.562 1.716,4.896 4.279,3.644 1.218,-0.595 1.137,0.903 1.137,-21.157 V 51.6 l -0.437,-0.57 c -0.708,-0.923 -2.182,-1.233 -3.415,-0.718 -1.163,0.486 -1.408,1.087 -1.546,3.801 -0.118,2.303 -0.207,2.402 -1.104,1.234 -1.53,-1.992 -4.499,-4.137 -5.726,-4.137 -0.106,0 -0.323,-0.065 -0.482,-0.145 -1.644,-0.819 -8.591,-1.352 -10.79,-0.827 m 33.138,0.038 c -1.792,0.653 -1.751,0.261 -1.664,15.821 0.072,12.934 0.173,15.4 0.651,15.877 0.069,0.068 0.125,0.301 0.125,0.516 0,0.215 0.067,0.521 0.149,0.68 0.082,0.159 0.383,0.777 0.67,1.373 0.287,0.596 0.676,1.346 0.865,1.667 0.495,0.841 2.593,2.925 3.566,3.543 0.459,0.291 0.871,0.57 0.917,0.62 0.178,0.193 1.935,1.003 2.177,1.003 0.141,0 0.328,0.063 0.415,0.139 0.751,0.658 5.257,1.271 8.241,1.123 2.884,-0.144 4.843,-0.956 6.592,-2.731 0.668,-0.678 1.137,-1.034 1.233,-0.937 0.499,0.506 0.363,8.467 -0.182,10.656 -0.278,1.119 -0.681,2.325 -0.833,2.492 -0.078,0.087 -0.143,0.252 -0.143,0.366 0,0.478 -1.298,2.368 -2.325,3.384 -2.422,2.398 -5.266,3.288 -12.258,3.837 -3.392,0.266 -3.75,0.518 -3.75,2.643 0,2.168 0.941,2.533 5.666,2.197 3.175,-0.226 5.128,-0.531 6.417,-1.002 0.183,-0.066 0.746,-0.251 1.25,-0.411 0.504,-0.159 1.312,-0.469 1.796,-0.689 0.484,-0.22 0.914,-0.4 0.955,-0.4 0.148,0 2.01,-1.231 2.749,-1.817 2.414,-1.913 4.319,-4.735 5.242,-7.766 0.168,-0.55 0.365,-1.15 0.439,-1.334 0.073,-0.183 0.176,-0.671 0.229,-1.083 0.053,-0.413 0.165,-1.275 0.249,-1.917 0.171,-1.294 0.234,-45.285 0.067,-46.295 -0.305,-1.843 -3.281,-2.387 -4.698,-0.859 l -0.445,0.479 -0.094,14.338 c -0.052,7.885 -0.152,14.525 -0.222,14.754 -0.071,0.229 -0.191,0.567 -0.268,0.75 -0.077,0.183 -0.181,0.524 -0.231,0.757 -0.656,3.061 -4.564,5.493 -8.827,5.493 -4.694,0 -7.998,-1.565 -9.593,-4.543 -1.157,-2.161 -1.178,-2.473 -1.224,-17.624 -0.044,-14.83 -0.011,-14.322 -0.985,-14.776 -1.31,-0.612 -1.937,-0.682 -2.918,-0.324 m 53.446,-0.07 c -0.138,0.091 -0.506,0.166 -0.819,0.168 -0.57,0.002 -2.178,0.409 -2.721,0.687 -0.159,0.082 -0.403,0.149 -0.543,0.149 -1.445,0 -9.084,5.645 -9.084,6.713 0,0.074 -0.076,0.225 -0.17,0.335 -0.093,0.111 -0.357,0.427 -0.585,0.702 -0.599,0.723 -2.31,4.176 -2.644,5.339 -0.157,0.547 -0.355,1.219 -0.439,1.494 -0.763,2.497 -0.751,10.537 0.017,11.325 0.085,0.087 0.154,0.401 0.154,0.698 0,0.298 0.067,0.582 0.149,0.632 0.081,0.051 0.199,0.295 0.261,0.544 0.144,0.575 1.349,3.072 1.729,3.581 0.158,0.213 0.392,0.595 0.521,0.849 0.466,0.921 3.622,4.182 5.174,5.347 0.504,0.379 0.954,0.727 1,0.773 0.046,0.046 0.345,0.229 0.666,0.405 0.321,0.177 0.621,0.365 0.667,0.418 0.141,0.165 1.91,1.011 2.114,1.011 0.105,0 0.217,0.06 0.247,0.134 0.031,0.073 0.581,0.306 1.222,0.517 5.288,1.743 12.466,1.306 16.584,-1.011 0.32,-0.18 0.714,-0.369 0.875,-0.42 0.16,-0.05 0.291,-0.158 0.291,-0.239 0,-0.081 0.076,-0.147 0.168,-0.147 1.285,0 6.648,-6.242 7.018,-8.167 0.516,-2.688 -3.761,-3.72 -5.101,-1.231 -0.167,0.311 -0.367,0.564 -0.444,0.564 -0.077,0 -0.141,0.084 -0.141,0.186 0,0.194 -1.502,2.017 -2.081,2.525 -0.184,0.162 -0.485,0.431 -0.669,0.598 -0.604,0.551 -1.985,1.447 -2.916,1.894 -0.842,0.403 -1.374,0.599 -3,1.103 -1.896,0.587 -8.003,0.251 -8.742,-0.482 -0.087,-0.086 -0.259,-0.157 -0.382,-0.157 -0.911,0 -4.212,-2.189 -5.817,-3.858 -1.254,-1.304 -3.059,-3.833 -3.059,-4.286 0,-0.077 -0.188,-0.492 -0.417,-0.923 -0.229,-0.431 -0.417,-0.918 -0.417,-1.081 0,-0.163 -0.054,-0.35 -0.119,-0.416 -0.489,-0.488 -0.973,-6.27 -0.578,-6.893 0.103,-0.161 3.813,-0.219 17.04,-0.262 18.132,-0.06 17.74,-0.041 18.59,-0.891 0.772,-0.773 0.673,-3.507 -0.158,-4.338 -0.059,-0.059 -0.108,-0.208 -0.108,-0.331 0,-0.122 -0.187,-0.611 -0.417,-1.086 -0.229,-0.475 -0.416,-0.929 -0.416,-1.008 0,-0.078 -0.263,-0.553 -0.584,-1.055 -0.321,-0.501 -0.583,-0.951 -0.583,-0.999 0,-0.048 -0.157,-0.253 -0.35,-0.455 -0.192,-0.202 -0.4,-0.498 -0.461,-0.657 -0.565,-1.469 -5.171,-5.359 -7.689,-6.494 -0.596,-0.268 -1.233,-0.555 -1.417,-0.637 -0.738,-0.331 -2.553,-0.883 -3.416,-1.04 -1.283,-0.232 -7.687,-0.334 -8,-0.127 m 31.583,0.151 c -1.449,0.667 -1.333,-1.168 -1.333,21.186 0,18.995 0.012,19.77 0.311,20.264 0.893,1.475 3.738,1.547 4.706,0.12 0.302,-0.447 0.32,-1.085 0.413,-14.801 0.063,-9.41 0.158,-14.562 0.276,-15 0.563,-2.091 1.189,-3.242 2.453,-4.51 1.003,-1.007 2.411,-1.827 3.841,-2.237 0.768,-0.22 5.183,-0.139 6.5,0.119 1.131,0.222 2.75,0.861 2.75,1.086 0,0.069 0.105,0.126 0.233,0.126 0.391,0 1.744,1.504 2.21,2.455 0.966,1.976 1.034,3.189 1.038,18.606 10e-4,7.046 0.044,12.853 0.094,12.903 0.05,0.05 0.094,0.285 0.097,0.522 0.026,1.813 3.808,2.385 4.919,0.745 0.315,-0.466 0.328,-0.954 0.421,-14.981 0.062,-9.473 0.157,-14.703 0.272,-15.084 0.825,-2.719 2.308,-4.648 4.403,-5.726 0.649,-0.334 1.356,-0.607 1.57,-0.607 0.214,0 0.436,-0.075 0.493,-0.167 0.14,-0.227 4.699,-0.215 5.706,0.015 0.436,0.1 1.169,0.3 1.627,0.446 0.786,0.249 1.086,0.394 2.355,1.135 0.626,0.365 1.657,1.746 2.059,2.756 0.74,1.861 0.734,1.737 0.829,17.069 l 0.09,14.671 0.377,0.479 c 0.899,1.143 3.369,1.342 4.29,0.347 0.582,-0.63 0.583,-0.665 0.583,-15.496 0,-13.961 -0.063,-16.168 -0.497,-17.338 -0.068,-0.184 -0.255,-0.731 -0.416,-1.216 -0.793,-2.395 -2.209,-4.353 -3.975,-5.498 -0.382,-0.247 -0.733,-0.489 -0.778,-0.536 -0.046,-0.048 -0.534,-0.301 -1.084,-0.562 -2.673,-1.268 -3.887,-1.49 -8.166,-1.493 -3.246,-0.002 -4.452,0.119 -5.198,0.524 -0.2,0.109 -0.519,0.197 -0.708,0.197 -0.189,0 -0.344,0.075 -0.344,0.167 0,0.092 -0.115,0.167 -0.255,0.167 -0.987,0 -3.673,1.941 -5.176,3.741 l -0.681,0.815 -0.522,-0.759 c -0.634,-0.921 -2.238,-2.51 -2.842,-2.816 -0.243,-0.123 -0.721,-0.394 -1.063,-0.603 -0.342,-0.208 -0.758,-0.378 -0.925,-0.378 -0.167,0 -0.374,-0.063 -0.461,-0.139 -0.199,-0.174 -1.399,-0.532 -2.492,-0.745 -1.22,-0.237 -7.429,-0.337 -7.643,-0.123 -0.096,0.095 -0.344,0.173 -0.552,0.173 -0.915,0 -3.47,1.54 -4.498,2.711 -0.896,1.02 -1.16,0.973 -1.296,-0.229 -0.259,-2.288 -2.049,-3.404 -4.011,-2.501 m 63.58,-0.092 c -0.758,0.351 -1.103,0.686 -1.301,1.261 -0.32,0.926 -0.277,39.334 0.044,40.102 0.727,1.738 4.031,1.748 4.927,0.015 0.353,-0.684 0.381,-39.374 0.028,-40.208 -0.443,-1.051 -2.531,-1.711 -3.698,-1.17 m 22.253,-0.055 c -0.056,0.091 -0.278,0.166 -0.491,0.166 -2.196,0 -6.63,4.134 -7.142,6.659 -1.067,5.258 1.315,9.011 7.05,11.104 1.523,0.556 2.447,0.969 5.25,2.344 3.301,1.62 4.08,2.102 5.167,3.195 0.881,0.885 1.219,1.401 1.973,3.006 0.254,0.541 0.231,3.805 -0.034,4.704 -0.932,3.173 -3.25,5.408 -6.489,6.257 -2.346,0.615 -6.349,0.087 -7.814,-1.031 -0.292,-0.222 -0.597,-0.404 -0.678,-0.404 -0.306,0 -2.386,-2.244 -3.065,-3.308 -1.284,-2.011 -1.773,-2.359 -3.316,-2.359 -2.296,0 -3.337,2.004 -2.077,4 0.229,0.363 0.416,0.742 0.416,0.841 0,0.156 0.223,0.491 1.084,1.629 0.491,0.65 2.53,2.554 3.166,2.956 0.275,0.174 0.538,0.356 0.584,0.405 0.078,0.083 1.62,0.921 2.166,1.178 0.842,0.394 1.544,0.658 1.756,0.658 0.134,0 0.244,0.058 0.244,0.128 0,0.28 2.216,0.594 4.656,0.66 3.064,0.083 4.694,-0.188 6.37,-1.059 0.243,-0.126 0.562,-0.229 0.708,-0.229 0.147,0 0.266,-0.075 0.266,-0.167 0,-0.092 0.084,-0.167 0.186,-0.167 1.206,0 6.289,-5.249 6.32,-6.525 0.003,-0.124 0.115,-0.37 0.25,-0.548 0.134,-0.178 0.244,-0.46 0.244,-0.627 0,-0.168 0.069,-0.434 0.153,-0.594 0.755,-1.429 0.754,-6.64 -0.001,-8.078 -0.083,-0.16 -0.152,-0.393 -0.152,-0.519 0,-0.385 -0.87,-1.881 -1.735,-2.983 -1.546,-1.97 -3.044,-2.978 -7.431,-5.002 -1.28,-0.59 -1.675,-0.768 -3.417,-1.536 -5.78,-2.549 -7.33,-4.328 -6.32,-7.254 0.718,-2.078 3.823,-3.173 6.558,-2.313 1.461,0.459 2.522,1.146 3.755,2.432 1.141,1.19 2.54,1.459 3.84,0.74 0.986,-0.544 1.787,-2.111 1.25,-2.443 -0.091,-0.056 -0.166,-0.22 -0.166,-0.364 0,-0.477 -1.824,-2.431 -3.25,-3.483 -0.55,-0.405 -1.091,-0.812 -1.202,-0.903 -0.11,-0.092 -0.28,-0.166 -0.377,-0.166 -0.097,0 -0.306,-0.066 -0.465,-0.147 -0.822,-0.415 -1.594,-0.687 -1.952,-0.687 -0.221,0 -0.448,-0.075 -0.504,-0.166 -0.062,-0.1 -1.138,-0.167 -2.667,-0.167 -1.529,0 -2.605,0.067 -2.667,0.167 m -110.129,5.181 c 0.221,0.083 0.617,0.152 0.88,0.152 0.264,0 0.52,0.065 0.569,0.145 0.05,0.08 0.32,0.191 0.601,0.247 0.493,0.099 2.992,1.228 3.163,1.428 0.046,0.054 0.383,0.322 0.75,0.594 1.277,0.949 3.75,3.739 3.75,4.232 0,0.088 0.056,0.185 0.125,0.215 0.25,0.111 0.719,1.194 0.579,1.335 -0.153,0.152 -28.2,0.198 -28.351,0.046 -0.478,-0.478 4.958,-6.242 5.886,-6.242 0.048,0 0.498,-0.263 0.999,-0.583 0.502,-0.321 1.013,-0.584 1.137,-0.584 0.124,0 0.296,-0.064 0.383,-0.144 0.998,-0.907 7.782,-1.506 9.529,-0.841 m -86.998,0 c 3.384,0.772 5.702,1.961 7.834,4.017 1.665,1.606 2.078,2.124 2.96,3.703 l 0.417,0.746 v 7.68 7.679 l -0.417,0.66 c -0.229,0.363 -0.417,0.711 -0.417,0.774 0,0.062 -0.315,0.532 -0.7,1.045 -4.459,5.931 -12.855,7.952 -19.591,4.714 -0.664,-0.319 -1.292,-0.682 -1.395,-0.806 -0.103,-0.125 -0.289,-0.227 -0.413,-0.227 -0.267,0 -3.509,-3.158 -4.107,-4 -2.293,-3.23 -3.342,-7.734 -2.79,-11.984 0.296,-2.281 1.479,-6.141 2.102,-6.862 0.125,-0.145 0.228,-0.315 0.228,-0.379 0,-0.489 1.411,-2.118 2.666,-3.079 0.321,-0.245 0.71,-0.558 0.864,-0.696 0.154,-0.137 0.567,-0.399 0.917,-0.581 0.35,-0.183 0.673,-0.373 0.719,-0.423 0.07,-0.077 1.442,-0.76 2.334,-1.162 0.314,-0.142 1.87,-0.599 2.75,-0.808 0.934,-0.221 5.083,-0.229 6.039,-0.011" />
          <path
             style="fill:#7c7c7c;fill-rule:evenodd;stroke:none"
             inkscape:connector-curvature="0"
             id="path2"
             d="m 97.631,58.71 c 0,17.737 0.02,24.993 0.044,16.125 0.023,-8.869 0.023,-23.382 0,-32.25 -0.024,-8.869 -0.044,-1.613 -0.044,16.125 M 88.55,31.595 c 0,0.029 0.243,0.273 0.541,0.542 l 0.542,0.489 -0.49,-0.541 C 88.687,31.58 88.55,31.466 88.55,31.595 m 63.875,18.234 c 0.252,0.038 0.664,0.038 0.916,0 0.252,-0.038 0.046,-0.069 -0.458,-0.069 -0.504,0 -0.71,0.031 -0.458,0.069 m 86.419,10e-4 c 0.3,0.038 0.75,0.037 1,-10e-4 0.251,-0.038 0.006,-0.069 -0.544,-0.068 -0.55,10e-4 -0.755,0.032 -0.456,0.069 m 41.414,-0.005 c 0.16,0.041 0.423,0.041 0.583,0 0.161,-0.042 0.029,-0.077 -0.291,-0.077 -0.321,0 -0.452,0.035 -0.292,0.077 m 24.586,0.005 c 0.3,0.038 0.75,0.037 1,-10e-4 0.251,-0.038 0.006,-0.069 -0.544,-0.068 -0.55,10e-4 -0.755,0.032 -0.456,0.069 m 50.414,-0.005 c 0.16,0.041 0.423,0.041 0.583,0 0.161,-0.042 0.03,-0.077 -0.291,-0.077 -0.321,0 -0.452,0.035 -0.292,0.077 m -172.417,0.169 c 0.207,0.04 0.544,0.04 0.75,0 0.207,-0.04 0.038,-0.072 -0.375,-0.072 -0.412,0 -0.581,0.032 -0.375,0.072 m 85.336,0 c 0.207,0.04 0.507,0.039 0.666,-0.003 0.16,-0.042 -0.01,-0.074 -0.377,-0.073 -0.366,0.002 -0.497,0.036 -0.289,0.076 m -82.048,15.382 c 0,7.013 0.02,9.882 0.046,6.375 0.025,-3.506 0.025,-9.243 0,-12.75 -0.026,-3.506 -0.046,-0.637 -0.046,6.375 m 148.668,6.5 c 0,10.221 0.02,14.402 0.044,9.292 0.025,-5.11 0.025,-13.473 0,-18.583 -0.024,-5.111 -0.044,-0.93 -0.044,9.291 m -196.669,-15.958 -0.995,1.042 1.042,-0.995 c 0.573,-0.547 1.041,-1.016 1.041,-1.042 0,-0.123 -0.164,0.027 -1.088,0.995 m 15.549,-0.59 c 0.207,0.039 0.507,0.038 0.666,-0.004 0.16,-0.042 -0.01,-0.074 -0.377,-0.072 -0.366,0.002 -0.497,0.036 -0.289,0.076 m -86.919,6.997 c 0.16,0.041 0.423,0.041 0.583,0 0.161,-0.042 0.029,-0.077 -0.291,-0.077 -0.321,0 -0.452,0.035 -0.292,0.077 m 223.5,0.635 c 0.002,0.366 0.036,0.497 0.076,0.289 0.04,-0.207 0.039,-0.507 -0.003,-0.666 -0.042,-0.16 -0.074,0.01 -0.073,0.377 m 24.83,0.25 c 0,0.32 0.035,0.452 0.077,0.291 0.041,-0.16 0.041,-0.423 0,-0.583 -0.042,-0.16 -0.077,-0.029 -0.077,0.292 m -88.91,0.62 c 0.299,0.038 0.749,0.037 1,-10e-4 0.25,-0.038 0.005,-0.069 -0.545,-0.068 -0.55,10e-4 -0.755,0.032 -0.455,0.069 m 69.951,13.713 c 0,7.287 0.021,10.269 0.046,6.625 0.025,-3.644 0.025,-9.606 0,-13.25 -0.025,-3.644 -0.046,-0.663 -0.046,6.625 m -63.775,-8.042 c 4.613,0.025 12.113,0.025 16.667,0 4.553,-0.024 0.779,-0.045 -8.388,-0.045 -9.167,10e-4 -12.892,0.021 -8.279,0.045 M 131.428,70.71 c 0,0.412 0.033,0.581 0.073,0.375 0.039,-0.207 0.039,-0.544 0,-0.75 -0.04,-0.207 -0.073,-0.038 -0.073,0.375 m 0.003,2.416 c 10e-4,0.459 0.033,0.626 0.072,0.373 0.038,-0.253 0.037,-0.628 -0.003,-0.833 -0.039,-0.205 -0.071,0.002 -0.069,0.46 m 97.285,10.469 c 0,0.029 0.244,0.273 0.542,0.542 l 0.542,0.489 -0.49,-0.541 c -0.456,-0.505 -0.594,-0.619 -0.594,-0.49 m -44.583,4.448 c 0.358,0.367 0.688,0.667 0.734,0.667 0.046,0 -0.209,-0.3 -0.567,-0.667 -0.358,-0.367 -0.689,-0.667 -0.735,-0.667 -0.045,0 0.21,0.3 0.568,0.667 m 21.982,6.417 c 0.001,1.283 0.027,1.786 0.059,1.117 0.031,-0.668 0.031,-1.718 -0.001,-2.333 -0.032,-0.615 -0.058,-0.068 -0.058,1.216 m -54.524,-1.135 c 0.161,0.041 0.423,0.041 0.584,0 0.16,-0.042 0.029,-0.077 -0.292,-0.077 -0.321,0 -0.452,0.035 -0.292,0.077 m 86.667,0 c 0.16,0.041 0.423,0.041 0.583,0 0.161,-0.042 0.029,-0.077 -0.291,-0.077 -0.321,0 -0.452,0.035 -0.292,0.077 m 117.919,0.003 c 0.207,0.039 0.507,0.038 0.666,-0.004 0.16,-0.042 -0.01,-0.074 -0.377,-0.072 -0.366,0.002 -0.497,0.036 -0.289,0.076 m -165.169,21.499 c 0.206,0.04 0.544,0.04 0.75,0 0.206,-0.039 0.037,-0.072 -0.375,-0.072 -0.412,0 -0.581,0.033 -0.375,0.072" />
          <path
             style="fill:#9c9c9c;fill-rule:evenodd;stroke:none"
             inkscape:connector-curvature="0"
             id="path3"
             d="m 102.071,24.544 c 0.332,0.176 0.762,0.566 0.955,0.867 0.401,0.626 0.472,0.558 0.122,-0.117 -0.239,-0.46 -1.104,-1.09 -1.477,-1.077 -0.113,0.004 0.067,0.151 0.4,0.327 m -3.775,0.127 c -0.361,0.259 -0.745,1.047 -0.727,1.491 0.014,0.338 0.04,0.374 0.095,0.131 0.141,-0.626 0.562,-1.406 0.849,-1.573 0.158,-0.092 0.212,-0.168 0.12,-0.169 -0.092,-0.002 -0.243,0.052 -0.337,0.12 m 5.128,21.747 c -0.025,12.701 0.018,20.458 0.116,20.458 0.086,0 0.21,-0.086 0.276,-0.192 0.073,-0.119 0.045,-0.147 -0.073,-0.074 -0.144,0.089 -0.203,-4.95 -0.235,-20.266 L 103.465,25.96 103.424,46.418 M 32.264,28.01 c -0.111,0.071 0.263,0.142 0.832,0.157 0.704,0.02 0.955,-0.021 0.786,-0.128 -0.3,-0.19 -1.336,-0.208 -1.618,-0.029 m 37.81,0.015 c -0.14,0.088 0.204,0.143 0.892,0.143 0.689,0 1.032,-0.055 0.893,-0.143 -0.124,-0.079 -0.526,-0.144 -0.893,-0.144 -0.366,0 -0.768,0.065 -0.892,0.144 m -39.218,0.56 c -1.047,0.883 -0.973,-1.567 -0.973,32.022 0,17.579 0.063,30.745 0.149,30.967 0.446,1.154 1.312,1.636 2.94,1.636 1.094,0 2.794,-0.468 1.796,-0.495 -0.109,-0.003 -0.245,0.07 -0.302,0.161 -0.056,0.092 -0.71,0.167 -1.452,0.167 -1.545,0 -2.298,-0.396 -2.732,-1.433 -0.35,-0.839 -0.347,-61.085 0.003,-61.922 0.241,-0.576 0.82,-1.198 1.265,-1.361 0.222,-0.081 0.222,-0.092 0,-0.103 -0.138,-0.007 -0.45,0.156 -0.694,0.361 m 3.765,-0.119 c 0.519,0.271 0.943,0.771 1.12,1.324 0.107,0.33 0.109,0.33 0.125,-0.013 0.02,-0.417 -1.045,-1.568 -1.449,-1.566 -0.179,0 -0.103,0.095 0.204,0.255 m 34.108,0.256 c -0.282,0.283 -0.511,0.601 -0.508,0.709 0.002,0.107 0.127,-0.003 0.278,-0.246 0.151,-0.243 0.505,-0.557 0.787,-0.698 0.313,-0.156 0.405,-0.26 0.235,-0.267 -0.154,-0.006 -0.51,0.22 -0.792,0.502 m 3.909,-0.256 c 0.278,0.138 0.632,0.455 0.787,0.705 0.155,0.25 0.284,0.367 0.287,0.26 0.007,-0.296 -0.982,-1.222 -1.3,-1.218 -0.164,0.003 -0.071,0.107 0.226,0.253 M 73.8,60.719 c 0,17.038 0.051,30.85 0.113,30.693 C 74.069,91.019 74.08,29.915 73.925,29.819 73.856,29.776 73.8,43.682 73.8,60.719 M 67.994,29.987 c -0.061,0.062 -0.094,6.005 -0.072,13.209 l 0.038,13.097 0.087,-13.167 c 0.095,-14.514 0.1,-13.291 -0.053,-13.139 m -32.096,13.512 -0.007,13.206 0.371,0.09 c 0.204,0.049 7.383,0.069 15.954,0.043 L 67.8,56.791 52.008,56.75 36.216,56.71 36.205,43.835 C 36.198,36.753 36.128,30.81 36.049,30.626 35.966,30.435 35.902,35.913 35.898,43.499 M 84.716,30.987 c -0.69,0.295 -1.833,1.355 -1.833,1.698 0,0.133 0.216,-0.057 0.481,-0.422 0.5,-0.69 1.354,-1.198 2.352,-1.398 0.562,-0.113 0.565,-0.117 0.084,-0.123 -0.275,-0.003 -0.763,0.107 -1.084,0.245 m 2.533,-0.044 c 0.79,0.212 0.978,0.322 1.884,1.092 l 0.5,0.425 -0.5,-0.557 c -0.609,-0.679 -1.575,-1.197 -2.202,-1.182 -0.359,0.009 -0.286,0.059 0.318,0.222 m 242.89,0.109 c -0.731,0.365 -1.591,1.122 -1.587,1.397 0.002,0.098 0.208,-0.055 0.459,-0.339 0.558,-0.633 1.405,-1.093 2.289,-1.244 l 0.666,-0.115 -0.583,-0.014 c -0.321,-0.008 -0.881,0.134 -1.244,0.315 m 2.411,-0.186 c 1.11,0.224 2.154,1.003 2.659,1.983 0.111,0.214 0.241,0.35 0.289,0.301 0.457,-0.457 -2.083,-2.462 -3.067,-2.421 -0.42,0.017 -0.408,0.03 0.119,0.137 M 89.555,32.635 c -0.003,0.096 0.062,0.246 0.145,0.333 0.083,0.087 0.187,0.308 0.231,0.492 0.078,0.325 0.08,0.325 0.099,-0.01 0.011,-0.189 -0.09,-0.489 -0.225,-0.667 -0.135,-0.178 -0.247,-0.245 -0.25,-0.148 m 238.665,0.402 c -0.105,0.196 -0.16,0.558 -0.122,0.806 0.066,0.435 0.069,0.434 0.093,-0.058 0.014,-0.28 0.114,-0.597 0.223,-0.706 0.108,-0.108 0.152,-0.242 0.096,-0.297 -0.055,-0.056 -0.186,0.059 -0.29,0.255 m 7.33,1.589 c 0,0.718 0.042,1.264 0.093,1.212 0.052,-0.051 0.094,-0.597 0.094,-1.212 0,-0.615 -0.042,-1.16 -0.094,-1.211 -0.051,-0.052 -0.093,0.493 -0.093,1.211 M 90.061,34.658 c 0.009,0.601 0.048,0.718 0.155,0.468 0.199,-0.463 0.199,-1.043 0,-1.166 -0.102,-0.064 -0.162,0.204 -0.155,0.698 m 238.027,0.718 c 0,0.321 0.035,0.452 0.077,0.292 0.041,-0.16 0.041,-0.423 0,-0.583 -0.042,-0.161 -0.077,-0.03 -0.077,0.291 M 89.902,35.755 c -0.033,0.503 -0.817,1.585 -1.471,2.03 -0.344,0.234 -0.559,0.425 -0.477,0.425 0.6,0 2.188,-1.899 2.046,-2.447 -0.073,-0.281 -0.08,-0.282 -0.098,-0.008 m 238.314,0.466 c 0,0.246 1.765,1.989 2.014,1.989 0.112,0 -0.113,-0.229 -0.5,-0.509 -0.386,-0.28 -0.855,-0.768 -1.041,-1.084 -0.352,-0.597 -0.473,-0.698 -0.473,-0.396 m 6.74,0.503 c -0.262,0.378 -0.74,0.867 -1.063,1.087 -0.323,0.219 -0.521,0.399 -0.439,0.399 0.431,0 2.278,-1.874 2.06,-2.091 -0.045,-0.045 -0.296,0.227 -0.558,0.605 M 82.883,36.484 c 0,0.233 1.487,1.726 1.719,1.726 0.096,0 -0.139,-0.268 -0.521,-0.596 -0.383,-0.327 -0.809,-0.757 -0.947,-0.954 -0.138,-0.197 -0.251,-0.276 -0.251,-0.176 m 2.391,1.931 c 0.253,0.162 2.067,0.164 2.167,0.003 0.042,-0.069 -0.471,-0.125 -1.141,-0.125 -0.67,0 -1.132,0.055 -1.026,0.122 m 245.489,-0.006 c 0.261,0.166 2.076,0.174 2.177,0.009 0.043,-0.069 -0.475,-0.128 -1.151,-0.132 -0.676,-0.004 -1.138,0.052 -1.026,0.123 M 150.8,49.697 c -0.459,0.056 0.479,0.103 2.083,0.104 1.862,10e-4 2.555,-0.039 1.917,-0.11 -1.207,-0.135 -2.868,-0.132 -4,0.006 m 86.166,0.003 c -0.458,0.057 0.48,0.103 2.084,0.102 1.715,-10e-4 2.607,-0.049 2.166,-0.118 -0.891,-0.138 -3.083,-0.13 -4.25,0.016 m 41.584,-0.004 c -0.321,0.059 0.654,0.11 2.166,0.113 1.933,0.003 2.428,-0.03 1.667,-0.111 -1.35,-0.144 -3.066,-0.145 -3.833,-0.002 m 25,-0.003 c -0.413,0.055 0.487,0.103 2,0.107 1.81,0.004 2.408,-0.032 1.75,-0.107 -1.201,-0.137 -2.726,-0.137 -3.75,0 m 50.666,0.004 c -0.331,0.063 0.28,0.112 1.417,0.114 1.42,0.003 1.783,-0.032 1.25,-0.12 -0.894,-0.147 -1.867,-0.145 -2.667,0.006 m -269.757,0.49 c -0.623,0.38 -1.08,1.051 -1.063,1.558 0.012,0.331 0.037,0.315 0.189,-0.119 0.246,-0.703 0.611,-1.083 1.381,-1.436 0.432,-0.198 0.549,-0.307 0.334,-0.309 -0.184,-0.002 -0.562,0.136 -0.841,0.306 M 87.05,49.94 c 0,0.035 0.187,0.1 0.416,0.144 0.23,0.044 0.417,0.015 0.417,-0.064 0,-0.079 -0.187,-0.144 -0.417,-0.144 -0.229,0 -0.416,0.029 -0.416,0.064 m 30.222,0.395 c -0.278,0.252 -0.645,0.683 -0.817,0.958 -0.25,0.401 -1.712,2.224 -2.072,2.583 -0.046,0.046 -0.186,0.234 -0.311,0.417 -0.477,0.698 1.363,-1.39 2.253,-2.557 0.513,-0.673 1.167,-1.366 1.454,-1.541 0.294,-0.179 0.407,-0.318 0.259,-0.318 -0.144,0 -0.489,0.206 -0.766,0.458 m 2.398,-0.132 c 1.678,0.762 2.327,2.114 1.672,3.482 -0.226,0.472 -0.356,0.858 -0.289,0.858 0.358,0 0.862,-1.735 0.681,-2.341 -0.319,-1.065 -1.668,-2.332 -2.473,-2.322 -0.162,0.002 0.022,0.147 0.409,0.323 m 28.713,-0.151 c -0.179,0.122 -0.061,0.138 0.417,0.058 0.826,-0.138 0.96,-0.234 0.319,-0.231 -0.267,0.001 -0.599,0.079 -0.736,0.173 m 7.847,-0.114 c 0.038,0.033 0.37,0.111 0.736,0.172 0.478,0.08 0.596,0.064 0.417,-0.058 -0.225,-0.153 -1.32,-0.262 -1.153,-0.114 m 11.809,0.229 c -0.508,0.309 -1.159,1.252 -1.149,1.665 0.004,0.162 0.172,-0.043 0.375,-0.456 0.273,-0.556 0.56,-0.847 1.112,-1.125 0.415,-0.209 0.599,-0.368 0.416,-0.359 -0.18,0.008 -0.519,0.132 -0.754,0.275 m 2.594,-0.177 c 1.114,0.252 1.896,0.961 1.936,1.755 0.016,0.312 0.034,0.325 0.099,0.07 0.201,-0.78 -1.078,-1.978 -2.049,-1.919 -0.299,0.018 -0.298,0.024 0.014,0.094 m 13.987,0.222 c 0.451,0.176 0.888,0.417 0.971,0.534 0.115,0.163 0.135,0.154 0.084,-0.036 -0.078,-0.295 -1.064,-0.818 -1.542,-0.818 -0.183,0 0.036,0.144 0.487,0.32 m 23.032,-0.199 c -0.047,0.075 0.136,0.104 0.406,0.064 0.271,-0.039 0.492,-0.101 0.492,-0.136 0,-0.127 -0.816,-0.062 -0.898,0.072 m 2.648,0.114 c 0.827,0.293 1.348,0.922 1.488,1.798 0.12,0.748 0.143,43.34 0.025,45.701 -0.072,1.458 -0.07,1.472 0.098,0.5 0.32,-1.858 0.373,-45.219 0.057,-46.284 -0.372,-1.252 -1.129,-1.98 -2.035,-1.958 -0.165,0.004 0,0.113 0.367,0.243 m 24.083,-0.079 c -0.175,0.116 -0.024,0.134 0.5,0.058 0.934,-0.136 1.067,-0.23 0.319,-0.227 -0.313,0.001 -0.682,0.077 -0.819,0.169 m 8.5,-0.005 c 0.598,0.192 0.868,0.192 0.75,0 -0.057,-0.092 -0.342,-0.159 -0.635,-0.15 -0.508,0.016 -0.513,0.023 -0.115,0.15 m 23.75,0.144 c -0.275,0.158 -0.67,0.62 -0.877,1.028 l -0.377,0.74 0.044,19.765 0.043,19.764 0.399,0.582 c 1.065,1.553 4.131,1.626 5.141,0.121 0.25,-0.372 0.237,-0.369 -0.221,0.044 -1.388,1.252 -3.79,1.138 -4.764,-0.227 l -0.388,-0.544 -0.05,-19.167 c -0.028,-10.542 -0.002,-19.579 0.058,-20.083 0.125,-1.045 0.998,-2.084 1.862,-2.214 0.428,-0.064 0.431,-0.071 0.047,-0.083 -0.229,-0.007 -0.642,0.117 -0.917,0.274 m 3.013,0.005 c 0.374,0.17 0.88,0.562 1.123,0.872 0.244,0.309 0.442,0.487 0.44,0.396 -0.009,-0.433 -1.414,-1.586 -1.925,-1.58 -0.187,0.002 -0.037,0.131 0.362,0.312 m 7.154,-0.149 c -0.122,0.197 0.041,0.197 0.5,0 0.321,-0.138 0.32,-0.144 -0.032,-0.155 -0.201,-0.006 -0.412,0.063 -0.468,0.155 m 8.166,0.088 c 0.55,0.125 1.329,0.309 1.731,0.409 0.402,0.099 0.76,0.151 0.797,0.115 0.036,-0.036 -0.293,-0.155 -0.731,-0.264 -0.438,-0.108 -1.027,-0.269 -1.308,-0.356 -0.282,-0.087 -0.732,-0.152 -1,-0.145 -0.324,0.009 -0.152,0.091 0.511,0.241 m 16.663,-0.081 c -0.07,0.113 0.055,0.134 0.365,0.06 0.639,-0.154 0.699,-0.234 0.177,-0.234 -0.239,0 -0.483,0.078 -0.542,0.174 m 7.268,-0.112 c 0.038,0.033 0.369,0.111 0.736,0.172 0.478,0.08 0.596,0.064 0.417,-0.058 -0.225,-0.153 -1.32,-0.262 -1.153,-0.114 m 21.028,0.301 c -0.298,0.184 -0.542,0.414 -0.542,0.512 0,0.097 0.133,0.056 0.297,-0.091 0.163,-0.148 0.557,-0.382 0.875,-0.52 0.375,-0.163 0.461,-0.248 0.245,-0.243 -0.184,0.004 -0.577,0.158 -0.875,0.342 m 2.968,-0.205 c 0.571,0.174 1.209,0.517 1.378,0.742 0.089,0.12 0.114,0.099 0.072,-0.059 -0.091,-0.335 -0.955,-0.817 -1.46,-0.814 l -0.417,0.002 0.427,0.129 m 25.573,0.009 c 0.459,0.197 0.622,0.197 0.5,0 -0.056,-0.092 -0.267,-0.161 -0.468,-0.155 -0.352,0.011 -0.353,0.017 -0.032,0.155 M 88.36,50.501 c 0.19,0.161 0.461,0.517 0.6,0.792 0.2,0.394 0.254,0.429 0.255,0.165 10e-4,-0.359 -0.728,-1.248 -1.024,-1.248 -0.098,0 -0.022,0.131 0.169,0.291 m 58.273,-0.028 c -0.367,0.133 -0.771,0.279 -0.899,0.326 -0.128,0.047 -0.2,0.118 -0.16,0.157 0.04,0.04 0.407,-0.047 0.816,-0.192 0.408,-0.146 0.968,-0.322 1.243,-0.392 0.452,-0.116 0.46,-0.129 0.083,-0.134 -0.229,-0.002 -0.716,0.103 -1.083,0.235 m 11.333,-0.155 c 1.639,0.343 4.48,1.541 5.503,2.322 0.319,0.243 0.58,0.377 0.58,0.298 -0.005,-0.552 -4.894,-2.76 -5.998,-2.709 -0.331,0.015 -0.348,0.034 -0.085,0.089 m 23.068,0.105 c -0.855,0.652 -0.83,0.153 -0.78,15.829 0.037,11.697 0.089,14.606 0.265,14.874 0.206,0.312 0.212,0.306 0.089,-0.083 -0.213,-0.68 -0.274,-28.812 -0.063,-29.533 0.098,-0.339 0.375,-0.77 0.614,-0.958 0.24,-0.188 0.369,-0.34 0.288,-0.337 -0.081,0.003 -0.267,0.097 -0.413,0.208 m 25.633,0.277 c -0.749,0.89 -0.785,1.664 -0.754,16.27 0.015,7.511 0.083,13.019 0.151,12.24 0.068,-0.78 0.126,-7.08 0.129,-14 0.005,-13.655 0.011,-13.773 0.696,-14.507 0.254,-0.271 0.4,-0.493 0.326,-0.493 -0.075,0 -0.321,0.22 -0.548,0.49 m 25.216,-0.005 c -1.673,0.599 -2.57,1.001 -2.466,1.104 0.047,0.047 0.377,-0.061 0.734,-0.239 0.723,-0.363 2.921,-1.123 3.565,-1.233 0.359,-0.062 0.348,-0.072 -0.083,-0.076 -0.275,-0.002 -1.062,0.197 -1.75,0.444 m 12.667,-0.292 c 1.076,0.293 1.456,0.325 0.833,0.071 -0.321,-0.132 -0.771,-0.237 -1,-0.235 -0.333,0.004 -0.3,0.037 0.167,0.164 m 30.791,0.151 c -0.343,0.182 -0.625,0.37 -0.625,0.419 0,0.05 0.057,0.058 0.125,0.019 0.196,-0.112 1.265,-0.577 1.542,-0.671 0.171,-0.058 0.145,-0.087 -0.083,-0.091 -0.184,-0.003 -0.615,0.143 -0.959,0.324 m 24.542,-0.021 c -1.438,0.56 -2.051,0.848 -1.971,0.928 0.044,0.044 0.387,-0.069 0.762,-0.25 0.67,-0.323 1.8,-0.73 2.459,-0.885 0.263,-0.061 0.246,-0.078 -0.083,-0.081 -0.229,-0.002 -0.755,0.128 -1.167,0.288 m 11,-0.161 c 0.321,0.068 0.808,0.173 1.083,0.232 0.456,0.099 0.448,0.087 -0.083,-0.13 -0.321,-0.132 -0.808,-0.236 -1.083,-0.232 -0.486,0.006 -0.484,0.009 0.083,0.13 m 39.483,0.466 c -1.085,0.613 -2.316,1.579 -2.316,1.817 0,0.067 0.281,-0.144 0.625,-0.469 0.704,-0.665 2.37,-1.636 3.125,-1.82 0.455,-0.111 0.463,-0.123 0.083,-0.136 -0.229,-0.007 -0.912,0.266 -1.517,0.608 m 9.632,-0.305 c 0.476,0.171 0.945,0.361 1.042,0.421 0.097,0.06 0.176,0.047 0.176,-0.029 0,-0.15 -1.488,-0.719 -1.855,-0.709 -0.126,0.003 0.161,0.146 0.637,0.317 M 246.55,50.994 c 2.271,1.025 3.122,1.45 3.922,1.962 0.501,0.321 0.911,0.545 0.911,0.498 0,-0.103 -2.088,-1.433 -2.667,-1.698 -0.229,-0.105 -0.679,-0.297 -1,-0.428 -0.321,-0.131 -0.793,-0.324 -1.049,-0.428 -0.696,-0.284 -0.79,-0.209 -0.117,0.094 m -102.81,0.641 c -1.406,0.753 -3.097,1.827 -3.743,2.378 -1.13,0.965 -2.666,2.472 -3.005,2.947 -0.196,0.275 0.243,-0.104 0.976,-0.843 2.204,-2.221 4.686,-3.935 7.082,-4.887 0.345,-0.137 0.359,-0.165 0.083,-0.164 -0.183,0.002 -0.81,0.258 -1.393,0.569 m 42.11,-0.392 c 0.11,0.11 0.211,0.504 0.225,0.875 0.019,0.535 0.039,0.576 0.096,0.197 0.092,-0.62 -0.074,-1.272 -0.325,-1.272 -0.149,0 -0.148,0.048 0.004,0.2 m 102.927,0.051 c 0.608,0.317 0.762,0.319 0.346,0.004 -0.178,-0.134 -0.436,-0.246 -0.573,-0.249 -0.138,-0.002 -0.036,0.108 0.227,0.245 m 24.62,-0.182 c 0.262,0.262 2.356,1.267 2.174,1.044 -0.126,-0.154 -0.296,-0.28 -0.378,-0.28 -0.083,0 -0.447,-0.187 -0.81,-0.416 -0.551,-0.348 -1.225,-0.586 -0.986,-0.348 m 15.659,0.253 c -0.321,0.599 -0.232,40.042 0.091,40.438 0.259,0.319 0.261,0.318 0.125,-0.01 -0.213,-0.512 -0.263,-40.03 -0.051,-40.425 0.095,-0.179 0.136,-0.325 0.09,-0.325 -0.045,0 -0.161,0.145 -0.255,0.322 m 5.46,-0.122 c 0.11,0.11 0.214,0.654 0.23,1.208 0.03,0.992 0.031,0.995 0.094,0.186 0.075,-0.97 -0.053,-1.594 -0.327,-1.594 -0.149,0 -0.149,0.048 0.003,0.2 m 27.127,0.045 c 0.178,0.134 0.398,0.244 0.49,0.244 0.092,0 0.021,-0.11 -0.157,-0.244 -0.178,-0.135 -0.398,-0.245 -0.49,-0.245 -0.092,0 -0.021,0.11 0.157,0.245 m -89.01,1.165 c -0.523,0.51 -0.96,0.821 -0.995,0.708 -0.034,-0.111 -0.141,-0.501 -0.237,-0.868 l -0.175,-0.667 0.092,0.834 c 0.138,1.243 0.273,1.254 1.423,0.111 0.569,-0.565 0.987,-1.028 0.929,-1.028 -0.058,0 -0.525,0.409 -1.037,0.91 m 17.154,-0.692 c 1.192,0.739 3.213,2.763 3.475,3.481 0.049,0.134 0.541,-0.279 1.277,-1.07 0.659,-0.709 1.645,-1.564 2.19,-1.9 0.546,-0.337 0.962,-0.643 0.926,-0.679 -0.241,-0.241 -2.891,1.937 -3.778,3.103 l -0.422,0.556 -0.46,-0.695 c -0.762,-1.152 -2.894,-3.04 -3.392,-3.004 -0.075,0.005 0.007,0.099 0.184,0.208 m 73.411,0.548 c 0.494,0.45 1.019,0.883 1.166,0.963 0.148,0.081 -0.106,-0.205 -0.564,-0.633 -0.459,-0.429 -0.984,-0.863 -1.167,-0.963 -0.183,-0.101 0.071,0.184 0.565,0.633 M 228.466,52.22 c -0.275,0.176 -0.612,0.371 -0.75,0.434 -0.137,0.063 -0.512,0.307 -0.833,0.543 -0.321,0.236 -0.688,0.504 -0.816,0.596 -0.551,0.396 -3.561,3.363 -3.718,3.667 -0.095,0.183 0.465,-0.342 1.244,-1.167 1.361,-1.441 2.835,-2.622 4.79,-3.838 0.504,-0.314 0.842,-0.567 0.75,-0.562 -0.092,0.004 -0.392,0.151 -0.667,0.327 M 89.231,71.543 c -0.006,12.701 0.047,19.495 0.152,19.333 0.204,-0.315 0.204,-38.109 0,-38.583 -0.081,-0.189 -0.147,8.173 -0.152,19.25 M 83.297,71.46 c 0,10.541 0.02,14.829 0.044,9.528 0.025,-5.3 0.025,-13.925 0,-19.166 -0.024,-5.241 -0.044,-0.904 -0.044,9.638 m 83.388,-17.25 c -0.029,1.009 0.004,1.834 0.073,1.833 0.069,0 0.125,-0.825 0.125,-1.833 0,-2.371 -0.131,-2.37 -0.198,0 m 180.256,-0.664 c -0.955,0.988 -1.707,2.247 -1.691,2.83 0.012,0.415 0.012,0.415 0.086,0.023 0.133,-0.701 0.898,-1.918 1.769,-2.814 0.467,-0.482 0.804,-0.875 0.747,-0.875 -0.057,0 -0.467,0.376 -0.911,0.836 m -160.676,12.08 c -0.008,7.059 0.033,13.246 0.093,13.75 0.102,0.863 0.076,-23.174 -0.028,-25.5 -0.027,-0.596 -0.056,4.692 -0.065,11.75 m -21.389,-11.87 c 0.742,0.786 1.085,1.047 0.652,0.496 -0.29,-0.369 -0.472,-0.545 -0.984,-0.954 -0.226,-0.181 -0.077,0.025 0.332,0.458 m 152.434,-0.03 c 0.847,0.918 1.387,1.678 1.912,2.692 0.226,0.436 0.433,0.726 0.46,0.645 0.047,-0.142 -0.742,-1.681 -0.95,-1.853 -0.056,-0.046 -0.358,-0.425 -0.672,-0.842 -0.315,-0.417 -0.764,-0.897 -0.999,-1.067 -0.265,-0.191 -0.17,-0.028 0.249,0.425 m -144.548,0.15 c 0,0.413 0.032,0.582 0.072,0.375 0.04,-0.206 0.04,-0.543 0,-0.75 -0.04,-0.206 -0.072,-0.037 -0.072,0.375 m 192.095,-0.083 c 0.089,0.183 0.363,0.521 0.608,0.75 0.245,0.229 0.587,0.717 0.759,1.083 0.173,0.367 0.316,0.585 0.32,0.484 0.011,-0.347 -0.483,-1.153 -1.165,-1.9 -0.376,-0.413 -0.611,-0.6 -0.522,-0.417 m -112.235,0.71 c 0.361,0.385 0.693,0.664 0.738,0.619 0.081,-0.082 -0.187,-0.352 -0.984,-0.991 -0.225,-0.181 -0.115,-0.014 0.246,0.372 M 112.966,55.57 c -0.706,0.897 -1.002,1.251 -1.721,2.056 -0.246,0.275 -0.708,0.838 -1.026,1.25 -0.319,0.413 -0.824,1.013 -1.123,1.334 -0.299,0.32 -0.544,0.657 -0.545,0.748 -0.002,0.194 0.463,-0.303 1.501,-1.602 0.411,-0.515 1.444,-1.771 2.294,-2.792 0.851,-1.02 1.488,-1.851 1.417,-1.848 -0.072,0.004 -0.43,0.388 -0.797,0.854 m 7.319,-0.316 c -0.267,0.299 -1.085,1.217 -1.819,2.041 -0.733,0.824 -1.371,1.536 -1.417,1.581 -0.857,0.855 -2.998,3.334 -2.879,3.334 0.088,0 0.491,-0.394 0.894,-0.875 0.404,-0.482 1.447,-1.663 2.318,-2.625 1.365,-1.508 2.242,-2.479 2.918,-3.233 0.357,-0.398 0.62,-0.767 0.547,-0.767 -0.042,0 -0.295,0.244 -0.562,0.544 m 45.79,-0.046 c 0.202,0.273 0.399,0.466 0.438,0.428 0.092,-0.093 -0.511,-0.914 -0.677,-0.921 -0.071,-0.003 0.036,0.219 0.239,0.493 m -14.064,0.122 c 0.3,0.038 0.75,0.037 1,-10e-4 0.25,-0.038 0.005,-0.069 -0.545,-0.068 -0.55,10e-4 -0.755,0.032 -0.455,0.069 m 87.622,0.062 c 1.192,0.066 2.467,0.162 2.833,0.215 0.606,0.088 0.591,0.074 -0.166,-0.147 -0.56,-0.164 -1.492,-0.234 -2.834,-0.215 l -2,0.029 2.167,0.118 m 14.417,0.371 c 0.229,0.272 0.604,0.694 0.833,0.938 0.229,0.244 0.619,0.702 0.867,1.018 0.248,0.316 0.454,0.49 0.459,0.387 0.004,-0.102 -0.574,-0.783 -1.284,-1.512 -0.711,-0.73 -1.104,-1.104 -0.875,-0.831 m 25.958,-0.436 c 0.206,0.04 0.544,0.04 0.75,0 0.206,-0.039 0.037,-0.072 -0.375,-0.072 -0.413,0 -0.581,0.033 -0.375,0.072 m 24.75,0.002 c 0.252,0.038 0.665,0.038 0.917,0 0.252,-0.038 0.045,-0.069 -0.459,-0.069 -0.504,0 -0.71,0.031 -0.458,0.069 m 50.167,-0.004 c 0.16,0.041 0.423,0.041 0.583,0 0.16,-0.042 0.029,-0.077 -0.292,-0.077 -0.321,0 -0.452,0.035 -0.291,0.077 m -204.709,0.218 -0.583,0.123 0.583,0.01 c 0.321,0.006 0.734,-0.054 0.917,-0.133 l 0.333,-0.143 -0.333,0.01 c -0.183,0.006 -0.596,0.065 -0.917,0.133 m 4.167,0.009 c 0.412,0.073 0.938,0.131 1.167,0.129 l 0.416,-0.005 -0.416,-0.133 c -0.229,-0.073 -0.755,-0.132 -1.167,-0.129 l -0.75,0.004 0.75,0.134 m 81.833,-0.009 -0.416,0.133 h 0.416 c 0.23,0 0.605,-0.06 0.834,-0.133 l 0.416,-0.133 h -0.416 c -0.229,0 -0.604,0.06 -0.834,0.133 m 41.75,0 c -0.439,0.189 0.426,0.189 1.167,0 0.478,-0.122 0.47,-0.128 -0.167,-0.135 -0.366,-0.005 -0.816,0.056 -1,0.135 m 3.834,0.01 c 0.908,0.188 2.243,0.179 1.5,-0.01 -0.275,-0.07 -0.875,-0.127 -1.334,-0.128 h -0.833 l 0.667,0.138 m 21.083,-0.01 c -0.314,0.203 0.366,0.203 1,0 0.382,-0.122 0.368,-0.135 -0.167,-0.148 -0.321,-0.007 -0.696,0.059 -0.833,0.148 m 3.917,0.01 c 0.366,0.075 0.929,0.133 1.25,0.127 l 0.583,-0.01 -0.5,-0.127 c -0.275,-0.07 -0.838,-0.127 -1.25,-0.128 h -0.75 l 0.667,0.138 m 46.476,0.005 c -0.643,0.187 -2.227,1.58 -2.226,1.959 10e-4,0.176 0.112,0.094 0.307,-0.225 0.454,-0.745 1.45,-1.432 2.418,-1.669 0.472,-0.115 0.671,-0.211 0.441,-0.213 -0.229,-0.002 -0.652,0.065 -0.94,0.148 m 2.857,-0.015 c 0.183,0.079 0.558,0.141 0.833,0.138 0.488,-0.004 0.49,-0.008 0.084,-0.138 -0.612,-0.196 -1.373,-0.196 -0.917,0 m -208.25,0.551 c -0.601,0.199 -0.95,0.384 -0.784,0.417 0.165,0.033 0.39,-0.015 0.5,-0.106 0.111,-0.091 0.483,-0.218 0.828,-0.283 0.344,-0.064 0.667,-0.183 0.718,-0.265 0.124,-0.201 -0.011,-0.176 -1.262,0.237 m 8.5,-0.218 c 0.137,0.089 0.4,0.162 0.583,0.162 0.276,0 0.291,-0.028 0.084,-0.162 -0.138,-0.089 -0.4,-0.161 -0.584,-0.161 -0.276,0 -0.29,0.028 -0.083,0.161 m 78.333,0 c -0.203,0.132 -0.181,0.162 0.115,0.164 0.201,0.002 0.412,-0.072 0.469,-0.164 0.131,-0.212 -0.255,-0.212 -0.584,0 m 8.834,-0.097 c 0,0.037 0.499,0.23 1.108,0.427 2.788,0.9 5.37,2.831 7.082,5.295 0.271,0.39 0.53,0.709 0.576,0.709 0.73,0 -3.49,-4.214 -5.053,-5.045 -1.502,-0.799 -3.713,-1.624 -3.713,-1.386 m 32.75,0.366 c -1.194,0.612 -2.325,1.515 -2.884,2.301 -0.646,0.908 -1.368,2.227 -1.358,2.478 0.005,0.111 0.185,-0.152 0.401,-0.586 0.956,-1.926 2.323,-3.294 4.13,-4.13 0.574,-0.266 0.931,-0.485 0.794,-0.486 -0.138,-0.002 -0.625,0.188 -1.083,0.423 m 24.833,-0.002 c -0.743,0.38 -1.452,0.883 -1,0.712 0.458,-0.175 2.083,-1.012 2.083,-1.074 0,-0.143 -0.267,-0.054 -1.083,0.362 m 8.083,-0.267 c 0.138,0.089 0.363,0.162 0.5,0.162 0.223,0 0.223,-0.018 0,-0.162 -0.137,-0.089 -0.362,-0.161 -0.5,-0.161 -0.222,0 -0.222,0.018 0,0.161 M 157.86,56.3 c 0.734,0.318 1.076,0.312 0.462,-0.008 -0.262,-0.137 -0.6,-0.246 -0.75,-0.242 -0.15,0.003 -0.02,0.116 0.288,0.25 m 75.856,-0.098 c -0.137,0.076 -0.466,0.225 -0.73,0.329 -0.263,0.105 -0.44,0.231 -0.391,0.28 0.049,0.049 0.227,0.017 0.397,-0.07 0.169,-0.087 0.57,-0.275 0.891,-0.417 0.321,-0.143 0.471,-0.26 0.333,-0.261 -0.137,0 -0.362,0.062 -0.5,0.139 m 52.662,0.383 c 0.594,0.298 1.381,0.855 1.75,1.238 0.637,0.661 0.863,1.024 1.482,2.387 0.146,0.32 0.267,0.488 0.269,0.372 0.004,-0.212 -0.042,-0.321 -0.581,-1.372 -0.699,-1.365 -2.832,-3.169 -3.745,-3.166 -0.139,0 0.232,0.244 0.825,0.541 m 24.066,-0.291 c 0.262,0.137 0.545,0.249 0.628,0.249 0.564,0 2.308,1.543 2.685,2.375 0.114,0.252 0.266,0.458 0.338,0.458 0.666,0 -1.538,-2.314 -2.752,-2.888 -0.983,-0.466 -1.727,-0.626 -0.899,-0.194 m 48.786,0.385 c 0.497,0.35 1.24,0.976 1.653,1.391 1.415,1.423 3.721,1.765 4.408,0.654 0.054,-0.087 -0.138,-0.041 -0.427,0.103 -1.404,0.701 -2.533,0.413 -4.028,-1.026 -0.886,-0.852 -2.119,-1.758 -2.394,-1.758 -0.063,0 0.292,0.286 0.788,0.636 m -213.18,0.18 c -2.026,1.053 -2.873,1.62 -4.446,2.972 -0.909,0.781 -2.076,2.379 -1.739,2.379 0.069,0 0.29,-0.33 0.491,-0.733 0.201,-0.402 0.7,-1.006 1.109,-1.341 0.409,-0.335 0.839,-0.7 0.956,-0.811 0.203,-0.194 0.87,-0.673 1.442,-1.036 0.149,-0.094 0.851,-0.495 1.562,-0.89 0.71,-0.396 1.291,-0.75 1.291,-0.788 0,-0.096 -0.016,-0.09 -0.666,0.248 m 13.894,0.235 c 2.788,1.777 3.802,2.64 5.179,4.409 0.446,0.574 0.847,1.009 0.89,0.966 0.462,-0.462 -5.331,-5.646 -6.239,-5.583 -0.078,0.006 -0.001,0.099 0.17,0.208 m 71.865,0.038 c -0.177,0.134 -0.248,0.244 -0.156,0.244 0.091,0 0.312,-0.11 0.49,-0.244 0.178,-0.135 0.248,-0.245 0.157,-0.245 -0.092,0 -0.313,0.11 -0.491,0.245 m 67.142,0.619 c -0.46,0.482 -0.941,1.025 -1.069,1.209 -0.127,0.183 0.052,0.033 0.398,-0.334 0.347,-0.366 0.864,-0.91 1.149,-1.208 0.286,-0.298 0.483,-0.542 0.439,-0.542 -0.044,0 -0.456,0.394 -0.917,0.875 m 46.043,-0.764 c -0.061,0.062 -0.105,0.305 -0.097,0.542 0.014,0.423 0.017,0.422 0.161,-0.061 0.152,-0.507 0.13,-0.674 -0.064,-0.481 m 21.389,0.199 c 0,0.079 -0.189,0.436 -0.421,0.792 l -0.42,0.648 0.504,-0.577 c 0.447,-0.512 0.654,-1.006 0.42,-1.006 -0.046,0 -0.083,0.065 -0.083,0.143 m -136.007,0.849 c -0.508,0.353 -1.296,0.993 -1.75,1.422 -0.765,0.723 -0.743,0.713 0.29,-0.134 0.613,-0.503 1.419,-1.086 1.791,-1.295 0.372,-0.209 0.676,-0.441 0.676,-0.516 0,-0.183 0.037,-0.202 -1.007,0.523 m -94.314,-0.034 c -0.906,1.086 -3.117,4.826 -2.95,4.993 0.039,0.039 0.349,-0.476 0.69,-1.145 0.721,-1.414 1.618,-2.849 2.102,-3.363 0.338,-0.359 0.71,-0.943 0.599,-0.943 -0.032,0 -0.23,0.206 -0.441,0.458 m 85.179,0.972 c -0.97,1.46 -0.819,1.501 0.186,0.05 0.437,-0.631 0.737,-1.146 0.667,-1.145 -0.07,0.002 -0.454,0.494 -0.853,1.095 M 350.8,58.376 c -0.064,0.288 -0.078,0.562 -0.032,0.608 0.046,0.045 0.135,-0.153 0.198,-0.441 0.064,-0.288 0.078,-0.561 0.032,-0.607 -0.046,-0.046 -0.135,0.152 -0.198,0.44 m -30.683,0 c 0.171,0.881 0.399,1.572 0.413,1.25 0.008,-0.183 -0.1,-0.633 -0.24,-1 -0.139,-0.366 -0.218,-0.479 -0.173,-0.25 m 24.658,1.25 c 0,0.825 0.028,1.184 0.063,0.797 0.035,-0.387 0.035,-1.062 10e-4,-1.5 -0.034,-0.438 -0.063,-0.122 -0.064,0.703 m -87.894,-0.253 c 0.372,0.548 1.012,1.686 1.423,2.529 0.41,0.844 0.746,1.443 0.746,1.332 0,-0.542 -2.41,-4.852 -2.715,-4.856 -0.072,-10e-4 0.173,0.447 0.546,0.995 m 57.339,0.253 c 0.003,0.371 0.482,1.491 0.489,1.144 0.004,-0.195 -0.105,-0.57 -0.242,-0.833 -0.137,-0.263 -0.248,-0.402 -0.247,-0.311 M 297.077,60.3 c -0.28,0.613 -0.226,0.744 0.076,0.187 0.141,-0.261 0.225,-0.505 0.187,-0.543 -0.038,-0.038 -0.157,0.122 -0.263,0.356 m -69.857,0.348 c -0.227,0.217 -0.333,0.395 -0.234,0.395 0.2,0 0.822,-0.634 0.715,-0.729 -0.037,-0.034 -0.254,0.117 -0.481,0.334 m 93.349,-0.272 c 0.008,0.138 0.074,0.438 0.147,0.667 l 0.134,0.417 0.014,-0.417 c 0.008,-0.229 -0.059,-0.529 -0.148,-0.667 -0.143,-0.222 -0.16,-0.222 -0.147,0 m -100.568,0.608 c -0.413,0.829 -0.262,0.872 0.196,0.057 0.206,-0.366 0.313,-0.663 0.238,-0.661 -0.074,0.003 -0.27,0.274 -0.434,0.604 M 351.216,60.96 c 0.515,0.737 1.51,1.542 2.875,2.326 1.158,0.666 0.968,0.412 -0.25,-0.333 -0.573,-0.351 -1.081,-0.68 -1.129,-0.732 -0.451,-0.485 -1.675,-1.518 -1.496,-1.261 m -54.48,0.194 c -0.011,0.107 -0.068,0.332 -0.128,0.5 -0.083,0.237 -0.061,0.263 0.099,0.115 0.114,-0.105 0.171,-0.33 0.128,-0.5 -0.044,-0.17 -0.089,-0.222 -0.099,-0.115 m -70.767,1.014 c -0.414,0.527 -0.748,1.033 -0.743,1.125 0.006,0.092 0.099,0.024 0.208,-0.151 0.11,-0.174 0.388,-0.549 0.62,-0.833 0.73,-0.896 0.873,-1.099 0.769,-1.099 -0.056,0 -0.44,0.431 -0.854,0.958 m 45.933,-0.847 c -0.01,0.107 -0.068,0.332 -0.127,0.5 -0.084,0.237 -0.061,0.263 0.099,0.115 0.114,-0.105 0.171,-0.33 0.127,-0.5 -0.043,-0.17 -0.088,-0.222 -0.099,-0.115 m 18.009,0.222 c -0.002,0.229 0.06,0.567 0.139,0.75 l 0.143,0.333 -0.005,-0.333 c -0.003,-0.183 -0.065,-0.521 -0.138,-0.75 l -0.134,-0.417 -0.005,0.417 m 24.834,0 c -0.003,0.229 0.059,0.567 0.138,0.75 l 0.143,0.333 -0.005,-0.333 c -0.002,-0.183 -0.065,-0.521 -0.138,-0.75 l -0.133,-0.417 -0.005,0.417 m -207.779,1.218 c -1.004,1.213 -1.481,1.895 -0.897,1.282 0.697,-0.731 1.858,-2.178 1.793,-2.234 -0.034,-0.03 -0.437,0.398 -0.896,0.952 M 320.963,76.71 c 0,8.204 0.02,11.56 0.045,7.458 0.025,-4.102 0.025,-10.815 0,-14.917 -0.025,-4.102 -0.045,-0.746 -0.045,7.459 M 271.478,64.241 c -0.128,2.457 -0.214,27.477 -0.095,27.358 0.071,-0.071 0.295,-29.21 0.226,-29.358 -0.014,-0.029 -0.072,0.871 -0.131,2 m 24.873,-2.017 c -0.017,0.038 -0.074,6.639 -0.125,14.669 -0.077,12.027 -0.133,14.648 -0.322,14.875 -0.126,0.151 -0.152,0.275 -0.059,0.275 0.408,0 0.456,-1.354 0.536,-15.167 0.078,-13.251 0.074,-14.879 -0.03,-14.652 m 48.867,0.177 c 0.005,0.75 2.089,3.328 3.498,4.329 0.846,0.6 1.865,1.171 1.946,1.09 0.038,-0.038 -0.29,-0.279 -0.73,-0.536 -2.063,-1.202 -3.308,-2.431 -4.221,-4.167 -0.272,-0.518 -0.494,-0.84 -0.493,-0.716 M 36.076,62.595 C 35.864,62.85 35.794,91.021 36.005,90.81 36.076,90.739 36.17,84.369 36.216,76.654 L 36.3,62.626 51.966,62.583 c 14.781,-0.04 15.68,-0.026 15.898,0.25 0.218,0.278 0.225,0.277 0.125,-0.012 -0.058,-0.168 -0.106,-0.337 -0.106,-0.375 0,-0.207 -31.635,-0.059 -31.807,0.149 m 216.34,-0.135 c 0.04,0.091 0.168,0.41 0.286,0.708 0.202,0.511 0.514,0.739 0.514,0.375 0,-0.092 -0.075,-0.167 -0.166,-0.167 -0.092,0 -0.169,-0.093 -0.172,-0.208 -0.003,-0.115 -0.124,-0.358 -0.269,-0.542 -0.146,-0.183 -0.232,-0.258 -0.193,-0.166 m -138.014,0.914 c 0.205,0.366 0.401,0.638 0.434,0.605 0.072,-0.072 -0.617,-1.269 -0.73,-1.269 -0.043,0 0.09,0.299 0.296,0.664 M 67.923,77.043 c -0.019,7.654 0.02,14.003 0.088,14.109 0.11,0.174 0.105,-16.928 -0.007,-24.859 -0.025,-1.742 -0.061,3.096 -0.081,10.75 m 64.82,-13.41 c -0.106,0.234 -0.19,0.553 -0.186,0.71 0.004,0.156 0.113,-0.014 0.242,-0.377 0.269,-0.755 0.234,-0.967 -0.056,-0.333 m 33.64,-0.215 c 0,0.15 0.075,0.318 0.167,0.375 0.107,0.066 0.166,2.805 0.166,7.671 v 7.567 l -0.439,0.798 c -1.103,2 -2.569,3.604 -4.628,5.064 -0.634,0.449 -1.093,0.817 -1.022,0.817 0.981,0 4.695,-3.697 5.8,-5.773 l 0.456,-0.856 -0.005,-7.644 c -0.005,-6.457 -0.044,-7.694 -0.25,-7.968 -0.206,-0.271 -0.245,-0.279 -0.245,-0.051 m 52.513,0.073 c -0.007,0.201 -0.088,0.412 -0.18,0.469 -0.091,0.056 -0.163,0.304 -0.158,0.551 0.006,0.375 0.049,0.331 0.26,-0.271 0.138,-0.396 0.216,-0.808 0.172,-0.917 -0.045,-0.108 -0.087,-0.032 -0.094,0.168 m 40.158,0.06 c 0.013,0.233 0.816,2.371 0.822,2.19 0.01,-0.308 -0.512,-1.916 -0.684,-2.106 -0.078,-0.087 -0.14,-0.125 -0.138,-0.084 m 31.202,13.913 c -0.045,15.798 -0.156,14.506 1.329,15.456 0.973,0.622 4.131,0.187 4.131,-0.569 0,-0.087 -0.25,0.033 -0.557,0.267 -0.821,0.626 -2.896,0.627 -3.716,0.002 -1.027,-0.784 -0.969,0.041 -1.062,-15.16 l -0.085,-14 -0.04,14.004 M 233.425,63.835 c 3.277,0.025 8.639,0.025 11.916,0 3.277,-0.026 0.596,-0.046 -5.958,-0.046 -6.554,0 -9.235,0.02 -5.958,0.046 m 81.664,13.675 c -0.044,15.483 -0.117,14.498 1.129,15.284 0.791,0.5 2.854,0.603 3.425,0.171 0.178,-0.135 0.234,-0.247 0.125,-0.25 -0.109,-0.003 -0.245,0.07 -0.302,0.161 -0.169,0.274 -2.338,0.199 -2.969,-0.102 -1.267,-0.604 -1.187,0.342 -1.283,-15.231 l -0.085,-13.917 -0.04,13.884 M 138.407,65.045 c -0.216,0.56 -0.355,1.056 -0.308,1.103 0.046,0.046 0.176,-0.202 0.289,-0.552 0.113,-0.35 0.277,-0.726 0.364,-0.837 0.087,-0.11 0.134,-0.32 0.103,-0.466 -0.03,-0.146 -0.232,0.192 -0.448,0.752 M 356.05,64.293 c 0.547,0.313 0.818,0.317 0.407,0.005 -0.178,-0.134 -0.437,-0.244 -0.574,-0.244 -0.145,0.001 -0.075,0.101 0.167,0.239 m -251.482,1.333 c -0.297,0.413 -0.513,0.75 -0.481,0.75 0.032,0 0.341,-0.337 0.686,-0.75 0.344,-0.412 0.561,-0.75 0.48,-0.75 -0.081,0 -0.389,0.338 -0.685,0.75 m 253.315,-0.537 c 0.763,0.384 1.333,0.614 1.333,0.537 0,-0.119 -1.294,-0.75 -1.535,-0.749 -0.118,0.001 -0.027,0.096 0.202,0.212 M 218.3,65.376 c -0.063,0.197 -0.077,0.396 -0.031,0.442 0.046,0.046 0.135,-0.078 0.197,-0.275 0.063,-0.197 0.077,-0.396 0.031,-0.442 -0.046,-0.046 -0.135,0.078 -0.197,0.275 m -86.303,0.584 c -0.272,0.861 -0.612,2.842 -0.596,3.469 0.012,0.464 0.095,0.168 0.248,-0.886 0.126,-0.871 0.313,-1.786 0.415,-2.033 0.102,-0.248 0.152,-0.548 0.112,-0.667 -0.048,-0.139 -0.112,-0.097 -0.179,0.117 m 228.277,0.186 c 0.445,0.231 0.842,0.386 0.884,0.344 0.087,-0.087 -1.3,-0.784 -1.536,-0.773 -0.086,0.005 0.208,0.197 0.652,0.429 M 217.913,66.96 c -0.121,0.55 -0.19,1.338 -0.154,1.75 l 0.066,0.75 0.029,-0.85 c 0.016,-0.468 0.11,-1.082 0.209,-1.366 0.098,-0.283 0.155,-0.688 0.125,-0.9 -0.034,-0.239 -0.138,-0.007 -0.275,0.616 M 116.05,66.302 c 0,0.051 0.187,0.368 0.416,0.705 0.507,0.746 0.55,0.614 0.067,-0.204 -0.327,-0.556 -0.483,-0.717 -0.483,-0.501 m 143.872,0.408 c 0,0.32 0.034,0.452 0.076,0.291 0.042,-0.16 0.042,-0.423 0,-0.583 -0.042,-0.16 -0.076,-0.029 -0.076,0.292 M 109.8,66.671 c -0.092,0.067 -0.316,0.31 -0.498,0.539 -0.28,0.353 -0.243,0.341 0.249,-0.084 0.319,-0.275 0.612,-0.518 0.651,-0.541 0.038,-0.023 0.001,-0.041 -0.083,-0.039 -0.084,10e-4 -0.228,0.057 -0.319,0.125 m 251.597,-0.064 c 0.218,0.201 3.167,1.593 3.081,1.455 -0.057,-0.092 -0.738,-0.472 -1.513,-0.843 -1.253,-0.601 -1.779,-0.806 -1.568,-0.612 m -223.552,0.429 c -0.116,0.41 -0.047,0.647 0.135,0.466 0.053,-0.053 0.07,-0.272 0.038,-0.486 l -0.059,-0.39 -0.114,0.41 m -27.629,0.081 c 0,0.164 0.713,1.269 0.778,1.204 0.038,-0.038 -0.091,-0.341 -0.287,-0.674 -0.324,-0.548 -0.491,-0.729 -0.491,-0.53 m 149.513,0.64 c -0.033,0.751 -0.882,1.38 -2.263,1.676 -0.267,0.057 -0.251,0.075 0.082,0.091 1.106,0.051 2.569,-1.118 2.288,-1.828 -0.068,-0.172 -0.097,-0.155 -0.107,0.061 m -151.485,0.744 c -1.713,2.029 -3.195,3.875 -3.111,3.875 0.113,0 1.037,-1.038 1.5,-1.684 0.183,-0.256 0.807,-1.032 1.387,-1.724 0.579,-0.692 1.017,-1.258 0.973,-1.258 -0.044,0 -0.381,0.356 -0.749,0.791 m 9.159,0.167 c 0.98,1.726 1.145,1.969 1.146,1.687 0,-0.149 -0.112,-0.365 -0.249,-0.479 -0.138,-0.114 -0.25,-0.268 -0.25,-0.342 0,-0.164 -1.021,-1.824 -1.121,-1.824 -0.039,0 0.174,0.431 0.474,0.958 m 20.011,1.542 c -0.178,2.035 -0.174,2.64 0.026,3.833 0.131,0.779 0.246,1.192 0.256,0.917 0.01,-0.275 -0.061,-0.987 -0.157,-1.581 -0.126,-0.777 -0.122,-1.573 0.017,-2.833 0.106,-0.964 0.165,-1.978 0.131,-2.253 -0.034,-0.275 -0.157,0.587 -0.273,1.917 m 214.052,-2.063 c 0.367,0.14 0.797,0.324 0.956,0.408 0.312,0.166 0.741,0.213 0.593,0.065 -0.129,-0.129 -1.845,-0.745 -2.046,-0.735 -0.093,0.005 0.131,0.123 0.497,0.262 m 14.283,0.929 c 0.578,0.476 1.106,0.945 1.173,1.042 0.081,0.116 0.123,0.117 0.125,0.004 0.002,-0.095 -0.129,-0.282 -0.291,-0.417 -0.161,-0.135 -0.624,-0.527 -1.03,-0.87 -0.405,-0.344 -0.802,-0.625 -0.882,-0.625 -0.08,0 0.328,0.389 0.905,0.866 m -254.699,-0.4 c 0,0.074 0.064,0.205 0.143,0.292 0.078,0.087 0.461,0.758 0.85,1.492 0.677,1.275 1.007,1.779 1.007,1.538 0,-0.061 -0.161,-0.395 -0.357,-0.742 -0.196,-0.346 -0.616,-1.098 -0.932,-1.671 -0.55,-0.996 -0.711,-1.202 -0.711,-0.909 m 242.333,0.119 c 0,0.137 2.199,1.105 2.293,1.01 0.048,-0.047 -0.11,-0.161 -0.351,-0.252 -0.241,-0.092 -0.753,-0.319 -1.138,-0.505 -0.758,-0.367 -0.804,-0.381 -0.804,-0.253 M 223.61,69.792 c -0.134,0.351 0.054,4.014 0.253,4.918 l 0.165,0.75 -0.075,-0.834 c -0.235,-2.618 -0.263,-4.6 -0.068,-4.836 0.149,-0.179 0.153,-0.247 0.013,-0.247 -0.106,0 -0.235,0.112 -0.288,0.249 m 132.287,0.152 c 0.164,0.161 2.418,1.263 2.569,1.257 0.192,-0.009 -2.254,-1.304 -2.486,-1.316 -0.084,-0.005 -0.121,0.022 -0.083,0.059 M 217.61,71.543 c 0,0.871 0.028,1.227 0.062,0.792 0.035,-0.436 0.035,-1.148 0,-1.584 -0.034,-0.435 -0.062,-0.079 -0.062,0.792 m 150.124,-0.694 c 0.311,0.398 0.734,0.958 0.941,1.245 0.206,0.288 0.375,0.437 0.375,0.332 0,-0.202 -0.599,-0.973 -1.398,-1.8 -0.399,-0.412 -0.384,-0.372 0.082,0.223 m -248.761,0.652 c 0.503,0.877 0.75,1.198 0.731,0.95 -0.007,-0.087 -0.157,-0.383 -0.335,-0.658 -0.178,-0.275 -0.369,-0.631 -0.424,-0.792 -0.056,-0.16 -0.174,-0.291 -0.264,-0.291 -0.09,0 0.042,0.356 0.292,0.791 m 239.751,-0.169 c 0.009,0.154 1.856,1.07 1.956,0.97 0.038,-0.039 -0.388,-0.301 -0.947,-0.584 -0.559,-0.282 -1.013,-0.456 -1.009,-0.386 M 113.05,72.245 c 0,0.204 0.706,1.314 0.785,1.235 0.043,-0.043 -0.117,-0.363 -0.354,-0.713 -0.237,-0.349 -0.431,-0.584 -0.431,-0.522 m 248.166,0.46 c 1.211,1.029 2.243,2.149 2.677,2.906 0.268,0.467 0.488,0.77 0.488,0.673 0.006,-0.602 -1.731,-2.718 -2.816,-3.43 -0.421,-0.276 -0.578,-0.343 -0.349,-0.149 m -256.847,0.536 c -0.313,0.383 -0.66,0.852 -0.772,1.041 -0.151,0.257 -0.204,2.443 -0.208,8.647 -0.004,5.393 -0.066,8.416 -0.179,8.625 -0.097,0.182 -0.105,0.322 -0.019,0.322 0.316,0 0.354,-0.956 0.356,-9.017 l 0.003,-8.268 0.615,-0.816 c 0.339,-0.448 0.693,-0.868 0.787,-0.931 0.094,-0.064 0.13,-0.158 0.079,-0.209 -0.051,-0.05 -0.349,0.222 -0.662,0.606 m 265.014,0.108 c 0,0.076 0.056,0.195 0.125,0.263 0.069,0.069 0.252,0.438 0.407,0.82 0.156,0.382 0.287,0.607 0.292,0.5 0.012,-0.249 -0.617,-1.722 -0.735,-1.722 -0.049,0 -0.089,0.062 -0.089,0.139 m -255.059,1.307 c 0.246,0.442 0.573,1.029 0.726,1.304 0.153,0.275 0.525,0.95 0.826,1.5 0.301,0.55 0.624,1.075 0.717,1.166 0.153,0.152 -0.507,-1.123 -1.405,-2.713 -0.192,-0.341 -0.498,-0.902 -0.678,-1.246 -0.181,-0.344 -0.397,-0.668 -0.481,-0.72 -0.084,-0.052 0.049,0.267 0.295,0.709 m 17.092,-0.196 c -0.006,0.366 0.096,1.116 0.227,1.666 l 0.239,1 -0.108,-0.916 c -0.059,-0.505 -0.161,-1.255 -0.227,-1.667 l -0.119,-0.75 -0.012,0.667 m 86.379,0.333 c 0.027,0.55 0.132,1.262 0.232,1.583 0.201,0.64 0.188,0.502 -0.154,-1.75 l -0.127,-0.833 0.049,1 m -96.943,-0.054 c 0.17,0.305 0.403,0.729 0.517,0.943 0.114,0.214 0.24,0.357 0.28,0.317 0.09,-0.09 -0.736,-1.585 -0.95,-1.717 -0.087,-0.053 -0.018,0.152 0.153,0.457 m 249.49,0.971 c 0.156,0.755 0.16,5.74 0.006,6.5 -0.112,0.549 -0.105,0.545 0.112,-0.084 0.321,-0.926 0.318,-5.418 -0.003,-6.333 -0.222,-0.63 -0.228,-0.635 -0.115,-0.083 m -232.611,0 c 0.005,0.137 0.073,0.4 0.152,0.583 l 0.143,0.333 0.009,-0.333 c 0.005,-0.183 -0.063,-0.446 -0.152,-0.583 -0.144,-0.223 -0.161,-0.223 -0.152,0 m 86.319,-0.025 c 0,0.155 0.283,1.079 0.493,1.608 0.443,1.117 0.529,1.283 0.62,1.192 0.055,-0.055 0.027,-0.196 -0.063,-0.313 -0.09,-0.117 -0.336,-0.756 -0.545,-1.421 -0.348,-1.106 -0.505,-1.437 -0.505,-1.066 M 122.124,76.96 c 0.597,1.042 0.926,1.527 0.926,1.367 0,-0.068 -0.188,-0.421 -0.417,-0.784 -0.229,-0.363 -0.417,-0.727 -0.417,-0.81 0,-0.082 -0.128,-0.252 -0.285,-0.378 -0.183,-0.147 -0.114,0.069 0.193,0.605 m 242.369,0 c 0.061,0.275 0.112,1.212 0.112,2.083 0,0.871 -0.051,1.808 -0.112,2.083 -0.101,0.451 -0.089,0.442 0.126,-0.083 0.143,-0.349 0.239,-1.154 0.239,-2 0,-0.846 -0.096,-1.651 -0.239,-2 -0.215,-0.525 -0.227,-0.534 -0.126,-0.083 m -226.111,0.896 c 0.351,0.98 0.501,1.221 0.501,0.808 0,-0.147 -0.075,-0.314 -0.167,-0.371 -0.091,-0.057 -0.166,-0.234 -0.166,-0.395 0,-0.16 -0.11,-0.437 -0.245,-0.615 -0.173,-0.229 -0.151,-0.062 0.077,0.573 m -6.494,-0.48 c 0,0.138 0.073,0.363 0.162,0.5 0.143,0.223 0.161,0.223 0.161,0 0,-0.137 -0.072,-0.362 -0.161,-0.5 -0.144,-0.222 -0.162,-0.222 -0.162,0 m 86.67,0.886 c -0.016,0.264 0.534,1.787 0.678,1.877 0.19,0.117 0.187,-0.026 -0.007,-0.39 -0.085,-0.159 -0.269,-0.589 -0.408,-0.956 -0.14,-0.367 -0.258,-0.606 -0.263,-0.531 m -94.973,1.274 c 0.301,0.546 0.57,0.93 0.596,0.855 0.048,-0.136 -0.953,-1.848 -1.079,-1.848 -0.036,0 0.181,0.447 0.483,0.993 m -6.869,-0.63 c 0,0.181 0.529,1.135 0.682,1.229 0.088,0.055 0,-0.187 -0.195,-0.538 -0.376,-0.673 -0.487,-0.831 -0.487,-0.691 m 22.583,0.887 c 1.192,2.113 3.887,5.033 5.167,5.599 0.184,0.081 0.521,0.272 0.75,0.424 0.296,0.196 0.272,0.15 -0.083,-0.159 -0.275,-0.24 -0.594,-0.438 -0.708,-0.441 -0.115,-0.004 -0.209,-0.065 -0.209,-0.137 0,-0.072 -0.206,-0.256 -0.458,-0.409 -1.049,-0.636 -2.921,-2.673 -3.88,-4.22 -0.867,-1.399 -1.232,-1.812 -0.579,-0.657 m 114.292,-0.587 c -0.552,0.235 -0.456,0.348 0.125,0.146 0.528,-0.185 1.858,-0.128 2.417,0.103 0.275,0.113 0.297,0.098 0.125,-0.088 -0.254,-0.273 -2.136,-0.387 -2.667,-0.161 m -121.028,0.115 c -0.016,0.238 0.609,1.722 0.725,1.722 0.046,0 -0.053,-0.319 -0.218,-0.708 -0.166,-0.39 -0.345,-0.821 -0.398,-0.959 -0.053,-0.137 -0.102,-0.162 -0.109,-0.055 m 124.399,0.68 c 0.39,0.419 0.751,1.302 0.753,1.842 0.001,0.119 -0.142,0.512 -0.317,0.875 -0.175,0.362 -0.261,0.658 -0.192,0.658 0.318,0 0.716,-1.328 0.61,-2.035 -0.1,-0.662 -0.828,-1.798 -1.153,-1.798 -0.07,0 0.065,0.206 0.299,0.458 m 85.588,0.198 c -0.264,0.077 0.02,0.117 0.775,0.108 0.656,-0.008 1.106,-0.069 1,-0.136 -0.238,-0.152 -1.217,-0.136 -1.775,0.028 m -116.5,0.066 c 0,0.691 3.629,4.292 5.541,5.497 0.874,0.551 0.454,0.129 -0.5,-0.502 -1.227,-0.811 -3.027,-2.521 -4.001,-3.8 -0.932,-1.225 -1.04,-1.349 -1.04,-1.195 m 25.776,0.611 c -0.162,0.275 -0.259,0.5 -0.214,0.5 0.045,0 0.242,-0.225 0.438,-0.5 0.195,-0.275 0.292,-0.5 0.214,-0.5 -0.079,0 -0.275,0.225 -0.438,0.5 m 89.403,0.013 c -0.282,0.282 -0.511,0.601 -0.508,0.708 0.002,0.108 0.126,0.001 0.274,-0.238 0.148,-0.239 0.465,-0.556 0.704,-0.704 0.239,-0.148 0.346,-0.272 0.238,-0.274 -0.107,-0.003 -0.426,0.226 -0.708,0.508 m 3.825,-0.227 c 0.37,0.256 0.623,0.527 1.282,1.371 0.133,0.17 0.205,0.189 0.208,0.055 0.008,-0.285 -1.384,-1.712 -1.67,-1.712 -0.128,0 -0.048,0.128 0.18,0.286 M 186.55,80.676 c 0,0.253 0.684,2.071 0.754,2.002 0.058,-0.058 -0.571,-2.004 -0.686,-2.121 -0.038,-0.038 -0.068,0.015 -0.068,0.119 m -61.581,1.297 c 0.411,0.696 0.747,1.29 0.747,1.322 0,0.16 1.223,2.081 1.285,2.019 0.04,-0.04 -0.13,-0.394 -0.378,-0.787 -0.539,-0.853 -1.267,-2.135 -1.768,-3.109 -0.201,-0.39 -0.425,-0.708 -0.499,-0.708 -0.074,0 0.202,0.568 0.613,1.263 m -7.083,-0.898 c -0.004,0.151 0.675,1.301 0.768,1.301 0.039,0 -0.041,-0.206 -0.177,-0.458 -0.34,-0.627 -0.588,-0.981 -0.591,-0.843 m 15.497,0.253 c 0,0.422 2.139,3.715 2.413,3.715 0.063,0 -0.105,-0.281 -0.375,-0.625 -0.269,-0.344 -0.838,-1.223 -1.264,-1.955 -0.426,-0.731 -0.774,-1.242 -0.774,-1.135 m 117.386,1.001 c -0.945,1.168 -2.112,2.245 -3.131,2.891 -0.498,0.315 -0.909,0.632 -0.914,0.704 -0.032,0.529 3.389,-2.403 4.383,-3.756 0.651,-0.886 0.421,-0.776 -0.338,0.161 m -45.526,-0.196 c -0.279,0.613 -0.226,0.744 0.076,0.187 0.141,-0.26 0.226,-0.504 0.187,-0.542 -0.038,-0.039 -0.156,0.122 -0.263,0.355 m -24.515,0.025 c -0.006,0.201 0.063,0.412 0.155,0.468 0.197,0.122 0.197,-0.041 0,-0.5 -0.138,-0.321 -0.144,-0.32 -0.155,0.032 m 183.174,0.429 c -0.494,1.022 -0.426,1.211 0.084,0.231 0.231,-0.444 0.386,-0.842 0.344,-0.883 -0.041,-0.042 -0.234,0.252 -0.428,0.652 M 220.226,82.081 c -0.01,0.124 1.129,1.975 1.309,2.129 0.054,0.045 0.398,0.457 0.765,0.914 0.897,1.119 2.793,2.963 3.916,3.81 0.505,0.38 0.954,0.729 1,0.776 0.207,0.213 1.537,1.018 1.592,0.963 0.034,-0.033 -0.554,-0.469 -1.307,-0.968 -2.384,-1.58 -5.29,-4.637 -7.067,-7.433 -0.109,-0.172 -0.202,-0.258 -0.208,-0.191 m 120.258,0.226 c -0.146,0.38 -0.124,1.202 0.034,1.3 0.074,0.046 0.141,-0.287 0.147,-0.74 0.014,-0.878 -0.02,-0.981 -0.181,-0.56 m 6.59,0.819 c 0.554,0.858 2.599,3.016 2.732,2.883 0.041,-0.041 -0.507,-0.669 -1.217,-1.395 -0.71,-0.727 -1.463,-1.546 -1.673,-1.821 -0.209,-0.275 -0.139,-0.125 0.158,0.333 M 181.063,83.071 c -0.017,0.358 0.633,1.881 0.752,1.762 0.05,-0.05 0.02,-0.229 -0.068,-0.399 -0.186,-0.361 -0.472,-1.036 -0.589,-1.391 -0.066,-0.202 -0.085,-0.197 -0.095,0.028 m 23.519,0.294 c -0.233,0.524 -1.358,1.762 -2.022,2.222 -0.224,0.155 -0.365,0.324 -0.314,0.375 0.146,0.146 2.224,-1.94 2.534,-2.544 0.153,-0.298 0.22,-0.542 0.148,-0.542 -0.072,0 -0.228,0.22 -0.346,0.489 m -16.866,0.125 c 0,0.227 1.343,1.543 2.118,2.077 0.394,0.27 0.716,0.43 0.716,0.355 0,-0.075 -0.269,-0.281 -0.598,-0.458 -0.329,-0.177 -0.966,-0.725 -1.417,-1.218 -0.45,-0.493 -0.819,-0.833 -0.819,-0.756 m -68.132,0.711 c 0.197,0.369 0.388,0.642 0.424,0.605 0.09,-0.089 -0.416,-1.051 -0.619,-1.176 -0.09,-0.055 -0.002,0.201 0.195,0.571 m 243.265,0.193 c -0.302,0.376 -0.988,1.013 -1.524,1.416 -0.536,0.403 -0.893,0.733 -0.794,0.733 0.255,0 2.147,-1.639 2.647,-2.292 0.602,-0.787 0.32,-0.665 -0.329,0.143 m 6.887,-0.236 c -0.011,0.201 -0.095,0.412 -0.186,0.468 -0.092,0.057 -0.167,0.191 -0.167,0.297 0,0.107 0.118,0.026 0.262,-0.179 0.144,-0.206 0.227,-0.504 0.186,-0.662 -0.058,-0.219 -0.081,-0.201 -0.095,0.076 m -29.02,-0.091 c 0,0.202 0.699,1.499 0.77,1.428 0.044,-0.044 -0.082,-0.37 -0.279,-0.724 -0.375,-0.672 -0.491,-0.838 -0.491,-0.704 m -84.833,1.059 c -0.284,0.413 -0.456,0.75 -0.382,0.75 0.074,0 0.338,-0.337 0.587,-0.75 0.25,-0.412 0.421,-0.75 0.382,-0.75 -0.039,0 -0.303,0.338 -0.587,0.75 m -73.999,0.014 c 0,0.084 0.194,0.378 0.43,0.653 l 0.43,0.5 -0.377,-0.583 c -0.482,-0.749 -0.484,-0.751 -0.483,-0.57 m -45.576,0.653 c 0.519,0.713 1.586,1.779 2.642,2.638 0.357,0.291 0.882,0.719 1.166,0.953 0.593,0.486 1.094,0.81 2.22,1.436 1.046,0.582 1.178,0.646 1.964,0.967 0.366,0.15 0.797,0.344 0.956,0.431 0.159,0.087 0.421,0.157 0.583,0.155 0.162,-0.002 -0.456,-0.325 -1.373,-0.719 -2.93,-1.258 -5.277,-2.919 -7.515,-5.318 -0.621,-0.665 -0.91,-0.91 -0.643,-0.543 m 232.563,0.109 c -0.734,1.442 -3.303,4.308 -3.863,4.308 -0.099,0 -0.137,0.043 -0.084,0.096 0.261,0.262 1.942,-1.278 3.138,-2.874 0.769,-1.028 1.368,-2.064 1.257,-2.175 -0.043,-0.044 -0.245,0.246 -0.448,0.645 M 120.383,85.593 c 0,0.156 0.848,1.674 1.043,1.867 0.093,0.091 -0.074,-0.284 -0.37,-0.834 -0.557,-1.034 -0.673,-1.213 -0.673,-1.033 m 6.667,0.024 c 0,0.164 0.713,1.269 0.777,1.204 0.038,-0.038 -0.091,-0.341 -0.287,-0.674 -0.324,-0.548 -0.49,-0.729 -0.49,-0.53 m 214.5,0.134 c -0.001,0.151 1.166,1.792 1.275,1.792 0.111,0 -0.401,-0.832 -0.871,-1.417 -0.222,-0.275 -0.403,-0.444 -0.404,-0.375 m -195.574,0.537 c 0.178,0.134 0.432,0.247 0.564,0.25 0.169,0.003 0.145,-0.067 -0.083,-0.24 -0.178,-0.134 -0.432,-0.247 -0.564,-0.25 -0.169,-0.003 -0.145,0.067 0.083,0.24 m 13.49,-0.078 c -0.056,0.091 -0.234,0.166 -0.394,0.166 -0.161,0 -0.438,0.109 -0.615,0.242 -0.289,0.215 -0.261,0.219 0.259,0.038 0.712,-0.247 1.323,-0.601 1.052,-0.608 -0.109,-0.003 -0.245,0.07 -0.302,0.162 m 31.584,0.083 c 0.229,0.131 0.529,0.238 0.666,0.238 0.145,0 0.074,-0.1 -0.166,-0.238 -0.229,-0.131 -0.53,-0.238 -0.667,-0.238 -0.144,0 -0.074,0.1 0.167,0.238 m 10.125,0.095 c -0.344,0.181 -0.625,0.364 -0.625,0.405 0,0.098 0.817,-0.253 1.245,-0.534 0.502,-0.33 0.084,-0.243 -0.62,0.129 m 31.375,-0.095 c 0.547,0.313 0.818,0.317 0.407,0.005 -0.178,-0.134 -0.437,-0.244 -0.574,-0.244 -0.145,0.001 -0.075,0.101 0.167,0.239 m 13.026,0.11 c -0.397,0.183 -0.687,0.368 -0.643,0.412 0.082,0.082 1.617,-0.589 1.617,-0.707 0,-0.115 -0.235,-0.044 -0.974,0.295 m 8.057,1.369 c -0.917,0.935 -2.06,1.953 -2.541,2.263 -0.482,0.31 -0.841,0.598 -0.8,0.639 0.066,0.066 1.518,-0.919 2.031,-1.378 1.359,-1.217 3.324,-3.317 3.03,-3.239 -0.029,0.008 -0.803,0.779 -1.72,1.715 m -70.911,-1.267 c -0.021,0.834 4.575,4.5 6.448,5.144 0.958,0.329 0.816,0.163 -0.276,-0.324 -2.213,-0.988 -4.535,-2.801 -5.801,-4.532 -0.201,-0.275 -0.368,-0.404 -0.371,-0.288 m -34.839,0.538 c 0.137,0.089 0.362,0.162 0.5,0.162 0.222,0 0.222,-0.018 0,-0.162 -0.138,-0.089 -0.363,-0.162 -0.5,-0.162 -0.222,0 -0.222,0.018 0,0.162 m 9.265,-0.042 c -0.068,0.069 -0.85,0.254 -1.736,0.411 -1.037,0.184 -1.285,0.261 -0.696,0.214 1.594,-0.124 3.889,-0.709 2.903,-0.739 -0.191,-0.006 -0.403,0.046 -0.471,0.114 m 9.402,-0.006 c 0,0.742 -3.47,3.565 -5.834,4.745 -0.687,0.344 -1.16,0.627 -1.051,0.63 0.911,0.028 4.461,-2.382 6.026,-4.089 l 1.013,-1.106 0.054,1.725 0.055,1.726 0.035,-1.781 c 0.021,-1.048 -0.034,-1.825 -0.132,-1.885 -0.091,-0.057 -0.166,-0.041 -0.166,0.035 m 27,0.048 c 0.642,0.206 0.985,0.206 0.666,0 -0.137,-0.089 -0.437,-0.155 -0.666,-0.148 l -0.417,0.015 0.417,0.133 m 5.931,-0.042 c -0.069,0.069 -1.225,0.167 -2.57,0.217 l -2.445,0.093 2.334,0.02 c 1.601,0.014 2.516,-0.05 2.916,-0.205 0.419,-0.161 0.486,-0.228 0.236,-0.237 -0.191,-0.007 -0.403,0.044 -0.471,0.112 m 35.152,0.116 c 0.275,0.134 0.636,0.248 0.803,0.252 0.166,0.004 0.451,0.087 0.633,0.184 0.182,0.098 0.496,0.154 0.698,0.125 0.319,-0.045 -0.603,-0.341 -2.217,-0.71 -0.357,-0.082 -0.345,-0.06 0.083,0.149 M 351.55,86.933 c 0,0.14 2.321,0.808 2.547,0.733 0.105,-0.035 -0.256,-0.184 -0.803,-0.331 -0.547,-0.147 -1.163,-0.319 -1.369,-0.383 -0.207,-0.063 -0.375,-0.071 -0.375,-0.019 m 7.408,0.086 c -0.087,0.079 -0.643,0.243 -1.235,0.364 -0.592,0.121 -0.983,0.251 -0.87,0.289 0.25,0.083 1.755,-0.265 2.447,-0.565 0.392,-0.171 0.426,-0.219 0.158,-0.224 -0.188,-0.004 -0.413,0.058 -0.5,0.136 m -230.33,1.412 c 1.186,2.312 0.78,4.212 -0.995,4.657 -0.303,0.075 -0.299,0.085 0.042,0.102 1.32,0.068 2.327,-2.525 1.545,-3.98 -0.172,-0.321 -0.423,-0.809 -0.557,-1.084 -0.135,-0.275 -0.367,-0.65 -0.517,-0.833 -0.15,-0.183 0.067,0.329 0.482,1.138 m 21.088,-0.977 c 1.21,0.263 2.057,0.319 1.275,0.085 -0.261,-0.079 -0.899,-0.183 -1.417,-0.232 l -0.941,-0.089 1.083,0.236 m 92.667,-0.031 c -0.412,0.098 -0.625,0.206 -0.473,0.241 0.152,0.036 0.64,-0.047 1.083,-0.183 0.924,-0.284 0.51,-0.323 -0.61,-0.058 m -120.791,0.37 c 0.354,0.878 0.552,1.25 0.665,1.25 0.074,0 0.023,-0.206 -0.114,-0.458 -0.272,-0.503 -0.659,-1.058 -0.551,-0.792 m 117.083,0.039 c 0.389,0.035 1.027,0.035 1.416,0 0.39,-0.035 0.071,-0.064 -0.708,-0.064 -0.779,0 -1.098,0.029 -0.708,0.064 m 105.016,0.685 c 0.834,0.839 2.305,1.983 3.025,2.353 0.58,0.297 0.288,0.039 -1.166,-1.031 -0.688,-0.507 -1.509,-1.193 -1.825,-1.525 -0.316,-0.332 -0.633,-0.604 -0.706,-0.604 -0.072,0 0.23,0.363 0.672,0.807 m -221.289,0.776 c 0.176,0.456 1.205,2.248 1.26,2.193 0.035,-0.034 -0.208,-0.542 -0.539,-1.128 -0.563,-0.997 -0.869,-1.449 -0.721,-1.065 m 82.643,0.691 c -0.775,0.826 -2.014,1.674 -3.079,2.105 -0.366,0.149 -0.547,0.274 -0.4,0.279 0.659,0.021 3.126,-1.589 3.818,-2.493 l 0.416,-0.543 0.087,4.564 0.087,4.564 0.038,-4.532 c 0.042,-5.027 0.043,-5.022 -0.967,-3.944 m 129.699,0.984 c -0.015,0.371 -0.084,0.747 -0.153,0.835 -0.068,0.087 -0.026,0.076 0.095,-0.026 0.138,-0.116 0.195,-0.428 0.153,-0.835 l -0.067,-0.649 -0.028,0.675 m 29.223,0.03 c -0.366,0.239 -1.079,0.644 -1.583,0.9 -0.505,0.256 -0.799,0.468 -0.654,0.472 0.208,0.005 2.835,-1.468 3.139,-1.76 0.236,-0.227 -0.342,0.022 -0.902,0.388 M 229.05,90.793 c 0,0.093 1.268,0.75 1.447,0.75 0.07,0 -0.021,-0.097 -0.202,-0.216 -0.429,-0.282 -1.245,-0.632 -1.245,-0.534 M 83.39,91.142 c -0.045,2.177 4.492,2.976 5.566,0.981 0.164,-0.303 0.258,-0.652 0.209,-0.774 -0.059,-0.148 -0.093,-0.122 -0.102,0.075 -0.1,2.248 -4.639,2.245 -5.442,-0.004 -0.145,-0.408 -0.226,-0.505 -0.231,-0.278 m 14.182,0.016 c -0.025,0.41 0.59,1.552 0.836,1.552 0.087,0 -0.026,-0.244 -0.251,-0.542 -0.226,-0.298 -0.445,-0.729 -0.486,-0.958 -0.067,-0.369 -0.079,-0.375 -0.099,-0.052 m 69.325,0.012 c -0.015,0.392 0.633,1.534 0.872,1.538 0.075,0.001 -0.026,-0.226 -0.224,-0.505 -0.199,-0.279 -0.422,-0.71 -0.497,-0.959 -0.123,-0.407 -0.138,-0.414 -0.151,-0.074 m 5.675,-0.007 c -0.012,0.203 -0.174,0.64 -0.36,0.971 -0.185,0.33 -0.26,0.553 -0.165,0.494 0.309,-0.191 0.691,-1.099 0.619,-1.471 l -0.071,-0.364 -0.023,0.37 m 76.478,0.054 c -0.269,0.166 -1.923,0.909 -2.334,1.048 -0.193,0.066 -0.184,0.088 0.044,0.098 0.28,0.013 2.79,-1.115 2.79,-1.254 0,-0.107 -0.232,-0.058 -0.5,0.108 m 98.19,-0.095 c 0.231,0.232 2.375,1.253 2.613,1.245 0.154,-0.005 -0.061,-0.148 -0.478,-0.317 -0.417,-0.17 -1.038,-0.466 -1.38,-0.658 -0.579,-0.325 -0.939,-0.454 -0.755,-0.27 M 35.729,91.434 c -0.007,0.169 -0.168,0.525 -0.357,0.792 -0.19,0.266 -0.282,0.484 -0.205,0.484 0.22,0 0.763,-1.113 0.664,-1.361 -0.057,-0.144 -0.093,-0.114 -0.102,0.085 m 32.493,0.378 c 0.028,0.759 1.303,1.398 2.79,1.398 1.063,0 2.727,-0.469 1.756,-0.495 -0.109,-0.003 -0.245,0.07 -0.302,0.161 -0.385,0.624 -3.25,0.059 -3.902,-0.769 -0.191,-0.243 -0.345,-0.376 -0.342,-0.295 m 55.841,0.383 c 0.58,0.779 1.398,1.187 2.317,1.156 0.518,-0.017 0.597,-0.044 0.253,-0.085 -1.385,-0.168 -1.628,-0.268 -2.298,-0.941 -0.617,-0.619 -0.648,-0.633 -0.272,-0.13 m -50.634,-0.11 c -0.325,0.421 -0.437,0.68 -0.239,0.558 0.197,-0.122 0.592,-0.767 0.469,-0.767 -0.038,0 -0.141,0.094 -0.23,0.209 m 117.098,0.048 c 0.309,0.134 0.721,0.238 0.917,0.232 0.2,-0.006 0.027,-0.114 -0.394,-0.247 -0.967,-0.305 -1.241,-0.297 -0.523,0.015 m 41.25,-0.006 c 0.263,0.137 0.6,0.246 0.75,0.243 0.15,-0.004 0.02,-0.116 -0.288,-0.25 -0.733,-0.319 -1.076,-0.313 -0.462,0.007 m -128.894,0.052 c 0,0.641 -2.915,1.157 -3.886,0.688 -0.352,-0.17 -0.353,-0.167 -0.04,0.083 0.56,0.45 2.617,0.354 3.429,-0.159 0.565,-0.356 0.868,-0.748 0.58,-0.748 -0.046,0 -0.083,0.061 -0.083,0.136 m 55.833,0.364 c -0.222,0.144 -0.222,0.162 0,0.162 0.138,0 0.363,-0.073 0.5,-0.162 0.223,-0.144 0.223,-0.162 0,-0.162 -0.137,0 -0.362,0.073 -0.5,0.162 m 33.417,0 c 0.057,0.092 0.342,0.159 0.635,0.15 0.508,-0.016 0.513,-0.023 0.115,-0.15 -0.598,-0.192 -0.868,-0.192 -0.75,0 M 147.8,92.951 c 0.366,0.14 0.966,0.245 1.333,0.234 l 0.667,-0.02 -0.75,-0.136 c -0.413,-0.075 -1.013,-0.18 -1.334,-0.234 l -0.583,-0.097 0.667,0.253 m 9.684,-0.12 c -0.067,0.067 -0.511,0.169 -0.986,0.227 l -0.865,0.105 0.75,0.011 c 0.755,0.01 2.273,-0.426 1.569,-0.452 -0.191,-0.007 -0.401,0.042 -0.468,0.109 m 10.806,0.134 c 0.463,0.351 2.749,0.337 3.186,-0.019 0.319,-0.26 0.319,-0.262 -0.01,-0.133 -0.555,0.218 -2.771,0.276 -2.969,0.077 -0.099,-0.099 -0.259,-0.178 -0.356,-0.175 -0.096,0.003 -0.029,0.115 0.149,0.25 m 26.18,-0.05 c 0.897,0.17 4.386,0.179 4.949,0.012 0.268,-0.079 -0.782,-0.135 -2.579,-0.136 -1.834,-10e-4 -2.77,0.047 -2.37,0.124 m 40.057,0.036 c 0.309,0.142 0.909,0.248 1.333,0.235 l 0.773,-0.023 -0.833,-0.116 c -0.459,-0.063 -1.059,-0.169 -1.334,-0.235 -0.488,-0.116 -0.487,-0.113 0.061,0.139 m 9.992,-0.155 c -0.047,0.047 -0.529,0.151 -1.069,0.23 -0.946,0.138 -0.955,0.143 -0.234,0.151 0.763,0.007 2.399,-0.416 1.736,-0.45 -0.191,-0.009 -0.386,0.021 -0.433,0.069 m 85.771,0.169 c 0.219,0.165 0.735,0.245 1.593,0.245 1.034,0 2.664,-0.47 1.718,-0.495 -0.109,-0.003 -0.245,0.07 -0.301,0.161 -0.057,0.092 -0.694,0.167 -1.417,0.167 -0.723,0 -1.36,-0.075 -1.417,-0.167 -0.056,-0.091 -0.192,-0.164 -0.301,-0.161 -0.109,0.003 -0.053,0.115 0.125,0.25 m 21.26,-0.02 c 0.321,0.132 0.845,0.236 1.166,0.233 l 0.584,-0.007 -0.584,-0.128 c -0.321,-0.071 -0.845,-0.176 -1.166,-0.233 l -0.584,-0.105 0.584,0.24 m 8,-0.069 c -0.138,0.089 -0.513,0.174 -0.834,0.189 -0.482,0.023 -0.507,0.04 -0.14,0.096 0.243,0.037 0.806,-0.044 1.25,-0.18 0.551,-0.17 0.675,-0.251 0.39,-0.257 -0.229,-0.005 -0.529,0.063 -0.666,0.152 m -209.321,0.521 c 0.539,0.15 4.49,0.154 4.869,0.005 0.165,-0.065 -0.955,-0.118 -2.487,-0.118 -1.533,0 -2.605,0.051 -2.382,0.113 m 86.785,0.009 c 0.365,0.145 4.124,0.134 4.786,-0.014 0.275,-0.062 -0.754,-0.109 -2.286,-0.105 -1.532,0.003 -2.657,0.057 -2.5,0.119 m 116.619,-0.018 c 0.425,0.168 3.77,0.19 4.025,0.027 0.106,-0.067 -0.832,-0.13 -2.083,-0.14 -1.258,-0.01 -2.126,0.041 -1.942,0.113 m -147.979,5.411 c -0.058,0.149 -0.098,0.434 -0.089,0.633 0.01,0.256 0.062,0.198 0.176,-0.199 0.166,-0.577 0.098,-0.916 -0.087,-0.434 m 5.812,1.077 c -0.063,0.288 -0.077,0.562 -0.031,0.608 0.045,0.045 0.135,-0.153 0.198,-0.441 0.063,-0.288 0.078,-0.561 0.032,-0.607 -0.046,-0.046 -0.135,0.152 -0.199,0.44 m -6.218,0.725 c -0.109,0.302 -0.195,0.656 -0.19,0.787 0.004,0.131 0.122,-0.088 0.261,-0.486 0.14,-0.399 0.226,-0.753 0.191,-0.788 -0.035,-0.034 -0.152,0.185 -0.262,0.487 m 5.823,1.005 c -0.126,0.432 -0.182,0.832 -0.125,0.889 0.057,0.057 0.104,-0.044 0.104,-0.224 0,-0.181 0.081,-0.409 0.18,-0.509 0.1,-0.099 0.156,-0.352 0.125,-0.561 -0.041,-0.284 -0.113,-0.182 -0.284,0.405 m -6.816,1.475 c -0.206,0.376 -0.349,0.707 -0.319,0.737 0.03,0.03 0.225,-0.249 0.434,-0.621 0.209,-0.372 0.353,-0.703 0.319,-0.737 -0.033,-0.033 -0.229,0.246 -0.434,0.621 m -0.93,1.395 c -0.169,0.233 -0.271,0.46 -0.227,0.505 0.045,0.045 0.245,-0.148 0.445,-0.428 0.199,-0.281 0.301,-0.508 0.226,-0.505 -0.075,0.003 -0.275,0.196 -0.444,0.428 m 6.425,0.654 c -0.199,0.41 -0.307,0.744 -0.24,0.742 0.149,-0.005 0.772,-1.319 0.673,-1.418 -0.039,-0.039 -0.234,0.266 -0.433,0.676 m -7.532,0.662 c -0.311,0.32 -0.7,0.625 -0.866,0.678 -0.167,0.052 -0.302,0.174 -0.302,0.271 0,0.096 0.281,-0.038 0.625,-0.299 0.793,-0.602 1.432,-1.232 1.248,-1.232 -0.078,0 -0.395,0.262 -0.705,0.582 m 6.421,1.214 c -0.353,0.524 -0.507,0.842 -0.343,0.706 0.343,-0.284 1.143,-1.502 1.048,-1.597 -0.035,-0.035 -0.352,0.366 -0.705,0.891 m -8.63,0.247 c -0.343,0.191 -0.594,0.377 -0.558,0.414 0.078,0.078 1.432,-0.594 1.432,-0.711 0,-0.139 -0.232,-0.06 -0.874,0.297 m -2.209,0.957 c -0.057,0.091 -0.23,0.167 -0.385,0.167 -0.403,0.002 -1.578,0.343 -1.488,0.432 0.083,0.084 1.638,-0.306 2.289,-0.574 0.395,-0.162 0.397,-0.171 0.052,-0.181 -0.201,-0.006 -0.412,0.064 -0.468,0.156 m 9,0.968 c -0.642,0.621 -1.467,1.379 -1.834,1.684 -0.366,0.306 -0.554,0.496 -0.416,0.424 0.617,-0.328 2.591,-2.099 3.328,-2.987 0.442,-0.532 0.049,-0.212 -1.078,0.879 m -12.75,-0.135 c -0.308,0.199 0.135,0.199 0.916,0 l 0.5,-0.127 -0.583,-0.017 c -0.321,-0.01 -0.696,0.055 -0.833,0.144 m -4.917,0.278 c -0.865,0.106 -1.917,0.426 -1.917,0.583 0,0.083 0.151,0.07 0.335,-0.028 0.311,-0.167 2.77,-0.434 5.082,-0.552 0.55,-0.028 0.1,-0.054 -1,-0.058 -1.1,-0.003 -2.225,0.021 -2.5,0.055 m -2.89,1.866 c -0.237,0.789 -0.246,1.687 -0.02,2.023 0.119,0.178 0.143,0.022 0.08,-0.539 -0.051,-0.468 0.007,-1.061 0.144,-1.458 0.127,-0.369 0.176,-0.67 0.11,-0.67 -0.067,0 -0.208,0.29 -0.314,0.644 m 17.39,0.46 c -0.408,0.318 -2.205,1.165 -3.333,1.571 -0.459,0.166 -0.712,0.306 -0.562,0.313 0.46,0.02 4.199,-1.67 4.395,-1.988 0.154,-0.249 -0.121,-0.192 -0.5,0.104 m -17.25,2.003 c 0,0.235 0.825,1.06 1.06,1.06 0.099,0 0.017,-0.115 -0.184,-0.256 -0.201,-0.14 -0.48,-0.42 -0.62,-0.62 -0.141,-0.201 -0.256,-0.284 -0.256,-0.184 m 12.333,0.06 c -0.203,0.131 -0.181,0.162 0.115,0.164 0.201,0.001 0.412,-0.073 0.469,-0.164 0.131,-0.213 -0.255,-0.213 -0.584,0 m -1.22,0.276 c -0.06,0.06 -0.391,0.164 -0.736,0.23 -0.61,0.119 -0.613,0.123 -0.104,0.141 0.287,0.011 0.774,-0.09 1.083,-0.224 0.42,-0.183 0.474,-0.245 0.213,-0.25 -0.191,-0.004 -0.396,0.043 -0.456,0.103 m -2.78,0.557 -0.583,0.123 0.667,0.019 c 0.366,0.011 0.779,-0.053 0.916,-0.142 0.302,-0.195 -0.073,-0.195 -1,0 m -6.701,0.363 c 0.355,0.141 4.109,0.135 4.775,-0.008 0.27,-0.058 -0.758,-0.105 -2.284,-0.105 -1.526,0 -2.647,0.051 -2.491,0.113" />
          <g
             id="g1451"
             transform="matrix(0.00882734,-5.4360331e-4,-5.3432774e-4,-0.00819058,101.5513,151.24538)"
             style="fill:#000000;stroke:#000000;stroke-width:234.974823;stroke-miterlimit:4;stroke-dasharray:none;stroke-opacity:1"
             inkscape:transform-center-x="-96.470775"
             inkscape:transform-center-y="132.33221">
            <path
               style="stroke:#000000;stroke-width:234.974823;stroke-miterlimit:4;stroke-dasharray:none;stroke-opacity:1"
               id="path2-5"
               d="m 13360,21794 c -525,-63 -968,-280 -1374,-674 -585,-568 -986,-1405 -1092,-2280 -21,-180 -29,-552 -15,-765 34,-521 133,-872 326,-1160 283,-423 594,-649 836,-606 66,11 91,25 83,46 -4,9 -31,14 -88,17 -71,3 -92,8 -157,40 -273,136 -581,648 -683,1133 -99,475 -111,938 -35,1320 24,118 116,434 194,664 176,518 397,953 635,1246 86,107 345,365 450,449 270,215 544,355 810,412 127,28 361,25 500,-5 336,-72 582,-202 806,-425 273,-274 429,-615 505,-1107 20,-123 23,-186 23,-434 1,-307 -8,-425 -50,-675 -74,-437 -255,-978 -470,-1410 -202,-403 -394,-645 -644,-812 -107,-71 -335,-180 -475,-228 -153,-52 -277,-84 -600,-155 -143,-31 -266,-62 -272,-67 -7,-6 -13,-21 -13,-33 0,-31 15,-41 80,-53 213,-42 473,-12 777,89 305,102 546,241 723,418 570,571 1026,1540 1137,2416 22,175 25,617 5,775 -72,569 -253,952 -626,1325 -280,279 -571,448 -896,520 -73,16 -325,28 -400,19 z"
               inkscape:connector-curvature="0" />
            <path
               style="stroke:#000000;stroke-width:234.974823;stroke-miterlimit:4;stroke-dasharray:none;stroke-opacity:1"
               id="path4-6"
               d="m 20005,20394 c -16,-2 -79,-9 -140,-15 -268,-27 -584,-90 -942,-190 -818,-228 -1350,-471 -1813,-827 -510,-393 -888,-828 -1119,-1290 -86,-172 -131,-283 -211,-529 -88,-269 -143,-476 -174,-663 -28,-165 -32,-215 -46,-500 -11,-209 -29,-353 -56,-448 -13,-48 -31,-69 -217,-256 -204,-205 -285,-276 -433,-379 l -82,-57 -258,-50 c -414,-81 -693,-139 -1629,-340 -896,-192 -1303,-275 -1311,-267 -2,2 22,22 53,44 331,233 586,629 741,1153 70,235 209,870 196,891 -32,52 -80,-98 -199,-621 -131,-576 -339,-978 -661,-1279 -65,-61 -224,-187 -270,-214 -19,-11 -420,-74 -644,-102 -231,-28 -489,-51 -693,-61 l -137,-7 19,44 c 33,73 68,209 81,309 33,253 -46,551 -216,817 -106,167 -293,382 -479,554 -92,85 -111,108 -115,137 -6,40 -27,54 -32,21 -3,-19 -16,-10 -111,70 -60,50 -112,91 -116,91 -28,0 -8,-28 96,-132 l 118,-118 -24,-68 c -99,-285 -393,-480 -826,-547 -448,-69 -1130,29 -1613,231 -510,214 -1046,667 -1286,1089 -103,181 -163,359 -203,600 -14,85 -18,166 -18,360 0,219 3,263 22,361 53,260 145,439 302,586 157,148 408,243 742,279 127,14 393,6 539,-16 529,-79 1126,-349 1669,-755 221,-165 331,-259 476,-404 159,-160 269,-308 351,-471 143,-289 161,-555 57,-856 -41,-120 -40,-150 7,-169 27,-11 34,-10 69,13 53,36 154,164 195,250 53,109 69,191 63,322 -12,286 -188,594 -538,944 -352,351 -827,680 -1386,960 -760,380 -1402,504 -1889,365 -561,-160 -914,-710 -914,-1424 0,-481 156,-914 475,-1315 83,-104 286,-306 405,-402 201,-163 496,-345 698,-433 268,-116 682,-219 1072,-266 200,-25 582,-25 735,-1 311,49 501,132 656,286 71,70 94,101 127,171 40,85 72,192 72,243 0,15 4,27 9,27 16,0 310,-310 398,-420 203,-252 306,-476 334,-724 20,-179 -12,-374 -86,-531 l -35,-73 -518,-5 c -456,-4 -549,-7 -787,-30 -148,-14 -342,-32 -430,-39 -200,-16 -751,-16 -1265,0 -1755,56 -2107,96 -3933,452 -312,60 -576,110 -587,110 -50,0 -10,-19 103,-48 67,-18 253,-66 412,-108 1339,-349 2023,-453 3395,-514 1026,-46 1552,-52 1905,-21 l 100,8 51,-39 c 200,-151 461,-249 708,-266 222,-15 390,14 561,98 113,55 200,122 268,208 l 47,58 192,12 c 251,15 476,37 718,69 107,14 226,27 263,29 38,2 73,6 78,9 5,3 138,28 296,55 379,64 655,120 1443,290 972,210 1271,271 1290,265 23,-7 199,27 305,60 46,14 178,43 292,64 2210,415 3816,447 5308,105 195,-45 502,-131 689,-194 140,-46 166,-51 166,-30 0,16 -339,142 -600,221 -776,238 -1571,348 -2504,349 -216,0 -335,4 -325,10 40,24 425,172 516,199 175,52 443,100 743,133 149,17 793,16 995,0 888,-74 1585,-231 2338,-526 605,-237 1109,-500 1718,-897 263,-171 474,-297 907,-539 199,-112 360,-205 358,-207 -2,-2 -26,5 -55,16 -162,65 -608,183 -904,240 -508,99 -801,130 -1703,181 -589,33 -837,51 -1104,80 -280,31 -359,38 -835,70 -830,56 -1184,105 -1565,216 -227,66 -379,128 -810,331 -472,223 -698,308 -942,358 -205,41 -538,54 -538,20 0,-8 31,-14 98,-19 210,-14 435,-68 663,-157 74,-29 309,-140 523,-246 540,-269 679,-328 951,-402 384,-106 746,-158 1520,-221 204,-17 483,-41 620,-55 343,-34 684,-60 1185,-90 1184,-70 1649,-126 2180,-261 323,-81 565,-164 876,-300 706,-307 696,-303 719,-284 8,7 15,18 15,25 0,12 -129,112 -205,159 -16,10 -90,62 -163,114 -178,126 -409,274 -737,472 -148,89 -387,242 -530,338 -632,427 -813,546 -1010,664 -882,528 -1591,805 -2555,998 -524,105 -953,150 -1425,150 -385,0 -671,-27 -1010,-95 -432,-86 -797,-224 -1170,-441 l -91,-52 -149,-11 c -529,-41 -1106,-112 -1689,-210 -132,-23 -241,-39 -242,-38 -2,2 36,31 84,65 129,91 302,252 435,405 119,135 119,135 170,142 124,16 287,70 439,145 133,67 557,314 648,378 126,90 349,308 476,466 127,158 226,300 664,951 189,281 389,572 444,649 362,498 685,818 1101,1091 253,167 469,280 1040,547 l 320,150 130,-10 c 141,-10 168,-5 163,31 -3,19 -15,25 -83,39 -222,48 -360,61 -680,63 -170,2 -323,1 -340,-1 z m 310,-183 c -657,-223 -1202,-563 -1685,-1051 -298,-300 -478,-542 -770,-1035 -156,-262 -630,-996 -729,-1129 -162,-215 -236,-285 -536,-500 -416,-299 -800,-538 -899,-562 -25,-6 -8,17 115,152 338,374 408,469 702,947 49,79 120,186 158,238 78,106 84,117 74,127 -11,11 -222,-213 -347,-370 -63,-79 -204,-262 -313,-408 -109,-146 -227,-301 -263,-345 -100,-122 -215,-255 -218,-252 -2,2 6,36 16,77 29,112 46,211 80,464 46,344 98,572 200,876 221,663 551,1165 1030,1567 848,712 2017,1159 3270,1252 58,5 146,9 195,9 l 90,1 z M 9710,14209 c -312,-279 -791,-336 -1208,-143 -70,32 -217,123 -210,130 4,3 419,41 518,47 30,2 255,4 500,5 l 445,1 z"
               inkscape:connector-curvature="0" />
            <path
               style="stroke:#000000;stroke-width:234.974823;stroke-miterlimit:4;stroke-dasharray:none;stroke-opacity:1"
               id="path6"
               d="m 12403,17109 c -130,-22 -258,-93 -355,-198 -155,-167 -122,-354 86,-476 56,-33 75,-24 26,13 -96,72 -140,140 -140,217 0,135 175,271 375,291 82,9 153,-9 209,-52 51,-39 122,-141 166,-240 17,-38 37,-72 43,-76 24,-15 56,-7 76,18 18,22 21,41 21,114 0,124 -20,178 -93,257 -69,74 -151,118 -247,133 -74,11 -94,11 -167,-1 z"
               inkscape:connector-curvature="0" />
            <path
               style="stroke:#000000;stroke-width:234.974823;stroke-miterlimit:4;stroke-dasharray:none;stroke-opacity:1"
               id="path8"
               d="m 8819,16827 c -158,-54 -271,-195 -314,-391 -52,-234 57,-416 247,-416 39,0 149,27 161,39 5,5 -29,7 -76,4 -109,-7 -149,1 -192,38 -51,45 -68,101 -63,202 4,70 10,96 41,160 40,85 108,161 172,192 67,33 176,27 304,-18 98,-34 106,-35 123,-20 31,28 22,57 -34,109 -69,65 -111,90 -183,109 -78,20 -107,19 -186,-8 z"
               inkscape:connector-curvature="0" />
          </g>
        </g>
      </g>
    </g>
  </g>
</svg>
