<?xml version="1.0" encoding="UTF-8" standalone="no"?>
<svg
   xmlns:dc="http://purl.org/dc/elements/1.1/"
   xmlns:cc="http://creativecommons.org/ns#"
   xmlns:rdf="http://www.w3.org/1999/02/22-rdf-syntax-ns#"
   xmlns:svg="http://www.w3.org/2000/svg"
   xmlns="http://www.w3.org/2000/svg"
   xmlns:sodipodi="http://sodipodi.sourceforge.net/DTD/sodipodi-0.dtd"
   xmlns:inkscape="http://www.inkscape.org/namespaces/inkscape"
   id="svg"
   version="1.1"
   width="134.54549"
   height="78.486687"
   viewBox="0 0 134.54548 78.486688"
   sodipodi:docname="İletişim.svg"
   inkscape:version="0.92.4 (5da689c313, 2019-01-14)">
  <metadata
     id="metadata13">
    <rdf:RDF>
      <cc:Work
         rdf:about="">
        <dc:format>image/svg+xml</dc:format>
        <dc:type
           rdf:resource="http://purl.org/dc/dcmitype/StillImage" />
        <dc:title></dc:title>
      </cc:Work>
    </rdf:RDF>
  </metadata>
  <defs
     id="defs11" />
  <sodipodi:namedview
     pagecolor="#ffffff"
     bordercolor="#666666"
     borderopacity="1"
     objecttolerance="10"
     gridtolerance="10"
     guidetolerance="10"
     inkscape:pageopacity="0"
     inkscape:pageshadow="2"
     inkscape:window-width="1366"
     inkscape:window-height="705"
     id="namedview9"
     showgrid="false"
     fit-margin-top="0"
     fit-margin-left="0"
     fit-margin-right="0"
     fit-margin-bottom="0"
     inkscape:zoom="2.84"
     inkscape:cx="-63.394278"
     inkscape:cy="73.73121"
     inkscape:window-x="-8"
     inkscape:window-y="-8"
     inkscape:window-maximized="1"
     inkscape:current-layer="g843" />
  <g
     id="svgg"
     transform="translate(-180.57289,-52.442033)">
    <g
       id="g843"
       transform="translate(-1.4084507)">
      <path
         style="fill:none;fill-rule:evenodd;stroke:none"
         d="m 0,91.701 v 91.701 H 200 400 V 91.701 0 H 200 0 V 91.701 M 41.075,26.089 c 1.42,0.319 3.475,2.238 3.498,3.265 0.003,0.146 0.127,0.426 0.275,0.621 1.203,1.591 -0.585,5.499 -2.904,6.344 -1.719,0.627 -5.083,0.313 -5.396,-0.504 -0.05,-0.129 -0.197,-0.235 -0.328,-0.235 -0.131,0 -0.555,-0.475 -0.943,-1.055 -1.247,-1.863 -1.084,-5.077 0.329,-6.49 0.187,-0.188 0.341,-0.418 0.341,-0.512 0,-0.35 1.742,-1.333 2.605,-1.469 0.488,-0.078 0.943,-0.197 1.011,-0.265 0.069,-0.068 0.253,-0.07 0.409,-0.004 0.157,0.066 0.653,0.202 1.103,0.304 m 23.039,10.248 c 1.563,0.481 2.129,0.988 2.627,2.352 l 0.386,1.059 -0.051,48.673 c -0.054,52.292 -0.003,49.677 -0.993,50.855 -1.065,1.268 -4.912,2.016 -5.8,1.127 -0.146,-0.146 -0.485,-0.321 -0.752,-0.388 -0.267,-0.067 -0.576,-0.298 -0.687,-0.513 -0.11,-0.215 -0.377,-0.584 -0.591,-0.819 l -0.39,-0.427 V 88.4 38.544 l 0.413,-0.439 c 0.227,-0.242 0.413,-0.527 0.413,-0.634 0,-1.057 3.379,-1.763 5.425,-1.134 m -22.46,6.007 c 0.241,0.189 0.596,0.375 0.789,0.412 0.193,0.038 0.605,0.481 0.916,0.985 l 0.566,0.917 0.058,44.567 c 0.06,46.046 0.033,48.777 -0.489,49.416 -0.166,0.204 -0.451,0.579 -0.632,0.833 -0.182,0.254 -0.457,0.462 -0.613,0.462 -0.156,0 -0.494,0.165 -0.75,0.367 -1.218,0.958 -4.799,0.306 -5.971,-1.087 -1.015,-1.206 -0.957,1.709 -0.957,-47.973 V 45.209 l 0.406,-0.872 c 0.224,-0.479 0.482,-0.871 0.575,-0.871 0.093,0 0.212,-0.165 0.265,-0.367 0.057,-0.219 0.25,-0.366 0.479,-0.366 0.212,0 0.384,-0.085 0.384,-0.19 0,-0.622 4.221,-0.791 4.974,-0.199 m 151.406,4.339 c 0.714,0.379 2.263,1.75 2.263,2.003 0,0.063 0.181,0.358 0.401,0.656 0.611,0.826 0.617,4.435 0.009,5.207 -0.225,0.287 -0.41,0.6 -0.41,0.697 0,0.236 -1.492,1.792 -1.718,1.792 -0.098,0 -0.309,0.111 -0.468,0.246 -1.606,1.367 -7.717,-0.116 -7.717,-1.872 0,-0.087 -0.153,-0.355 -0.338,-0.596 -0.493,-0.637 -0.712,-2.391 -0.49,-3.922 0.547,-3.78 5.056,-6.022 8.468,-4.211 m 72.277,0.028 c 0.53,0.257 1.21,0.767 1.51,1.133 0.301,0.366 0.672,0.81 0.825,0.987 0.153,0.176 0.281,0.424 0.285,0.55 0.003,0.126 0.165,0.559 0.36,0.963 0.472,0.975 0.472,2.378 0,3.257 -0.201,0.377 -0.367,0.816 -0.367,0.975 0,0.16 -0.307,0.667 -0.683,1.126 -3.649,4.453 -10.889,1.791 -10.657,-3.918 0.045,-1.102 0.145,-1.587 0.382,-1.848 0.177,-0.195 0.321,-0.519 0.321,-0.72 0,-0.464 1.921,-2.448 2.37,-2.448 0.185,0 0.436,-0.12 0.557,-0.267 0.498,-0.599 3.701,-0.467 5.097,0.21 m -110.468,3.562 c 1.234,0.184 1.459,0.284 2.178,0.963 1.37,1.296 1.412,1.69 1.415,13.482 0.002,5.51 0.064,10.112 0.138,10.226 0.094,0.145 1.895,0.23 5.945,0.282 4.826,0.061 5.868,0.12 6.144,0.349 0.184,0.152 0.643,0.416 1.021,0.587 0.378,0.171 0.688,0.425 0.688,0.564 0,0.139 0.172,0.472 0.382,0.739 0.491,0.625 0.596,3.559 0.145,4.098 -0.15,0.179 -0.371,0.557 -0.492,0.84 -0.121,0.283 -0.487,0.638 -0.815,0.79 -0.327,0.152 -0.802,0.395 -1.054,0.538 -0.37,0.211 -1.567,0.262 -6.17,0.264 -5.038,0.003 -5.725,0.037 -5.823,0.293 -0.171,0.445 -0.117,33.588 0.059,36.314 0.102,1.583 0.256,2.594 0.451,2.971 0.162,0.315 0.295,0.824 0.295,1.132 0,0.308 0.165,0.868 0.367,1.244 0.202,0.377 0.367,0.82 0.367,0.986 0,0.166 0.124,0.404 0.275,0.529 0.151,0.126 0.275,0.378 0.275,0.56 0,0.45 2.774,3.29 3.221,3.298 0.196,0.004 0.686,0.166 1.089,0.361 0.936,0.452 4.752,0.527 5.56,0.109 0.273,-0.141 0.909,-0.318 1.412,-0.393 0.503,-0.074 1.202,-0.289 1.554,-0.476 1.745,-0.93 4.86,-0.362 6.177,1.127 0.527,0.596 0.928,2.77 0.631,3.422 -0.112,0.245 -0.203,0.63 -0.203,0.855 0,0.225 -0.145,0.547 -0.321,0.716 -0.177,0.169 -0.404,0.395 -0.504,0.503 -0.524,0.562 -1.24,1.106 -1.455,1.106 -0.133,0 -0.338,0.115 -0.455,0.256 -0.117,0.141 -0.495,0.309 -0.84,0.374 -0.345,0.064 -0.858,0.238 -1.14,0.384 -0.282,0.147 -0.786,0.268 -1.12,0.269 -0.334,0 -0.995,0.159 -1.467,0.353 -2.027,0.832 -9.377,0.796 -10.947,-0.052 -0.302,-0.164 -0.725,-0.298 -0.94,-0.299 -0.215,-0.001 -0.493,-0.125 -0.619,-0.276 -0.125,-0.152 -0.354,-0.275 -0.507,-0.275 -1.092,0 -6.278,-4.882 -6.278,-5.91 0,-0.097 -0.165,-0.386 -0.367,-0.643 -0.202,-0.256 -0.367,-0.586 -0.367,-0.733 0,-0.147 -0.165,-0.478 -0.367,-0.734 -0.202,-0.257 -0.367,-0.61 -0.367,-0.786 0,-0.176 -0.118,-0.418 -0.263,-0.538 -0.145,-0.12 -0.32,-0.481 -0.39,-0.802 -0.07,-0.321 -0.24,-0.746 -0.379,-0.945 -0.138,-0.199 -0.254,-0.571 -0.258,-0.825 -0.003,-0.255 -0.165,-0.794 -0.36,-1.198 -0.195,-0.403 -0.357,-1.045 -0.361,-1.427 -0.003,-0.381 -0.134,-0.999 -0.29,-1.373 -0.178,-0.426 -0.347,-1.727 -0.453,-3.487 -0.093,-1.544 -0.21,-2.874 -0.26,-2.955 -0.05,-0.081 -0.1,-7.54 -0.111,-16.577 l -0.02,-16.429 -2.753,-0.059 c -2.289,-0.049 -2.789,-0.109 -2.971,-0.358 -0.12,-0.165 -0.381,-0.331 -0.579,-0.369 -1.226,-0.236 -2.24,-4.765 -1.281,-5.724 0.151,-0.151 0.355,-0.488 0.454,-0.749 0.1,-0.261 0.409,-0.572 0.689,-0.691 0.279,-0.119 0.632,-0.318 0.783,-0.442 0.169,-0.138 1.278,-0.275 2.874,-0.356 2.435,-0.123 2.605,-0.156 2.702,-0.519 0.058,-0.213 0.106,-4.864 0.107,-10.334 0.001,-5.862 0.077,-10.268 0.183,-10.729 0.099,-0.431 0.22,-0.989 0.269,-1.241 0.082,-0.422 0.51,-0.956 1.322,-1.651 0.267,-0.227 1.667,-0.613 2.577,-0.71 0.122,-0.013 0.841,0.069 1.598,0.181 M 112.15,74.85 c 0.404,0.108 1.477,0.297 2.385,0.419 0.907,0.122 1.815,0.311 2.017,0.419 0.202,0.109 0.697,0.281 1.1,0.382 0.884,0.223 1.765,0.532 2.751,0.965 0.404,0.178 0.92,0.378 1.147,0.446 0.227,0.067 0.412,0.189 0.412,0.271 0,0.081 0.238,0.196 0.529,0.254 0.29,0.058 0.641,0.213 0.779,0.346 0.138,0.132 0.458,0.343 0.71,0.469 0.252,0.126 0.706,0.391 1.009,0.588 0.302,0.198 0.797,0.498 1.1,0.666 0.303,0.168 0.591,0.369 0.642,0.446 0.05,0.077 0.585,0.522 1.187,0.99 2.991,2.322 6.461,6.35 7.831,9.09 0.126,0.252 0.377,0.655 0.557,0.896 0.181,0.24 0.329,0.584 0.329,0.764 0,0.179 0.062,0.354 0.139,0.388 0.201,0.088 1.144,1.972 1.144,2.286 0,0.146 0.165,0.589 0.367,0.984 0.202,0.396 0.367,0.891 0.367,1.1 0,0.209 0.144,0.601 0.321,0.87 0.259,0.395 0.321,0.899 0.321,2.607 0,2.444 -0.214,2.914 -1.735,3.811 l -0.833,0.491 -25.951,0.072 c -14.273,0.04 -25.986,0.106 -26.029,0.147 -0.236,0.227 -0.008,6.645 0.254,7.147 0.154,0.295 0.28,0.825 0.281,1.179 10e-4,0.654 0.526,2.44 1.106,3.759 0.755,1.719 1.165,2.574 1.277,2.66 0.065,0.05 0.381,0.556 0.703,1.124 0.322,0.569 0.709,1.136 0.859,1.261 0.151,0.125 0.274,0.343 0.274,0.486 0,0.142 0.124,0.305 0.275,0.363 0.152,0.059 0.275,0.182 0.275,0.275 0,0.094 0.888,1.043 1.972,2.111 2.362,2.326 2.5,2.449 2.738,2.449 0.102,0 0.317,0.145 0.477,0.321 0.161,0.177 0.607,0.482 0.992,0.678 0.384,0.197 0.864,0.496 1.066,0.666 0.202,0.169 0.676,0.407 1.054,0.528 0.379,0.121 0.688,0.296 0.688,0.389 0,0.093 0.187,0.169 0.416,0.169 0.228,0 0.703,0.153 1.054,0.339 0.352,0.187 0.974,0.391 1.384,0.455 0.409,0.064 1.021,0.255 1.36,0.424 0.908,0.453 8.767,0.47 9.725,0.021 0.353,-0.166 1.054,-0.359 1.559,-0.429 0.504,-0.071 1.204,-0.282 1.556,-0.469 0.351,-0.187 0.791,-0.341 0.976,-0.341 0.185,0 0.464,-0.128 0.621,-0.284 0.156,-0.156 0.521,-0.331 0.812,-0.39 0.29,-0.058 0.528,-0.179 0.528,-0.27 0,-0.09 0.227,-0.264 0.504,-0.387 0.278,-0.123 0.605,-0.307 0.727,-0.409 0.123,-0.102 0.686,-0.516 1.252,-0.919 1.846,-1.316 4.411,-4.111 5.792,-6.312 0.539,-0.858 1.712,-1.978 2.179,-2.079 0.252,-0.055 0.72,-0.207 1.04,-0.337 1.031,-0.419 3.414,0.264 4.442,1.273 1.101,1.081 1.42,4.317 0.477,4.844 -0.151,0.084 -0.274,0.301 -0.274,0.483 0,0.181 -0.165,0.478 -0.366,0.661 -0.202,0.182 -0.367,0.445 -0.367,0.584 0,0.139 -0.121,0.299 -0.268,0.355 -0.148,0.057 -0.325,0.281 -0.394,0.498 -0.225,0.708 -3.456,4.588 -4.76,5.715 -0.7,0.606 -1.338,1.204 -1.419,1.33 -0.081,0.126 -0.266,0.229 -0.413,0.229 -0.146,0 -0.266,0.069 -0.266,0.153 0,0.186 -1.713,1.315 -1.997,1.315 -0.112,0 -0.204,0.081 -0.204,0.181 0,0.099 -0.268,0.304 -0.596,0.454 -0.327,0.151 -0.719,0.346 -0.871,0.434 -0.151,0.088 -0.688,0.35 -1.192,0.582 -0.504,0.232 -1.123,0.524 -1.375,0.648 -0.253,0.125 -0.83,0.288 -1.284,0.362 -0.454,0.075 -0.988,0.249 -1.187,0.388 -0.199,0.138 -0.527,0.252 -0.728,0.252 -0.201,0 -1.029,0.158 -1.839,0.35 -3.103,0.739 -11.178,0.843 -13.761,0.177 -0.404,-0.104 -1.27,-0.309 -1.926,-0.456 -0.656,-0.147 -1.452,-0.388 -1.77,-0.536 -0.318,-0.148 -0.694,-0.269 -0.836,-0.269 -0.142,0 -0.418,-0.121 -0.614,-0.269 -0.196,-0.148 -0.468,-0.272 -0.605,-0.275 -0.396,-0.009 -3.996,-1.809 -4.559,-2.279 -0.281,-0.236 -0.681,-0.481 -0.889,-0.546 -0.208,-0.065 -0.693,-0.407 -1.078,-0.759 -0.384,-0.352 -0.735,-0.64 -0.78,-0.64 -0.504,0 -6.337,-5.568 -6.733,-6.427 -0.091,-0.197 -0.235,-0.359 -0.321,-0.359 -0.085,0 -0.155,-0.085 -0.155,-0.189 0,-0.104 -0.33,-0.606 -0.734,-1.117 -0.403,-0.51 -0.733,-1.031 -0.733,-1.158 0,-0.127 -0.165,-0.38 -0.367,-0.562 -0.202,-0.183 -0.367,-0.41 -0.367,-0.504 0,-0.095 -0.165,-0.382 -0.367,-0.638 -0.201,-0.257 -0.366,-0.653 -0.366,-0.881 0,-0.228 -0.117,-0.458 -0.258,-0.513 -0.142,-0.054 -0.312,-0.346 -0.379,-0.649 -0.066,-0.302 -0.239,-0.648 -0.384,-0.768 -0.145,-0.12 -0.263,-0.418 -0.263,-0.662 0,-0.244 -0.165,-0.767 -0.367,-1.162 -0.202,-0.396 -0.367,-0.87 -0.367,-1.054 0,-0.184 -0.165,-0.804 -0.367,-1.378 -0.201,-0.574 -0.367,-1.324 -0.367,-1.667 0,-0.343 -0.13,-0.985 -0.289,-1.426 -0.711,-1.968 -0.35,-10.482 0.589,-13.916 0.152,-0.555 0.338,-1.339 0.414,-1.742 0.076,-0.404 0.277,-0.998 0.446,-1.321 0.169,-0.323 0.308,-0.787 0.308,-1.032 0,-0.245 0.115,-0.541 0.257,-0.659 0.141,-0.117 0.313,-0.437 0.381,-0.71 0.068,-0.273 0.23,-0.62 0.36,-0.772 0.13,-0.151 0.288,-0.494 0.352,-0.762 0.063,-0.268 0.404,-0.926 0.758,-1.463 0.353,-0.537 0.643,-1.077 0.643,-1.2 0,-0.124 0.106,-0.291 0.236,-0.371 0.13,-0.081 0.505,-0.56 0.834,-1.064 1.432,-2.194 6.893,-7.724 8.086,-8.187 0.166,-0.064 0.412,-0.25 0.547,-0.412 0.135,-0.163 0.4,-0.296 0.59,-0.296 0.189,0 0.344,-0.073 0.344,-0.163 0,-0.09 0.31,-0.299 0.688,-0.465 0.378,-0.166 1.46,-0.711 2.404,-1.212 0.944,-0.501 1.809,-0.911 1.922,-0.911 0.113,0 0.62,-0.156 1.126,-0.348 1.296,-0.489 2.333,-0.748 4.131,-1.033 0.857,-0.136 1.847,-0.326 2.2,-0.423 0.892,-0.244 7.989,-0.251 8.895,-0.008 m 117.671,0.095 c 0.141,0.115 0.711,0.267 1.266,0.338 0.554,0.072 1.191,0.246 1.415,0.388 0.223,0.142 0.529,0.257 0.679,0.257 0.749,0 4.685,2.486 5.113,3.23 0.081,0.14 0.222,0.255 0.313,0.255 0.149,0 1.1,0.855 1.1,0.988 0,0.064 0.882,1.087 1.887,2.192 0.383,0.42 0.745,0.97 0.805,1.222 0.06,0.252 0.168,0.541 0.241,0.642 0.792,1.103 -0.345,3.616 -2.018,4.46 -2.197,1.109 -4.405,0.602 -6.512,-1.495 -1.217,-1.211 -3.05,-2.561 -3.78,-2.784 -0.24,-0.073 -0.559,-0.238 -0.711,-0.366 -0.97,-0.823 -7.514,-0.795 -7.831,0.032 -0.052,0.135 -0.196,0.244 -0.32,0.244 -1.562,0 -3.047,4.823 -2.04,6.623 0.465,0.83 2.328,2.731 2.678,2.731 0.097,0 0.324,0.147 0.504,0.326 0.448,0.449 3.117,1.858 5.451,2.88 0.605,0.265 1.389,0.608 1.742,0.762 0.353,0.155 0.947,0.439 1.32,0.633 0.373,0.193 0.796,0.351 0.94,0.351 0.145,0 0.358,0.115 0.475,0.256 0.117,0.14 0.49,0.308 0.829,0.371 0.34,0.064 0.711,0.229 0.826,0.367 0.114,0.138 0.486,0.303 0.825,0.367 0.339,0.064 0.718,0.237 0.841,0.386 0.123,0.149 0.368,0.27 0.544,0.27 0.176,0 0.529,0.165 0.786,0.367 0.256,0.202 0.587,0.367 0.734,0.367 0.147,0 0.477,0.165 0.733,0.367 0.257,0.201 0.589,0.366 0.74,0.366 0.862,0 5.381,4.128 6.455,5.896 0.1,0.167 0.45,0.685 0.777,1.153 0.327,0.468 0.644,1.051 0.706,1.295 0.061,0.245 0.227,0.541 0.369,0.658 0.141,0.117 0.259,0.389 0.263,0.604 0.003,0.214 0.166,0.72 0.36,1.123 0.195,0.404 0.358,1.033 0.361,1.399 0.003,0.365 0.13,1.015 0.281,1.444 0.19,0.537 0.275,1.508 0.275,3.118 0,1.609 -0.085,2.581 -0.275,3.118 -0.151,0.429 -0.274,1.037 -0.272,1.353 0.003,0.675 -0.63,2.867 -1.092,3.782 -0.179,0.353 -0.379,0.869 -0.446,1.146 -0.067,0.278 -0.203,0.505 -0.302,0.505 -0.099,0 -0.18,0.094 -0.18,0.209 0,0.964 -4.723,6.359 -6.8,7.769 -0.446,0.302 -0.915,0.648 -1.042,0.768 -0.127,0.119 -0.952,0.561 -1.834,0.98 -0.882,0.42 -1.81,0.868 -2.062,0.996 -0.252,0.128 -0.798,0.284 -1.214,0.347 -0.415,0.063 -0.993,0.239 -1.283,0.39 -0.291,0.152 -0.916,0.277 -1.389,0.277 -1.239,0.002 -1.425,0.649 -0.319,1.107 0.295,0.123 0.537,0.295 0.537,0.384 0,0.089 0.144,0.161 0.321,0.161 0.295,0 0.564,0.188 1.88,1.308 0.647,0.551 2.013,2.398 2.017,2.727 0.001,0.151 0.135,0.523 0.296,0.825 1.352,2.531 0.385,9.776 -1.434,10.75 -0.181,0.096 -0.329,0.286 -0.329,0.421 0,0.136 -0.379,0.566 -0.841,0.957 -0.463,0.391 -0.979,0.845 -1.147,1.009 -0.167,0.164 -0.507,0.36 -0.754,0.436 -0.248,0.077 -0.563,0.252 -0.701,0.39 -0.138,0.138 -0.374,0.251 -0.523,0.251 -0.15,0 -0.652,0.173 -1.115,0.384 -1.133,0.516 -5.467,0.471 -6.056,-0.063 -0.195,-0.177 -0.481,-0.321 -0.636,-0.321 -0.155,0 -0.492,-0.165 -0.748,-0.367 -0.257,-0.202 -0.588,-0.367 -0.736,-0.367 -0.148,0 -0.372,-0.124 -0.498,-0.275 -0.126,-0.151 -0.325,-0.275 -0.444,-0.275 -0.651,0 -2.626,-2.034 -2.782,-2.865 -0.064,-0.343 -0.19,-0.669 -0.279,-0.724 -0.253,-0.156 -0.194,-0.832 0.159,-1.828 0.514,-1.453 0.889,-1.866 2.246,-2.476 0.733,-0.33 3.46,-0.158 3.748,0.236 0.129,0.177 0.335,0.321 0.457,0.321 0.122,0 0.614,0.33 1.092,0.734 2.048,1.727 4.948,-0.674 3.322,-2.751 -0.197,-0.253 -0.363,-0.542 -0.369,-0.642 -0.016,-0.269 -1.542,-1.192 -1.97,-1.192 -0.202,0 -0.469,-0.124 -0.595,-0.276 -0.126,-0.151 -0.376,-0.275 -0.556,-0.275 -1.557,0 -2.67,-2.209 -2.821,-5.593 -0.049,-1.11 -0.093,-2.043 -0.098,-2.073 -0.028,-0.165 -1.644,-0.763 -2.074,-0.766 -0.277,-0.002 -0.813,-0.169 -1.189,-0.371 -0.376,-0.202 -0.782,-0.367 -0.902,-0.367 -0.265,0 -3.23,-1.49 -3.379,-1.698 -0.059,-0.082 -0.43,-0.322 -0.825,-0.534 -0.76,-0.407 -0.807,-0.44 -3.103,-2.208 -1.395,-1.073 -3.76,-3.356 -3.76,-3.628 0,-0.071 -0.165,-0.277 -0.367,-0.46 -0.202,-0.183 -0.367,-0.433 -0.367,-0.556 0,-0.123 -0.117,-0.322 -0.261,-0.441 -0.79,-0.656 -1.842,-3.388 -1.84,-4.78 0.006,-4.71 6.06,-5.768 8.841,-1.546 0.327,0.497 0.658,0.986 0.735,1.087 0.077,0.101 0.427,0.555 0.778,1.009 0.352,0.454 0.722,0.934 0.824,1.067 0.44,0.577 1.904,2.051 2.035,2.051 0.079,0 0.521,0.315 0.981,0.7 0.461,0.385 0.982,0.754 1.158,0.82 0.177,0.065 0.321,0.204 0.321,0.308 0,0.104 0.195,0.189 0.434,0.189 0.238,0 0.63,0.155 0.871,0.344 0.241,0.189 0.809,0.405 1.263,0.48 0.454,0.075 1.048,0.251 1.32,0.39 0.691,0.354 5.907,0.356 6.583,0.003 0.262,-0.136 0.798,-0.305 1.192,-0.374 0.628,-0.111 1.791,-0.576 2.642,-1.055 0.152,-0.086 0.448,-0.231 0.659,-0.323 0.439,-0.191 1.879,-1.456 2.718,-2.386 0.312,-0.346 0.69,-0.764 0.842,-0.929 0.471,-0.515 1.833,-3.458 1.835,-3.964 0.001,-0.191 0.124,-0.583 0.275,-0.872 0.987,-1.893 0.031,-6.815 -1.773,-9.13 -0.286,-0.368 -0.521,-0.725 -0.521,-0.794 0,-0.203 -1.054,-1.197 -1.269,-1.197 -0.109,0 -0.198,-0.069 -0.198,-0.153 0,-0.084 -0.433,-0.43 -0.963,-0.769 -0.529,-0.339 -1.004,-0.667 -1.054,-0.729 -0.051,-0.062 -0.36,-0.221 -0.688,-0.353 -0.328,-0.133 -0.596,-0.305 -0.596,-0.382 0,-0.078 -0.283,-0.194 -0.629,-0.259 -0.345,-0.065 -0.655,-0.183 -0.687,-0.262 -0.033,-0.079 -0.596,-0.414 -1.252,-0.744 -0.655,-0.33 -1.398,-0.716 -1.65,-0.856 -0.253,-0.141 -0.606,-0.257 -0.786,-0.259 -0.179,-0.001 -0.371,-0.118 -0.425,-0.26 -0.054,-0.141 -0.373,-0.308 -0.709,-0.371 -0.336,-0.063 -0.704,-0.226 -0.816,-0.362 -0.113,-0.136 -0.524,-0.298 -0.912,-0.361 -0.389,-0.062 -0.81,-0.237 -0.936,-0.389 -0.126,-0.152 -0.405,-0.278 -0.62,-0.278 -0.215,-0.001 -0.638,-0.165 -0.94,-0.366 -0.303,-0.2 -0.695,-0.365 -0.872,-0.365 -0.177,-0.001 -0.63,-0.167 -1.006,-0.368 -0.377,-0.202 -0.867,-0.367 -1.089,-0.367 -0.223,0 -0.456,-0.084 -0.52,-0.186 -0.063,-0.103 -0.377,-0.309 -0.698,-0.458 -1.951,-0.908 -3.743,-2.337 -5.628,-4.491 -0.794,-0.907 -2.2,-3.569 -2.2,-4.164 0,-0.207 -0.124,-0.673 -0.275,-1.035 -0.352,-0.841 -0.364,-3.543 -0.023,-4.896 0.139,-0.551 0.303,-1.339 0.364,-1.752 0.135,-0.901 0.739,-2.321 1.124,-2.64 0.152,-0.127 0.277,-0.358 0.277,-0.514 0,-0.314 -0.004,-0.31 1.902,-2.239 1.547,-1.567 2.466,-2.337 3.337,-2.795 0.333,-0.176 0.658,-0.403 0.721,-0.505 0.062,-0.102 0.247,-0.185 0.41,-0.185 0.162,0 0.45,-0.14 0.639,-0.311 0.409,-0.37 1.336,-0.737 2.711,-1.071 0.555,-0.135 1.257,-0.329 1.559,-0.432 0.755,-0.256 6.561,-0.175 6.896,0.097 M 306.656,74.9 c 0.55,0.14 1.629,0.311 2.397,0.38 0.768,0.068 1.624,0.243 1.901,0.387 0.278,0.144 0.682,0.261 0.899,0.261 0.217,0 0.702,0.166 1.079,0.367 0.376,0.202 0.829,0.373 1.006,0.379 0.177,0.007 0.734,0.254 1.239,0.55 0.504,0.295 1.123,0.639 1.375,0.763 0.252,0.125 0.525,0.331 0.605,0.459 0.081,0.129 0.25,0.234 0.375,0.234 0.497,0 3.788,3.494 3.788,4.022 0,0.407 0.733,0.18 0.996,-0.309 0.514,-0.958 3.182,-3.47 4.002,-3.769 0.177,-0.064 0.321,-0.193 0.321,-0.288 0,-0.094 0.227,-0.264 0.505,-0.377 0.277,-0.114 0.958,-0.451 1.513,-0.749 0.554,-0.298 1.134,-0.543 1.288,-0.545 0.155,-0.002 0.453,-0.124 0.664,-0.272 0.211,-0.148 0.704,-0.348 1.096,-0.446 0.391,-0.097 1.041,-0.303 1.445,-0.456 0.403,-0.154 1.027,-0.284 1.385,-0.288 0.358,-0.005 0.754,-0.111 0.88,-0.237 0.312,-0.313 7.293,-0.427 8.666,-0.142 0.545,0.113 1.76,0.315 2.701,0.45 0.942,0.134 1.804,0.336 1.917,0.449 0.113,0.113 0.437,0.205 0.719,0.205 0.283,0 0.823,0.166 1.199,0.367 0.376,0.202 0.789,0.367 0.917,0.367 0.341,0 3.232,1.519 3.404,1.788 0.081,0.126 0.234,0.23 0.341,0.23 0.512,0 3.887,3.2 4.111,3.897 0.057,0.176 0.175,0.321 0.264,0.321 0.088,0 0.284,0.227 0.434,0.504 0.562,1.037 1.398,2.855 1.403,3.052 0.004,0.112 0.127,0.364 0.275,0.56 0.149,0.195 0.27,0.525 0.271,0.733 0.001,0.208 0.127,0.618 0.28,0.913 0.153,0.294 0.36,1.119 0.459,1.834 0.099,0.714 0.282,1.546 0.408,1.849 0.413,0.998 0.322,45.615 -0.094,46.075 -0.176,0.195 -0.321,0.425 -0.321,0.512 0,0.248 -0.773,1.006 -1.027,1.006 -0.127,0 -0.375,0.144 -0.551,0.321 -0.267,0.267 -0.663,0.321 -2.365,0.321 -1.702,0 -2.097,-0.054 -2.364,-0.321 -0.177,-0.177 -0.385,-0.321 -0.464,-0.321 -0.213,0 -0.783,-0.564 -1.298,-1.284 l -0.459,-0.642 -0.092,-22.283 c -0.069,-16.776 -0.145,-22.378 -0.31,-22.665 -0.12,-0.209 -0.275,-0.828 -0.345,-1.375 -0.069,-0.547 -0.232,-1.118 -0.363,-1.27 -0.13,-0.151 -0.297,-0.522 -0.371,-0.825 -0.308,-1.26 -2.889,-3.847 -4.346,-4.355 -0.321,-0.112 -0.791,-0.312 -1.046,-0.445 -0.255,-0.133 -0.63,-0.242 -0.835,-0.242 -0.204,-10e-4 -0.534,-0.115 -0.733,-0.253 -0.208,-0.144 -1.143,-0.306 -2.196,-0.379 -1.009,-0.07 -2.329,-0.205 -2.935,-0.301 -1.309,-0.206 -5.689,0.279 -6.158,0.682 -0.159,0.137 -0.348,0.249 -0.42,0.249 -1.094,0 -5.801,3.781 -5.801,4.66 0,0.129 -0.165,0.385 -0.367,0.567 -0.202,0.183 -0.367,0.515 -0.367,0.738 0,0.223 -0.152,0.602 -0.339,0.842 -0.186,0.241 -0.392,0.842 -0.458,1.336 -0.066,0.494 -0.223,1.023 -0.349,1.175 -0.179,0.215 -0.249,5.054 -0.321,22.21 l -0.092,21.934 -0.64,0.843 c -1.065,1.4 -2.034,1.816 -4.226,1.816 -1.439,0 -1.862,-0.058 -1.942,-0.266 -0.056,-0.146 -0.389,-0.361 -0.74,-0.477 -0.399,-0.131 -0.715,-0.392 -0.844,-0.696 -0.114,-0.268 -0.335,-0.639 -0.492,-0.826 -0.254,-0.303 -0.296,-2.788 -0.378,-22.376 -0.05,-12.119 -0.16,-22.14 -0.244,-22.27 -0.083,-0.13 -0.228,-0.79 -0.322,-1.467 -0.093,-0.678 -0.304,-1.521 -0.468,-1.874 -0.165,-0.353 -0.474,-1.01 -0.687,-1.461 -0.213,-0.45 -0.804,-1.252 -1.313,-1.781 -0.808,-0.842 -1.348,-1.202 -3.568,-2.381 -0.252,-0.134 -0.626,-0.244 -0.83,-0.244 -0.205,-10e-4 -0.535,-0.114 -0.734,-0.252 -0.212,-0.147 -1.159,-0.303 -2.287,-0.378 -1.06,-0.07 -2.456,-0.209 -3.104,-0.308 -1.328,-0.204 -5.568,0.262 -6.067,0.667 -0.151,0.122 -0.584,0.278 -0.962,0.346 -0.379,0.068 -0.688,0.195 -0.688,0.282 0,0.087 -0.352,0.329 -0.781,0.537 -0.888,0.43 -3.804,3.277 -3.804,3.715 0,0.105 -0.165,0.402 -0.367,0.658 -0.202,0.256 -0.367,0.587 -0.367,0.734 0,0.147 -0.165,0.477 -0.367,0.733 -0.201,0.257 -0.366,0.707 -0.366,1.001 0,0.294 -0.145,0.799 -0.321,1.122 -0.3,0.547 -0.328,2.074 -0.413,22.411 l -0.092,21.825 -0.396,0.734 c -0.435,0.807 -1.129,1.486 -2.016,1.974 -0.759,0.417 -4.179,0.466 -4.41,0.063 -0.081,-0.14 -0.457,-0.384 -0.835,-0.541 -0.378,-0.157 -0.688,-0.401 -0.688,-0.542 0,-0.141 -0.158,-0.439 -0.352,-0.662 -0.572,-0.66 -0.587,-1.581 -0.529,-32.112 l 0.056,-29.07 0.459,-0.642 c 0.252,-0.353 0.512,-0.666 0.579,-0.697 0.066,-0.03 0.308,-0.218 0.538,-0.418 0.23,-0.199 0.588,-0.396 0.796,-0.437 0.209,-0.042 0.627,-0.128 0.929,-0.192 1.317,-0.277 1.8,-0.305 2.172,-0.126 0.218,0.105 0.614,0.238 0.88,0.296 0.662,0.142 2.357,1.829 2.365,2.353 0.004,0.227 0.125,0.62 0.269,0.872 0.144,0.252 0.265,0.713 0.268,1.024 0.011,0.879 0.118,0.844 1.456,-0.481 1.585,-1.569 3.938,-3.088 4.81,-3.105 0.164,-0.003 0.395,-0.122 0.514,-0.265 0.118,-0.142 0.644,-0.317 1.168,-0.387 0.525,-0.071 1.036,-0.193 1.137,-0.271 0.551,-0.43 7.32,-0.514 8.903,-0.111 M 192.27,75.193 c 1.396,0.35 2.164,1.266 2.563,3.056 0.429,1.925 0.387,57.974 -0.044,59.578 -1.167,4.337 -8.406,3.814 -8.885,-0.642 -0.161,-1.504 -0.134,-57.485 0.029,-58.884 0.191,-1.637 1.413,-3.102 2.594,-3.109 0.258,-10e-4 0.593,-0.086 0.744,-0.189 0.321,-0.217 1.731,-0.128 2.999,0.19 m 71.356,-0.206 c 0.054,0.088 0.436,0.214 0.849,0.28 0.974,0.156 1.726,0.725 2.289,1.732 l 0.453,0.81 v 30.124 c 0,26.198 -0.035,30.153 -0.268,30.346 -0.148,0.123 -0.324,0.401 -0.393,0.619 -0.133,0.421 -0.748,1.038 -1.035,1.038 -0.094,0 -0.382,0.165 -0.638,0.367 -0.597,0.469 -4.059,0.55 -4.504,0.105 -0.144,-0.144 -0.562,-0.387 -0.93,-0.541 -0.463,-0.193 -0.669,-0.396 -0.669,-0.657 0,-0.208 -0.165,-0.52 -0.366,-0.692 -0.364,-0.312 -0.367,-0.541 -0.367,-30.559 V 77.714 l 0.393,-0.663 c 0.52,-0.879 1.387,-1.658 1.974,-1.775 0.262,-0.052 0.682,-0.165 0.934,-0.252 0.615,-0.211 2.155,-0.236 2.278,-0.037 m -158.628,8.636 c -0.908,0.194 -1.94,0.361 -2.293,0.37 -0.353,0.009 -0.794,0.132 -0.98,0.273 -0.185,0.141 -0.676,0.313 -1.089,0.383 -0.414,0.07 -0.866,0.241 -1.005,0.38 -0.139,0.139 -0.443,0.253 -0.674,0.253 -0.231,0 -0.63,0.165 -0.887,0.367 -0.256,0.202 -0.598,0.367 -0.758,0.367 -0.161,0 -0.292,0.075 -0.292,0.167 0,0.092 -0.516,0.466 -1.147,0.83 -2.716,1.569 -5.655,4.211 -8.203,7.378 -0.095,0.117 -0.224,0.421 -0.288,0.674 -0.064,0.254 -0.237,0.508 -0.386,0.565 -1.097,0.421 1.168,0.473 20.565,0.473 11.334,0 20.729,-0.047 20.877,-0.104 0.329,-0.126 0.209,-0.723 -0.269,-1.342 -0.186,-0.241 -0.338,-0.518 -0.338,-0.616 0,-0.098 -0.309,-0.573 -0.687,-1.054 -0.379,-0.482 -0.812,-1.066 -0.963,-1.297 -0.152,-0.231 -0.626,-0.789 -1.055,-1.24 -0.429,-0.451 -0.779,-0.89 -0.779,-0.976 0,-0.087 -0.119,-0.157 -0.263,-0.157 -0.145,0 -0.31,-0.149 -0.368,-0.331 -0.057,-0.181 -0.432,-0.532 -0.832,-0.779 -0.401,-0.247 -0.731,-0.511 -0.733,-0.587 -0.003,-0.075 -0.102,-0.137 -0.22,-0.137 -0.118,0 -0.366,-0.137 -0.551,-0.305 -0.423,-0.382 -0.968,-0.705 -1.848,-1.096 -0.378,-0.168 -0.687,-0.369 -0.687,-0.446 0,-0.078 -0.269,-0.197 -0.596,-0.266 -0.328,-0.068 -0.763,-0.229 -0.967,-0.358 -0.204,-0.129 -0.713,-0.292 -1.13,-0.362 -0.417,-0.07 -0.91,-0.243 -1.096,-0.384 -0.186,-0.141 -0.668,-0.26 -1.072,-0.265 -0.403,-0.005 -1.228,-0.131 -1.834,-0.281 -1.862,-0.462 -5.232,-0.507 -7.152,-0.097"
         id="path1"
         inkscape:connector-curvature="0" />
      <g
         id="g853"
         transform="matrix(0.79061146,0,0,0.71624944,66.277088,37.151098)">
        <g
           id="g1451"
           transform="matrix(0.00612888,-4.3771046e-5,-2.5550003e-5,-0.00616701,153.23684,156.92469)"
           style="fill:#000000;stroke:#000000;stroke-width:178.79092407;stroke-miterlimit:4;stroke-dasharray:none;stroke-opacity:1"
           inkscape:transform-center-x="-59.933919"
           inkscape:transform-center-y="103.8866">
          <path
             style="stroke:#000000;stroke-width:178.79092407;stroke-miterlimit:4;stroke-dasharray:none;stroke-opacity:1"
             id="path2-5"
             d="m 13360,21794 c -525,-63 -968,-280 -1374,-674 -585,-568 -986,-1405 -1092,-2280 -21,-180 -29,-552 -15,-765 34,-521 133,-872 326,-1160 283,-423 594,-649 836,-606 66,11 91,25 83,46 -4,9 -31,14 -88,17 -71,3 -92,8 -157,40 -273,136 -581,648 -683,1133 -99,475 -111,938 -35,1320 24,118 116,434 194,664 176,518 397,953 635,1246 86,107 345,365 450,449 270,215 544,355 810,412 127,28 361,25 500,-5 336,-72 582,-202 806,-425 273,-274 429,-615 505,-1107 20,-123 23,-186 23,-434 1,-307 -8,-425 -50,-675 -74,-437 -255,-978 -470,-1410 -202,-403 -394,-645 -644,-812 -107,-71 -335,-180 -475,-228 -153,-52 -277,-84 -600,-155 -143,-31 -266,-62 -272,-67 -7,-6 -13,-21 -13,-33 0,-31 15,-41 80,-53 213,-42 473,-12 777,89 305,102 546,241 723,418 570,571 1026,1540 1137,2416 22,175 25,617 5,775 -72,569 -253,952 -626,1325 -280,279 -571,448 -896,520 -73,16 -325,28 -400,19 z"
             inkscape:connector-curvature="0" />
          <path
             style="stroke:#000000;stroke-width:178.79092407;stroke-miterlimit:4;stroke-dasharray:none;stroke-opacity:1"
             id="path4-6"
             d="m 20005,20394 c -16,-2 -79,-9 -140,-15 -268,-27 -584,-90 -942,-190 -818,-228 -1350,-471 -1813,-827 -510,-393 -888,-828 -1119,-1290 -86,-172 -131,-283 -211,-529 -88,-269 -143,-476 -174,-663 -28,-165 -32,-215 -46,-500 -11,-209 -29,-353 -56,-448 -13,-48 -31,-69 -217,-256 -204,-205 -285,-276 -433,-379 l -82,-57 -258,-50 c -414,-81 -693,-139 -1629,-340 -896,-192 -1303,-275 -1311,-267 -2,2 22,22 53,44 331,233 586,629 741,1153 70,235 209,870 196,891 -32,52 -80,-98 -199,-621 -131,-576 -339,-978 -661,-1279 -65,-61 -224,-187 -270,-214 -19,-11 -420,-74 -644,-102 -231,-28 -489,-51 -693,-61 l -137,-7 19,44 c 33,73 68,209 81,309 33,253 -46,551 -216,817 -106,167 -293,382 -479,554 -92,85 -111,108 -115,137 -6,40 -27,54 -32,21 -3,-19 -16,-10 -111,70 -60,50 -112,91 -116,91 -28,0 -8,-28 96,-132 l 118,-118 -24,-68 c -99,-285 -393,-480 -826,-547 -448,-69 -1130,29 -1613,231 -510,214 -1046,667 -1286,1089 -103,181 -163,359 -203,600 -14,85 -18,166 -18,360 0,219 3,263 22,361 53,260 145,439 302,586 157,148 408,243 742,279 127,14 393,6 539,-16 529,-79 1126,-349 1669,-755 221,-165 331,-259 476,-404 159,-160 269,-308 351,-471 143,-289 161,-555 57,-856 -41,-120 -40,-150 7,-169 27,-11 34,-10 69,13 53,36 154,164 195,250 53,109 69,191 63,322 -12,286 -188,594 -538,944 -352,351 -827,680 -1386,960 -760,380 -1402,504 -1889,365 -561,-160 -914,-710 -914,-1424 0,-481 156,-914 475,-1315 83,-104 286,-306 405,-402 201,-163 496,-345 698,-433 268,-116 682,-219 1072,-266 200,-25 582,-25 735,-1 311,49 501,132 656,286 71,70 94,101 127,171 40,85 72,192 72,243 0,15 4,27 9,27 16,0 310,-310 398,-420 203,-252 306,-476 334,-724 20,-179 -12,-374 -86,-531 l -35,-73 -518,-5 c -456,-4 -549,-7 -787,-30 -148,-14 -342,-32 -430,-39 -200,-16 -751,-16 -1265,0 -1755,56 -2107,96 -3933,452 -312,60 -576,110 -587,110 -50,0 -10,-19 103,-48 67,-18 253,-66 412,-108 1339,-349 2023,-453 3395,-514 1026,-46 1552,-52 1905,-21 l 100,8 51,-39 c 200,-151 461,-249 708,-266 222,-15 390,14 561,98 113,55 200,122 268,208 l 47,58 192,12 c 251,15 476,37 718,69 107,14 226,27 263,29 38,2 73,6 78,9 5,3 138,28 296,55 379,64 655,120 1443,290 972,210 1271,271 1290,265 23,-7 199,27 305,60 46,14 178,43 292,64 2210,415 3816,447 5308,105 195,-45 502,-131 689,-194 140,-46 166,-51 166,-30 0,16 -339,142 -600,221 -776,238 -1571,348 -2504,349 -216,0 -335,4 -325,10 40,24 425,172 516,199 175,52 443,100 743,133 149,17 793,16 995,0 888,-74 1585,-231 2338,-526 605,-237 1109,-500 1718,-897 263,-171 474,-297 907,-539 199,-112 360,-205 358,-207 -2,-2 -26,5 -55,16 -162,65 -608,183 -904,240 -508,99 -801,130 -1703,181 -589,33 -837,51 -1104,80 -280,31 -359,38 -835,70 -830,56 -1184,105 -1565,216 -227,66 -379,128 -810,331 -472,223 -698,308 -942,358 -205,41 -538,54 -538,20 0,-8 31,-14 98,-19 210,-14 435,-68 663,-157 74,-29 309,-140 523,-246 540,-269 679,-328 951,-402 384,-106 746,-158 1520,-221 204,-17 483,-41 620,-55 343,-34 684,-60 1185,-90 1184,-70 1649,-126 2180,-261 323,-81 565,-164 876,-300 706,-307 696,-303 719,-284 8,7 15,18 15,25 0,12 -129,112 -205,159 -16,10 -90,62 -163,114 -178,126 -409,274 -737,472 -148,89 -387,242 -530,338 -632,427 -813,546 -1010,664 -882,528 -1591,805 -2555,998 -524,105 -953,150 -1425,150 -385,0 -671,-27 -1010,-95 -432,-86 -797,-224 -1170,-441 l -91,-52 -149,-11 c -529,-41 -1106,-112 -1689,-210 -132,-23 -241,-39 -242,-38 -2,2 36,31 84,65 129,91 302,252 435,405 119,135 119,135 170,142 124,16 287,70 439,145 133,67 557,314 648,378 126,90 349,308 476,466 127,158 226,300 664,951 189,281 389,572 444,649 362,498 685,818 1101,1091 253,167 469,280 1040,547 l 320,150 130,-10 c 141,-10 168,-5 163,31 -3,19 -15,25 -83,39 -222,48 -360,61 -680,63 -170,2 -323,1 -340,-1 z m 310,-183 c -657,-223 -1202,-563 -1685,-1051 -298,-300 -478,-542 -770,-1035 -156,-262 -630,-996 -729,-1129 -162,-215 -236,-285 -536,-500 -416,-299 -800,-538 -899,-562 -25,-6 -8,17 115,152 338,374 408,469 702,947 49,79 120,186 158,238 78,106 84,117 74,127 -11,11 -222,-213 -347,-370 -63,-79 -204,-262 -313,-408 -109,-146 -227,-301 -263,-345 -100,-122 -215,-255 -218,-252 -2,2 6,36 16,77 29,112 46,211 80,464 46,344 98,572 200,876 221,663 551,1165 1030,1567 848,712 2017,1159 3270,1252 58,5 146,9 195,9 l 90,1 z M 9710,14209 c -312,-279 -791,-336 -1208,-143 -70,32 -217,123 -210,130 4,3 419,41 518,47 30,2 255,4 500,5 l 445,1 z"
             inkscape:connector-curvature="0" />
          <path
             style="stroke:#000000;stroke-width:178.79092407;stroke-miterlimit:4;stroke-dasharray:none;stroke-opacity:1"
             id="path6"
             d="m 12403,17109 c -130,-22 -258,-93 -355,-198 -155,-167 -122,-354 86,-476 56,-33 75,-24 26,13 -96,72 -140,140 -140,217 0,135 175,271 375,291 82,9 153,-9 209,-52 51,-39 122,-141 166,-240 17,-38 37,-72 43,-76 24,-15 56,-7 76,18 18,22 21,41 21,114 0,124 -20,178 -93,257 -69,74 -151,118 -247,133 -74,11 -94,11 -167,-1 z"
             inkscape:connector-curvature="0" />
          <path
             style="stroke:#000000;stroke-width:178.79092407;stroke-miterlimit:4;stroke-dasharray:none;stroke-opacity:1"
             id="path8"
             d="m 8819,16827 c -158,-54 -271,-195 -314,-391 -52,-234 57,-416 247,-416 39,0 149,27 161,39 5,5 -29,7 -76,4 -109,-7 -149,1 -192,38 -51,45 -68,101 -63,202 4,70 10,96 41,160 40,85 108,161 172,192 67,33 176,27 304,-18 98,-34 106,-35 123,-20 31,28 22,57 -34,109 -69,65 -111,90 -183,109 -78,20 -107,19 -186,-8 z"
             inkscape:connector-curvature="0" />
        </g>
        <path
           style="fill:#000000;fill-rule:evenodd;stroke:none;stroke-width:0.50264597"
           inkscape:connector-curvature="0"
           id="path0-3"
           d="m 147.59669,65.384479 c -0.32688,0.204026 -0.59461,0.425583 -0.59461,0.492782 0,0.06768 -0.0607,0.154846 -0.13542,0.194289 -0.0742,0.03896 -0.22155,0.380785 -0.32688,0.75865 l -0.19198,0.688045 0.19613,0.651525 c 0.10792,0.358874 0.22726,0.672462 0.26514,0.69681 0.0384,0.02483 0.12037,0.135369 0.18212,0.245904 0.0623,0.110536 0.17329,0.200619 0.24749,0.200619 0.0742,0 0.17641,0.0706 0.22778,0.156308 0.14839,0.249312 2.40906,0.286807 2.76085,0.04626 0.13646,-0.09349 0.32325,-0.196236 0.41457,-0.227888 0.0918,-0.03214 0.16656,-0.103231 0.16656,-0.158743 0,-0.05502 0.0809,-0.196236 0.179,-0.313588 0.33207,-0.396369 0.35075,-2.190252 0.027,-2.548152 -0.0623,-0.06866 -0.20131,-0.235191 -0.30923,-0.370561 -0.73679,-0.922263 -2.09153,-1.145281 -3.10849,-0.512259 m 12.39503,4.696526 c -0.33466,0.04431 -1.09479,0.399291 -1.09479,0.511287 0,0.04285 -0.0856,0.19088 -0.19043,0.329171 -0.23866,0.314076 -0.26149,48.484526 -0.0233,48.559026 0.0654,0.0205 0.11882,0.0915 0.11882,0.15777 0,0.42218 1.6095,0.9286 2.28921,0.72019 0.25216,-0.0774 0.5256,-0.14122 0.6081,-0.14122 0.082,0 0.34141,-0.18309 0.57697,-0.40756 l 0.42859,-0.40758 -0.0245,-24.220345 -0.0245,-24.22084 -0.21326,-0.254182 c -0.42754,-0.509825 -1.41597,-0.762546 -2.45108,-0.625717 m -11.8907,2.777016 c -0.15462,0.02386 -0.36787,0.09982 -0.4732,0.168968 -0.10584,0.06963 -0.26047,0.126117 -0.34348,0.126117 -0.30042,0 -0.58579,0.522973 -0.67711,1.239261 -0.0508,0.397828 -0.0758,9.897037 -0.0602,22.847183 l 0.027,22.166439 0.42443,0.40562 c 0.23297,0.22351 0.49291,0.40562 0.57749,0.40562 0.0846,0 0.35438,0.0643 0.59928,0.14267 0.75494,0.24152 1.90993,-0.16215 2.46666,-0.86237 0.27967,-0.35157 0.25632,-45.518087 -0.0239,-45.743052 -0.10429,-0.08424 -0.1899,-0.20695 -0.1899,-0.273173 0,-0.329658 -1.54049,-0.742096 -2.32708,-0.623283 m 77.88559,2.175642 c -0.18265,0.09544 -0.38604,0.173837 -0.45245,0.173837 -0.16915,0 -0.74768,0.593093 -1.04499,1.071754 -0.32013,0.515182 -0.37773,1.770024 -0.0981,2.140585 0.0918,0.121734 0.16656,0.283398 0.16656,0.359847 0,0.180655 0.61796,0.776181 0.99258,0.955862 0.16033,0.07742 0.32064,0.182115 0.35489,0.23227 0.11364,0.165072 2.04742,0.115891 2.25081,-0.05697 0.0965,-0.08181 0.22156,-0.149003 0.27811,-0.149003 0.18108,0 0.92201,-0.755243 1.14357,-1.165732 0.31857,-0.59017 0.30769,-1.73399 -0.0214,-2.256476 -0.29369,-0.466974 -0.95886,-1.132134 -1.13164,-1.132134 -0.0716,0 -0.2392,-0.08035 -0.37202,-0.178706 -0.33934,-0.250286 -1.58356,-0.247365 -2.0661,0.0049 M 263.626,74.987 c -0.10169,0.07207 -0.2641,0.130987 -0.36061,0.130987 -0.26203,0 -1.28469,1.026955 -1.36253,1.367325 -0.0352,0.156795 -0.10791,0.335501 -0.16084,0.396855 -0.45868,0.53466 0.19665,2.014954 1.23488,2.789187 l 0.49811,0.371535 1.01592,-0.0058 c 0.76533,-0.0044 1.05537,-0.03896 1.1747,-0.140239 0.0872,-0.07402 0.20288,-0.134883 0.25684,-0.134883 0.0846,0 0.63819,-0.534172 1.05952,-1.021598 0.38291,-0.4436 0.32272,-2.108446 -0.096,-2.647 -0.3165,-0.406595 -0.83951,-0.885744 -0.96715,-0.88623 -0.0601,0 -0.24956,-0.08035 -0.42131,-0.178707 -0.38967,-0.223017 -1.57838,-0.249312 -1.87153,-0.04139 m -56.67296,1.959443 c -0.13126,0.07109 -0.30976,0.161177 -0.39796,0.199645 -0.0877,0.03896 -0.26982,0.223019 -0.40419,0.409515 l -0.24491,0.33891 v 5.43278 c 0,6.278106 0.14477,5.619278 -1.24889,5.679658 -2.22435,0.09593 -3.02495,0.613056 -3.03118,1.957009 -0.007,1.285032 0.80631,1.826995 2.85269,1.903444 0.65427,0.02435 1.24319,0.08473 1.30858,0.13391 0.0939,0.07013 0.1188,1.989631 0.1188,9.056094 0,7.84459 0.0182,9.00837 0.14581,9.2942 0.0799,0.17968 0.17226,0.62426 0.20495,0.98752 0.0327,0.36375 0.13853,0.80637 0.23504,0.98411 0.0965,0.17773 0.17693,0.42558 0.17849,0.55024 0.001,0.12465 0.0658,0.30481 0.14268,0.39977 0.0768,0.0954 0.14009,0.25175 0.14009,0.34767 0,0.15388 0.25632,0.75378 0.48359,1.13117 0.0441,0.074 0.21947,0.39539 0.38966,0.71482 0.29315,0.55024 0.58111,0.99043 0.79178,1.21053 0.0524,0.0545 0.18108,0.21182 0.28536,0.34914 0.25114,0.32966 0.6901,0.76205 0.77415,0.76205 0.0363,0 0.13438,0.0599 0.2174,0.13343 0.32896,0.29167 0.73211,0.55949 0.9272,0.61695 0.1126,0.0331 0.25736,0.11881 0.32066,0.19088 0.0633,0.0716 0.19716,0.1305 0.2973,0.1305 0.0996,0 0.20495,0.057 0.23297,0.12661 0.0301,0.0735 0.25787,0.15241 0.54428,0.18893 0.27086,0.0346 0.62108,0.12611 0.7783,0.20354 0.37721,0.1865 4.04243,0.20305 4.27851,0.0194 0.0804,-0.0628 0.43533,-0.16459 0.78867,-0.22595 0.35334,-0.0613 0.7923,-0.16215 0.97546,-0.22399 0.18316,-0.0619 0.58423,-0.19769 0.89139,-0.30141 1.41857,-0.48012 2.13356,-1.98672 1.37757,-2.90264 -0.0965,-0.11736 -0.17588,-0.26782 -0.17588,-0.33502 0,-0.0672 -0.0628,-0.12173 -0.13958,-0.12173 -0.0768,0 -0.31287,-0.0847 -0.52456,-0.18845 -0.42287,-0.20695 -1.75167,-0.22156 -1.88607,-0.0209 -0.0788,0.11833 -0.97804,0.36423 -1.77916,0.48645 -0.31443,0.0482 -0.79229,0.13148 -1.06262,0.18552 -0.27033,0.0541 -0.56556,0.0716 -0.65635,0.039 -0.0903,-0.0326 -0.46647,-0.0998 -0.83538,-0.149 -0.36942,-0.0492 -0.73781,-0.14316 -0.81927,-0.2089 -0.0809,-0.0658 -0.25477,-0.14364 -0.38551,-0.17335 -0.26565,-0.0594 -1.03046,-0.74014 -1.49121,-1.32739 -0.27811,-0.3545 -0.40419,-0.60965 -0.68696,-1.38924 -0.0581,-0.15971 -0.1541,-0.42072 -0.21325,-0.58043 -0.0586,-0.15972 -0.14685,-0.53125 -0.19562,-0.82585 -0.0483,-0.29508 -0.14996,-0.87746 -0.22622,-1.29525 -0.18575,-1.02112 -0.20651,-17.670054 -0.0223,-17.843404 0.083,-0.07791 0.839,-0.1081 2.78315,-0.111022 3.77212,-0.0053 4.24687,-0.130988 4.71489,-1.24559 0.23918,-0.568744 0.23918,-0.818545 0.001,-1.406767 -0.42079,-1.038642 -0.83329,-1.149664 -4.56806,-1.228548 -1.70496,-0.03603 -2.85372,-0.09593 -2.92635,-0.152411 -0.0929,-0.07207 -0.11882,-1.26653 -0.11882,-5.434242 0,-3.515701 -0.0342,-5.412328 -0.0991,-5.548184 -0.37567,-0.782511 -0.90075,-1.055684 -2.02356,-1.053736 -0.50485,4.87e-4 -0.86391,0.04674 -1.01749,0.130012 M 183.0206,88.830159 c -0.47113,0.0633 -1.13164,0.118327 -1.46837,0.122709 -0.33624,0.0044 -0.89296,0.08473 -1.23697,0.179194 -0.344,0.09398 -0.79644,0.210358 -1.00606,0.258078 -0.55985,0.127578 -1.82794,0.566795 -2.14082,0.742095 -0.0789,0.04383 -0.20703,0.102743 -0.28589,0.130986 -0.23401,0.08424 -0.51368,0.208897 -0.6657,0.296546 -0.0789,0.04529 -0.46593,0.263922 -0.86026,0.486452 -0.39433,0.222046 -0.83848,0.509338 -0.98688,0.638378 -0.22622,0.196723 -0.67556,0.554623 -1.53375,1.221243 -0.0835,0.06476 -0.2672,0.235679 -0.40782,0.379325 -0.14061,0.144135 -0.32014,0.325762 -0.39849,0.404648 -0.0784,0.0784 -0.33259,0.362768 -0.56452,0.631559 -0.23192,0.268791 -0.46801,0.528816 -0.52404,0.577997 -0.0882,0.07694 -0.71602,0.961704 -1.07716,1.518276 -0.0639,0.09788 -0.31027,0.560467 -0.54739,1.026954 -0.23765,0.466488 -0.495,0.962192 -0.5723,1.10097 -0.0773,0.139265 -0.14061,0.321867 -0.14061,0.40562 0,0.08375 -0.0789,0.298493 -0.1759,0.476714 -0.097,0.178218 -0.20236,0.532712 -0.23453,0.787377 -0.0322,0.25467 -0.10687,0.51811 -0.16655,0.5853 -0.0592,0.0672 -0.14528,0.53515 -0.19041,1.03961 -0.0452,0.50496 -0.12661,1.15892 -0.18005,1.45401 -0.14269,0.78007 -0.1209,2.33341 0.0436,3.13978 0.0784,0.38517 0.14269,0.91301 0.14269,1.17353 0,0.2605 0.0649,0.59114 0.14424,0.73527 0.0794,0.14414 0.17175,0.45334 0.20495,0.68756 0.0337,0.23421 0.14009,0.56582 0.2366,0.73722 0.0965,0.17092 0.17538,0.3842 0.17538,0.47331 0,0.0891 0.083,0.31066 0.1842,0.49229 0.10117,0.18163 0.3414,0.63205 0.53391,1.00018 0.19301,0.36861 0.43115,0.77666 0.52974,0.90717 0.0991,0.13001 0.18005,0.26684 0.18005,0.30336 0,0.0361 0.14943,0.23762 0.33258,0.4475 0.18316,0.20986 0.33311,0.40951 0.33311,0.44359 0,0.24737 2.88694,3.0127 3.6481,3.49379 0.21793,0.13781 0.57231,0.38177 0.78659,0.54245 0.21481,0.16069 0.42236,0.29217 0.46127,0.29217 0.039,0 0.1842,0.075 0.32325,0.16653 0.36476,0.24055 1.52441,0.81611 1.64375,0.81611 0.0555,0 0.21014,0.0803 0.34349,0.17822 0.13282,0.0984 0.33259,0.18017 0.44311,0.18162 0.11051,0.002 0.37254,0.0808 0.58215,0.17579 0.2091,0.095 0.48876,0.17384 0.62108,0.17578 0.13231,10e-4 0.3248,0.058 0.42806,0.12563 0.10325,0.0676 0.42338,0.15096 0.71135,0.18455 0.28745,0.0341 0.73731,0.1271 0.99881,0.20647 0.61173,0.18504 5.21403,0.19915 5.5767,0.017 0.1209,-0.0609 0.58217,-0.14462 1.02579,-0.18699 0.4789,-0.0453 0.8696,-0.13098 0.963,-0.21036 0.0866,-0.0735 0.28277,-0.13488 0.43584,-0.13634 0.15255,-0.002 0.44881,-0.0808 0.65844,-0.17579 0.20909,-0.0949 0.43635,-0.17383 0.50432,-0.17578 0.0685,-0.002 0.28227,-0.0813 0.4758,-0.17724 0.19353,-0.0954 0.41612,-0.19672 0.49499,-0.22497 0.0783,-0.0277 0.31391,-0.14852 0.52302,-0.26781 0.20961,-0.1193 0.48773,-0.26928 0.61847,-0.33258 0.26359,-0.12758 0.29887,-0.15047 0.72744,-0.47234 0.165,-0.12367 0.32325,-0.22448 0.35283,-0.22448 0.33987,0 3.10226,-2.85443 3.45717,-3.57266 0.0363,-0.0736 0.20805,-0.32431 0.38137,-0.55706 0.17329,-0.23276 0.31546,-0.4475 0.31546,-0.4772 0,-0.0292 0.0856,-0.15582 0.1899,-0.28096 0.14424,-0.1719 0.19041,-0.36229 0.19041,-0.78301 0,-0.4212 -0.0461,-0.61159 -0.19041,-0.78348 -0.1043,-0.12514 -0.19042,-0.261 -0.19094,-0.30239 -0.003,-0.25808 -0.79489,-0.49035 -1.72106,-0.50447 l -0.94692,-0.0141 -0.56607,0.53417 c -0.31132,0.29362 -0.56712,0.56242 -0.56867,0.59747 -0.004,0.0769 -0.34141,0.5483 -0.76585,1.06689 -0.85197,1.04205 -2.93155,2.65673 -3.72594,2.89339 -0.11725,0.0351 -0.27135,0.11832 -0.34295,0.18552 -0.0716,0.0672 -0.20288,0.12222 -0.29264,0.12222 -0.0892,0 -0.24645,0.0555 -0.34971,0.1232 -0.24542,0.16166 -1.14927,0.3988 -2.04327,0.53709 -0.39278,0.0604 -0.79956,0.14706 -0.90437,0.19234 -0.27448,0.1193 -2.47651,0.10421 -3.09241,-0.0214 -0.28797,-0.0584 -0.75909,-0.14609 -1.04705,-0.19478 -0.66155,-0.11151 -1.48602,-0.33063 -1.85545,-0.49278 -1.38483,-0.60867 -2.17194,-1.01429 -2.45576,-1.26653 -0.11468,-0.10177 -0.28381,-0.21085 -0.37515,-0.24249 -0.0918,-0.0316 -0.16655,-0.0993 -0.16655,-0.14998 0,-0.0506 -0.057,-0.092 -0.12711,-0.092 -0.15462,0 -1.85855,-1.6293 -2.20463,-2.10796 -0.13698,-0.18942 -0.27864,-0.36521 -0.31495,-0.39053 -0.14528,-0.10372 -0.49344,-0.62815 -0.49344,-0.74355 0,-0.0682 -0.0892,-0.19965 -0.19769,-0.29168 -0.19976,-0.16994 -0.65894,-0.99579 -0.65894,-1.18569 0,-0.057 -0.041,-0.10323 -0.0908,-0.10323 -0.0499,0 -0.12088,-0.15047 -0.15721,-0.33502 -0.0363,-0.18406 -0.1209,-0.41487 -0.18731,-0.51324 -0.0663,-0.0983 -0.16552,-0.40999 -0.22052,-0.69242 -0.0545,-0.28291 -0.14994,-0.60283 -0.21169,-0.71142 -0.12557,-0.2201 -0.18108,-3.84097 -0.0633,-4.11073 0.0649,-0.14803 0.79438,-0.15631 13.43173,-0.15631 h 13.36374 l 0.49704,-0.21629 c 0.9687,-0.4212 1.36874,-1.58547 0.85403,-2.48631 -0.1048,-0.18357 -0.19043,-0.433859 -0.19043,-0.557054 0,-0.123196 -0.0856,-0.373968 -0.19041,-0.557545 -0.10429,-0.18309 -0.1899,-0.390039 -0.1899,-0.460157 0,-0.189907 -1.03824,-2.134742 -1.39885,-2.620707 -0.17278,-0.232757 -0.31443,-0.461619 -0.31443,-0.508364 0,-0.04675 -0.0747,-0.138291 -0.16655,-0.203541 -0.0913,-0.06476 -0.2091,-0.183089 -0.26151,-0.262461 -0.619,-0.940279 -2.01162,-2.335359 -3.09292,-3.097906 -0.28744,-0.203054 -0.6133,-0.43581 -0.72278,-0.517616 -0.56451,-0.419742 -2.80236,-1.54798 -3.0815,-1.553823 -0.0794,-0.0015 -0.22778,-0.06184 -0.32948,-0.133908 -0.10169,-0.07207 -0.27291,-0.131474 -0.38032,-0.131474 -0.10792,-4.86e-4 -0.32377,-0.0633 -0.47943,-0.139264 -0.15617,-0.07645 -0.49862,-0.180169 -0.76168,-0.231296 -0.26254,-0.05064 -0.66103,-0.148517 -0.88518,-0.217661 -0.22415,-0.06915 -0.6133,-0.125632 -0.86494,-0.125632 -0.25112,0 -0.88154,-0.06038 -1.4004,-0.133421 -1.08701,-0.153872 -1.30078,-0.153872 -2.46562,0.0029 m 61.71109,9.75e-4 c -0.23557,0.0633 -0.64236,0.119786 -0.90385,0.125143 -0.26151,0.0058 -0.64702,0.08814 -0.85665,0.182602 -0.20909,0.09495 -0.47372,0.174324 -0.58787,0.175785 -0.11414,0.0015 -0.26409,0.05308 -0.3331,0.114918 -0.069,0.06136 -0.27551,0.183575 -0.45867,0.272198 -0.72952,0.352058 -0.8748,0.449932 -1.74233,1.174984 -1.82847,1.528016 -2.29336,2.38795 -2.40128,4.443806 -0.11778,2.251121 0.31183,3.297066 1.97322,4.803169 0.63612,0.57654 1.06522,0.89305 1.20997,0.89305 0.0571,0 0.10378,0.0395 0.10378,0.0881 0,0.0482 0.13958,0.14802 0.30924,0.22155 0.17019,0.073 0.37358,0.16897 0.45245,0.21328 0.48876,0.27366 0.96197,0.45918 1.17158,0.45918 0.13335,0 0.30872,0.0628 0.39071,0.13976 0.0814,0.0764 0.29782,0.16214 0.48098,0.1899 0.18263,0.0277 0.38136,0.10567 0.44051,0.17335 0.0597,0.0672 0.17382,0.12223 0.25321,0.12223 0.0794,0 0.34192,0.0847 0.58268,0.18844 0.56607,0.24298 1.08233,0.4587 1.67592,0.70071 0.26148,0.10663 0.54012,0.22934 0.61847,0.27268 0.0789,0.0433 0.59253,0.29021 1.14201,0.54879 0.54946,0.25856 1.05587,0.52199 1.12489,0.5853 0.069,0.0633 0.16447,0.1154 0.21118,0.1154 0.40418,0 2.36599,1.70867 2.62179,2.28276 0.0721,0.16216 0.17122,0.31798 0.22051,0.34671 0.0493,0.0283 0.11935,0.18114 0.1567,0.33989 0.0368,0.15825 0.13646,0.38711 0.22155,0.50836 0.21793,0.31262 0.21066,3.0127 -0.009,3.32823 -0.0804,0.11443 -0.17589,0.37591 -0.21273,0.58091 -0.0368,0.20501 -0.12815,0.41975 -0.20235,0.47769 -0.0747,0.058 -0.13543,0.17579 -0.13543,0.26101 0,0.0857 -0.0856,0.25807 -0.19042,0.38273 -0.10481,0.12514 -0.19041,0.26781 -0.19041,0.31797 0,0.43825 -2.79043,2.42447 -3.40944,2.4269 -0.0877,0 -0.28744,0.0633 -0.44414,0.14024 -0.7264,0.35644 -4.29616,0.34719 -4.84356,-0.0127 -0.10688,-0.0706 -0.26721,-0.12807 -0.35541,-0.12807 -0.14529,0 -1.10984,-0.42071 -1.22451,-0.53417 -0.0264,-0.0258 -0.15463,-0.0988 -0.28536,-0.16215 -0.13076,-0.0633 -0.4094,-0.25759 -0.6185,-0.43143 -0.20961,-0.17384 -0.48461,-0.38224 -0.61173,-0.46307 -0.22258,-0.14219 -1.21465,-1.29137 -2.10035,-2.43324 -1.08337,-1.39654 -3.49088,-1.41212 -3.76847,-0.0244 -0.0327,0.16459 -0.0975,0.32138 -0.14424,0.34817 -0.11207,0.0652 -0.10896,0.9315 0.004,0.9315 0.0478,0 0.11725,0.12709 0.15357,0.28291 0.096,0.41146 0.93965,1.79779 1.32673,2.18003 0.0534,0.0531 0.22622,0.23373 0.38447,0.40173 0.15774,0.16848 0.56452,0.52687 0.90386,0.79712 0.33933,0.27025 0.63819,0.51274 0.66465,0.53953 0.0259,0.0268 0.25061,0.1675 0.49915,0.3126 0.24852,0.14511 0.45193,0.28925 0.45193,0.32041 0,0.0307 0.12867,0.10567 0.28587,0.16702 0.15671,0.0609 0.28539,0.14609 0.28539,0.18942 0,0.0429 0.056,0.0784 0.12504,0.0784 0.0685,0 0.21637,0.0803 0.32896,0.17871 0.11207,0.0983 0.26463,0.1787 0.33829,0.1787 0.0732,0 0.24231,0.0803 0.37566,0.17823 0.13282,0.0983 0.29938,0.17919 0.36942,0.17919 0.0706,4.9e-4 0.25632,0.0808 0.41354,0.17822 0.15669,0.0974 0.37202,0.17773 0.47838,0.17821 0.10585,0 0.28537,0.0609 0.39797,0.13538 0.11312,0.074 0.41145,0.15679 0.66362,0.18405 1.05536,0.11444 1.00088,0.0219 1.07093,1.8309 0.0447,1.16135 0.0809,1.41651 0.21999,1.54701 0.0918,0.0857 0.16656,0.19331 0.16656,0.23908 0,0.0453 0.0467,0.0828 0.10377,0.0828 0.0571,0 0.21273,0.0803 0.34608,0.1787 0.13283,0.0979 0.34037,0.17871 0.46023,0.17871 0.11986,0 0.275,0.0526 0.34401,0.11735 0.069,0.0647 0.27291,0.16556 0.45243,0.22447 1.41337,0.46163 1.5955,2.42351 0.2667,2.87636 -0.50122,0.17092 -0.9407,0.0551 -1.54101,-0.40708 -1.7112,-1.31571 -3.60296,-0.50739 -3.32174,1.41894 0.0711,0.48547 1.02994,1.48516 1.42427,1.48516 0.11934,0 0.24335,0.0404 0.27552,0.0891 0.0322,0.0492 0.28122,0.18699 0.5531,0.30629 1.30338,0.57264 2.27053,0.71531 3.11783,0.46016 0.2314,-0.0701 0.57748,-0.15144 0.76843,-0.18115 0.19094,-0.0296 0.39952,-0.11296 0.46386,-0.18553 0.0639,-0.0726 0.17796,-0.13146 0.25372,-0.13146 0.1982,0 1.16692,-0.76303 1.48654,-1.1706 0.14994,-0.19137 0.31131,-0.34768 0.35905,-0.34768 0.0483,0 0.0872,-0.0511 0.0872,-0.11393 0,-0.0628 0.0732,-0.21231 0.16239,-0.33209 0.60188,-0.80638 0.85197,-3.30828 0.40835,-4.08543 -0.10429,-0.18309 -0.1899,-0.40952 -0.1899,-0.50253 0,-0.49765 -1.55347,-2.11039 -2.0329,-2.11039 -0.0784,0 -0.2008,-0.0502 -0.2724,-0.11151 -0.0711,-0.0618 -0.21326,-0.15631 -0.31599,-0.21036 -0.71135,-0.37494 -0.0908,-0.91642 1.2738,-1.11167 0.33208,-0.0478 0.69475,-0.14609 0.80631,-0.21962 0.11155,-0.073 0.27552,-0.13294 0.36424,-0.13294 0.15256,0 1.69304,-0.69827 1.79422,-0.81318 0.0264,-0.0297 0.16137,-0.11006 0.29989,-0.17871 0.76222,-0.37689 2.8828,-2.37675 3.38453,-3.19237 0.14061,-0.22837 0.28227,-0.43532 0.31443,-0.45967 0.14632,-0.11151 0.70772,-1.43647 1.05899,-2.50043 0.3274,-0.99043 0.32999,-4.45452 0.005,-5.10799 -0.11518,-0.23082 -0.2091,-0.48548 -0.2091,-0.5668 0,-0.0808 -0.0607,-0.25418 -0.13438,-0.3842 -0.0737,-0.1305 -0.25061,-0.45821 -0.39279,-0.72846 -0.14216,-0.27025 -0.28952,-0.51128 -0.32739,-0.53563 -0.0379,-0.0248 -0.12349,-0.14267 -0.19094,-0.26246 -0.17642,-0.31457 -0.24491,-0.38712 -1.19078,-1.26897 -1.08182,-1.00796 -1.14045,-1.0586 -1.23904,-1.0586 -0.0447,0 -0.16914,-0.0774 -0.27759,-0.17189 -0.10792,-0.0945 -0.41042,-0.27658 -0.67192,-0.40464 -0.26202,-0.12758 -0.54013,-0.26685 -0.61847,-0.30921 -0.0789,-0.0424 -0.37826,-0.17676 -0.66622,-0.29898 -0.28797,-0.12222 -0.80164,-0.34329 -1.14201,-0.49132 -1.26083,-0.54878 -1.48083,-0.63692 -1.733,-0.69389 -0.14165,-0.0326 -0.30768,-0.11541 -0.36838,-0.18407 -0.0607,-0.0687 -0.18057,-0.12563 -0.26566,-0.12563 -0.0851,-4.8e-4 -0.2833,-0.0803 -0.43999,-0.17822 -0.15722,-0.09739 -0.36477,-0.177732 -0.46128,-0.177732 -0.096,-4.87e-4 -0.28382,-0.08132 -0.41715,-0.179194 -0.13284,-0.09836 -0.31081,-0.181628 -0.39538,-0.18455 -0.0846,-0.0034 -0.36787,-0.121247 -0.62989,-0.261973 -0.26152,-0.140238 -0.69994,-0.365204 -0.97391,-0.499113 -0.27395,-0.133908 -0.56971,-0.317484 -0.65687,-0.408055 -0.0877,-0.09057 -0.19977,-0.164585 -0.25009,-0.164585 -0.16551,0 -1.20065,-0.89889 -1.2655,-1.099021 -0.0352,-0.108101 -0.11882,-0.25613 -0.18627,-0.330145 -0.22726,-0.248338 -0.2257,-1.782684 0.002,-1.99645 0.0789,-0.07353 0.1432,-0.240549 0.1432,-0.370561 0,-0.379813 1.06469,-1.292824 1.77087,-1.517789 0.79853,-0.254183 2.42359,-0.243471 3.22471,0.02191 1.40612,0.466 1.68785,0.639837 3.10797,1.917565 0.40211,0.362283 0.6688,0.527843 0.91839,0.569718 0.19301,0.03263 0.40522,0.09982 0.47112,0.149004 0.30302,0.225941 1.56281,-0.117352 1.99708,-0.543911 0.55207,-0.542449 0.60915,-1.562586 0.11674,-2.079717 -0.15824,-0.166532 -0.44517,-0.493269 -0.63767,-0.726513 -0.19302,-0.233243 -0.38447,-0.424124 -0.4265,-0.424124 -0.0416,0 -0.0752,-0.06038 -0.0752,-0.133908 0,-0.07401 -0.0322,-0.135369 -0.0716,-0.137317 -0.039,-0.0015 -0.28537,-0.18601 -0.54686,-0.410003 -0.89401,-0.76498 -2.31154,-1.550414 -3.02444,-1.676044 -0.1842,-0.03214 -0.4566,-0.113457 -0.60604,-0.180655 -0.14943,-0.06671 -0.64234,-0.148028 -1.09583,-0.180167 -0.45348,-0.03214 -0.96715,-0.0969 -1.14149,-0.143647 -0.39381,-0.106152 -0.67451,-0.09398 -1.22192,0.05308 m 39.34852,-0.04336 c -0.1572,0.04382 -0.60654,0.106154 -0.99932,0.137805 -0.39225,0.03166 -0.89346,0.132933 -1.11295,0.224965 -0.21947,0.09203 -0.44051,0.16702 -0.49136,0.16702 -0.082,0 -0.68904,0.283886 -1.28417,0.599909 -0.45868,0.243957 -1.86946,1.484678 -1.86946,1.644394 0,0.145107 -0.46852,0.07888 -0.55777,-0.0784 -0.0487,-0.08619 -0.11883,-0.461617 -0.15566,-0.835099 -0.0716,-0.719696 -0.22467,-0.958296 -0.95366,-1.487112 -0.39278,-0.284373 -2.01215,-0.301903 -2.27988,-0.02435 -0.0934,0.0969 -0.2423,0.197697 -0.33155,0.224478 -0.0887,0.0263 -0.26461,0.258566 -0.39173,0.515669 l -0.23037,0.467462 v 14.333536 14.33354 l 0.21895,0.39151 c 0.29472,0.52589 0.51833,0.68219 1.29975,0.90765 l 0.66206,0.19088 0.64443,-0.18162 c 0.62262,-0.17579 0.76324,-0.26149 1.1721,-0.71484 0.18627,-0.20646 0.19093,-0.39247 0.24749,-10.35914 0.0592,-10.292916 0.10948,-11.705039 0.43169,-12.079009 0.0587,-0.06817 0.13802,-0.264895 0.17641,-0.436784 0.0379,-0.171889 0.12349,-0.372996 0.18991,-0.446523 0.0663,-0.07401 0.1515,-0.228376 0.18886,-0.343293 0.1868,-0.573613 1.64738,-2.113802 2.24978,-2.372854 0.17693,-0.07596 0.38604,-0.177246 0.46437,-0.224966 1.13164,-0.688532 4.5722,-1.054223 5.79982,-0.615977 0.13283,0.04724 0.49914,0.12076 0.81306,0.162637 0.73418,0.09836 1.60223,0.39442 2.12265,0.723592 0.22518,0.142672 0.43947,0.260512 0.47579,0.261972 0.19561,0.0078 1.44659,1.365864 1.44659,1.569892 0,0.04529 0.0794,0.222531 0.1764,0.393448 0.097,0.171401 0.20702,0.47233 0.24438,0.668567 0.0373,0.196723 0.12869,0.526868 0.20237,0.734304 0.11206,0.315536 0.13542,2.06803 0.14061,10.700484 0.008,12.37897 -0.0348,11.97383 1.2821,12.28499 0.23712,0.0565 0.45451,0.13732 0.48306,0.18065 0.19248,0.29216 1.71275,-0.1568 2.10968,-0.62329 0.49084,-0.57751 0.50018,-0.77958 0.50018,-10.75648 0,-9.116467 0.0617,-11.322788 0.32947,-11.71867 0.0674,-0.09933 0.15255,-0.348161 0.18939,-0.553162 0.0369,-0.205002 0.12763,-0.419743 0.20235,-0.477688 0.0742,-0.05794 0.13491,-0.172863 0.13491,-0.255156 0,-0.08229 0.0654,-0.227887 0.14475,-0.323815 0.0799,-0.09593 0.33623,-0.42461 0.57024,-0.729921 0.23399,-0.305797 0.54168,-0.627178 0.68385,-0.714339 0.14269,-0.08765 0.3824,-0.264895 0.5339,-0.394421 0.151,-0.129526 0.51679,-0.344267 0.81254,-0.477201 0.29575,-0.133421 0.65168,-0.298494 0.79074,-0.367639 0.13854,-0.06915 0.344,-0.12563 0.45659,-0.12563 0.11208,0 0.3409,-0.06915 0.5085,-0.153873 0.38862,-0.196723 3.39904,-0.218148 4.00611,-0.02824 0.20391,0.0633 0.61069,0.147542 0.90437,0.186498 1.513,0.20208 4.00351,1.750058 4.00664,2.49118 5.1e-4,0.07645 0.0856,0.259538 0.18989,0.407081 0.10377,0.147543 0.19095,0.348161 0.19406,0.446524 0.003,0.09836 0.0701,0.339396 0.14995,0.535633 0.29056,0.712878 0.34452,2.370418 0.40471,12.458329 0.0461,7.75938 0.0877,10.18093 0.17694,10.32749 0.17173,0.28147 0.67917,0.65689 0.88776,0.65689 0.0996,0 0.35438,0.0652 0.56607,0.14462 0.90956,0.34184 2.23266,-0.32479 2.39143,-1.20469 0.27759,-1.53776 0.0514,-22.565729 -0.24801,-23.105258 -0.0794,-0.142673 -0.14476,-0.380786 -0.14529,-0.528815 0,-0.14803 -0.0861,-0.419255 -0.19042,-0.602344 -0.10481,-0.183577 -0.19042,-0.40903 -0.19042,-0.501546 0,-0.09203 -0.0601,-0.214741 -0.13334,-0.271713 -0.0737,-0.05697 -0.16188,-0.209871 -0.19666,-0.338909 -0.0342,-0.12904 -0.14579,-0.334042 -0.24697,-0.454803 -0.1017,-0.121247 -0.1842,-0.26879 -0.1842,-0.328196 0,-0.05941 -0.0861,-0.180654 -0.19041,-0.269765 -0.10482,-0.08862 -0.19043,-0.19721 -0.19043,-0.240547 0,-0.525895 -3.3783,-2.840316 -4.14569,-2.840316 -0.0794,0 -0.30302,-0.0745 -0.49707,-0.166046 -0.19404,-0.09106 -0.56296,-0.191854 -0.81927,-0.223506 -0.25632,-0.03165 -0.52508,-0.103231 -0.59721,-0.159229 -0.0716,-0.05599 -0.69683,-0.134882 -1.38899,-0.175299 -0.69267,-0.04041 -1.48965,-0.114916 -1.77139,-0.166045 -0.71291,-0.128552 -1.33502,-0.115405 -1.97686,0.04188 -0.30145,0.07352 -0.78606,0.133908 -1.07662,0.133908 -0.34712,0 -0.65066,0.06136 -0.88362,0.178219 -0.19561,0.09836 -0.44726,0.178706 -0.55933,0.178706 -0.11207,0 -0.39071,0.08034 -0.61901,0.178707 -0.22829,0.09836 -0.61795,0.261486 -0.867,0.36277 -0.24855,0.101283 -0.51628,0.22107 -0.59462,0.266356 -0.0784,0.04528 -0.37203,0.191854 -0.65273,0.326249 -0.44674,0.214253 -1.77917,1.365377 -2.56212,2.214598 -0.2667,0.28973 -0.49967,0.260026 -0.67608,-0.08521 -0.16032,-0.314076 -1.81757,-1.923409 -1.98049,-1.923895 -0.0628,0 -0.14839,-0.05258 -0.19042,-0.116866 -0.0415,-0.06428 -0.2148,-0.169455 -0.38499,-0.233732 -0.17019,-0.06476 -0.30925,-0.152898 -0.30925,-0.195748 0,-0.04334 -0.0752,-0.07888 -0.16654,-0.07937 -0.0918,0 -0.29523,-0.08035 -0.45193,-0.177734 -0.15722,-0.09787 -0.36216,-0.177733 -0.45607,-0.178219 -0.0934,-4.86e-4 -0.3383,-0.08083 -0.54325,-0.179194 -0.20546,-0.09836 -0.51523,-0.178707 -0.68905,-0.178707 -0.1733,0 -0.40938,-0.06184 -0.52456,-0.137317 -0.14684,-0.09641 -0.62834,-0.163611 -1.61521,-0.225452 -0.7731,-0.0482 -1.61159,-0.127092 -1.86271,-0.175297 -0.54688,-0.104207 -1.15135,-0.100798 -1.54154,0.0083 m -58.23783,0.351084 c -0.095,0.09836 -0.22571,0.178706 -0.29108,0.178706 -0.0654,0 -0.23037,0.17822 -0.36631,0.395395 l -0.24646,0.395881 v 14.632029 14.63204 l 0.40419,0.40805 c 0.97961,0.988 3.22679,0.72505 3.69583,-0.4324 0.0509,-0.12612 0.0866,-6.17292 0.0866,-14.68852 V 90.185748 l -0.20754,-0.390525 c -0.41612,-0.782024 -2.52114,-1.230982 -3.07528,-0.656394 m 37.63963,-0.11297 c -0.41301,0.152413 -0.83847,0.671976 -0.99205,1.210045 -0.19821,0.695348 -0.19251,28.311126 0.007,28.936836 0.54274,1.71013 3.66212,1.63125 4.06008,-0.10274 0.1759,-0.76693 0.18991,-27.848046 0.015,-28.668538 -0.15255,-0.712879 -0.4981,-1.149663 -1.07716,-1.360507 -0.23867,-0.08716 -1.7859,-0.09885 -2.01213,-0.0151 m -76.60741,3.685643 c 0.3274,0.09787 0.729,0.179681 0.89244,0.181628 0.16344,0.0015 0.46801,0.08035 0.67763,0.175297 0.2091,0.09495 0.45037,0.173837 0.53546,0.175786 0.14165,0.0024 0.98014,0.338909 1.31998,0.529302 0.0783,0.04382 0.25009,0.124657 0.38085,0.179681 0.61486,0.257591 1.45695,0.866264 2.23628,1.615664 0.7264,0.698271 1.85545,2.014955 1.85545,2.163471 0,0.04724 0.0856,0.187958 0.19042,0.313102 0.10481,0.124656 0.19042,0.299954 0.19042,0.389064 0,0.08911 0.0706,0.199158 0.15721,0.24493 0.29005,0.151926 0.0726,0.343293 -0.45815,0.403186 -0.64443,0.07255 -21.27377,0.07499 -21.56225,0.0024 -0.24905,-0.06282 -0.29315,-0.395881 -0.0752,-0.565823 0.0768,-0.05989 0.16759,-0.195263 0.20235,-0.301416 0.18834,-0.575074 3.03066,-3.273691 3.44782,-3.273691 0.0581,0 0.15151,-0.08034 0.20755,-0.178707 0.056,-0.09836 0.15824,-0.178706 0.22675,-0.178706 0.069,0 0.22362,-0.08034 0.34451,-0.178708 0.12038,-0.09836 0.27033,-0.178706 0.33259,-0.178706 0.0623,0 0.19094,-0.08034 0.28589,-0.178219 0.0944,-0.09836 0.24646,-0.178707 0.33778,-0.178707 0.0908,0 0.1899,-0.06038 0.21999,-0.133909 0.0301,-0.07401 0.11104,-0.133909 0.18005,-0.133909 0.0695,0 0.28901,-0.0784 0.48824,-0.173835 0.19925,-0.09495 0.4976,-0.200619 0.66259,-0.234706 0.16499,-0.0336 0.38448,-0.116378 0.48774,-0.183575 0.10324,-0.06719 0.34036,-0.12271 0.52715,-0.12271 0.18627,0 0.57282,-0.07888 0.85871,-0.175297 0.77829,-0.262461 3.97758,-0.264409 4.84978,-0.0029" />
      </g>
    </g>
  </g>
</svg>
