<?xml version="1.0" encoding="UTF-8" standalone="no"?>
<svg
   xmlns:dc="http://purl.org/dc/elements/1.1/"
   xmlns:cc="http://creativecommons.org/ns#"
   xmlns:rdf="http://www.w3.org/1999/02/22-rdf-syntax-ns#"
   xmlns:svg="http://www.w3.org/2000/svg"
   xmlns="http://www.w3.org/2000/svg"
   xmlns:sodipodi="http://sodipodi.sourceforge.net/DTD/sodipodi-0.dtd"
   xmlns:inkscape="http://www.inkscape.org/namespaces/inkscape"
   id="svg"
   version="1.1"
   width="352.82455"
   height="130.85332"
   viewBox="0 0 352.82455 130.85332"
   sodipodi:docname="store.svg"
   inkscape:version="0.92.4 (5da689c313, 2019-01-14)">
  <metadata
     id="metadata13">
    <rdf:RDF>
      <cc:Work
         rdf:about="">
        <dc:format>image/svg+xml</dc:format>
        <dc:type
           rdf:resource="http://purl.org/dc/dcmitype/StillImage" />
        <dc:title></dc:title>
      </cc:Work>
    </rdf:RDF>
  </metadata>
  <defs
     id="defs11" />
  <sodipodi:namedview
     pagecolor="#ffffff"
     bordercolor="#666666"
     borderopacity="1"
     objecttolerance="10"
     gridtolerance="10"
     guidetolerance="10"
     inkscape:pageopacity="0"
     inkscape:pageshadow="2"
     inkscape:window-width="1366"
     inkscape:window-height="705"
     id="namedview9"
     showgrid="false"
     fit-margin-top="0"
     fit-margin-left="0"
     fit-margin-right="0"
     fit-margin-bottom="0"
     inkscape:zoom="1.42"
     inkscape:cx="148.28011"
     inkscape:cy="27.592527"
     inkscape:window-x="-8"
     inkscape:window-y="-8"
     inkscape:window-maximized="1"
     inkscape:current-layer="g843" />
  <g
     id="svgg"
     transform="translate(-18.357667,64.020285)">
    <path
       id="path1"
       d="M 0,39.167 V 78.333 H 200 400 V 39.167 0 H 200 0 V 39.167 M 111.73,12.231 c 1.287,0.538 1.187,-1.753 1.187,27.031 v 25.679 l -0.395,0.577 c -0.941,1.372 -3.37,1.368 -4.207,-0.007 -0.464,-0.765 -0.497,-51.837 -0.033,-52.516 0.719,-1.053 2.051,-1.348 3.448,-0.764 m -65.432,2.61 c 1.513,0.163 4.7,0.837 5.452,1.152 0.183,0.077 0.596,0.231 0.917,0.341 7.785,2.687 14.677,11.087 16.202,19.749 0.357,2.028 0.183,10.262 -0.223,10.513 -0.08,0.05 -0.146,0.266 -0.146,0.481 0,1.866 -3.141,8.082 -5.162,10.215 -0.369,0.39 -0.672,0.765 -0.672,0.833 -0.002,0.172 -2.416,2.495 -3.333,3.207 -0.412,0.32 -0.775,0.639 -0.805,0.708 -0.031,0.07 -0.156,0.127 -0.278,0.127 -0.122,0 -0.247,0.065 -0.278,0.144 -0.066,0.171 -2.171,1.511 -2.889,1.838 -0.275,0.125 -0.765,0.364 -1.089,0.53 -0.863,0.442 -2.896,1.154 -3.296,1.154 -0.19,0 -0.386,0.067 -0.437,0.149 -0.05,0.081 -0.373,0.196 -0.718,0.255 -2.41,0.412 -3.273,0.484 -5.793,0.486 -2.627,0.001 -3.822,-0.11 -5.75,-0.539 -0.413,-0.091 -0.975,-0.213 -1.25,-0.271 -0.275,-0.058 -0.65,-0.165 -0.833,-0.239 -0.184,-0.074 -0.859,-0.346 -1.5,-0.604 -0.642,-0.258 -1.192,-0.529 -1.223,-0.603 -0.03,-0.073 -0.159,-0.134 -0.286,-0.134 -1.237,0 -6.534,-4.185 -8.658,-6.839 -1.168,-1.46 -2.583,-3.555 -2.583,-3.824 0,-0.093 -0.062,-0.17 -0.138,-0.17 -0.123,0 -0.494,-0.742 -1.375,-2.75 -0.668,-1.523 -1.212,-3.46 -1.651,-5.884 -0.247,-1.368 -0.245,-7.109 0.003,-8.332 0.538,-2.646 0.939,-4.137 1.195,-4.442 0.073,-0.087 0.132,-0.287 0.132,-0.443 0,-0.156 0.16,-0.61 0.356,-1.008 0.195,-0.398 0.482,-0.987 0.637,-1.308 0.678,-1.405 2.14,-3.755 2.71,-4.357 0.118,-0.124 0.41,-0.488 0.65,-0.809 0.586,-0.782 3.19,-3.392 3.953,-3.96 0.336,-0.25 0.648,-0.498 0.694,-0.55 0.278,-0.314 3.192,-2.07 4.284,-2.58 0.715,-0.334 1.43,-0.676 1.589,-0.759 0.159,-0.083 0.425,-0.151 0.592,-0.151 0.166,0 0.373,-0.067 0.46,-0.149 0.306,-0.288 3.546,-0.96 5.992,-1.243 1.096,-0.127 3.012,-0.099 4.548,0.066 m 194.63,-0.003 c 6.588,1.139 10.961,3.979 10.242,6.651 -0.481,1.785 -2.865,2.009 -4.534,0.426 -0.338,-0.32 -0.661,-0.582 -0.72,-0.582 -0.058,0 -0.419,-0.209 -0.803,-0.465 -5.098,-3.402 -15.019,-0.984 -16.61,4.049 -0.116,0.366 -0.281,0.804 -0.367,0.972 -0.229,0.448 -0.222,4.092 0.009,4.323 0.104,0.103 0.188,0.329 0.188,0.501 0,0.42 1.023,1.94 1.714,2.548 0.722,0.635 2.062,1.39 3.453,1.945 0.229,0.091 0.547,0.232 0.706,0.313 0.159,0.081 0.474,0.148 0.699,0.148 0.225,0 0.45,0.066 0.5,0.148 0.051,0.081 0.336,0.189 0.635,0.238 0.705,0.116 1.651,0.352 2.793,0.697 0.505,0.152 1.179,0.341 1.5,0.419 0.321,0.078 0.865,0.222 1.209,0.32 0.343,0.098 0.906,0.258 1.25,0.356 0.343,0.098 0.812,0.216 1.041,0.262 0.23,0.047 0.567,0.148 0.75,0.226 0.184,0.078 0.521,0.179 0.75,0.224 7.837,1.545 12.232,10.022 9.13,17.61 -0.594,1.453 -1.852,3.536 -2.655,4.398 -0.169,0.182 -0.308,0.386 -0.308,0.453 0,0.113 -2.397,2.132 -3.452,2.907 -1.433,1.052 -4.422,2.233 -6.798,2.684 -1.494,0.284 -5.866,0.114 -6.833,-0.265 -0.184,-0.072 -0.634,-0.221 -1,-0.332 -3.719,-1.12 -7.996,-4.306 -10.241,-7.629 -1.398,-2.07 -0.887,-3.776 1.166,-3.888 1.622,-0.088 2.069,0.161 3.293,1.831 0.668,0.912 2.863,3.065 3.698,3.627 1.094,0.737 2.983,1.714 3.314,1.714 0.158,0 0.379,0.093 0.493,0.206 0.275,0.275 5.633,0.293 6.209,0.021 0.221,-0.104 0.739,-0.289 1.151,-0.412 2.87,-0.851 7.333,-5.088 7.333,-6.961 0,-0.158 0.062,-0.359 0.138,-0.446 0.656,-0.754 0.653,-4.532 -0.005,-6.075 -0.417,-0.979 -0.566,-1.224 -1.292,-2.125 -1.087,-1.35 -3.841,-3.208 -4.752,-3.208 -0.13,0 -0.282,-0.075 -0.339,-0.167 -0.056,-0.092 -0.356,-0.167 -0.666,-0.167 -0.31,0 -0.61,-0.075 -0.667,-0.166 C 242.193,42.075 241.893,42 241.583,42 c -0.31,0 -0.605,-0.067 -0.655,-0.148 -0.05,-0.082 -0.336,-0.186 -0.635,-0.233 -0.299,-0.046 -1.293,-0.288 -2.21,-0.538 -0.916,-0.249 -1.911,-0.491 -2.21,-0.536 -0.298,-0.045 -0.584,-0.149 -0.634,-0.23 -0.051,-0.082 -0.346,-0.148 -0.656,-0.148 -0.31,0 -0.61,-0.075 -0.666,-0.167 -0.057,-0.092 -0.325,-0.167 -0.596,-0.167 -0.271,0 -0.622,-0.07 -0.782,-0.155 -0.159,-0.086 -0.646,-0.237 -1.082,-0.336 -2.971,-0.676 -6.268,-3.302 -7.439,-5.925 -0.123,-0.275 -0.278,-0.613 -0.344,-0.75 -0.974,-2.019 -0.711,-8.69 0.36,-9.139 0.073,-0.031 0.133,-0.16 0.133,-0.287 0,-0.76 2.089,-3.264 3.75,-4.495 0.366,-0.272 0.704,-0.536 0.75,-0.586 2.183,-2.412 8.16,-4.032 12.261,-3.322 m -117.982,2.604 c 1.269,0.602 2.023,2.203 1.67,3.546 -0.91,3.474 -6.116,2.891 -6.116,-0.686 0,-2.315 2.375,-3.843 4.446,-2.86 m 142.66,2.171 c 0.988,0.454 1.061,0.948 1.061,7.184 v 5.536 l 2.708,0.004 c 4.135,0.006 4.958,0.383 4.958,2.268 0,2.021 -0.509,2.285 -4.544,2.362 l -3.127,0.059 0.053,9.862 c 0.03,5.424 0.109,10.087 0.177,10.362 1.093,4.421 3.703,5.898 7.409,4.194 0.646,-0.298 2.601,-0.191 3.025,0.165 1.454,1.219 0.777,3.709 -1.131,4.164 -0.245,0.058 -0.52,0.162 -0.612,0.23 -0.168,0.125 -0.547,0.199 -2.666,0.515 -1.653,0.247 -4.14,0.128 -4.348,-0.208 -0.049,-0.079 -0.227,-0.143 -0.396,-0.143 -1.023,0 -3.369,-1.981 -4.171,-3.522 -0.29,-0.557 -0.671,-1.27 -0.848,-1.584 -0.176,-0.314 -0.321,-0.682 -0.321,-0.818 0,-0.136 -0.067,-0.378 -0.15,-0.537 -0.083,-0.159 -0.225,-0.589 -0.317,-0.956 -0.091,-0.367 -0.261,-1.042 -0.377,-1.5 -0.154,-0.608 -0.231,-3.46 -0.284,-10.542 L 261.632,37 h -0.962 c -2.241,0 -3.17,-0.684 -3.17,-2.333 0,-1.664 0.932,-2.327 3.279,-2.332 l 0.862,-0.002 0.062,-5.875 c 0.034,-3.231 0.121,-6.001 0.193,-6.156 0.462,-0.987 2.314,-1.33 3.71,-0.689 M 40.667,19.59 c -2.993,0.53 -3.195,0.593 -5.5,1.71 -2.714,1.316 -5.531,3.54 -7.126,5.625 -1.251,1.636 -1.563,2.083 -2.035,2.908 -0.288,0.504 -0.708,1.329 -0.934,1.834 -0.225,0.504 -0.484,1.047 -0.574,1.206 -0.091,0.159 -0.165,0.425 -0.165,0.591 0,0.167 -0.063,0.374 -0.14,0.461 -0.076,0.087 -0.236,0.608 -0.353,1.158 -0.118,0.55 -0.285,1.263 -0.372,1.584 -0.263,0.969 -0.364,5.781 -0.15,7.166 0.242,1.569 0.648,3.327 0.856,3.706 0.088,0.16 0.159,0.404 0.159,0.544 0,0.14 0.066,0.385 0.147,0.544 0.081,0.159 0.431,0.89 0.777,1.623 0.939,1.985 2.475,4.138 4.16,5.83 1.491,1.499 1.892,1.842 3.166,2.712 0.367,0.25 0.704,0.495 0.75,0.544 0.474,0.506 4.936,2.331 5.698,2.331 0.247,0 0.496,0.075 0.552,0.166 0.057,0.092 0.455,0.167 0.885,0.168 0.43,0 1.232,0.078 1.782,0.172 1.063,0.181 4.56,-0.034 5.833,-0.358 2.359,-0.602 5.482,-1.93 6.323,-2.69 0.178,-0.16 0.377,-0.292 0.443,-0.292 0.121,0 0.968,-0.661 2.299,-1.794 1.499,-1.276 4.44,-5.061 4.952,-6.372 0.054,-0.138 0.237,-0.55 0.408,-0.917 1.875,-4.02 2.341,-9.549 1.213,-14.396 -0.136,-0.584 -0.325,-1.259 -0.421,-1.5 -0.096,-0.24 -0.24,-0.606 -0.321,-0.812 -0.303,-0.779 -0.485,-1.223 -0.686,-1.667 -0.309,-0.686 -1.899,-3.338 -2.154,-3.593 -0.122,-0.123 -0.447,-0.51 -0.722,-0.86 -0.719,-0.915 -1.849,-2.048 -3,-3.006 -0.55,-0.458 -1.025,-0.889 -1.056,-0.958 -0.03,-0.068 -0.155,-0.125 -0.278,-0.125 -0.122,0 -0.247,-0.056 -0.277,-0.125 -0.157,-0.352 -3.792,-2.134 -5.139,-2.52 -2.974,-0.851 -6.32,-1.073 -9,-0.598 m 49.697,12.657 c 6.326,1.282 9.638,4.261 11.119,10.003 0.471,1.828 0.541,3.742 0.488,13.311 l -0.054,9.811 -0.653,0.564 c -1.061,0.917 -3.12,0.735 -3.823,-0.339 C 97.216,65.253 97.172,63.894 97.109,55.309 97.032,44.715 96.948,43.532 96.147,41.667 95.97,41.254 95.771,40.833 95.704,40.732 94.591,39.028 93.716,38.309 91.75,37.485 90.372,36.907 86.558,36.58 85.083,36.914 c -0.794,0.18 -2.293,0.782 -2.775,1.114 -0.244,0.168 -0.493,0.305 -0.554,0.305 -0.212,0 -1.792,1.586 -2.272,2.28 L 79,41.31 78.999,52.863 c -10e-4,7.457 -0.062,11.774 -0.174,12.175 -0.521,1.878 -3.846,2.059 -4.573,0.25 C 73.824,64.221 73.877,34.143 74.309,33.331 75.515,31.06 79,32.242 79,34.922 v 0.748 l 0.875,-0.833 c 0.481,-0.458 0.926,-0.834 0.988,-0.835 0.062,-0.001 0.212,-0.098 0.333,-0.216 1.439,-1.398 6.048,-2.171 9.168,-1.539 m 56.553,0.072 c 3.519,0.675 5.756,1.808 7.673,3.888 1.805,1.959 2.184,2.721 3.422,6.883 0.364,1.223 0.193,22.055 -0.186,22.586 -0.192,0.27 -0.456,0.491 -0.587,0.491 -0.132,0 -0.239,0.075 -0.239,0.166 0,0.376 -2.19,0.189 -2.745,-0.235 -0.911,-0.694 -0.922,-0.83 -0.922,-11.555 0,-8.316 -0.038,-9.944 -0.25,-10.543 -0.137,-0.39 -0.25,-0.888 -0.25,-1.107 0,-0.218 -0.066,-0.528 -0.148,-0.687 -0.082,-0.159 -0.325,-0.664 -0.542,-1.122 -0.473,-1.002 -1.973,-2.578 -2.893,-3.039 -1.196,-0.6 -1.485,-0.705 -2.654,-0.971 -2.169,-0.492 -6.335,-0.233 -7.004,0.435 -0.087,0.087 -0.261,0.158 -0.387,0.158 -0.638,0 -3.104,2.209 -3.692,3.308 -0.124,0.232 -0.18,3.938 -0.18,11.921 0,7.543 -0.058,11.62 -0.166,11.687 -0.092,0.057 -0.169,0.268 -0.172,0.469 -0.024,1.628 -3.522,2.039 -4.34,0.509 -0.202,-0.376 -0.238,-2.888 -0.238,-16.32 V 33.366 l 0.516,-0.494 c 0.909,-0.869 2.891,-0.868 3.682,10e-4 0.331,0.365 0.445,0.692 0.687,1.987 l 0.115,0.61 0.889,-0.807 c 2.53,-2.296 6.401,-3.15 10.611,-2.344 m 35.5,-0.001 c 1.699,0.324 2.665,0.627 3.807,1.196 0.352,0.176 0.746,0.319 0.875,0.319 0.129,0 0.234,0.075 0.234,0.167 0,0.092 0.076,0.167 0.167,0.167 0.643,0 3.635,2.456 4.75,3.899 0.275,0.356 0.575,0.73 0.667,0.832 0.323,0.359 1.083,1.597 1.083,1.765 0,0.094 0.075,0.17 0.167,0.17 0.091,0 0.166,0.106 0.166,0.235 0,0.128 0.161,0.56 0.357,0.958 0.363,0.736 0.409,0.846 0.878,2.102 0.549,1.473 0.264,2.804 -0.767,3.577 -0.028,0.021 -6.238,0.077 -13.801,0.125 l -13.75,0.087 -0.054,1.416 c -0.081,2.156 1.088,6.33 1.961,7 0.06,0.046 0.291,0.346 0.513,0.667 1.395,2.017 4.512,4.218 6.747,4.764 0.852,0.208 5.614,0.272 5.808,0.078 0.096,-0.097 0.381,-0.175 0.632,-0.175 0.251,0 0.503,-0.075 0.56,-0.167 0.056,-0.092 0.219,-0.167 0.362,-0.167 1.05,0 3.731,-2.242 5.761,-4.818 1.204,-1.527 3.109,-1.689 4.101,-0.348 0.437,0.591 0.503,2.006 0.109,2.333 -0.138,0.114 -0.25,0.299 -0.25,0.411 0,0.112 -0.15,0.34 -0.333,0.506 -0.184,0.166 -0.334,0.383 -0.334,0.484 -0.002,0.466 -3.229,3.817 -4.119,4.276 -0.255,0.131 -0.502,0.29 -0.549,0.351 -0.261,0.344 -2.879,1.391 -4.165,1.666 -2.169,0.464 -7.83,0.549 -8.094,0.123 -0.051,-0.083 -0.309,-0.15 -0.575,-0.15 -0.478,0 -0.721,-0.079 -2.164,-0.707 -1.619,-0.703 -1.96,-0.885 -3.167,-1.688 -3.035,-2.02 -7,-7.249 -7,-9.232 0,-0.169 -0.067,-0.378 -0.15,-0.465 -0.546,-0.579 -0.567,-8.177 -0.025,-9.492 0.075,-0.183 0.235,-0.67 0.355,-1.083 0.288,-0.989 1.326,-3.167 1.509,-3.167 0.079,0 0.144,-0.084 0.144,-0.188 0,-0.347 1.353,-2.128 2.438,-3.209 2.735,-2.725 4.973,-3.856 9.396,-4.749 1.321,-0.267 3.983,-0.206 5.75,0.131 m 116.25,-0.069 c 1.393,0.278 2.375,0.537 3,0.792 0.229,0.094 0.585,0.235 0.791,0.315 0.961,0.369 2.938,1.477 3.209,1.797 0.045,0.055 0.383,0.322 0.75,0.596 0.852,0.635 2.196,1.978 2.835,2.834 0.274,0.367 0.622,0.804 0.773,0.972 1.431,1.589 2.969,6.569 2.969,9.612 -0.001,1.654 -0.64,5.16 -1.017,5.575 -0.079,0.087 -0.144,0.281 -0.144,0.431 0,0.845 -2.046,4.177 -3.591,5.848 -2.332,2.522 -6.5,5.146 -8.174,5.146 -0.223,0 -0.536,0.069 -0.695,0.153 -0.829,0.438 -6.254,0.439 -7.079,0 -0.159,-0.084 -0.417,-0.153 -0.572,-0.153 -0.392,0 -2.152,-0.639 -2.965,-1.075 -1.021,-0.549 -1.498,-0.832 -1.59,-0.942 -0.046,-0.055 -0.167,-0.13 -0.269,-0.167 -1.123,-0.404 -5.565,-5.172 -5.565,-5.974 0,-0.097 -0.064,-0.176 -0.142,-0.176 -0.291,0 -1.684,-3.394 -1.689,-4.115 -0.001,-0.201 -0.066,-0.405 -0.145,-0.453 -0.416,-0.257 -0.566,-5.378 -0.213,-7.265 0.111,-0.596 0.245,-1.328 0.297,-1.627 0.053,-0.298 0.163,-0.584 0.244,-0.634 0.082,-0.051 0.148,-0.228 0.148,-0.393 0,-0.35 1.257,-2.869 1.846,-3.698 0.733,-1.034 0.897,-1.223 2.155,-2.481 2.792,-2.793 5.594,-4.303 8.988,-4.845 0.597,-0.095 1.118,-0.207 1.159,-0.248 0.178,-0.178 3.547,-0.052 4.686,0.175 m 33.564,0.079 c 3.197,0.818 4.606,1.991 4.597,3.827 -0.006,1.147 -0.194,1.534 -0.958,1.97 -0.686,0.392 -2.622,0.216 -3.038,-0.275 -1.368,-1.614 -5.236,-1.392 -7.499,0.43 -0.911,0.734 -1.98,1.906 -2.208,2.42 -0.113,0.256 -0.263,0.467 -0.332,0.467 -0.07,0 -0.126,0.135 -0.126,0.3 0,0.165 -0.063,0.371 -0.14,0.458 -0.435,0.493 -0.527,2.73 -0.527,12.808 0,11.518 0.05,10.968 -1.042,11.513 -1.312,0.654 -3.072,0.152 -3.56,-1.015 -0.361,-0.863 -0.342,-30.926 0.02,-31.791 1.006,-2.409 4.569,-1.402 4.595,1.3 0.007,0.739 0.057,1.231 0.11,1.093 1.028,-2.666 6.274,-4.485 10.108,-3.505 M 357.4,32.253 c 3.926,0.738 6.358,1.988 9.017,4.638 1.733,1.726 2.7,3.077 3.527,4.922 0.313,0.699 0.641,1.401 0.729,1.56 0.088,0.159 0.16,0.473 0.16,0.698 0,0.225 0.075,0.456 0.167,0.512 0.367,0.227 0.192,2.008 -0.244,2.478 -0.72,0.777 -0.637,0.772 -14.665,0.772 h -13.387 l -0.114,0.607 c -0.13,0.693 0.011,2.743 0.274,3.977 0.828,3.894 4.51,7.996 8.136,9.064 0.412,0.121 0.922,0.288 1.133,0.37 0.553,0.215 4.984,0.184 5.689,-0.041 2.569,-0.819 6.511,-3.606 6.511,-4.603 0,-0.085 0.188,-0.373 0.417,-0.639 0.229,-0.267 0.416,-0.533 0.416,-0.591 10e-4,-0.416 1.573,-0.823 2.379,-0.616 2.132,0.546 2.379,1.94 0.768,4.336 C 367.296,61.21 364.643,64 364.222,64 364.1,64 364,64.075 364,64.167 c 0,0.091 -0.113,0.166 -0.25,0.166 -0.137,0 -0.25,0.065 -0.25,0.144 0,0.191 -2.563,1.356 -2.984,1.356 -0.181,0 -0.376,0.075 -0.433,0.167 -0.056,0.092 -0.346,0.167 -0.643,0.167 -0.297,0 -0.625,0.085 -0.729,0.188 -0.281,0.282 -7.123,0.3 -7.403,0.02 -0.114,-0.115 -0.451,-0.208 -0.748,-0.208 -0.297,0 -0.587,-0.075 -0.643,-0.167 -0.057,-0.092 -0.246,-0.167 -0.421,-0.167 -0.406,0 -2.996,-1.176 -2.996,-1.361 0,-0.076 -0.079,-0.139 -0.176,-0.139 -1.215,0 -5.697,-4.637 -6.933,-7.172 -2.826,-5.799 -2.116,-14.367 1.515,-18.268 0.098,-0.105 0.509,-0.613 0.914,-1.129 1.448,-1.845 4.73,-4.121 6.847,-4.747 0.412,-0.122 0.937,-0.287 1.166,-0.366 0.23,-0.079 0.94,-0.224 1.579,-0.323 0.639,-0.099 1.195,-0.213 1.236,-0.254 0.178,-0.178 3.522,-0.052 4.752,0.179 m -234.236,0.384 c 0.959,0.709 0.915,-0.046 0.964,16.568 0.044,15.261 0.043,15.289 -0.309,16.037 -0.556,1.184 -2.279,1.668 -3.597,1.011 -1.021,-0.51 -0.972,0.337 -0.972,-16.903 V 33.583 l 0.385,-0.539 c 0.641,-0.899 2.564,-1.121 3.529,-0.407 m 54.503,4.145 c -3.442,0.577 -7.551,3.288 -9.127,6.021 l -0.209,0.364 h 10.918 c 7.815,0 10.918,-0.052 10.918,-0.183 0,-0.588 -2.234,-3.249 -3.5,-4.169 -2.272,-1.649 -6.113,-2.517 -9,-2.033 m 116.725,0.053 c -2.099,0.226 -3.601,0.811 -5.494,2.142 -1.531,1.075 -3.397,3.288 -3.908,4.633 -0.098,0.258 -0.278,0.694 -0.399,0.971 -0.59,1.34 -1.028,4.33 -0.78,5.317 0.104,0.412 0.189,1.088 0.189,1.501 0,0.414 0.067,0.924 0.149,1.135 0.8,2.056 1.144,2.817 1.547,3.413 0.259,0.383 0.471,0.741 0.471,0.796 0,0.451 2.974,3.21 4.081,3.786 2.571,1.337 2.691,1.366 5.585,1.354 2.337,-0.01 3.603,-0.145 3.761,-0.401 0.051,-0.082 0.207,-0.149 0.347,-0.149 0.374,0 3.661,-1.674 3.892,-1.983 0.046,-0.061 0.401,-0.34 0.789,-0.621 1.006,-0.727 2.378,-2.794 2.378,-3.582 0,-0.162 0.067,-0.335 0.148,-0.386 0.082,-0.05 0.191,-0.336 0.243,-0.634 0.052,-0.299 0.175,-0.956 0.273,-1.46 0.301,-1.553 0.397,-4.585 0.181,-5.716 -0.255,-1.333 -0.533,-2.326 -0.707,-2.526 -0.076,-0.087 -0.138,-0.25 -0.138,-0.363 0,-0.263 -1.069,-2.061 -1.502,-2.526 -0.182,-0.195 -0.331,-0.404 -0.331,-0.464 0,-0.417 -3.395,-3.072 -3.928,-3.072 -0.131,0 -0.239,-0.075 -0.239,-0.167 0,-0.091 -0.135,-0.166 -0.3,-0.166 -0.165,0 -0.371,-0.067 -0.458,-0.148 -0.532,-0.497 -3.918,-0.893 -5.85,-0.684 m 58.342,-0.002 c -2.975,0.436 -7.64,3.523 -8.781,5.811 l -0.261,0.523 h 10.904 c 5.997,0 10.904,-0.061 10.904,-0.134 0,-0.37 -1.195,-2 -2.333,-3.183 -2.373,-2.466 -6.349,-3.616 -10.433,-3.017"
       style="fill:none;fill-rule:evenodd;stroke:none"
       inkscape:connector-curvature="0" />
    <g
       id="g843">
      <path
         d="m 109.061,12.629 c -0.749,0.607 -0.728,-0.173 -0.727,26.652 10e-4,24.576 0.013,25.656 0.306,26.136 0.654,1.067 2.736,1.134 3.539,0.113 0.314,-0.399 0.321,-0.983 0.321,-26.319 V 13.3 l -0.518,-0.483 c -0.634,-0.593 -2.29,-0.7 -2.921,-0.188 m -67.228,2.486 c -1.69,0.128 -4.905,0.717 -5.75,1.053 -0.183,0.073 -0.773,0.302 -1.311,0.51 -1.87,0.72 -3.895,1.848 -5.605,3.121 -1.097,0.816 -4.08,3.673 -4.862,4.657 -1.655,2.082 -3.118,4.593 -4.152,7.127 -1.309,3.21 -2.096,9.77 -1.494,12.456 0.088,0.391 0.283,1.348 0.433,2.128 0.249,1.291 0.739,3.074 1.076,3.916 0.397,0.994 1.431,3.088 1.811,3.67 0.241,0.368 0.513,0.793 0.604,0.943 1.641,2.7 6.08,7.079 8.417,8.302 0.229,0.12 0.454,0.268 0.5,0.329 0.256,0.337 4.357,2.079 5.583,2.371 3.048,0.725 7.168,0.988 9.834,0.627 0.641,-0.087 1.524,-0.205 1.961,-0.263 0.438,-0.058 0.836,-0.17 0.885,-0.25 0.05,-0.08 0.242,-0.145 0.427,-0.145 3.61,0 11.442,-5.834 14.727,-10.97 1.077,-1.685 1.389,-2.303 2.409,-4.78 C 69.602,44.388 69.425,36.124 66.911,30.542 66.776,30.244 66.54,29.719 66.386,29.375 66.232,29.031 65.857,28.355 65.553,27.872 65.249,27.389 65,26.958 65,26.915 c 0,-0.043 -0.271,-0.436 -0.602,-0.872 -0.331,-0.436 -0.8,-1.054 -1.041,-1.372 -0.542,-0.712 -3.755,-4.004 -3.909,-4.004 -0.062,0 -0.281,-0.146 -0.488,-0.324 -0.207,-0.178 -0.602,-0.515 -0.877,-0.75 -0.275,-0.234 -0.593,-0.426 -0.708,-0.426 -0.115,0 -0.208,-0.075 -0.208,-0.167 0,-0.092 -0.083,-0.167 -0.183,-0.167 -0.1,0 -0.4,-0.155 -0.666,-0.344 -0.652,-0.464 -3.401,-1.822 -3.688,-1.822 -0.127,0 -0.301,-0.062 -0.388,-0.138 -0.191,-0.166 -1.155,-0.441 -3.575,-1.021 -0.893,-0.214 -4.273,-0.517 -5.334,-0.477 -0.412,0.015 -1.087,0.053 -1.5,0.084 m 194.584,0.067 c -2.306,0.238 -3.624,0.645 -5.43,1.677 -1.706,0.976 -4.935,3.844 -5.904,5.243 -1.576,2.277 -2.247,6.336 -1.505,9.106 0.755,2.82 1.49,3.891 4.146,6.042 1.075,0.871 3.204,1.716 6.109,2.426 0.321,0.078 0.884,0.217 1.25,0.309 0.367,0.091 0.967,0.238 1.334,0.325 0.366,0.087 1.116,0.286 1.666,0.442 1.39,0.395 2.066,0.578 2.792,0.759 0.344,0.086 0.944,0.235 1.333,0.333 0.39,0.097 0.916,0.218 1.169,0.269 0.253,0.051 0.501,0.158 0.552,0.24 0.05,0.081 0.234,0.147 0.408,0.147 0.175,0 0.677,0.199 1.115,0.442 2.685,1.486 4.043,3.014 5.05,5.681 1.096,2.906 -0.27,7.307 -3.142,10.117 -1.277,1.25 -3.163,2.559 -3.905,2.709 -0.254,0.052 -0.502,0.159 -0.552,0.239 -0.049,0.08 -0.268,0.145 -0.486,0.145 -0.219,0 -0.439,0.067 -0.489,0.149 -0.221,0.357 -5.492,0.687 -5.814,0.365 -0.099,-0.099 -0.424,-0.18 -0.721,-0.18 -0.297,0 -0.586,-0.075 -0.643,-0.167 -0.057,-0.092 -0.234,-0.167 -0.395,-0.167 -1.404,0 -4.836,-2.657 -7.102,-5.496 -2.634,-3.301 -6.037,-1.38 -3.684,2.08 1.166,1.714 3.852,4.224 5.603,5.238 1.901,1.1 2.685,1.511 3.06,1.605 0.241,0.061 0.479,0.177 0.529,0.258 0.051,0.082 0.271,0.149 0.489,0.149 0.218,0 0.443,0.075 0.5,0.166 0.057,0.092 0.357,0.167 0.667,0.167 0.31,0 0.605,0.067 0.656,0.15 0.322,0.52 6.816,0.269 8.177,-0.316 0.183,-0.079 0.746,-0.291 1.25,-0.472 4.674,-1.672 8.938,-6.134 10.143,-10.615 2.038,-7.576 -2.059,-14.182 -9.976,-16.085 -0.321,-0.077 -0.884,-0.225 -1.25,-0.329 -0.367,-0.104 -0.854,-0.227 -1.084,-0.274 -0.229,-0.046 -0.566,-0.148 -0.75,-0.226 -0.183,-0.078 -0.52,-0.178 -0.75,-0.222 -0.482,-0.094 -3.839,-1.026 -4.595,-1.275 -0.281,-0.093 -0.671,-0.169 -0.865,-0.169 -0.194,0 -0.4,-0.075 -0.456,-0.167 -0.057,-0.092 -0.25,-0.167 -0.429,-0.167 -0.179,0 -0.456,-0.069 -0.615,-0.153 -0.159,-0.084 -0.783,-0.353 -1.387,-0.596 -5.399,-2.181 -6.654,-8.707 -2.486,-12.932 1.88,-1.905 4.389,-2.865 8.083,-3.092 2.307,-0.141 6.75,0.711 6.75,1.295 0,0.08 0.103,0.145 0.229,0.145 0.126,0 0.866,0.487 1.645,1.083 2.308,1.768 4.293,1.349 4.293,-0.905 0,-1.417 -3.368,-3.875 -6.417,-4.683 -0.275,-0.073 -0.912,-0.246 -1.416,-0.384 -1.922,-0.526 -4.327,-0.679 -6.75,-0.429 M 120.183,17.847 C 117.619,19.41 118.634,23 121.64,23 c 1.704,0 2.659,-0.965 2.681,-2.711 0.028,-2.184 -2.304,-3.56 -4.138,-2.442 m -74.054,1.314 c 6.408,0.737 12.1,4.592 15.635,10.589 0.493,0.837 0.591,1.035 1.2,2.417 3.855,8.758 1.281,19.05 -6.464,25.839 -1.783,1.563 -6.189,3.827 -7.448,3.827 -0.201,0 -0.405,0.065 -0.454,0.143 -0.155,0.252 -2.102,0.42 -4.848,0.419 C 39.039,62.394 36.403,61.641 32.667,59.23 30.276,57.686 26,53.16 26,52.173 26,52.078 25.934,52 25.853,52 c -0.081,0 -0.189,-0.131 -0.24,-0.292 -0.05,-0.16 -0.239,-0.554 -0.42,-0.875 -0.432,-0.767 -1.026,-2.118 -1.026,-2.333 0,-0.094 -0.068,-0.301 -0.151,-0.461 -0.153,-0.295 -0.279,-0.735 -0.799,-2.789 -0.42,-1.662 -0.418,-7.312 0.004,-9 0.452,-1.812 0.636,-2.466 0.82,-2.917 0.094,-0.229 0.227,-0.566 0.297,-0.75 1.26,-3.301 4.335,-7.354 7.147,-9.416 0.312,-0.229 0.663,-0.511 0.779,-0.625 0.117,-0.115 0.262,-0.209 0.323,-0.209 0.062,0 0.313,-0.143 0.559,-0.318 3.109,-2.214 8.411,-3.38 12.983,-2.854 m 216.923,0.574 c -1.025,0.464 -1.052,0.641 -1.052,6.903 0,6.5 0.167,5.947 -1.831,6.077 -1.785,0.116 -2.336,0.574 -2.336,1.942 0,1.447 0.904,2.123 2.716,2.032 1.606,-0.081 1.451,-1.081 1.451,9.378 0,5.667 0.067,9.59 0.174,10.197 0.337,1.907 0.548,2.821 0.686,2.978 0.077,0.087 0.14,0.295 0.14,0.463 0,0.267 0.567,1.508 1.385,3.028 0.714,1.329 3.188,3.267 4.17,3.267 0.208,0 0.458,0.079 0.555,0.177 0.569,0.569 5.895,-0.113 7.484,-0.959 2.068,-1.1 1.474,-3.718 -0.844,-3.718 -0.415,0 -0.885,0.068 -1.044,0.15 -1.171,0.609 -4.24,0.814 -5.15,0.344 -1.691,-0.873 -2.721,-2.751 -3.062,-5.577 -0.265,-2.207 -0.196,-19.534 0.079,-19.64 0.132,-0.051 1.516,-0.096 3.076,-0.101 3.81,-0.013 4.344,-0.26 4.344,-2.009 0,-1.73 -0.607,-1.998 -4.521,-1.999 -1.436,-10e-4 -2.73,-0.047 -2.875,-0.102 -0.233,-0.09 -0.264,-0.722 -0.264,-5.394 0,-6.349 -0.037,-6.724 -0.711,-7.204 -0.622,-0.443 -1.858,-0.555 -2.57,-0.233 M 85.25,32.494 c -1.876,0.318 -3.654,1.192 -5.083,2.501 -1.311,1.201 -1.286,1.197 -1.425,0.213 -0.246,-1.743 -0.325,-1.944 -0.916,-2.346 -0.821,-0.558 -2.303,-0.46 -2.958,0.195 l -0.451,0.45 -0.045,15.634 -0.045,15.633 0.378,0.557 c 0.819,1.206 2.864,1.261 3.569,0.096 0.291,-0.481 0.314,-1.2 0.393,-12.449 L 78.75,41.04 79.517,40.062 C 82.491,36.27 88.26,35.265 93,37.712 c 1.986,1.025 3.396,3.099 4.105,6.038 0.066,0.275 0.163,5.163 0.216,10.863 0.108,11.704 0.021,11.007 1.436,11.509 0.824,0.293 2.177,-0.054 2.576,-0.66 0.324,-0.491 0.462,-18.462 0.161,-20.99 -0.292,-2.458 -0.353,-2.802 -0.512,-2.9 -0.082,-0.05 -0.149,-0.245 -0.149,-0.431 0,-0.414 -1.265,-3.043 -1.596,-3.318 -0.13,-0.109 -0.238,-0.282 -0.24,-0.385 -0.004,-0.24 -1.92,-2.122 -2.58,-2.534 C 96.142,34.732 95.879,34.55 95.833,34.5 95.688,34.342 93.6,33.367 93.167,33.255 92.938,33.195 92.198,33.006 91.524,32.833 90.121,32.474 86.52,32.28 85.25,32.494 m 56.333,0.004 c -1.754,0.254 -3.595,1.152 -5.134,2.505 -1.462,1.284 -1.594,1.216 -1.619,-0.836 -0.022,-1.755 -2.769,-2.34 -3.95,-0.841 -0.403,0.511 -0.292,31.596 0.115,32.167 0.721,1.013 2.792,1.009 3.514,-0.006 0.314,-0.44 0.324,-0.835 0.324,-12.084 0,-11.444 0.054,-12.736 0.534,-12.736 0.073,0 0.133,-0.097 0.133,-0.215 0,-0.468 2.316,-2.439 3.536,-3.011 4.885,-2.286 11.379,-0.601 13.37,3.469 1.14,2.33 1.134,2.259 1.244,13.785 l 0.1,10.445 0.381,0.406 c 0.451,0.479 1.566,0.851 2.085,0.694 0.874,-0.263 1.433,-0.627 1.607,-1.048 0.244,-0.59 0.136,-20.519 -0.118,-21.859 -0.738,-3.876 -2.444,-6.646 -5.288,-8.583 -0.937,-0.637 -1.182,-0.769 -2.25,-1.211 -2.274,-0.939 -6.091,-1.402 -8.584,-1.041 m 35.315,0.006 c -0.652,0.068 -1.44,0.204 -1.75,0.301 -0.311,0.097 -0.977,0.297 -1.481,0.443 -3.071,0.892 -6.809,3.877 -8.541,6.821 -0.576,0.978 -1.626,3.231 -1.626,3.487 0,0.142 -0.067,0.299 -0.148,0.349 -0.082,0.051 -0.196,0.374 -0.254,0.718 -0.058,0.345 -0.194,1.152 -0.301,1.794 -0.62,3.698 -0.059,7.481 1.58,10.66 0.38,0.737 0.737,1.377 0.793,1.423 0.056,0.046 0.335,0.421 0.619,0.833 0.583,0.846 2.581,2.825 3.711,3.677 0.412,0.31 0.787,0.604 0.833,0.652 0.285,0.299 2.826,1.546 3.75,1.839 0.367,0.117 0.817,0.27 1,0.342 1.427,0.558 8.832,0.532 9.18,-0.031 0.05,-0.08 0.274,-0.145 0.499,-0.145 0.225,0 0.539,-0.068 0.699,-0.151 0.159,-0.082 0.776,-0.378 1.372,-0.657 2.454,-1.148 4.517,-3.086 6.23,-5.855 0.94,-1.519 0.969,-1.961 0.181,-2.748 -1.22,-1.221 -2.563,-0.855 -3.979,1.083 -1.47,2.011 -3.68,3.747 -5.515,4.329 -0.367,0.116 -0.817,0.27 -1,0.342 -1.281,0.501 -6.199,0.477 -6.513,-0.031 -0.049,-0.08 -0.237,-0.146 -0.416,-0.146 -0.179,0 -0.456,-0.066 -0.615,-0.147 -0.159,-0.081 -0.514,-0.247 -0.789,-0.37 -3.338,-1.487 -6.174,-4.963 -7.193,-8.816 -0.342,-1.292 -0.377,-4.635 -0.051,-4.841 0.144,-0.091 5.745,-0.155 13.704,-0.156 15.201,-0.003 14.224,0.087 14.623,-1.356 0.138,-0.497 0.093,-0.832 -0.257,-1.916 -2.645,-8.187 -9.622,-12.647 -18.345,-11.727 M 293.75,32.499 c -1.057,0.125 -1.988,0.339 -3.545,0.813 -4.056,1.237 -8.218,5.368 -10.056,9.98 -0.082,0.206 -0.219,0.543 -0.305,0.75 -0.774,1.855 -0.784,8.194 -0.016,10.041 0.076,0.184 0.23,0.596 0.341,0.917 1.228,3.533 4.184,7.115 7.568,9.171 0.6,0.364 1.127,0.662 1.172,0.662 0.045,0 0.478,0.178 0.961,0.396 1.965,0.883 3.61,1.149 6.463,1.048 2.63,-0.094 3.785,-0.23 3.928,-0.461 0.051,-0.082 0.233,-0.149 0.406,-0.149 0.434,0 3.847,-1.648 4.166,-2.012 0.046,-0.052 0.496,-0.398 1,-0.768 1.847,-1.357 4.134,-4.196 5.094,-6.326 1.046,-2.32 1.349,-3.436 1.594,-5.871 0.289,-2.87 -0.256,-6.198 -1.374,-8.396 C 311.066,42.135 311,41.929 311,41.837 c 0,-0.172 -1.247,-2.177 -1.782,-2.865 -1.797,-2.311 -5.522,-5.084 -7.635,-5.682 -2.873,-0.814 -5.444,-1.073 -7.833,-0.791 m 34,-0.009 c -1.189,0.196 -2.518,0.757 -3.532,1.492 -0.385,0.279 -1.005,0.921 -1.38,1.429 -0.871,1.178 -1.005,1.159 -1.005,-0.141 0,-1.895 -0.697,-2.77 -2.209,-2.77 -1.126,0 -1.832,0.547 -2,1.548 -0.298,1.78 -0.067,30.997 0.249,31.462 0.704,1.034 2.822,0.927 3.585,-0.182 l 0.375,-0.544 0.003,-10.934 c 0.002,-9.324 0.039,-11.04 0.254,-11.657 1.608,-4.615 7.784,-7.447 10.66,-4.888 2.564,2.281 5.49,-0.664 2.973,-2.993 -1.573,-1.455 -5.188,-2.281 -7.973,-1.822 m 24.667,0.022 c -1.815,0.174 -3.583,0.654 -5,1.358 -9.03,4.484 -12.351,15.844 -7.104,24.297 1.994,3.212 5.776,6.257 9.104,7.331 0.366,0.118 0.816,0.273 1,0.345 1.399,0.547 8.577,0.527 9.158,-0.026 0.087,-0.083 0.327,-0.15 0.532,-0.15 1.053,0 4.258,-1.899 5.675,-3.362 2.471,-2.551 3.626,-4.583 3.176,-5.589 -0.845,-1.893 -2.988,-1.453 -4.627,0.95 -0.636,0.933 -1.679,1.986 -2.581,2.605 -0.977,0.671 -2.787,1.562 -3.172,1.562 -0.215,0 -0.432,0.066 -0.481,0.145 -0.317,0.513 -6.211,0.512 -6.528,-0.002 -0.049,-0.078 -0.235,-0.143 -0.414,-0.143 -0.18,0 -0.456,-0.064 -0.616,-0.142 -0.159,-0.078 -0.589,-0.282 -0.956,-0.453 -2.147,-1.001 -5.75,-4.534 -5.75,-5.64 0,-0.146 -0.056,-0.265 -0.126,-0.265 -0.069,0 -0.225,-0.243 -0.347,-0.541 -0.122,-0.298 -0.285,-0.692 -0.362,-0.875 -0.782,-1.848 -1.095,-5.876 -0.486,-6.261 0.137,-0.087 5.94,-0.152 13.655,-0.154 13.002,-0.003 13.433,-0.013 13.949,-0.328 2.876,-1.754 -3.24,-11.399 -8.449,-13.325 -0.321,-0.119 -0.734,-0.28 -0.917,-0.359 -2.26,-0.97 -5.021,-1.294 -8.333,-0.978 m -232.113,0.273 c -0.821,0.51 -0.804,0.158 -0.803,16.598 0,14.942 0.012,15.553 0.315,16.051 0.615,1.008 2.761,1.072 3.522,0.106 0.481,-0.612 0.513,-31.719 0.033,-32.312 -0.62,-0.766 -2.182,-0.991 -3.067,-0.443 m 62.113,3.871 c 3.418,0.921 4.841,1.831 6.918,4.424 0.366,0.457 0.665,0.926 0.665,1.042 0,0.116 0.075,0.211 0.167,0.211 0.091,0 0.166,0.144 0.166,0.32 0,0.175 0.094,0.354 0.209,0.397 0.119,0.044 0.024,0.15 -0.225,0.25 -0.684,0.273 -21.9,0.252 -22.127,-0.022 -0.357,-0.43 1.562,-2.725 3.526,-4.219 1.635,-1.243 2.965,-1.863 5.451,-2.537 1.049,-0.285 3.973,-0.211 5.25,0.134 m 115.548,-0.061 c 1.863,0.379 4.035,1.157 4.035,1.444 0,0.07 0.078,0.128 0.174,0.128 1.152,0 5.326,5.005 5.326,6.385 0,0.144 0.067,0.303 0.148,0.353 0.16,0.099 0.269,0.641 0.524,2.595 0.471,3.608 -0.68,8.691 -2.408,10.642 -0.371,0.419 -2.203,1.858 -2.365,1.858 -0.054,0 -0.322,0.16 -0.596,0.355 -0.663,0.472 -3.067,1.478 -3.533,1.478 -0.203,0 -0.453,0.083 -0.555,0.185 -0.274,0.275 -4.956,0.265 -5.798,-0.012 -1.475,-0.484 -1.71,-0.587 -2.811,-1.219 C 288.347,59.776 285,56.264 285,55.429 c 0,-0.048 -0.18,-0.482 -0.399,-0.966 -2.031,-4.476 -1.26,-10.049 1.896,-13.698 0.414,-0.479 0.609,-0.665 1.92,-1.825 2.225,-1.97 6.379,-2.99 9.548,-2.345 m 60.12,0.16 c 2.531,0.657 3.566,1.238 5.316,2.983 1.472,1.468 2.663,3.253 2.368,3.549 -0.146,0.146 -21.524,0.259 -21.977,0.116 -0.644,-0.203 -0.077,-1.251 1.549,-2.861 3.688,-3.653 8.153,-4.98 12.744,-3.787"
         id="path0"
         inkscape:connector-curvature="0"
         style="fill:#080808;fill-rule:evenodd;stroke:none" />
      <path
         d="m 110.042,12.286 c 0.252,0.038 0.664,0.038 0.916,0 0.252,-0.038 0.046,-0.069 -0.458,-0.069 -0.504,0 -0.71,0.031 -0.458,0.069 m 1.895,0.509 c 0.264,0.254 0.511,0.441 0.55,0.416 0.108,-0.071 -0.692,-0.878 -0.87,-0.878 -0.088,0 0.057,0.208 0.32,0.462 m -3.516,0.363 c -0.225,0.436 -0.25,3.422 -0.214,26.125 l 0.041,25.634 0.084,-25.75 c 0.068,-20.548 0.128,-25.826 0.299,-26.125 0.118,-0.207 0.176,-0.375 0.129,-0.375 -0.047,0 -0.199,0.221 -0.339,0.491 m 4.16,26.009 c 0,14.162 0.02,19.956 0.044,12.875 0.024,-7.082 0.024,-18.669 0,-25.75 -0.024,-7.082 -0.044,-1.288 -0.044,12.875 M 41.583,14.985 c -0.458,0.054 0.517,0.099 2.167,0.1 1.837,0.002 2.612,-0.04 2,-0.107 -1.206,-0.131 -3.03,-0.128 -4.167,0.007 m 195.334,-0.003 c -0.367,0.056 0.421,0.104 1.75,0.107 1.48,0.002 2.158,-0.043 1.75,-0.116 -0.78,-0.141 -2.548,-0.136 -3.5,0.009 m -197.209,0.3 c 0.161,0.041 0.423,0.041 0.584,0 0.16,-0.042 0.029,-0.077 -0.292,-0.077 -0.321,0 -0.452,0.035 -0.292,0.077 m 7.586,0.003 c 0.207,0.039 0.507,0.038 0.666,-0.004 0.16,-0.042 -0.01,-0.074 -0.377,-0.072 -0.366,0.002 -0.497,0.036 -0.289,0.076 m 187.748,-0.003 c 0.16,0.041 0.423,0.041 0.583,0 0.16,-0.042 0.029,-0.077 -0.292,-0.077 -0.321,0 -0.452,0.035 -0.291,0.077 m 6.5,0 c 0.16,0.041 0.423,0.041 0.583,0 0.16,-0.042 0.029,-0.077 -0.292,-0.077 -0.321,0 -0.452,0.035 -0.291,0.077 m -192.959,0.21 c 0.32,0.145 1.213,0.24 1.07,0.113 -0.038,-0.033 -0.37,-0.106 -0.736,-0.162 -0.465,-0.071 -0.566,-0.056 -0.334,0.049 M 242.75,15.5 c 0.183,0.079 0.483,0.141 0.667,0.138 0.268,-0.004 0.251,-0.031 -0.084,-0.138 -0.57,-0.183 -1.008,-0.183 -0.583,0 M 36.833,15.833 c -0.335,0.108 -0.351,0.135 -0.083,0.139 0.183,0.002 0.483,-0.06 0.667,-0.139 0.424,-0.182 -0.014,-0.182 -0.584,0 M 50,15.831 c 0.137,0.09 0.431,0.165 0.653,0.166 0.535,0.004 0.399,-0.091 -0.32,-0.223 -0.41,-0.075 -0.509,-0.058 -0.333,0.057 m 194,-0.005 c 0.137,0.093 0.394,0.17 0.569,0.171 0.427,0.004 0.294,-0.092 -0.319,-0.229 -0.365,-0.081 -0.433,-0.066 -0.25,0.058 m -12.875,0.769 c -0.252,0.137 -0.458,0.284 -0.458,0.327 0,0.161 0.263,0.06 0.666,-0.255 0.496,-0.388 0.421,-0.413 -0.208,-0.072 M 53.833,17.082 c 0,0.113 1.354,0.786 1.429,0.711 0.035,-0.035 -0.272,-0.227 -0.682,-0.426 -0.411,-0.199 -0.747,-0.328 -0.747,-0.285 m 175.5,0.767 c -0.596,0.463 -1.196,0.961 -1.333,1.106 -0.138,0.146 0.369,-0.207 1.125,-0.783 1.197,-0.911 1.506,-1.182 1.333,-1.169 -0.023,0.002 -0.529,0.383 -1.125,0.846 M 120.208,17.665 c -0.298,0.181 -0.541,0.368 -0.541,0.413 0,0.046 0.243,-0.065 0.541,-0.246 0.727,-0.443 2.026,-0.442 2.754,0.002 0.3,0.183 0.6,0.33 0.667,0.327 0.067,-0.002 -0.179,-0.19 -0.546,-0.415 -0.85,-0.524 -2.091,-0.559 -2.875,-0.081 m -88.75,0.43 C 31.206,18.232 31,18.379 31,18.422 c 0,0.161 0.263,0.06 0.667,-0.255 0.495,-0.388 0.421,-0.413 -0.209,-0.072 M 55.5,17.875 c 0,0.106 1.29,0.958 1.45,0.958 0.068,0 -0.024,-0.101 -0.205,-0.224 C 55.95,18.066 55.5,17.801 55.5,17.875 m 194.753,1.333 c 0.358,0.436 0.678,0.792 0.71,0.792 0.12,0 -0.604,-0.926 -0.977,-1.25 -0.211,-0.183 -0.091,0.023 0.267,0.458 M 42.792,19.123 c 0.481,0.034 1.268,0.034 1.75,0 0.481,-0.034 0.087,-0.061 -0.875,-0.061 -0.963,0 -1.357,0.027 -0.875,0.061 m 195.416,0 c 0.436,0.034 1.148,0.034 1.584,0 0.435,-0.035 0.079,-0.063 -0.792,-0.063 -0.871,0 -1.227,0.028 -0.792,0.063 M 29,19.763 c -1.073,0.85 -1.218,1.051 -0.284,0.397 0.716,-0.503 1.262,-0.996 1.096,-0.992 -0.034,0.001 -0.4,0.269 -0.812,0.595 m 11.083,-0.43 c -0.446,0.114 -0.455,0.128 -0.083,0.128 0.229,0 0.642,-0.058 0.917,-0.128 0.446,-0.113 0.455,-0.127 0.083,-0.127 -0.229,0 -0.642,0.057 -0.917,0.127 m 6.584,0 c 0.229,0.074 0.604,0.132 0.833,0.131 0.374,-0.003 0.366,-0.016 -0.083,-0.131 -0.705,-0.179 -1.311,-0.179 -0.75,0 m 179.824,0.959 c -0.596,0.618 -1.256,1.387 -1.465,1.708 l -0.382,0.583 0.387,-0.474 c 0.212,-0.261 0.905,-1.03 1.539,-1.709 0.634,-0.678 1.12,-1.233 1.079,-1.233 -0.041,0 -0.562,0.506 -1.158,1.125 m 9.176,-0.959 c -0.335,0.108 -0.352,0.135 -0.084,0.139 0.184,0.002 0.484,-0.06 0.667,-0.139 0.425,-0.182 -0.013,-0.182 -0.583,0 m 5.75,0 c 0.183,0.079 0.483,0.141 0.666,0.139 0.268,-0.004 0.252,-0.031 -0.083,-0.139 -0.57,-0.182 -1.008,-0.182 -0.583,0 M 124.385,20.25 c 10e-4,0.55 0.032,0.755 0.069,0.455 0.037,-0.299 0.036,-0.749 -0.002,-1 -0.038,-0.25 -0.068,-0.005 -0.067,0.545 m 109.782,-0.583 c -0.223,0.143 -0.223,0.161 0,0.161 0.137,0 0.362,-0.072 0.5,-0.161 0.222,-0.144 0.222,-0.162 0,-0.162 -0.138,0 -0.363,0.073 -0.5,0.162 m 28.536,0.093 c -0.849,0.594 -0.872,0.793 -0.832,6.94 l 0.037,5.717 0.088,-5.834 c 0.095,-6.355 0.106,-6.426 1.059,-6.84 0.29,-0.126 0.414,-0.233 0.274,-0.236 -0.14,-0.004 -0.422,0.11 -0.626,0.253 M 265,19.62 c 0.137,0.052 0.475,0.24 0.75,0.418 l 0.5,0.323 -0.5,-0.43 c -0.275,-0.236 -0.613,-0.424 -0.75,-0.417 -0.222,0.011 -0.222,0.023 0,0.106 M 37.333,20 c -0.222,0.144 -0.222,0.162 0,0.162 0.138,0 0.363,-0.073 0.5,-0.162 0.223,-0.144 0.223,-0.162 0,-0.162 -0.137,0 -0.362,0.073 -0.5,0.162 m -2.131,0.863 c -0.393,0.191 -0.687,0.374 -0.654,0.407 0.034,0.034 0.43,-0.122 0.881,-0.346 0.452,-0.223 0.746,-0.407 0.654,-0.407 -0.091,0 -0.488,0.156 -0.881,0.346 m 196.492,-0.116 c -0.214,0.118 -0.476,0.305 -0.583,0.416 -0.165,0.171 1.008,-0.409 1.208,-0.598 0.148,-0.139 -0.255,-0.022 -0.625,0.182 m 13.556,-0.049 c 0.183,0.103 0.783,0.538 1.333,0.967 1.002,0.781 1.663,1.217 1.334,0.88 -0.43,-0.439 -2.64,-2.044 -2.809,-2.04 -0.105,0.003 -0.041,0.09 0.142,0.193 m 21.044,4.915 c 0.024,2.734 0.066,5.42 0.093,5.97 0.027,0.55 0.056,-1.512 0.064,-4.583 0.009,-3.071 -0.033,-5.758 -0.093,-5.971 -0.059,-0.212 -0.088,1.85 -0.064,4.584 M 26.172,22.245 c -0.773,0.776 -1.371,1.434 -1.33,1.462 0.041,0.028 0.715,-0.607 1.498,-1.411 0.783,-0.805 1.381,-1.463 1.33,-1.463 -0.052,0 -0.726,0.636 -1.498,1.412 m 34.8,-0.12 c 0.703,0.71 1.311,1.271 1.352,1.245 0.096,-0.06 -2.36,-2.537 -2.515,-2.537 -0.064,0 0.46,0.582 1.163,1.292 m 169.186,-0.167 -0.575,0.625 0.625,-0.574 c 0.582,-0.535 0.702,-0.676 0.575,-0.676 -0.028,0 -0.309,0.282 -0.625,0.625 m -110.893,0.125 c 0.15,0.23 0.339,0.417 0.42,0.417 0.08,0 -0.017,-0.187 -0.216,-0.417 -0.199,-0.229 -0.388,-0.416 -0.42,-0.416 -0.031,0 0.066,0.187 0.216,0.416 m 109.674,1.247 c -0.242,0.364 -0.439,0.719 -0.439,0.787 0,0.068 0.101,-0.024 0.224,-0.205 0.543,-0.795 0.808,-1.245 0.734,-1.245 -0.044,0 -0.278,0.298 -0.519,0.663 m 19.519,-0.546 c 0.207,0.04 0.544,0.04 0.75,0 0.207,-0.039 0.038,-0.072 -0.375,-0.072 -0.412,0 -0.581,0.033 -0.375,0.072 m -127.33,0.337 c 0.3,0.037 0.75,0.036 1,-0.002 0.25,-0.038 0.005,-0.068 -0.545,-0.067 -0.55,0.001 -0.755,0.032 -0.455,0.069 m -91.436,1.671 c -1.231,1.232 -1.262,1.275 -0.199,0.273 0.691,-0.651 1.442,-1.308 1.669,-1.458 0.227,-0.151 0.317,-0.274 0.2,-0.274 -0.117,0 -0.869,0.657 -1.67,1.459 m 27.144,-0.953 c 0.001,0.043 0.73,0.828 1.62,1.744 0.89,0.917 1.307,1.292 0.927,0.834 -0.701,-0.847 -2.552,-2.72 -2.547,-2.578 M 63,24.248 c 0.137,0.182 0.429,0.52 0.648,0.75 l 0.399,0.419 -0.349,-0.515 C 63.506,24.619 63.214,24.281 63.049,24.152 62.77,23.932 62.767,23.939 63,24.248 m 160.604,0.675 c -0.057,0.149 -0.098,0.396 -0.09,0.549 0.008,0.153 0.081,0.057 0.161,-0.214 0.158,-0.526 0.102,-0.786 -0.071,-0.335 M 23.5,25.333 c -0.196,0.275 -0.319,0.5 -0.273,0.5 0.046,0 0.244,-0.225 0.44,-0.5 0.195,-0.275 0.318,-0.5 0.272,-0.5 -0.045,0 -0.243,0.225 -0.439,0.5 m 40.83,0.662 c 0.194,0.272 0.437,0.548 0.541,0.612 0.104,0.064 -0.021,-0.159 -0.277,-0.495 -0.557,-0.731 -0.767,-0.824 -0.264,-0.117 m -41.533,0.297 c -0.283,0.325 -0.679,1.041 -0.575,1.041 0.037,0 0.266,-0.3 0.508,-0.666 0.465,-0.703 0.494,-0.864 0.067,-0.375 m 200.475,0.223 c -0.058,0.29 -0.097,0.724 -0.086,0.964 0.011,0.241 0.087,0.032 0.169,-0.463 0.16,-0.965 0.092,-1.377 -0.083,-0.501 m 4.318,1.193 c -0.056,0.573 -0.043,1.246 0.029,1.496 0.09,0.314 0.138,-0.008 0.155,-1.041 0.028,-1.751 -0.039,-1.917 -0.184,-0.455 M 65,26.887 c 0,0.072 0.188,0.407 0.417,0.744 0.229,0.337 0.416,0.554 0.416,0.482 0,-0.072 -0.187,-0.407 -0.416,-0.744 C 65.188,27.032 65,26.815 65,26.887 m -38.351,1.367 c -0.383,0.507 -0.666,0.947 -0.631,0.978 0.036,0.031 0.383,-0.383 0.772,-0.921 0.896,-1.239 0.785,-1.284 -0.141,-0.057 m -5.286,0.396 c -0.2,0.355 -0.362,0.71 -0.361,0.789 0.001,0.08 0.19,-0.185 0.421,-0.588 0.23,-0.403 0.392,-0.758 0.361,-0.79 -0.032,-0.031 -0.221,0.233 -0.421,0.589 m 201.815,0.697 c 0.007,0.497 0.073,1.053 0.147,1.236 0.077,0.191 0.098,-0.165 0.05,-0.833 -0.104,-1.417 -0.213,-1.64 -0.197,-0.403 M 25.196,30.65 c -0.199,0.355 -0.362,0.71 -0.361,0.789 10e-4,0.08 0.191,-0.185 0.421,-0.588 0.23,-0.403 0.393,-0.758 0.361,-0.79 -0.032,-0.031 -0.221,0.233 -0.421,0.589 m 41.977,0.456 c -0.003,0.104 0.103,0.441 0.237,0.75 0.134,0.308 0.247,0.476 0.25,0.371 0.004,-0.104 -0.103,-0.441 -0.237,-0.75 -0.134,-0.308 -0.246,-0.475 -0.25,-0.371 m 156.344,0.333 c -0.009,0.196 0.1,0.608 0.242,0.917 0.256,0.554 0.243,0.435 -0.088,-0.773 -0.103,-0.377 -0.141,-0.412 -0.154,-0.144 M 19.699,32.391 c -0.11,0.302 -0.195,0.657 -0.191,0.787 0.004,0.131 0.122,-0.087 0.262,-0.486 0.139,-0.398 0.225,-0.753 0.19,-0.787 -0.034,-0.035 -0.152,0.184 -0.261,0.486 m 209.305,0.162 c 0.29,0.442 0.564,0.768 0.607,0.725 0.044,-0.044 -0.034,-0.218 -0.173,-0.387 -0.802,-0.974 -0.907,-1.056 -0.434,-0.338 m -143.37,-0.25 c -0.155,0.063 0.745,0.117 2,0.121 1.49,0.005 2.022,-0.034 1.533,-0.112 -0.95,-0.153 -3.161,-0.158 -3.533,-0.009 M 142,32.314 c -0.321,0.056 0.504,0.104 1.833,0.106 1.458,10e-4 2.152,-0.045 1.75,-0.116 -0.792,-0.14 -2.763,-0.135 -3.583,0.01 m 35.5,0 c -0.321,0.056 0.462,0.103 1.741,0.103 1.278,0 2.103,-0.048 1.833,-0.106 -0.624,-0.134 -2.811,-0.132 -3.574,0.003 m 116.667,0 c -0.321,0.058 0.429,0.105 1.666,0.107 1.238,10e-4 2.025,-0.047 1.75,-0.107 -0.631,-0.136 -2.649,-0.136 -3.416,0 m 34.034,-0.006 c -0.21,0.06 0.502,0.111 1.583,0.113 1.082,0.003 1.741,-0.045 1.466,-0.105 -0.648,-0.142 -2.557,-0.147 -3.049,-0.008 m 24.632,0.01 c -0.321,0.059 0.462,0.105 1.74,0.103 1.277,-0.002 2.102,-0.052 1.833,-0.11 -0.631,-0.135 -2.82,-0.132 -3.573,0.007 m -278.012,0.64 -0.404,0.459 0.416,-0.354 c 0.23,-0.195 0.529,-0.395 0.667,-0.445 0.214,-0.079 0.212,-0.094 -0.013,-0.105 -0.144,-0.007 -0.444,0.193 -0.666,0.445 m 2.762,-0.263 c 0.184,0.102 0.45,0.268 0.592,0.37 0.142,0.102 0.081,0.016 -0.134,-0.19 -0.216,-0.206 -0.482,-0.373 -0.592,-0.37 -0.109,0.003 -0.049,0.088 0.134,0.19 m 12.931,-0.136 c 0.038,0.033 0.332,0.108 0.653,0.167 0.41,0.075 0.509,0.058 0.333,-0.057 -0.226,-0.148 -1.151,-0.251 -0.986,-0.11 m 43.491,0.225 c 0.226,0.156 0.506,0.4 0.62,0.542 0.186,0.228 0.198,0.226 0.111,-0.024 -0.053,-0.155 -0.276,-0.399 -0.494,-0.542 -0.54,-0.353 -0.754,-0.332 -0.237,0.024 M 140,32.709 c -1.558,0.699 -1.839,0.841 -1.783,0.896 0.034,0.035 0.3,-0.056 0.591,-0.201 0.29,-0.145 0.921,-0.405 1.402,-0.578 0.48,-0.173 0.723,-0.312 0.54,-0.309 -0.183,0.003 -0.521,0.09 -0.75,0.192 m 6.847,-0.15 c 0.038,0.033 0.332,0.108 0.653,0.167 0.41,0.075 0.509,0.058 0.333,-0.057 -0.226,-0.148 -1.151,-0.251 -0.986,-0.11 m 28.439,0.044 c -0.056,0.056 -0.35,0.167 -0.653,0.245 -0.51,0.132 -0.513,0.138 -0.05,0.076 0.939,-0.127 1.732,-0.387 1.236,-0.407 -0.236,-0.009 -0.476,0.029 -0.533,0.086 m 7.061,-0.044 c 0.038,0.033 0.332,0.108 0.653,0.167 0.41,0.075 0.509,0.058 0.333,-0.057 -0.226,-0.148 -1.151,-0.251 -0.986,-0.11 m 76.82,0.101 c -0.229,0.07 0.22,0.09 1,0.044 0.779,-0.045 1.448,-0.11 1.486,-0.143 0.131,-0.115 -2.07,-0.028 -2.486,0.099 m 10.5,-10e-4 c 1.695,0.06 3.233,0.167 3.416,0.238 l 0.334,0.128 -0.334,-0.221 c -0.244,-0.161 -1.159,-0.225 -3.416,-0.238 l -3.084,-0.017 3.084,0.11 m 21.833,0.095 c -0.413,0.117 -0.937,0.297 -1.167,0.401 l -0.416,0.188 0.416,-0.099 c 1.494,-0.353 2.687,-0.716 2.334,-0.71 -0.229,0.004 -0.755,0.103 -1.167,0.22 m 7.514,-0.194 c 0.038,0.033 0.294,0.11 0.569,0.172 0.365,0.081 0.433,0.066 0.25,-0.058 -0.225,-0.152 -0.986,-0.258 -0.819,-0.114 m 19.112,0.315 c -0.216,0.206 -0.276,0.292 -0.134,0.19 0.142,-0.102 0.408,-0.268 0.591,-0.37 0.184,-0.102 0.244,-0.187 0.135,-0.19 -0.11,-0.003 -0.376,0.164 -0.592,0.37 m 2.541,-0.2 c 0.613,0.416 0.922,0.515 0.523,0.168 -0.217,-0.189 -0.479,-0.342 -0.583,-0.34 -0.105,10e-4 -0.078,0.078 0.06,0.172 m 5.583,0.081 c -0.673,0.308 -0.271,0.309 0.439,10e-4 0.309,-0.134 0.448,-0.241 0.311,-0.237 -0.138,0.004 -0.475,0.11 -0.75,0.236 m 24.333,-0.089 c -0.21,0.09 -0.241,0.143 -0.083,0.143 0.137,0 0.4,-0.065 0.583,-0.143 0.21,-0.091 0.241,-0.144 0.084,-0.144 -0.138,0 -0.4,0.065 -0.584,0.144 m 8.084,0.163 c 0.595,0.171 1.271,0.365 1.5,0.432 0.229,0.066 0.379,0.079 0.333,0.029 -0.149,-0.164 -2.212,-0.791 -2.569,-0.781 -0.191,0.006 0.14,0.15 0.736,0.32 M 82.833,33.083 c -0.544,0.311 -0.354,0.315 0.356,0.007 0.309,-0.134 0.448,-0.244 0.311,-0.244 -0.138,-10e-4 -0.437,0.106 -0.667,0.237 m 101.417,0.005 c 0.864,0.311 1.164,0.304 0.439,-0.011 -0.308,-0.134 -0.683,-0.24 -0.833,-0.236 -0.15,0.004 0.027,0.115 0.394,0.247 m 73.917,0.161 c -0.215,0.229 -0.359,0.444 -0.32,0.478 0.038,0.034 0.244,-0.153 0.457,-0.416 0.478,-0.588 0.393,-0.626 -0.137,-0.062 M 92.833,33.159 c 0.138,0.093 0.394,0.17 0.57,0.172 0.426,0.003 0.293,-0.092 -0.32,-0.229 -0.365,-0.082 -0.432,-0.066 -0.25,0.057 M 273.792,33.5 c 0.3,0.337 0.261,1.924 -0.062,2.464 l -0.27,0.453 0.35,-0.417 c 0.465,-0.554 0.507,-2.179 0.065,-2.513 -0.248,-0.188 -0.261,-0.186 -0.083,0.013 m 28.212,-0.111 c 0.152,0.146 2.996,1.597 2.996,1.529 0,-0.1 -1.999,-1.199 -2.58,-1.418 -0.273,-0.103 -0.46,-0.153 -0.416,-0.111 m 32.733,0.15 c 0.176,0.116 0.626,0.471 1,0.788 l 0.68,0.578 -0.5,-0.551 c -0.275,-0.303 -0.725,-0.657 -1,-0.788 -0.275,-0.131 -0.356,-0.143 -0.18,-0.027 m 12.763,0.128 c -0.321,0.175 -0.508,0.319 -0.417,0.319 0.092,0 0.429,-0.144 0.75,-0.319 0.321,-0.176 0.509,-0.32 0.417,-0.32 -0.092,0 -0.429,0.144 -0.75,0.32 M 19.271,33.756 c -0.058,0.149 -0.097,0.434 -0.087,0.633 0.011,0.228 0.067,0.147 0.154,-0.221 0.145,-0.62 0.106,-0.862 -0.067,-0.412 m 298.147,0.452 c -0.303,2.105 -0.005,30.943 0.323,31.244 0.313,0.288 0.316,0.287 0.083,-0.019 -0.206,-0.272 -0.241,-2.598 -0.241,-16.125 0,-8.695 -0.014,-15.808 -0.031,-15.808 -0.017,0 -0.077,0.319 -0.134,0.708 M 134.857,34.167 c -0.029,0.842 0.16,1.833 0.349,1.833 0.09,0 0.109,-0.131 0.043,-0.292 -0.066,-0.16 -0.177,-0.704 -0.246,-1.208 -0.095,-0.69 -0.131,-0.772 -0.146,-0.333 m 2.2,0.144 c -0.444,0.354 -0.994,0.859 -1.224,1.122 -0.257,0.294 -0.13,0.223 0.334,-0.188 0.412,-0.366 1.012,-0.869 1.333,-1.12 0.321,-0.25 0.534,-0.455 0.473,-0.456 -0.06,-0.002 -0.473,0.288 -0.916,0.642 m -58.439,0.198 c 0.052,0.407 0.122,0.772 0.155,0.81 0.136,0.157 0.043,-1.088 -0.097,-1.31 -0.099,-0.156 -0.12,0.02 -0.058,0.5 m 40.795,14.824 c 0,8.571 0.021,12.077 0.045,7.792 0.025,-4.285 0.025,-11.298 0,-15.583 -0.024,-4.286 -0.045,-0.78 -0.045,7.791 m 4.334,0.084 c 0,8.616 0.02,12.117 0.045,7.779 0.024,-4.338 0.024,-11.388 0,-15.667 -0.025,-4.278 -0.045,-0.729 -0.045,7.888 m 6.833,0 c 0,8.616 0.02,12.117 0.045,7.779 0.025,-4.338 0.025,-11.388 0,-15.667 -0.025,-4.278 -0.045,-0.729 -0.045,7.888 m 127.132,-14.75 c 0,0.412 0.033,0.581 0.072,0.375 0.04,-0.207 0.04,-0.544 0,-0.75 -0.039,-0.207 -0.072,-0.038 -0.072,0.375 m 65.694,-0.125 -0.489,0.541 0.541,-0.489 c 0.505,-0.456 0.619,-0.594 0.49,-0.594 -0.029,0 -0.273,0.244 -0.542,0.542 m 22.636,-0.114 c -0.787,0.471 -0.968,0.717 -0.25,0.339 0.503,-0.266 1.173,-0.754 1.041,-0.76 -0.046,-0.002 -0.402,0.187 -0.791,0.421 M 74.247,49.417 c 0,8.433 0.02,11.907 0.045,7.721 0.024,-4.187 0.024,-11.087 0,-15.334 -0.025,-4.246 -0.045,-0.821 -0.045,7.613 M 224.884,34.595 c 0.144,0.282 0.387,0.618 0.542,0.746 0.155,0.128 0.08,-0.063 -0.165,-0.424 -0.58,-0.855 -0.699,-0.957 -0.377,-0.322 M 63.69,34.5 c 0,0.137 0.065,0.4 0.143,0.583 0.091,0.21 0.144,0.241 0.144,0.084 0,-0.138 -0.065,-0.4 -0.144,-0.584 -0.09,-0.21 -0.143,-0.241 -0.143,-0.083 m 32.143,-0.023 c 0,0.092 0.156,0.217 0.346,0.277 0.189,0.06 0.864,0.611 1.5,1.224 0.635,0.612 1.154,1.072 1.154,1.021 0,-0.152 -1.873,-1.919 -2.458,-2.318 -0.298,-0.204 -0.542,-0.295 -0.542,-0.204 m 74.625,0.118 c -0.623,0.338 -0.585,0.479 0.042,0.155 0.275,-0.142 0.5,-0.294 0.5,-0.338 0,-0.107 -0.018,-0.101 -0.542,0.183 M 187.5,34.408 c 0,0.046 0.225,0.2 0.5,0.342 0.275,0.142 0.5,0.221 0.5,0.175 0,-0.046 -0.225,-0.199 -0.5,-0.342 -0.275,-0.142 -0.5,-0.221 -0.5,-0.175 m 175.333,-0.027 c 0,0.038 0.389,0.311 0.864,0.606 0.475,0.295 0.779,0.435 0.676,0.311 -0.196,-0.237 -1.54,-1.037 -1.54,-0.917 M 18.929,35.262 c -0.062,0.244 -0.08,0.476 -0.04,0.515 0.039,0.04 0.121,-0.128 0.182,-0.372 0.062,-0.244 0.08,-0.476 0.04,-0.516 -0.039,-0.039 -0.121,0.129 -0.182,0.373 m 49.407,-0.165 c 0.001,0.176 0.079,0.432 0.172,0.57 0.123,0.182 0.139,0.115 0.057,-0.25 -0.137,-0.613 -0.233,-0.746 -0.229,-0.32 m 11.036,0.408 C 79.073,35.777 78.89,36 78.966,36 c 0.076,0 0.354,-0.225 0.617,-0.5 0.613,-0.639 0.495,-0.637 -0.211,0.005 m 109.447,-0.286 c 0.256,0.324 1.181,1.02 1.181,0.89 0,-0.045 -0.319,-0.33 -0.708,-0.633 -0.39,-0.304 -0.603,-0.42 -0.473,-0.257 m 44.014,0.031 c 0.23,0.131 0.529,0.238 0.667,0.238 0.137,-10e-4 -0.002,-0.111 -0.311,-0.245 -0.71,-0.308 -0.9,-0.304 -0.356,0.007 m 53.25,0.181 -0.5,0.43 0.542,-0.359 c 0.298,-0.197 0.542,-0.39 0.542,-0.43 0,-0.125 -0.071,-0.081 -0.584,0.359 m 36.416,0.238 c -0.197,0.276 -0.427,0.459 -0.512,0.406 -0.084,-0.052 -0.154,-0.009 -0.154,0.096 0,0.104 0.088,0.161 0.194,0.125 0.211,-0.07 1.076,-1.129 0.922,-1.129 -0.051,0 -0.254,0.226 -0.45,0.502 M 153.673,35.525 c -0.003,0.06 0.237,0.361 0.535,0.669 0.298,0.308 0.79,0.86 1.094,1.225 0.39,0.47 0.451,0.51 0.209,0.139 -0.401,-0.612 -1.828,-2.192 -1.838,-2.033 m 104.16,0.082 c 0,0.185 0.624,0.893 0.786,0.893 0.058,0 -0.076,-0.206 -0.298,-0.458 -0.223,-0.252 -0.423,-0.49 -0.446,-0.528 -0.023,-0.038 -0.042,0.004 -0.042,0.093 m 85.267,1.076 c -0.703,0.657 -1.25,1.222 -1.216,1.256 0.034,0.034 0.505,-0.377 1.047,-0.913 0.542,-0.537 1.135,-1.057 1.318,-1.155 0.182,-0.099 0.286,-0.225 0.23,-0.28 -0.055,-0.056 -0.676,0.436 -1.379,1.092 m 21.567,-1.131 c 0,0.029 0.243,0.273 0.541,0.542 l 0.542,0.489 -0.49,-0.541 c -0.456,-0.505 -0.593,-0.619 -0.593,-0.49 M 23.262,36.095 c -0.061,0.244 -0.079,0.476 -0.04,0.516 0.039,0.039 0.121,-0.129 0.183,-0.373 0.061,-0.244 0.079,-0.476 0.04,-0.515 -0.039,-0.04 -0.122,0.128 -0.183,0.372 m 203.423,0.492 c 0.567,0.505 1.075,0.875 1.13,0.82 0.054,-0.054 -0.046,-0.18 -0.224,-0.279 -0.177,-0.1 -0.635,-0.469 -1.017,-0.821 -0.382,-0.352 -0.745,-0.64 -0.807,-0.64 -0.062,0 0.351,0.414 0.918,0.92 m 79.667,-0.545 c 0.04,0.023 0.634,0.566 1.319,1.208 l 1.246,1.167 -1.163,-1.209 C 307.115,36.544 306.522,36 306.435,36 c -0.086,0 -0.124,0.019 -0.083,0.042 m -138.904,0.926 c -0.43,0.436 -0.781,0.836 -0.781,0.889 0,0.052 0.376,-0.281 0.835,-0.74 0.459,-0.459 0.811,-0.859 0.782,-0.889 -0.03,-0.029 -0.406,0.303 -0.836,0.74 m 23.469,0.028 c 0.458,0.503 0.852,0.946 0.875,0.987 0.023,0.04 0.077,0.037 0.121,-0.007 0.043,-0.043 -0.351,-0.487 -0.875,-0.986 l -0.955,-0.907 0.834,0.913 M 86.628,36.454 c 0.3,0.037 0.75,0.036 1,-0.002 0.25,-0.038 0.005,-0.068 -0.545,-0.067 -0.55,0.001 -0.755,0.032 -0.455,0.069 m 56.414,-10e-4 c 0.252,0.038 0.664,0.038 0.916,0 0.252,-0.038 0.046,-0.07 -0.458,-0.07 -0.504,0 -0.71,0.032 -0.458,0.07 m 36.708,0.056 c 1.192,0.065 2.354,0.164 2.583,0.219 0.23,0.055 0.117,-0.006 -0.25,-0.135 -0.437,-0.153 -1.326,-0.229 -2.583,-0.218 l -1.917,0.015 2.167,0.119 m 93.181,-0.051 c -0.068,0.069 -1.074,0.167 -2.236,0.218 l -2.112,0.094 2,0.026 c 1.468,0.019 2.111,-0.038 2.417,-0.213 0.229,-0.131 0.335,-0.241 0.236,-0.244 -0.099,-0.003 -0.236,0.051 -0.305,0.119 m 22.277,-0.003 c 0.344,0.036 0.907,0.036 1.25,0 0.344,-0.036 0.063,-0.066 -0.625,-0.066 -0.687,0 -0.968,0.03 -0.625,0.066 m 34.336,-0.002 c 0.253,0.038 0.628,0.037 0.833,-0.002 0.205,-0.04 -0.002,-0.071 -0.46,-0.07 -0.459,10e-4 -0.626,0.034 -0.373,0.072 m 22.706,0.149 c -0.432,0.151 -0.491,0.197 -0.167,0.13 0.275,-0.056 1.475,-0.155 2.667,-0.22 l 2.167,-0.118 -2,-0.013 c -1.317,-0.008 -2.228,0.067 -2.667,0.221 M 18.591,37.258 c -0.064,0.425 -0.082,0.807 -0.04,0.848 0.041,0.042 0.128,-0.272 0.191,-0.697 0.064,-0.425 0.082,-0.807 0.041,-0.849 -0.042,-0.041 -0.128,0.272 -0.192,0.698 m 45.696,0.075 c 0.051,0.504 0.12,0.948 0.153,0.986 0.124,0.144 0.031,-1.25 -0.105,-1.569 -0.088,-0.207 -0.106,0.013 -0.048,0.583 M 85,36.667 c -0.335,0.107 -0.351,0.134 -0.083,0.138 0.183,0.003 0.483,-0.06 0.666,-0.138 0.425,-0.183 -0.013,-0.183 -0.583,0 m 3.181,-0.107 c 0.038,0.034 0.519,0.101 1.069,0.151 0.604,0.055 0.868,0.036 0.667,-0.048 -0.321,-0.134 -1.878,-0.226 -1.736,-0.103 m 52.986,0.107 c -0.561,0.179 0.045,0.179 0.75,0 0.449,-0.115 0.457,-0.128 0.083,-0.131 -0.229,-0.001 -0.604,0.057 -0.833,0.131 m 3.347,-0.107 c 0.038,0.033 0.519,0.102 1.069,0.153 0.622,0.058 0.843,0.042 0.584,-0.043 -0.412,-0.135 -1.788,-0.226 -1.653,-0.11 m 32.153,0.107 c -0.335,0.107 -0.352,0.134 -0.084,0.138 0.184,0.003 0.484,-0.06 0.667,-0.138 0.425,-0.183 -0.013,-0.183 -0.583,0 M 259,36.659 c 0.137,0.093 0.394,0.17 0.569,0.172 0.427,0.003 0.294,-0.092 -0.319,-0.229 -0.365,-0.082 -0.433,-0.066 -0.25,0.057 m 34.417,0.008 c -0.449,0.114 -0.458,0.127 -0.084,0.13 0.23,0.002 0.605,-0.057 0.834,-0.13 0.56,-0.18 -0.045,-0.18 -0.75,0 m 4.166,0 c 0.705,0.179 1.311,0.179 0.75,0 -0.229,-0.074 -0.604,-0.132 -0.833,-0.131 -0.374,0.003 -0.366,0.016 0.083,0.131 m 30.334,0 -0.334,0.143 h 0.334 c 0.183,0 0.483,-0.065 0.666,-0.143 l 0.334,-0.144 h -0.334 c -0.183,0 -0.483,0.065 -0.666,0.144 m 3.166,0 c 0.184,0.078 0.446,0.143 0.584,0.143 0.157,0 0.126,-0.053 -0.084,-0.143 -0.183,-0.079 -0.446,-0.144 -0.583,-0.144 -0.158,0 -0.127,0.053 0.083,0.144 m 26.084,-0.008 c 0.137,0.093 0.393,0.17 0.569,0.172 0.427,0.003 0.293,-0.092 -0.319,-0.229 -0.365,-0.082 -0.433,-0.066 -0.25,0.057 m 9.101,0.33 c 0.383,0.467 1,1.193 1.565,1.844 l 0.363,0.417 -0.362,-0.545 c -0.199,-0.3 -0.711,-0.904 -1.139,-1.344 -0.428,-0.439 -0.62,-0.607 -0.427,-0.372 M 68.706,37.083 c 0,0.275 0.057,0.725 0.127,1 l 0.128,0.5 v -0.5 c 0,-0.275 -0.058,-0.725 -0.128,-1 l -0.127,-0.5 v 0.5 m 191.838,-0.297 c 0.253,0.039 0.628,0.038 0.833,-0.002 0.205,-0.04 -0.002,-0.071 -0.46,-0.07 -0.459,0.002 -0.626,0.034 -0.373,0.072 m 6.584,10e-4 c 0.3,0.038 0.75,0.037 1,-10e-4 0.25,-0.038 0.005,-0.069 -0.545,-0.068 -0.55,10e-4 -0.755,0.032 -0.455,0.069 M 90.833,37 c 0.138,0.089 0.363,0.162 0.5,0.162 0.223,0 0.223,-0.018 0,-0.162 -0.137,-0.089 -0.362,-0.162 -0.5,-0.162 -0.222,0 -0.222,0.018 0,0.162 m 56.25,0 c 0.184,0.079 0.446,0.143 0.584,0.143 0.157,0 0.126,-0.053 -0.084,-0.143 -0.183,-0.079 -0.446,-0.143 -0.583,-0.143 -0.158,0 -0.127,0.053 0.083,0.143 m 91.264,-0.107 c 0.038,0.033 0.295,0.11 0.57,0.172 0.365,0.082 0.432,0.066 0.25,-0.057 -0.225,-0.153 -0.987,-0.259 -0.82,-0.115 m 23.564,9.274 c 0,5.179 0.021,7.298 0.047,4.708 0.026,-2.59 0.026,-6.827 0,-9.417 -0.026,-2.589 -0.047,-0.471 -0.047,4.709 m 4.5,0.083 c 0,5.225 0.021,7.338 0.047,4.696 0.026,-2.641 0.026,-6.916 0,-9.5 -0.026,-2.583 -0.047,-0.421 -0.047,4.804 M 291.917,37 c -0.21,0.09 -0.241,0.143 -0.084,0.143 0.138,0 0.4,-0.064 0.584,-0.143 0.21,-0.09 0.241,-0.143 0.083,-0.143 -0.138,0 -0.4,0.064 -0.583,0.143 m 40.708,0.389 c 0.62,0.551 1.324,0.932 1.124,0.609 -0.056,-0.091 -0.196,-0.165 -0.311,-0.165 -0.115,0 -0.425,-0.225 -0.688,-0.5 -0.263,-0.275 -0.54,-0.5 -0.615,-0.5 -0.075,0 0.146,0.25 0.49,0.556 m -309.58,0.278 c 0,0.412 0.033,0.581 0.073,0.375 0.039,-0.207 0.039,-0.544 0,-0.75 -0.04,-0.207 -0.073,-0.038 -0.073,0.375 m 59.58,-0.238 c -0.646,0.35 -0.573,0.471 0.083,0.137 0.629,-0.319 0.74,-0.402 0.528,-0.393 -0.084,0.004 -0.359,0.119 -0.611,0.256 m 157.458,-0.008 c 0.367,0.133 0.779,0.238 0.917,0.236 0.137,-0.003 -0.05,-0.113 -0.417,-0.245 -0.366,-0.132 -0.779,-0.238 -0.916,-0.236 -0.138,0.003 0.05,0.113 0.416,0.245 M 99.006,37.426 c 0.006,0.167 0.825,1.222 0.827,1.065 0,-0.051 -0.187,-0.347 -0.416,-0.658 -0.229,-0.31 -0.414,-0.494 -0.411,-0.407 m 49.827,0.149 c 0,0.046 0.225,0.199 0.5,0.342 0.275,0.142 0.5,0.221 0.5,0.175 0,-0.046 -0.225,-0.2 -0.5,-0.342 -0.275,-0.142 -0.5,-0.221 -0.5,-0.175 m 36.334,0.101 c 0.137,0.093 0.512,0.31 0.833,0.48 0.321,0.17 1.09,0.774 1.709,1.342 0.619,0.568 1.083,0.932 1.03,0.809 -0.138,-0.322 -2.141,-1.991 -2.92,-2.432 -0.667,-0.378 -1.115,-0.515 -0.652,-0.199 m 43,-0.001 c 0.578,0.392 0.907,0.506 0.5,0.173 -0.229,-0.187 -0.492,-0.341 -0.584,-0.342 -0.091,0 -0.054,0.075 0.084,0.169 m 96.89,0.467 c -0.444,0.354 -0.957,0.822 -1.14,1.041 -0.184,0.219 0.004,0.098 0.416,-0.269 0.413,-0.367 0.975,-0.833 1.25,-1.035 0.275,-0.203 0.451,-0.371 0.39,-0.374 -0.06,-0.003 -0.473,0.284 -0.916,0.637 m 23.048,0.188 c -0.7,0.456 -1.272,0.873 -1.272,0.925 0,0.052 0.344,-0.142 0.764,-0.431 0.42,-0.289 1.076,-0.704 1.458,-0.923 0.382,-0.218 0.611,-0.398 0.508,-0.399 -0.103,-0.001 -0.759,0.371 -1.458,0.828 M 241.583,37.833 c 0.057,0.092 0.268,0.162 0.469,0.155 0.352,-0.011 0.353,-0.017 0.031,-0.155 -0.458,-0.197 -0.622,-0.197 -0.5,0 m 41.385,0.465 c -0.717,0.794 -1.92,2.535 -1.751,2.535 0.038,0 0.345,-0.415 0.681,-0.922 0.337,-0.507 0.881,-1.219 1.21,-1.583 0.329,-0.364 0.56,-0.661 0.514,-0.661 -0.046,0 -0.34,0.284 -0.654,0.631 M 137.762,38.087 c -0.176,0.134 -0.288,0.276 -0.247,0.317 0.04,0.04 0.26,-0.07 0.487,-0.245 0.228,-0.175 0.34,-0.318 0.248,-0.317 -0.092,0.001 -0.311,0.111 -0.488,0.245 m 35.043,0.167 c -0.336,0.22 -0.66,0.479 -0.719,0.575 -0.082,0.132 1.111,-0.584 1.567,-0.941 0.307,-0.241 -0.365,0.049 -0.848,0.366 m 116.5,0 c -0.336,0.22 -0.66,0.479 -0.719,0.575 -0.082,0.132 1.111,-0.584 1.567,-0.941 0.307,-0.241 -0.365,0.049 -0.848,0.366 M 361,37.9 c 0,0.037 0.281,0.226 0.625,0.42 l 0.625,0.353 -0.5,-0.419 C 361.291,37.87 361,37.732 361,37.9 M 80.903,38.575 c -0.282,0.223 -0.796,0.766 -1.142,1.207 l -0.63,0.801 0.633,-0.666 c 0.348,-0.367 0.9,-0.908 1.226,-1.202 0.7,-0.631 0.646,-0.718 -0.087,-0.14 m 69.709,0.195 c 0.383,0.356 0.927,0.977 1.209,1.38 0.282,0.403 0.512,0.673 0.512,0.598 0,-0.279 -1.341,-1.897 -1.868,-2.253 -0.464,-0.314 -0.442,-0.272 0.147,0.275 m 5.254,-0.52 c 0.246,0.608 0.83,1.75 0.894,1.75 0.122,0 -0.381,-1.131 -0.687,-1.545 -0.151,-0.204 -0.244,-0.297 -0.207,-0.205 m 9.967,0.583 c -0.29,0.367 -0.49,0.667 -0.444,0.667 0.045,0 0.321,-0.3 0.611,-0.667 0.29,-0.366 0.491,-0.666 0.445,-0.666 -0.046,0 -0.321,0.3 -0.612,0.666 m 26.497,-0.171 c 0.194,0.272 0.437,0.547 0.541,0.611 0.104,0.065 -0.021,-0.158 -0.277,-0.494 -0.557,-0.731 -0.767,-0.824 -0.264,-0.117 m 37.17,-0.245 c 0.229,0.131 0.492,0.238 0.583,0.238 0.092,0 -0.02,-0.107 -0.25,-0.238 -0.229,-0.131 -0.491,-0.239 -0.583,-0.239 -0.092,0 0.021,0.108 0.25,0.239 m 111.335,0.875 c -0.456,0.618 -0.827,1.2 -0.823,1.291 0.004,0.092 0.097,0.026 0.206,-0.146 0.109,-0.173 0.517,-0.754 0.907,-1.292 0.389,-0.538 0.67,-0.978 0.624,-0.978 -0.046,0 -0.458,0.506 -0.914,1.125 M 22.887,39.5 c 0,0.596 0.03,0.84 0.067,0.542 0.037,-0.298 0.037,-0.786 0,-1.084 -0.037,-0.298 -0.067,-0.054 -0.067,0.542 m 71.128,-0.958 c 0.038,0.023 0.332,0.266 0.652,0.541 l 0.583,0.5 -0.49,-0.541 C 94.491,38.744 94.198,38.5 94.108,38.5 c -0.09,0 -0.132,0.019 -0.093,0.042 m 42.725,0.5 -0.49,0.541 0.542,-0.489 c 0.298,-0.269 0.541,-0.513 0.541,-0.542 0,-0.129 -0.137,-0.015 -0.593,0.49 m 166.427,-0.179 c 0.137,0.136 0.7,0.652 1.25,1.145 l 1,0.898 -0.75,-0.8 c -0.413,-0.44 -0.975,-0.955 -1.25,-1.145 -0.275,-0.191 -0.388,-0.235 -0.25,-0.098 m 60.59,1.345 c 0.634,0.711 1.18,1.292 1.213,1.292 0.112,0 -1.265,-1.576 -1.819,-2.083 -0.3,-0.275 -0.028,0.081 0.606,0.791 M 64.559,40.75 c 0,0.825 0.028,1.184 0.063,0.797 0.035,-0.387 0.035,-1.062 0.001,-1.5 -0.035,-0.438 -0.063,-0.122 -0.064,0.703 m 105.556,-0.292 c -0.612,0.619 -1.237,1.313 -1.389,1.542 -0.153,0.229 -0.206,0.342 -0.119,0.25 0.087,-0.092 0.749,-0.785 1.471,-1.542 1.578,-1.652 1.605,-1.835 0.037,-0.25 m 77.612,-0.874 c 0.608,0.317 0.763,0.319 0.347,0.005 -0.178,-0.135 -0.437,-0.247 -0.574,-0.249 -0.138,-0.003 -0.035,0.107 0.227,0.244 m 39.773,0.141 c -0.229,0.21 -0.603,0.601 -0.83,0.87 -0.228,0.269 -0.021,0.116 0.458,-0.339 0.789,-0.748 0.957,-0.933 0.83,-0.917 -0.023,0.002 -0.229,0.176 -0.458,0.386 m 22.513,0.411 c 0.295,0.475 0.568,0.864 0.606,0.864 0.12,0 -0.68,-1.343 -0.917,-1.54 -0.124,-0.103 0.016,0.201 0.311,0.676 m 35.738,-0.012 c -0.457,0.42 -0.747,0.733 -0.645,0.695 0.252,-0.093 1.605,-1.33 1.534,-1.402 -0.032,-0.031 -0.431,0.287 -0.889,0.707 M 135.776,39.971 c -0.304,0.336 -0.371,0.607 -0.11,0.446 0.174,-0.107 0.559,-0.75 0.449,-0.75 -0.035,0 -0.187,0.137 -0.339,0.304 m 28.909,0.581 c -0.711,1.242 -0.656,1.407 0.068,0.205 0.322,-0.535 0.555,-1.004 0.518,-1.042 -0.038,-0.037 -0.302,0.339 -0.586,0.837 m 158.378,-0.343 c -0.389,0.597 -0.703,1.228 -0.361,0.727 0.118,-0.173 0.39,-0.529 0.604,-0.792 0.215,-0.262 0.327,-0.477 0.25,-0.476 -0.076,0 -0.298,0.244 -0.493,0.541 M 235.014,40.06 c 0.038,0.033 0.294,0.11 0.569,0.172 0.365,0.081 0.433,0.066 0.25,-0.058 -0.225,-0.152 -0.986,-0.258 -0.819,-0.114 m 1.167,0.333 c 0.038,0.032 0.331,0.107 0.652,0.166 0.411,0.075 0.51,0.059 0.334,-0.057 -0.226,-0.148 -1.152,-0.251 -0.986,-0.109 M 78.885,40.875 c -0.074,0.115 -0.173,5.574 -0.218,12.132 -0.079,11.194 -0.102,11.953 -0.389,12.39 -0.167,0.256 -0.27,0.5 -0.227,0.543 0.043,0.042 0.236,-0.25 0.43,-0.651 0.348,-0.719 0.352,-0.858 0.352,-12.353 0,-7.694 0.059,-11.734 0.173,-11.947 0.19,-0.355 0.094,-0.446 -0.121,-0.114 m 56.135,0.417 c -0.15,0.468 -0.188,3.536 -0.151,12.208 l 0.05,11.583 0.04,-11.716 c 0.035,-10.122 0.076,-11.784 0.295,-12.209 0.14,-0.27 0.19,-0.491 0.11,-0.491 -0.079,0 -0.234,0.281 -0.344,0.625 m 54.162,-0.218 c 0.146,0.188 0.39,0.528 0.542,0.755 0.152,0.226 0.276,0.333 0.276,0.236 0,-0.097 -0.244,-0.437 -0.542,-0.755 -0.298,-0.319 -0.422,-0.425 -0.276,-0.236 m -88.337,0.041 c -0.006,0.201 0.063,0.412 0.155,0.468 0.197,0.122 0.197,-0.041 0,-0.5 -0.138,-0.321 -0.144,-0.32 -0.155,0.032 m 149.988,0.372 c 0.413,0.384 1.039,1.012 1.391,1.397 0.635,0.692 0.634,0.691 -0.053,-0.171 -0.381,-0.478 -1.007,-1.106 -1.391,-1.396 l -0.697,-0.527 0.75,0.697 m 118.334,-0.606 c 0,0.122 0.523,1.119 0.587,1.119 0.114,0 -0.285,-0.999 -0.437,-1.093 -0.083,-0.052 -0.15,-0.063 -0.15,-0.026 M 22.888,42.083 c 10e-4,0.642 0.031,0.884 0.067,0.538 0.036,-0.346 0.035,-0.871 -10e-4,-1.166 -0.037,-0.296 -0.067,-0.013 -0.066,0.628 m 282.96,-0.416 c 0.667,0.918 0.917,1.192 0.684,0.75 -0.096,-0.184 -0.412,-0.596 -0.702,-0.917 l -0.527,-0.583 0.545,0.75 m 38.503,-0.078 c -0.285,0.324 -0.518,0.639 -0.518,0.7 0,0.061 0.057,0.04 0.127,-0.047 0.069,-0.087 0.346,-0.402 0.614,-0.7 0.269,-0.298 0.445,-0.542 0.391,-0.542 -0.053,0 -0.33,0.265 -0.614,0.589 m -5.071,0.335 c -0.392,0.821 -0.337,0.961 0.073,0.185 0.186,-0.352 0.308,-0.67 0.272,-0.706 -0.036,-0.036 -0.191,0.199 -0.345,0.521 m -238.102,0.423 c 0.007,0.222 0.08,0.553 0.163,0.736 0.105,0.233 0.12,0.132 0.05,-0.333 -0.118,-0.774 -0.23,-0.985 -0.213,-0.403 M 369.845,42.25 c 0,0.092 0.107,0.354 0.238,0.583 0.131,0.23 0.239,0.342 0.239,0.25 0,-0.091 -0.108,-0.354 -0.239,-0.583 -0.131,-0.229 -0.238,-0.342 -0.238,-0.25 m -47.908,0.34 c -0.057,0.149 -0.094,0.546 -0.081,0.882 0.019,0.546 0.035,0.523 0.142,-0.222 0.128,-0.887 0.108,-1.101 -0.061,-0.66 M 96.768,42.917 c 0.137,0.612 0.233,0.746 0.229,0.319 -0.001,-0.176 -0.078,-0.432 -0.171,-0.569 -0.124,-0.183 -0.139,-0.115 -0.058,0.25 m 148.303,0.007 c 0.451,0.224 0.844,0.384 0.872,0.355 0.081,-0.081 -1.282,-0.78 -1.5,-0.77 -0.106,0.005 0.176,0.192 0.628,0.415 m -92.068,0.007 c 0.001,0.175 0.078,0.431 0.171,0.569 0.124,0.183 0.139,0.115 0.058,-0.25 -0.137,-0.613 -0.233,-0.746 -0.229,-0.319 m 41.837,0.008 c -0.004,0.104 0.103,0.442 0.237,0.75 0.134,0.309 0.246,0.476 0.25,0.372 0.003,-0.104 -0.103,-0.442 -0.237,-0.75 -0.134,-0.309 -0.247,-0.476 -0.25,-0.372 m 111.827,-0.091 c 0,0.049 0.15,0.4 0.333,0.779 0.183,0.38 0.333,0.781 0.333,0.893 0,0.111 0.048,0.155 0.106,0.096 0.117,-0.116 -0.207,-1.014 -0.552,-1.528 -0.121,-0.181 -0.22,-0.289 -0.22,-0.24 M 157.7,43.5 c 0,0.229 0.06,0.604 0.133,0.833 l 0.134,0.417 v -0.417 c 0,-0.229 -0.06,-0.604 -0.134,-0.833 L 157.7,43.083 V 43.5 M 23.042,43.917 c 0.002,0.366 0.036,0.497 0.076,0.289 0.04,-0.207 0.038,-0.507 -0.003,-0.666 -0.042,-0.16 -0.075,0.01 -0.073,0.377 m 41.333,0 c 0.002,0.366 0.036,0.497 0.076,0.289 0.04,-0.207 0.039,-0.507 -0.003,-0.666 -0.042,-0.16 -0.074,0.01 -0.073,0.377 m 4.406,-0.246 c -0.06,0.227 -0.103,0.6 -0.095,0.829 0.01,0.299 0.057,0.232 0.168,-0.239 0.169,-0.722 0.104,-1.251 -0.073,-0.59 m 99.844,-0.22 c 0.206,0.04 0.544,0.04 0.75,0 0.206,-0.04 0.037,-0.072 -0.375,-0.072 -0.413,0 -0.581,0.032 -0.375,0.072 m 6.595,0.007 c 2.459,0.026 6.434,0.026 8.833,0 2.4,-0.026 0.389,-0.047 -4.47,-0.047 -4.858,0 -6.821,0.021 -4.363,0.047 m 136.528,0.209 c 0.056,0.229 0.21,0.814 0.343,1.299 0.133,0.486 0.248,1.049 0.255,1.25 0.008,0.221 0.05,0.275 0.105,0.137 0.108,-0.272 -0.249,-1.888 -0.575,-2.603 -0.184,-0.405 -0.209,-0.421 -0.128,-0.083 m 33.21,-0.216 c 0.207,0.04 0.544,0.04 0.75,0 0.207,-0.04 0.038,-0.072 -0.375,-0.072 -0.412,0 -0.581,0.032 -0.375,0.072 m 5.428,0.007 c 2.184,0.027 5.709,0.027 7.834,0 2.125,-0.026 0.338,-0.048 -3.97,-0.048 -4.308,0 -6.047,0.022 -3.864,0.048 m 12.491,-0.005 c 0.254,0.038 0.629,0.037 0.834,-0.002 0.205,-0.04 -0.003,-0.071 -0.461,-0.07 -0.458,10e-4 -0.626,0.034 -0.373,0.072 m 7.461,0.047 c 0,0.137 0.073,0.362 0.162,0.5 0.144,0.222 0.162,0.222 0.162,0 0,-0.138 -0.073,-0.363 -0.162,-0.5 -0.144,-0.222 -0.162,-0.222 -0.162,0 M 101.55,44.333 c 0,0.504 0.031,0.711 0.069,0.459 0.039,-0.252 0.039,-0.665 0,-0.917 -0.038,-0.252 -0.069,-0.046 -0.069,0.458 M 18.609,44.25 c 0.056,0.367 0.129,0.698 0.163,0.736 0.126,0.143 0.032,-0.749 -0.113,-1.069 -0.105,-0.233 -0.12,-0.132 -0.05,0.333 m 265.751,0.007 c -0.106,0.234 -0.19,0.516 -0.187,0.626 0.004,0.11 0.117,-0.055 0.253,-0.367 0.285,-0.656 0.224,-0.895 -0.066,-0.259 m -187.238,0.66 c 0.05,0.55 0.118,1.031 0.151,1.069 0.123,0.142 0.032,-1.415 -0.102,-1.736 -0.084,-0.201 -0.103,0.063 -0.049,0.667 m 56.257,-0.25 c 0,0.412 0.032,0.581 0.072,0.375 0.04,-0.207 0.04,-0.544 0,-0.75 -0.04,-0.207 -0.072,-0.038 -0.072,0.375 m 94.279,-0.124 c 0.316,0.343 0.64,0.624 0.72,0.624 0.153,0 0.013,-0.145 -0.802,-0.832 -0.425,-0.358 -0.414,-0.33 0.082,0.208 m 90.613,0.213 c -0.058,0.149 -0.098,0.396 -0.09,0.549 0.008,0.153 0.08,0.057 0.161,-0.213 0.157,-0.526 0.102,-0.787 -0.071,-0.336 m -58.751,0.077 c -0.013,0.138 -0.066,0.438 -0.117,0.667 -0.08,0.36 -0.067,0.376 0.096,0.12 0.105,-0.163 0.157,-0.463 0.118,-0.666 -0.039,-0.204 -0.083,-0.258 -0.097,-0.121 M 23.19,45 c 0,0.137 0.065,0.4 0.143,0.583 0.091,0.21 0.144,0.241 0.144,0.084 0,-0.138 -0.065,-0.4 -0.144,-0.584 C 23.243,44.873 23.19,44.842 23.19,45 m 260.747,0.423 c -0.057,0.149 -0.097,0.396 -0.089,0.549 0.008,0.153 0.08,0.057 0.161,-0.214 0.157,-0.526 0.101,-0.786 -0.072,-0.335 m -35.088,0.317 c 0.146,0.189 0.39,0.529 0.542,0.755 0.151,0.227 0.276,0.333 0.276,0.237 0,-0.097 -0.244,-0.437 -0.542,-0.756 -0.298,-0.318 -0.422,-0.424 -0.276,-0.236 M 68.438,46.021 c -0.139,0.695 -0.005,0.829 0.145,0.146 0.064,-0.288 0.081,-0.559 0.038,-0.601 -0.042,-0.043 -0.125,0.162 -0.183,0.455 m 85.14,8.896 c 0,5.133 0.021,7.257 0.047,4.72 0.026,-2.537 0.026,-6.737 0,-9.333 -0.026,-2.597 -0.047,-0.521 -0.047,4.613 m 9.115,-8.813 c -0.014,0.287 -0.064,0.774 -0.109,1.084 l -0.083,0.562 0.175,-0.559 c 0.097,-0.307 0.146,-0.795 0.11,-1.083 l -0.066,-0.525 -0.027,0.521 m -60.948,8.979 c 0,5.134 0.021,7.258 0.047,4.721 0.025,-2.538 0.025,-6.738 0,-9.334 -0.026,-2.596 -0.047,-0.52 -0.047,4.613 m 236.179,-8.492 c -0.064,0.425 -0.078,0.81 -0.032,0.856 0.045,0.046 0.135,-0.264 0.199,-0.689 0.064,-0.426 0.078,-0.811 0.032,-0.857 -0.045,-0.046 -0.135,0.265 -0.199,0.69 m -83.748,-0.508 c -0.003,0.092 0.104,0.467 0.236,0.834 0.132,0.366 0.243,0.544 0.247,0.394 0.004,-0.15 -0.102,-0.525 -0.236,-0.834 -0.134,-0.308 -0.245,-0.485 -0.247,-0.394 m 53.765,0.417 c 0.132,0.719 0.227,0.854 0.223,0.319 -10e-4,-0.221 -0.076,-0.515 -0.166,-0.652 -0.116,-0.176 -0.132,-0.077 -0.057,0.333 m 62.835,-0.126 c -0.273,1.086 0.404,1.034 -14.602,1.128 l -13.591,0.085 13.5,0.039 c 13.111,0.038 13.516,0.03 14.031,-0.284 0.568,-0.346 0.949,-0.902 0.842,-1.225 -0.037,-0.109 -0.118,0.007 -0.18,0.257 m -91.564,0.459 c 0,0.413 0.033,0.582 0.072,0.375 0.04,-0.206 0.04,-0.543 0,-0.75 -0.039,-0.206 -0.072,-0.037 -0.072,0.375 m 4.393,0.182 c -0.058,0.29 -0.095,0.836 -0.083,1.214 0.016,0.508 0.057,0.384 0.156,-0.475 0.143,-1.23 0.104,-1.622 -0.073,-0.739 m 28.937,0.402 c 0.002,0.366 0.036,0.497 0.076,0.289 0.04,-0.207 0.038,-0.507 -0.003,-0.666 -0.042,-0.16 -0.075,0.01 -0.073,0.377 M 19.195,47.25 c -0.003,0.183 0.06,0.483 0.138,0.667 0.183,0.424 0.183,-0.014 0,-0.584 -0.107,-0.335 -0.134,-0.351 -0.138,-0.083 m 154.847,0.375 c 3.735,0.025 9.848,0.025 13.583,0 3.735,-0.025 0.679,-0.046 -6.792,-0.046 -7.471,0 -10.527,0.021 -6.791,0.046 m 168.23,0.417 c -0.135,0.502 -0.115,2.216 0.035,3.041 0.079,0.436 0.119,-0.04 0.116,-1.374 -0.007,-2.226 -0.006,-2.211 -0.151,-1.667 m -63.216,1.125 c 0,0.687 0.029,0.968 0.065,0.625 0.036,-0.344 0.036,-0.907 0,-1.25 -0.036,-0.344 -0.065,-0.063 -0.065,0.625 m 29.162,-0.084 c 10e-4,0.55 0.032,0.755 0.069,0.456 0.038,-0.3 0.037,-0.75 -10e-4,-1 -0.038,-0.251 -0.069,-0.006 -0.068,0.544 M 19.507,48.439 c -0.004,0.104 0.103,0.442 0.236,0.75 0.134,0.309 0.247,0.476 0.25,0.372 0.004,-0.104 -0.103,-0.442 -0.236,-0.75 -0.134,-0.309 -0.247,-0.476 -0.25,-0.372 m 230.841,0.228 c 0.005,0.137 0.073,0.4 0.152,0.583 l 0.143,0.333 0.009,-0.333 c 0.005,-0.183 -0.063,-0.446 -0.152,-0.583 -0.144,-0.223 -0.161,-0.223 -0.152,0 m 62.361,0.416 c 0.002,0.367 0.036,0.497 0.076,0.29 0.039,-0.207 0.038,-0.507 -0.004,-0.667 -0.042,-0.159 -0.074,0.011 -0.072,0.377 m -145.837,0.25 c 0,0.321 0.034,0.452 0.076,0.292 0.042,-0.16 0.042,-0.423 0,-0.583 -0.042,-0.161 -0.076,-0.03 -0.076,0.291 m -4.497,0.25 c 0.002,0.367 0.036,0.497 0.076,0.29 0.04,-0.207 0.039,-0.507 -0.003,-0.667 -0.042,-0.159 -0.074,0.011 -0.073,0.377 M 67.36,49.757 c -0.106,0.234 -0.19,0.516 -0.187,0.626 0.004,0.11 0.117,-0.055 0.253,-0.367 0.285,-0.656 0.224,-0.895 -0.066,-0.259 m 90.717,6.993 c 0,4.125 0.021,5.789 0.048,3.697 0.026,-2.092 0.026,-5.467 0,-7.5 -0.027,-2.033 -0.048,-0.322 -0.048,3.803 m 96.971,-6.667 c 0.001,0.459 0.033,0.626 0.072,0.373 0.038,-0.253 0.037,-0.628 -0.003,-0.833 -0.039,-0.205 -0.071,0.002 -0.069,0.46 m 28.469,0.098 c 0.009,0.496 0.075,1.09 0.146,1.319 0.074,0.235 0.093,-0.128 0.044,-0.833 -0.102,-1.481 -0.214,-1.765 -0.19,-0.486 M 24.84,50.167 c 0.002,0.137 0.114,0.395 0.249,0.573 0.314,0.416 0.312,0.262 -0.005,-0.346 -0.137,-0.263 -0.247,-0.365 -0.244,-0.227 m 287.705,0.5 c 0,0.412 0.033,0.581 0.073,0.375 0.039,-0.207 0.039,-0.544 0,-0.75 -0.04,-0.207 -0.073,-0.038 -0.073,0.375 m -61.824,0.916 c 0.001,0.642 0.031,0.884 0.067,0.538 0.036,-0.346 0.036,-0.871 -0.001,-1.166 -0.037,-0.296 -0.066,-0.013 -0.066,0.628 M 66.75,51.276 c -0.14,0.334 -0.216,0.647 -0.169,0.694 0.047,0.047 0.086,0.045 0.086,-0.005 0,-0.05 0.113,-0.363 0.252,-0.695 0.139,-0.332 0.215,-0.603 0.169,-0.603 -0.046,0 -0.198,0.274 -0.338,0.609 m 100.295,0.057 c 0,0.413 0.033,0.582 0.073,0.375 0.039,-0.206 0.039,-0.543 0,-0.75 -0.04,-0.206 -0.073,-0.037 -0.073,0.375 M 279.212,51.5 c 0,0.413 0.033,0.581 0.072,0.375 0.04,-0.206 0.04,-0.544 0,-0.75 -0.039,-0.206 -0.072,-0.038 -0.072,0.375 m -24.007,0 c 0,0.321 0.035,0.452 0.077,0.292 0.041,-0.161 0.041,-0.423 0,-0.584 -0.042,-0.16 -0.077,-0.029 -0.077,0.292 M 162.617,52 c 0.052,0.504 0.122,0.948 0.156,0.986 0.116,0.134 0.026,-1.073 -0.112,-1.486 -0.09,-0.269 -0.105,-0.092 -0.044,0.5 M 337.85,51.597 c 0.009,0.268 0.08,0.674 0.158,0.903 0.096,0.281 0.11,0.145 0.046,-0.417 -0.109,-0.937 -0.229,-1.225 -0.204,-0.486 m -29.924,0.496 c -0.063,0.334 -0.081,0.641 -0.04,0.682 0.041,0.041 0.125,-0.2 0.188,-0.534 0.063,-0.335 0.081,-0.642 0.04,-0.682 -0.041,-0.041 -0.125,0.199 -0.188,0.534 M 61.097,52.625 c -0.34,0.527 -0.475,0.808 -0.299,0.625 0.345,-0.361 1.109,-1.583 0.989,-1.583 -0.04,0 -0.351,0.431 -0.69,0.958 M 26,52.22 c 0,0.216 1.274,2.024 1.607,2.282 0.241,0.185 0.232,0.147 -0.043,-0.174 C 27.371,54.102 26.939,53.505 26.606,53.002 26.273,52.499 26,52.147 26,52.22 m 229.042,0.53 c 0.002,0.367 0.036,0.497 0.076,0.29 0.04,-0.208 0.038,-0.508 -0.003,-0.667 -0.042,-0.159 -0.075,0.01 -0.073,0.377 m 28.794,-0.319 c 10e-4,0.175 0.079,0.431 0.172,0.569 0.123,0.183 0.139,0.115 0.057,-0.25 -0.137,-0.613 -0.233,-0.746 -0.229,-0.319 m 58.687,-0.098 c 0,0.138 0.065,0.4 0.144,0.584 0.09,0.21 0.143,0.241 0.143,0.083 0,-0.138 -0.065,-0.4 -0.143,-0.583 -0.091,-0.21 -0.144,-0.241 -0.144,-0.084 M 279.362,52.5 c 0.008,0.433 0.271,1.144 0.276,0.75 0.003,-0.183 -0.059,-0.483 -0.138,-0.667 -0.088,-0.204 -0.141,-0.236 -0.138,-0.083 M 21.333,52.866 c 0,0.191 1.048,1.808 1.124,1.733 0.039,-0.039 -0.198,-0.47 -0.527,-0.958 -0.328,-0.488 -0.597,-0.836 -0.597,-0.775 m 44.192,0.812 c -0.506,0.814 -0.681,1.226 -0.38,0.897 0.22,-0.241 1.064,-1.742 0.979,-1.742 -0.041,0 -0.31,0.38 -0.599,0.845 M 254.69,54.44 c -0.118,0.509 -0.183,0.955 -0.146,0.993 0.038,0.038 0.168,-0.344 0.289,-0.85 0.122,-0.505 0.187,-0.952 0.146,-0.992 -0.04,-0.041 -0.17,0.341 -0.289,0.849 M 59.785,54.407 c -0.34,0.407 -0.618,0.784 -0.618,0.839 0,0.092 0.632,-0.617 1.149,-1.288 0.462,-0.599 0.065,-0.264 -0.531,0.449 m 163.698,0.473 c -0.722,0.485 -1.147,1.565 -0.845,2.148 l 0.202,0.389 -0.082,-0.427 c -0.234,-1.22 0.515,-2.144 1.894,-2.338 l 0.765,-0.107 -0.684,-0.023 c -0.464,-0.015 -0.866,0.1 -1.25,0.358 M 23.326,55.958 c 0.477,0.665 0.905,1.209 0.952,1.209 0.111,0 -1.076,-1.659 -1.492,-2.084 -0.18,-0.183 0.064,0.211 0.54,0.875 M 64.643,55.125 C 64.164,55.704 63.961,56 64.043,56 c 0.046,0 0.284,-0.263 0.529,-0.583 0.454,-0.596 0.509,-0.82 0.071,-0.292 m 161.386,-0.119 c 0.153,0.09 0.557,0.481 0.898,0.87 0.34,0.389 0.519,0.557 0.396,0.374 -0.388,-0.582 -1.215,-1.417 -1.397,-1.412 -0.097,0.003 -0.051,0.079 0.103,0.168 M 28.513,55.617 c 0.501,0.56 0.569,0.627 1.581,1.548 0.453,0.412 0.224,0.131 -0.507,-0.625 -1.266,-1.308 -1.934,-1.881 -1.074,-0.923 m 139.84,-0.075 c 0.494,0.937 1.525,2.279 2.335,3.041 0.884,0.831 0.884,0.831 -0.119,-0.25 -0.553,-0.596 -1.293,-1.552 -1.644,-2.125 -0.623,-1.015 -0.969,-1.418 -0.572,-0.666 m 116.651,-0.084 c 0.002,0.069 0.156,0.313 0.343,0.542 l 0.34,0.417 -0.265,-0.542 c -0.251,-0.515 -0.426,-0.69 -0.418,-0.417 M 57.746,56.701 c -0.811,0.838 -0.911,0.977 -0.329,0.459 0.782,-0.698 1.68,-1.66 1.55,-1.66 -0.033,0 -0.582,0.541 -1.221,1.201 m 105.759,-1.143 c -0.007,0.192 1.357,2.802 1.428,2.731 0.031,-0.03 -0.277,-0.689 -0.684,-1.464 -0.406,-0.775 -0.741,-1.345 -0.744,-1.267 m 27.706,0.062 c 0.253,0.038 0.628,0.037 0.833,-0.003 0.205,-0.039 -0.002,-0.071 -0.461,-0.069 -0.458,10e-4 -0.626,0.033 -0.372,0.072 m 115.593,0.554 c -0.154,0.363 -0.249,0.659 -0.213,0.659 0.123,0 0.597,-1.02 0.544,-1.17 -0.028,-0.081 -0.177,0.149 -0.331,0.511 m 37.043,-0.507 c -0.006,0.137 0.181,0.475 0.418,0.75 l 0.429,0.5 -0.323,-0.5 c -0.178,-0.275 -0.366,-0.613 -0.417,-0.75 -0.084,-0.223 -0.096,-0.223 -0.107,0 m 22.697,-0.047 c 0.253,0.038 0.628,0.037 0.833,-0.003 0.205,-0.039 -0.002,-0.071 -0.46,-0.069 -0.459,10e-4 -0.626,0.033 -0.373,0.072 m -173.627,0.307 c 0.183,0.137 0.463,0.416 0.621,0.62 0.158,0.203 0.29,0.286 0.292,0.184 0.004,-0.242 -0.821,-1.066 -1.061,-1.059 -0.102,0.003 -0.036,0.118 0.148,0.255 m 56.17,0.54 c -0.267,0.431 -1.089,1.42 -1.826,2.2 -0.803,0.85 -0.98,1.083 -0.441,0.583 1.465,-1.361 3.018,-3.301 2.809,-3.51 -0.031,-0.031 -0.274,0.297 -0.542,0.727 m 12.942,-0.55 c -0.005,0.183 0.052,0.633 0.128,1 0.116,0.56 0.138,0.587 0.137,0.166 0,-0.583 -0.249,-1.679 -0.265,-1.166 m 103.471,0 c -0.116,0.139 -0.134,0.25 -0.041,0.25 0.092,0 0.26,-0.113 0.374,-0.25 0.116,-0.14 0.134,-0.25 0.041,-0.25 -0.092,0 -0.26,0.112 -0.374,0.25 m -98.997,1.014 c 0.001,0.267 0.074,0.598 0.161,0.736 0.109,0.17 0.127,0.037 0.058,-0.417 -0.127,-0.824 -0.223,-0.964 -0.219,-0.319 M 227.5,56.719 c 0,0.029 0.239,0.272 0.531,0.541 l 0.531,0.49 -0.406,-0.532 C 227.811,56.765 227.5,56.529 227.5,56.719 m -38.55,0.823 c -0.452,0.611 -0.757,1.138 -0.507,0.875 0.309,-0.325 1.073,-1.417 0.991,-1.417 -0.046,0 -0.264,0.244 -0.484,0.542 m 155.877,-0.23 c 0.165,0.299 2.673,2.813 2.673,2.68 0,-0.046 -0.635,-0.729 -1.412,-1.518 -0.776,-0.788 -1.344,-1.312 -1.261,-1.162 m -91.41,0.355 c -0.143,0.275 -0.221,0.5 -0.176,0.5 0.046,0 0.2,-0.225 0.342,-0.5 0.143,-0.275 0.221,-0.5 0.176,-0.5 -0.046,0 -0.2,0.225 -0.342,0.5 M 281,57.232 c 0,0.221 1.984,3.036 2.374,3.368 0.366,0.313 0.368,0.313 0.123,-0.017 -0.136,-0.183 -0.296,-0.371 -0.356,-0.416 -0.059,-0.046 -0.566,-0.754 -1.125,-1.573 C 281.457,57.774 281,57.162 281,57.232 m 24.795,0.672 c -0.251,0.314 -0.908,0.888 -1.461,1.275 -0.553,0.388 -0.971,0.739 -0.931,0.78 0.155,0.155 2.498,-1.811 2.783,-2.334 0.242,-0.444 0.112,-0.351 -0.391,0.279 m 4.079,0.527 c -0.39,0.588 -0.674,1.069 -0.631,1.069 0.112,0 1.465,-2.015 1.397,-2.082 -0.031,-0.031 -0.376,0.425 -0.766,1.013 m -22.541,0.152 c 0.591,0.596 1.112,1.084 1.157,1.084 0.046,0 -0.399,-0.488 -0.99,-1.084 -0.591,-0.596 -1.111,-1.083 -1.157,-1.083 -0.046,0 0.4,0.487 0.99,1.083 M 25.27,58.375 c 0.356,0.39 1.134,1.156 1.73,1.703 0.63,0.578 0.387,0.281 -0.58,-0.709 -1.696,-1.735 -2.318,-2.273 -1.15,-0.994 m 35.503,1.179 c -0.995,1.006 -1.595,1.673 -1.333,1.482 0.62,-0.449 3.52,-3.378 3.307,-3.34 -0.09,0.017 -0.978,0.853 -1.974,1.858 m 302.571,-0.842 c -0.613,0.703 -0.702,0.85 -0.277,0.455 0.56,-0.52 1.375,-1.507 1.236,-1.496 -0.029,0.002 -0.46,0.47 -0.959,1.041 M 31,57.923 c 0,0.137 0.703,0.712 1.402,1.147 0.62,0.386 0.448,0.208 -0.61,-0.631 C 31.356,58.094 31,57.861 31,57.923 m 24.75,0.533 -0.667,0.591 0.667,-0.469 c 0.857,-0.603 0.817,-0.567 0.736,-0.646 -0.038,-0.037 -0.369,0.198 -0.736,0.524 M 228.5,57.892 c 0,0.032 0.469,0.453 1.042,0.936 l 1.041,0.878 -0.973,-0.937 c -0.901,-0.866 -1.11,-1.031 -1.11,-0.877 M 262.357,58 c 0,0.137 0.064,0.4 0.143,0.583 0.09,0.21 0.143,0.241 0.143,0.084 0,-0.138 -0.064,-0.4 -0.143,-0.584 -0.09,-0.21 -0.143,-0.241 -0.143,-0.083 M 340,57.928 c 0,0.053 0.217,0.409 0.482,0.792 0.557,0.804 2.185,2.685 2.185,2.525 0,-0.06 -0.381,-0.533 -0.847,-1.052 -0.465,-0.518 -1.035,-1.262 -1.266,-1.651 C 340.163,57.881 340,57.7 340,57.928 m 28.789,0.448 -0.294,0.541 0.336,-0.394 c 0.286,-0.335 0.438,-0.692 0.294,-0.689 -0.023,10e-4 -0.174,0.245 -0.336,0.542 M 165.33,58.995 c 0.515,0.724 0.764,0.811 0.308,0.109 -0.213,-0.33 -0.449,-0.601 -0.524,-0.602 -0.075,-0.001 0.022,0.221 0.216,0.493 m 27.9,-0.287 c -0.573,0.974 -0.611,1.057 -0.319,0.709 0.339,-0.404 0.631,-0.917 0.521,-0.917 -0.043,0 -0.134,0.094 -0.202,0.208 m -6.063,0.816 -0.917,0.846 0.874,-0.7 c 0.767,-0.614 1.173,-1.015 1.011,-0.998 -0.028,0.003 -0.464,0.386 -0.968,0.852 m 180.751,0.184 c -0.253,0.39 -0.652,0.915 -0.887,1.167 -0.235,0.252 -0.356,0.456 -0.271,0.453 0.22,-0.007 1.912,-2.328 1.698,-2.328 -0.044,0 -0.287,0.319 -0.54,0.708 M 251.853,60 c -0.294,0.367 -0.476,0.665 -0.403,0.663 0.132,-0.003 1.134,-1.33 1.005,-1.33 -0.036,0 -0.307,0.3 -0.602,0.667 M 172,59.783 c 0.001,0.222 2.505,1.717 2.875,1.717 0.11,0 -0.249,-0.232 -0.796,-0.514 -0.548,-0.283 -1.239,-0.7 -1.537,-0.926 C 172.244,59.835 172,59.71 172,59.783 m 136.511,0.435 -0.406,0.532 0.531,-0.49 c 0.552,-0.509 0.615,-0.6 0.406,-0.584 -0.069,0.005 -0.308,0.249 -0.531,0.542 m -141.344,0.843 c 1.216,1.263 3.167,2.894 3.165,2.646 0,-0.068 -0.282,-0.311 -0.625,-0.54 -0.343,-0.229 -1.336,-1.089 -2.207,-1.91 l -1.583,-1.494 1.25,1.298 m -133,-0.97 c 0,0.136 2.749,1.411 3.024,1.402 0.124,-0.004 -0.187,-0.179 -0.691,-0.39 -0.504,-0.211 -1.235,-0.547 -1.625,-0.746 -0.39,-0.2 -0.708,-0.32 -0.708,-0.266 m 18.75,0.114 c -0.184,0.108 -0.896,0.442 -1.584,0.743 -0.687,0.301 -1.148,0.549 -1.024,0.55 0.277,0.002 3.024,-1.273 3.024,-1.404 0,-0.124 -0.026,-0.117 -0.416,0.111 m 172.496,0.624 c 0.449,0.457 0.841,0.805 0.872,0.775 0.067,-0.067 -1.458,-1.604 -1.592,-1.604 -0.054,0 0.271,0.373 0.72,0.829 m 122.254,-0.787 c 0,0.106 1.29,0.958 1.45,0.958 0.068,0 -0.024,-0.101 -0.205,-0.224 -0.795,-0.543 -1.245,-0.808 -1.245,-0.734 m -84.653,0.208 c 0,0.092 0.144,0.429 0.319,0.75 0.176,0.321 0.32,0.508 0.32,0.417 0,-0.092 -0.144,-0.43 -0.32,-0.75 -0.175,-0.321 -0.319,-0.509 -0.319,-0.417 m 4.784,0.167 c 0.094,0.183 0.385,0.52 0.645,0.749 l 0.474,0.416 -0.499,-0.583 c -0.79,-0.923 -0.801,-0.933 -0.62,-0.582 m -82.173,0.178 c -0.623,0.338 -0.585,0.479 0.042,0.155 0.275,-0.142 0.5,-0.294 0.5,-0.338 0,-0.107 -0.018,-0.101 -0.542,0.183 m 45.958,-0.118 c 0.258,0.255 2.438,1.379 2.566,1.323 0.063,-0.028 -0.526,-0.374 -1.309,-0.769 -0.783,-0.395 -1.348,-0.645 -1.257,-0.554 M 289.5,60.408 c 0,0.046 0.225,0.2 0.5,0.342 0.275,0.142 0.5,0.221 0.5,0.175 0,-0.046 -0.225,-0.199 -0.5,-0.342 -0.275,-0.142 -0.5,-0.221 -0.5,-0.175 m 12.333,0.342 c -0.412,0.221 -0.69,0.405 -0.618,0.409 0.177,0.01 1.452,-0.645 1.452,-0.746 0,-0.11 0.007,-0.113 -0.834,0.337 m -57.916,0.344 c -0.459,0.221 -0.737,0.403 -0.619,0.404 0.245,0.002 1.535,-0.629 1.535,-0.751 0,-0.101 0.065,-0.125 -0.916,0.347 m 6.631,0.41 c -0.386,0.365 -0.645,0.663 -0.575,0.663 0.069,0 0.419,-0.3 0.777,-0.667 0.838,-0.858 0.708,-0.855 -0.202,0.004 m 56.613,0.288 -0.911,0.958 0.958,-0.911 c 0.891,-0.846 1.035,-1.006 0.911,-1.006 -0.026,0 -0.457,0.432 -0.958,0.959 M 28.293,61.193 c 0.233,0.29 2.207,1.706 2.207,1.583 0,-0.067 -0.595,-0.525 -2.082,-1.601 -0.3,-0.217 -0.313,-0.215 -0.125,0.018 m 262.374,-0.088 c 0,0.116 1.535,0.744 1.691,0.692 0.076,-0.026 -0.273,-0.209 -0.776,-0.407 -0.504,-0.198 -0.915,-0.326 -0.915,-0.285 m 58.907,0.136 c 0.177,0.142 0.44,0.253 0.583,0.246 0.224,-0.012 0.226,-0.026 0.01,-0.106 -0.138,-0.051 -0.4,-0.162 -0.584,-0.246 -0.328,-0.151 -0.328,-0.149 -0.009,0.106 m -158.407,0.342 c -0.215,0.228 -0.359,0.444 -0.32,0.478 0.038,0.034 0.244,-0.153 0.457,-0.416 0.478,-0.589 0.393,-0.627 -0.137,-0.062 M 58.498,61.585 c -0.114,0.139 -0.761,0.596 -1.437,1.017 -0.675,0.421 -1.228,0.802 -1.228,0.846 0,0.089 0.901,-0.44 1.927,-1.131 0.634,-0.427 1.217,-0.984 1.031,-0.984 -0.046,0 -0.178,0.114 -0.293,0.252 m 125.169,-0.002 c -0.545,0.311 -0.354,0.315 0.356,0.007 0.308,-0.134 0.448,-0.244 0.31,-0.244 -0.137,-10e-4 -0.437,0.106 -0.666,0.237 m 92.083,-0.126 c 0.458,0.035 0.905,0.133 0.992,0.22 0.087,0.086 0.237,0.154 0.333,0.151 0.096,-0.003 0.029,-0.115 -0.149,-0.25 -0.201,-0.152 -0.641,-0.233 -1.166,-0.215 l -0.843,0.03 0.833,0.064 m 24,0.132 c -0.673,0.309 -0.271,0.309 0.439,0.001 0.309,-0.134 0.448,-0.24 0.311,-0.237 -0.138,0.004 -0.475,0.11 -0.75,0.236 m 43.583,0.307 c 0.655,0.714 3,2.45 3,2.221 0,-0.038 -0.426,-0.353 -0.947,-0.699 -0.521,-0.346 -1.328,-0.973 -1.792,-1.394 -0.725,-0.656 -0.762,-0.675 -0.261,-0.128 m -79.314,0.435 c 0.205,0.366 0.401,0.638 0.434,0.605 0.072,-0.072 -0.617,-1.269 -0.73,-1.269 -0.043,0 0.09,0.299 0.296,0.664 M 48,62 47.583,62.133 48.032,62.15 C 48.279,62.159 48.527,62.092 48.583,62 48.7,61.811 48.592,61.811 48,62 m 128.25,0 c 0.057,0.092 0.267,0.161 0.468,0.155 0.352,-0.011 0.353,-0.017 0.032,-0.155 -0.459,-0.197 -0.622,-0.197 -0.5,0 M 293,61.992 c 0.137,0.093 0.394,0.171 0.569,0.172 0.427,0.004 0.294,-0.092 -0.319,-0.229 -0.365,-0.082 -0.433,-0.066 -0.25,0.057 M 298.25,62 c -0.321,0.138 -0.32,0.144 0.032,0.155 0.201,0.006 0.411,-0.063 0.468,-0.155 0.122,-0.197 -0.041,-0.197 -0.5,0 m 53.333,0 c 0.057,0.092 0.268,0.161 0.469,0.155 0.352,-0.011 0.353,-0.017 0.031,-0.155 -0.458,-0.197 -0.622,-0.197 -0.5,0 m -65.967,0.801 c 0.888,0.735 1.713,1.319 1.301,0.92 C 286.439,63.259 284.865,62 284.765,62 c -0.064,0 0.32,0.36 0.851,0.801 m 79.467,0.158 c -0.55,0.519 -0.85,0.837 -0.666,0.706 0.526,-0.376 1.915,-1.666 1.784,-1.657 -0.065,0.004 -0.568,0.432 -1.118,0.951 M 40.917,62.328 c 0.315,0.141 1.717,0.24 1.569,0.111 -0.038,-0.033 -0.482,-0.106 -0.986,-0.161 -0.599,-0.065 -0.801,-0.048 -0.583,0.05 m 4.5,0.005 -1,0.111 0.916,0.011 c 0.504,0.007 1.105,-0.048 1.334,-0.122 0.505,-0.162 0.213,-0.162 -1.25,0 m 132.715,0.03 c 0.37,0.147 2.331,0.138 2.868,-0.014 0.229,-0.064 -0.386,-0.113 -1.368,-0.108 -0.981,0.005 -1.656,0.06 -1.5,0.122 m 11.535,0.671 c -0.505,0.469 -0.692,0.697 -0.417,0.508 0.474,-0.327 1.561,-1.384 1.406,-1.368 -0.04,0.004 -0.485,0.391 -0.989,0.86 m 46.426,-0.685 c 0.051,0.083 0.401,0.151 0.778,0.151 0.846,0 0.776,-0.091 -0.163,-0.211 -0.404,-0.052 -0.668,-0.026 -0.615,0.06 m 3.407,-0.016 -0.75,0.117 0.667,0.013 c 0.366,0.008 0.816,-0.051 1,-0.13 0.386,-0.166 0.15,-0.166 -0.917,0 m 31.625,-0.049 c 0.206,0.04 0.544,0.04 0.75,0 0.206,-0.039 0.037,-0.072 -0.375,-0.072 -0.413,0 -0.581,0.033 -0.375,0.072 m 24.252,0.002 c 0.254,0.039 0.629,0.038 0.834,-0.002 0.205,-0.04 -0.003,-0.071 -0.461,-0.07 -0.458,0.002 -0.626,0.034 -0.373,0.072 m 58.155,0.072 c 0.526,0.149 2.481,0.146 2.861,-0.003 0.17,-0.067 -0.491,-0.118 -1.469,-0.113 -0.977,0.004 -1.604,0.057 -1.392,0.116 m -104.615,0.589 c -0.669,0.603 -0.411,0.475 0.471,-0.235 0.259,-0.208 0.409,-0.376 0.333,-0.372 -0.076,0.003 -0.438,0.276 -0.804,0.607 m -21.25,-0.22 c 0,0.046 0.225,0.244 0.5,0.44 0.275,0.195 0.5,0.318 0.5,0.272 0,-0.045 -0.225,-0.243 -0.5,-0.439 -0.275,-0.196 -0.5,-0.319 -0.5,-0.273 m 78.083,0.209 c -0.183,0.142 -0.479,0.362 -0.657,0.49 -0.177,0.128 -0.29,0.265 -0.25,0.305 0.041,0.039 0.374,-0.183 0.74,-0.494 0.67,-0.568 0.789,-0.784 0.167,-0.301 M 30.667,62.901 c 0,0.033 0.187,0.184 0.416,0.334 0.23,0.15 0.417,0.208 0.417,0.129 0,-0.079 -0.187,-0.229 -0.417,-0.334 -0.229,-0.104 -0.416,-0.162 -0.416,-0.129 m 247.187,0.349 c -0.014,0.183 -0.064,0.521 -0.111,0.75 l -0.086,0.417 0.179,-0.409 c 0.098,-0.225 0.148,-0.563 0.111,-0.75 -0.067,-0.333 -0.069,-0.333 -0.093,-0.008 m -12.953,0.417 c 0.464,0.58 1.721,1.671 1.914,1.661 0.056,-0.003 -0.048,-0.117 -0.232,-0.253 -0.183,-0.136 -0.741,-0.639 -1.241,-1.119 -0.61,-0.587 -0.754,-0.681 -0.441,-0.289 m -35.976,-0.016 c 0.087,0.084 0.683,0.425 1.325,0.759 1.292,0.672 1.178,0.551 -0.312,-0.331 -0.967,-0.572 -1.32,-0.721 -1.013,-0.428 m -58.258,0.357 c 0.578,0.393 0.907,0.507 0.5,0.174 -0.229,-0.188 -0.492,-0.342 -0.584,-0.342 -0.091,-0.001 -0.054,0.075 0.084,0.168 m 133.602,-0.039 c -0.046,0.075 -0.426,0.312 -0.844,0.527 -0.418,0.215 -0.731,0.42 -0.696,0.456 0.067,0.066 1.092,-0.476 1.683,-0.889 0.181,-0.126 0.242,-0.23 0.135,-0.23 -0.107,0 -0.232,0.061 -0.278,0.136 M 33.333,64.417 c 0.23,0.131 0.492,0.238 0.584,0.238 0.091,0 -0.021,-0.107 -0.25,-0.238 -0.229,-0.131 -0.492,-0.239 -0.584,-0.239 -0.091,0 0.021,0.108 0.25,0.239 m 20.5,0 c -0.229,0.131 -0.341,0.238 -0.25,0.238 0.092,0 0.355,-0.107 0.584,-0.238 0.229,-0.131 0.341,-0.239 0.25,-0.239 -0.092,0 -0.354,0.108 -0.584,0.239 m 192.46,0.127 c -0.344,0.191 -0.596,0.375 -0.562,0.41 0.055,0.054 1.232,-0.544 1.422,-0.722 0.186,-0.176 -0.305,0.002 -0.86,0.312 m 41.374,-0.303 c 0,0.046 0.225,0.2 0.5,0.342 0.275,0.143 0.5,0.221 0.5,0.176 0,-0.046 -0.225,-0.2 -0.5,-0.342 -0.275,-0.143 -0.5,-0.221 -0.5,-0.176 m -186.153,0.592 c -0.035,0.593 -0.371,0.966 -1.116,1.239 -0.357,0.131 -0.513,0.243 -0.348,0.25 0.8,0.031 1.741,-0.923 1.569,-1.592 -0.062,-0.242 -0.086,-0.219 -0.105,0.103 m -4.17,0.033 c -0.006,0.155 0.158,0.459 0.364,0.675 0.207,0.215 0.286,0.274 0.176,0.13 -0.11,-0.143 -0.274,-0.447 -0.365,-0.674 -0.109,-0.275 -0.168,-0.319 -0.175,-0.131 m -23.01,0.025 c -0.003,0.565 1.312,1.685 1.618,1.379 0.036,-0.036 -0.162,-0.144 -0.44,-0.241 -0.278,-0.097 -0.656,-0.424 -0.841,-0.727 -0.185,-0.304 -0.337,-0.489 -0.337,-0.411 m 98.333,0.192 c 0.229,0.131 0.491,0.239 0.583,0.239 0.092,0 -0.021,-0.108 -0.25,-0.239 -0.229,-0.131 -0.492,-0.238 -0.583,-0.238 -0.092,0 0.021,0.107 0.25,0.238 m 116.5,0 c 0.229,0.131 0.491,0.239 0.583,0.239 0.092,0 -0.021,-0.108 -0.25,-0.239 -0.229,-0.131 -0.492,-0.238 -0.583,-0.238 -0.092,0 0.021,0.107 0.25,0.238 m 32.216,0.354 c -0.202,0.31 -0.298,0.563 -0.213,0.563 0.155,0 0.736,-0.989 0.634,-1.079 -0.03,-0.026 -0.219,0.206 -0.421,0.516 M 348,65.083 c 0.229,0.131 0.492,0.239 0.583,0.239 0.092,0 -0.02,-0.108 -0.25,-0.239 -0.229,-0.131 -0.491,-0.238 -0.583,-0.238 -0.092,0 0.021,0.107 0.25,0.238 M 108.333,65.12 c 0,0.097 0.155,0.353 0.344,0.57 l 0.343,0.393 -0.293,-0.5 c -0.385,-0.658 -0.394,-0.668 -0.394,-0.463 m 11.167,0 c 0,0.097 0.154,0.353 0.343,0.57 l 0.343,0.393 -0.292,-0.5 C 119.508,64.925 119.5,64.915 119.5,65.12 m 156.958,0.142 c -0.623,0.338 -0.585,0.479 0.042,0.155 0.275,-0.143 0.5,-0.294 0.5,-0.338 0,-0.107 -0.018,-0.101 -0.542,0.183 m 25.209,0.071 c -0.321,0.176 -0.509,0.32 -0.417,0.32 0.092,0 0.429,-0.144 0.75,-0.32 0.321,-0.175 0.508,-0.319 0.417,-0.319 -0.092,0 -0.43,0.144 -0.75,0.319 m -167.248,0.287 -0.293,0.463 0.386,-0.37 c 0.213,-0.204 0.344,-0.412 0.293,-0.464 -0.051,-0.051 -0.225,0.116 -0.386,0.371 m -95.586,0.547 c 0.643,0.205 0.985,0.205 0.667,0 -0.138,-0.089 -0.437,-0.156 -0.667,-0.148 l -0.416,0.014 0.416,0.134 m 9.25,0.007 c -0.232,0.106 -0.131,0.121 0.334,0.05 0.366,-0.056 0.698,-0.129 0.736,-0.163 0.143,-0.126 -0.75,-0.032 -1.07,0.113 m 50.334,-0.007 c 0.056,0.091 0.267,0.161 0.468,0.155 0.352,-0.012 0.353,-0.017 0.032,-0.155 -0.459,-0.197 -0.622,-0.197 -0.5,0 m 10.916,0 c 0.138,0.089 0.363,0.161 0.5,0.161 0.223,0 0.223,-0.018 0,-0.161 -0.137,-0.089 -0.362,-0.162 -0.5,-0.162 -0.222,0 -0.222,0.018 0,0.162 M 120.5,66.159 c 0.138,0.093 0.394,0.17 0.569,0.172 0.427,0.003 0.294,-0.092 -0.319,-0.229 -0.365,-0.082 -0.433,-0.066 -0.25,0.057 m 1.667,0.008 c -0.344,0.11 -0.358,0.136 -0.084,0.147 0.184,0.008 0.446,-0.058 0.584,-0.147 0.292,-0.189 0.089,-0.189 -0.5,0 m 34.25,0 c -0.322,0.138 -0.321,0.143 0.031,0.155 0.201,0.006 0.412,-0.064 0.469,-0.155 0.122,-0.197 -0.042,-0.197 -0.5,0 m 19.583,0 c 0.57,0.182 1.008,0.182 0.583,0 -0.183,-0.079 -0.483,-0.141 -0.666,-0.139 -0.268,0.004 -0.252,0.031 0.083,0.139 m 6.583,0.007 c -0.232,0.106 -0.131,0.121 0.334,0.05 0.366,-0.056 0.698,-0.129 0.736,-0.163 0.143,-0.126 -0.75,-0.032 -1.07,0.113 m 59.25,0 c -0.182,0.124 -0.115,0.139 0.25,0.058 0.613,-0.137 0.746,-0.233 0.32,-0.229 -0.176,0.001 -0.432,0.078 -0.57,0.171 m 26.75,-0.007 c 0.459,0.197 0.622,0.197 0.5,0 -0.056,-0.092 -0.267,-0.162 -0.468,-0.155 -0.352,0.011 -0.353,0.017 -0.032,0.155 m 4.917,0 c -0.331,0.214 0.085,0.214 0.583,0 l 0.334,-0.144 -0.334,-0.009 c -0.183,-0.005 -0.446,0.064 -0.583,0.153 m 19,0 c 0.57,0.182 1.008,0.182 0.583,0 -0.183,-0.079 -0.483,-0.141 -0.666,-0.139 -0.268,0.004 -0.252,0.031 0.083,0.139 m 6.25,0 c -0.425,0.182 0.013,0.182 0.583,0 0.335,-0.108 0.352,-0.135 0.084,-0.139 -0.184,-0.002 -0.484,0.06 -0.667,0.139 m 19.75,0 c 0.137,0.089 0.4,0.157 0.583,0.152 l 0.334,-0.009 -0.334,-0.143 c -0.498,-0.214 -0.914,-0.214 -0.583,0 m 1.667,0 c -0.223,0.143 -0.223,0.161 0,0.161 0.137,0 0.362,-0.072 0.5,-0.161 0.222,-0.144 0.222,-0.162 0,-0.162 -0.138,0 -0.363,0.073 -0.5,0.162 m 31.166,0 c 0.57,0.182 1.008,0.182 0.584,0 -0.184,-0.079 -0.484,-0.141 -0.667,-0.139 -0.268,0.004 -0.252,0.031 0.083,0.139 m 6.5,0.008 c -0.179,0.122 -0.061,0.139 0.417,0.059 0.827,-0.138 0.96,-0.235 0.319,-0.231 -0.267,0.001 -0.598,0.079 -0.736,0.172 M 40.544,66.453 c 0.253,0.038 0.628,0.037 0.833,-0.002 0.205,-0.04 -0.002,-0.071 -0.46,-0.07 -0.459,0.001 -0.626,0.034 -0.373,0.072 m 5.916,-0.002 c 0.208,0.04 0.508,0.039 0.667,-0.003 0.159,-0.042 -0.01,-0.074 -0.377,-0.073 -0.367,0.002 -0.497,0.036 -0.29,0.076 m 131.998,0.006 c 0.665,0.032 1.752,0.032 2.417,0 0.665,-0.032 0.121,-0.057 -1.208,-0.057 -1.329,0 -1.873,0.025 -1.209,0.057 m 57.417,-0.004 c 0.252,0.038 0.665,0.038 0.917,0 0.252,-0.038 0.046,-0.07 -0.459,-0.07 -0.504,0 -0.71,0.032 -0.458,0.07 m 4.336,0 c 0.253,0.038 0.628,0.037 0.833,-0.002 0.205,-0.04 -0.002,-0.071 -0.461,-0.07 -0.458,0.001 -0.626,0.034 -0.372,0.072 m 30.247,0.003 c 0.482,0.034 1.269,0.034 1.75,0 0.482,-0.033 0.088,-0.061 -0.875,-0.061 -0.962,0 -1.356,0.028 -0.875,0.061 m 24.25,10e-4 c 0.619,0.032 1.632,0.032 2.25,0 0.619,-0.032 0.113,-0.058 -1.125,-0.058 -1.237,0 -1.743,0.026 -1.125,0.058 m 59.084,0 c 0.664,0.032 1.752,0.032 2.416,0 0.665,-0.032 0.121,-0.057 -1.208,-0.057 -1.329,0 -1.873,0.025 -1.208,0.057 m -311,0.166 c 0.481,0.034 1.268,0.034 1.75,0 0.481,-0.034 0.087,-0.061 -0.875,-0.061 -0.963,0 -1.357,0.027 -0.875,0.061 m 195,-0.002 c 0.298,0.037 0.785,0.037 1.083,0 0.298,-0.037 0.054,-0.068 -0.542,-0.068 -0.596,0 -0.839,0.031 -0.541,0.068"
         id="path2"
         inkscape:connector-curvature="0"
         style="fill:#747474;fill-rule:evenodd;stroke:none" />
      <path
         d="m 112.748,39.25 c 0,13.933 0.02,19.609 0.044,12.612 0.024,-6.997 0.024,-18.397 0,-25.333 -0.024,-6.937 -0.044,-1.212 -0.044,12.721 M 45.294,14.951 c 0.207,0.04 0.507,0.039 0.666,-0.003 0.16,-0.042 -0.01,-0.074 -0.377,-0.073 -0.366,0.002 -0.497,0.036 -0.289,0.076 m 182.415,13.466 c 0.002,0.366 0.036,0.497 0.076,0.289 0.039,-0.207 0.038,-0.507 -0.004,-0.666 -0.042,-0.16 -0.074,0.01 -0.072,0.377 m -95.167,4.031 c 0.16,0.042 0.423,0.042 0.583,0 0.16,-0.042 0.029,-0.076 -0.292,-0.076 -0.321,0 -0.452,0.034 -0.291,0.076 m -8.629,16.969 c 0,8.341 0.021,11.729 0.045,7.529 0.025,-4.201 0.025,-11.026 0,-15.167 -0.025,-4.141 -0.045,-0.704 -0.045,7.638 m 212.792,-13.25 c 0,0.32 0.035,0.452 0.077,0.291 0.041,-0.16 0.041,-0.423 0,-0.583 -0.042,-0.16 -0.077,-0.029 -0.077,0.292 m -267.645,4.5 c 0,0.87 0.028,1.227 0.063,0.791 0.034,-0.435 0.034,-1.148 0,-1.583 -0.035,-0.435 -0.063,-0.079 -0.063,0.792 m -50.671,0.166 c 0,0.688 0.03,0.969 0.066,0.625 0.036,-0.343 0.036,-0.906 0,-1.25 -0.036,-0.343 -0.066,-0.062 -0.066,0.625 m 303.523,13.334 c 0,5.637 0.021,7.943 0.046,5.125 0.026,-2.819 0.026,-7.432 0,-10.25 -0.025,-2.819 -0.046,-0.513 -0.046,5.125 M 158.065,47.25 c 0,1.192 0.027,1.657 0.059,1.035 0.032,-0.623 0.032,-1.598 -0.001,-2.167 -0.032,-0.569 -0.059,-0.06 -0.058,1.132 M 97.212,46.667 c 0,0.412 0.033,0.581 0.072,0.375 0.04,-0.207 0.04,-0.544 0,-0.75 -0.039,-0.207 -0.072,-0.038 -0.072,0.375 M 312.705,48 c 0,0.321 0.035,0.452 0.077,0.292 0.041,-0.161 0.041,-0.423 0,-0.584 -0.042,-0.16 -0.077,-0.029 -0.077,0.292 m -150.33,0.417 c 0.002,0.366 0.036,0.497 0.076,0.289 0.04,-0.207 0.039,-0.507 -0.003,-0.666 -0.042,-0.16 -0.074,0.01 -0.073,0.377 m -65.132,7.5 c 0,4.125 0.022,5.788 0.049,3.697 0.026,-2.092 0.026,-5.467 -0.001,-7.5 -0.026,-2.034 -0.048,-0.322 -0.048,3.803 m 240.475,-6.5 c 10e-4,0.55 0.032,0.755 0.069,0.455 0.038,-0.3 0.037,-0.75 -10e-4,-1 -0.038,-0.25 -0.069,-0.005 -0.068,0.545 m -25.009,0.833 c 0.002,0.367 0.036,0.497 0.076,0.29 0.039,-0.208 0.038,-0.508 -0.004,-0.667 -0.042,-0.159 -0.074,0.01 -0.072,0.377 m 50.449,8.542 -0.575,0.625 0.625,-0.575 c 0.582,-0.534 0.702,-0.675 0.575,-0.675 -0.028,0 -0.309,0.281 -0.625,0.625 m -302,0.666 -0.575,0.625 0.625,-0.574 c 0.344,-0.316 0.625,-0.597 0.625,-0.625 0,-0.127 -0.141,-0.007 -0.675,0.574 m 117.55,2.824 c 0.161,0.041 0.423,0.041 0.584,0 0.16,-0.042 0.029,-0.077 -0.292,-0.077 -0.321,0 -0.452,0.035 -0.292,0.077 m -135.75,0.172 c 0.298,0.037 0.786,0.037 1.084,0 0.298,-0.037 0.054,-0.067 -0.542,-0.067 -0.596,0 -0.84,0.03 -0.542,0.067 m 194.834,-0.003 c 0.206,0.04 0.543,0.04 0.75,0 0.206,-0.04 0.037,-0.072 -0.375,-0.072 -0.413,0 -0.582,0.032 -0.375,0.072"
         id="path3"
         inkscape:connector-curvature="0"
         style="fill:#7c7c7c;fill-rule:evenodd;stroke:none" />
      <g
         inkscape:transform-center-y="142.18966"
         inkscape:transform-center-x="-97.756301"
         style="fill:#000000;stroke:#000000;stroke-width:221.1590271;stroke-miterlimit:4;stroke-dasharray:none;stroke-opacity:1"
         transform="matrix(0.00955465,-2.0461368e-4,-2.5171287e-4,-0.00857099,78.064608,126.53304)"
         id="g1451">
        <path
           inkscape:connector-curvature="0"
           d="m 13360,21794 c -525,-63 -968,-280 -1374,-674 -585,-568 -986,-1405 -1092,-2280 -21,-180 -29,-552 -15,-765 34,-521 133,-872 326,-1160 283,-423 594,-649 836,-606 66,11 91,25 83,46 -4,9 -31,14 -88,17 -71,3 -92,8 -157,40 -273,136 -581,648 -683,1133 -99,475 -111,938 -35,1320 24,118 116,434 194,664 176,518 397,953 635,1246 86,107 345,365 450,449 270,215 544,355 810,412 127,28 361,25 500,-5 336,-72 582,-202 806,-425 273,-274 429,-615 505,-1107 20,-123 23,-186 23,-434 1,-307 -8,-425 -50,-675 -74,-437 -255,-978 -470,-1410 -202,-403 -394,-645 -644,-812 -107,-71 -335,-180 -475,-228 -153,-52 -277,-84 -600,-155 -143,-31 -266,-62 -272,-67 -7,-6 -13,-21 -13,-33 0,-31 15,-41 80,-53 213,-42 473,-12 777,89 305,102 546,241 723,418 570,571 1026,1540 1137,2416 22,175 25,617 5,775 -72,569 -253,952 -626,1325 -280,279 -571,448 -896,520 -73,16 -325,28 -400,19 z"
           id="path2-5"
           style="stroke:#000000;stroke-width:221.1590271;stroke-miterlimit:4;stroke-dasharray:none;stroke-opacity:1" />
        <path
           inkscape:connector-curvature="0"
           d="m 20005,20394 c -16,-2 -79,-9 -140,-15 -268,-27 -584,-90 -942,-190 -818,-228 -1350,-471 -1813,-827 -510,-393 -888,-828 -1119,-1290 -86,-172 -131,-283 -211,-529 -88,-269 -143,-476 -174,-663 -28,-165 -32,-215 -46,-500 -11,-209 -29,-353 -56,-448 -13,-48 -31,-69 -217,-256 -204,-205 -285,-276 -433,-379 l -82,-57 -258,-50 c -414,-81 -693,-139 -1629,-340 -896,-192 -1303,-275 -1311,-267 -2,2 22,22 53,44 331,233 586,629 741,1153 70,235 209,870 196,891 -32,52 -80,-98 -199,-621 -131,-576 -339,-978 -661,-1279 -65,-61 -224,-187 -270,-214 -19,-11 -420,-74 -644,-102 -231,-28 -489,-51 -693,-61 l -137,-7 19,44 c 33,73 68,209 81,309 33,253 -46,551 -216,817 -106,167 -293,382 -479,554 -92,85 -111,108 -115,137 -6,40 -27,54 -32,21 -3,-19 -16,-10 -111,70 -60,50 -112,91 -116,91 -28,0 -8,-28 96,-132 l 118,-118 -24,-68 c -99,-285 -393,-480 -826,-547 -448,-69 -1130,29 -1613,231 -510,214 -1046,667 -1286,1089 -103,181 -163,359 -203,600 -14,85 -18,166 -18,360 0,219 3,263 22,361 53,260 145,439 302,586 157,148 408,243 742,279 127,14 393,6 539,-16 529,-79 1126,-349 1669,-755 221,-165 331,-259 476,-404 159,-160 269,-308 351,-471 143,-289 161,-555 57,-856 -41,-120 -40,-150 7,-169 27,-11 34,-10 69,13 53,36 154,164 195,250 53,109 69,191 63,322 -12,286 -188,594 -538,944 -352,351 -827,680 -1386,960 -760,380 -1402,504 -1889,365 -561,-160 -914,-710 -914,-1424 0,-481 156,-914 475,-1315 83,-104 286,-306 405,-402 201,-163 496,-345 698,-433 268,-116 682,-219 1072,-266 200,-25 582,-25 735,-1 311,49 501,132 656,286 71,70 94,101 127,171 40,85 72,192 72,243 0,15 4,27 9,27 16,0 310,-310 398,-420 203,-252 306,-476 334,-724 20,-179 -12,-374 -86,-531 l -35,-73 -518,-5 c -456,-4 -549,-7 -787,-30 -148,-14 -342,-32 -430,-39 -200,-16 -751,-16 -1265,0 -1755,56 -2107,96 -3933,452 -312,60 -576,110 -587,110 -50,0 -10,-19 103,-48 67,-18 253,-66 412,-108 1339,-349 2023,-453 3395,-514 1026,-46 1552,-52 1905,-21 l 100,8 51,-39 c 200,-151 461,-249 708,-266 222,-15 390,14 561,98 113,55 200,122 268,208 l 47,58 192,12 c 251,15 476,37 718,69 107,14 226,27 263,29 38,2 73,6 78,9 5,3 138,28 296,55 379,64 655,120 1443,290 972,210 1271,271 1290,265 23,-7 199,27 305,60 46,14 178,43 292,64 2210,415 3816,447 5308,105 195,-45 502,-131 689,-194 140,-46 166,-51 166,-30 0,16 -339,142 -600,221 -776,238 -1571,348 -2504,349 -216,0 -335,4 -325,10 40,24 425,172 516,199 175,52 443,100 743,133 149,17 793,16 995,0 888,-74 1585,-231 2338,-526 605,-237 1109,-500 1718,-897 263,-171 474,-297 907,-539 199,-112 360,-205 358,-207 -2,-2 -26,5 -55,16 -162,65 -608,183 -904,240 -508,99 -801,130 -1703,181 -589,33 -837,51 -1104,80 -280,31 -359,38 -835,70 -830,56 -1184,105 -1565,216 -227,66 -379,128 -810,331 -472,223 -698,308 -942,358 -205,41 -538,54 -538,20 0,-8 31,-14 98,-19 210,-14 435,-68 663,-157 74,-29 309,-140 523,-246 540,-269 679,-328 951,-402 384,-106 746,-158 1520,-221 204,-17 483,-41 620,-55 343,-34 684,-60 1185,-90 1184,-70 1649,-126 2180,-261 323,-81 565,-164 876,-300 706,-307 696,-303 719,-284 8,7 15,18 15,25 0,12 -129,112 -205,159 -16,10 -90,62 -163,114 -178,126 -409,274 -737,472 -148,89 -387,242 -530,338 -632,427 -813,546 -1010,664 -882,528 -1591,805 -2555,998 -524,105 -953,150 -1425,150 -385,0 -671,-27 -1010,-95 -432,-86 -797,-224 -1170,-441 l -91,-52 -149,-11 c -529,-41 -1106,-112 -1689,-210 -132,-23 -241,-39 -242,-38 -2,2 36,31 84,65 129,91 302,252 435,405 119,135 119,135 170,142 124,16 287,70 439,145 133,67 557,314 648,378 126,90 349,308 476,466 127,158 226,300 664,951 189,281 389,572 444,649 362,498 685,818 1101,1091 253,167 469,280 1040,547 l 320,150 130,-10 c 141,-10 168,-5 163,31 -3,19 -15,25 -83,39 -222,48 -360,61 -680,63 -170,2 -323,1 -340,-1 z m 310,-183 c -657,-223 -1202,-563 -1685,-1051 -298,-300 -478,-542 -770,-1035 -156,-262 -630,-996 -729,-1129 -162,-215 -236,-285 -536,-500 -416,-299 -800,-538 -899,-562 -25,-6 -8,17 115,152 338,374 408,469 702,947 49,79 120,186 158,238 78,106 84,117 74,127 -11,11 -222,-213 -347,-370 -63,-79 -204,-262 -313,-408 -109,-146 -227,-301 -263,-345 -100,-122 -215,-255 -218,-252 -2,2 6,36 16,77 29,112 46,211 80,464 46,344 98,572 200,876 221,663 551,1165 1030,1567 848,712 2017,1159 3270,1252 58,5 146,9 195,9 l 90,1 z M 9710,14209 c -312,-279 -791,-336 -1208,-143 -70,32 -217,123 -210,130 4,3 419,41 518,47 30,2 255,4 500,5 l 445,1 z"
           id="path4-6"
           style="stroke:#000000;stroke-width:221.1590271;stroke-miterlimit:4;stroke-dasharray:none;stroke-opacity:1" />
        <path
           inkscape:connector-curvature="0"
           d="m 12403,17109 c -130,-22 -258,-93 -355,-198 -155,-167 -122,-354 86,-476 56,-33 75,-24 26,13 -96,72 -140,140 -140,217 0,135 175,271 375,291 82,9 153,-9 209,-52 51,-39 122,-141 166,-240 17,-38 37,-72 43,-76 24,-15 56,-7 76,18 18,22 21,41 21,114 0,124 -20,178 -93,257 -69,74 -151,118 -247,133 -74,11 -94,11 -167,-1 z"
           id="path6"
           style="stroke:#000000;stroke-width:221.1590271;stroke-miterlimit:4;stroke-dasharray:none;stroke-opacity:1" />
        <path
           inkscape:connector-curvature="0"
           d="m 8819,16827 c -158,-54 -271,-195 -314,-391 -52,-234 57,-416 247,-416 39,0 149,27 161,39 5,5 -29,7 -76,4 -109,-7 -149,1 -192,38 -51,45 -68,101 -63,202 4,70 10,96 41,160 40,85 108,161 172,192 67,33 176,27 304,-18 98,-34 106,-35 123,-20 31,28 22,57 -34,109 -69,65 -111,90 -183,109 -78,20 -107,19 -186,-8 z"
           id="path8"
           style="stroke:#000000;stroke-width:221.1590271;stroke-miterlimit:4;stroke-dasharray:none;stroke-opacity:1" />
      </g>
    </g>
  </g>
</svg>
